<svg xmlns="http://www.w3.org/2000/svg" width="64" height="64" xmlns:v="https://vecta.io/nano"><path fill="#c195d6" d="M31.519 13.207c-.88 0-1.922-.516-2.317-1.148l-1.77-2.884c-.393-.631-1.435-1.147-2.315-1.148L5.847 8c-1.946-.003-3.44 1.416-3.44 3.166l-.012 39.848h59.217v-35.24c0-1.554-.914-2.567-2.515-2.567z"/><path fill="#424b5c" d="M57.94 26.826H6.448v-7.23c0-1.183.868-2.41 2.519-2.41h46.258c1.678 0 2.716 1.226 2.716 2.41z"/><path fill="#9447b8" d="M58.757 21.338H5.244c-1.622 0-3.243 1.475-3.243 2.95v28.276C2.001 54.515 3.602 56 5.567 56h52.867C60.404 56 62 54.516 62 52.564V24.289c0-1.475-1.622-2.951-3.243-2.951"/></svg>