<svg xmlns="http://www.w3.org/2000/svg" width="32" height="32" xmlns:v="https://vecta.io/nano"><path fill="#fa7095" d="M15.759 6.609c-.44 0-.961-.258-1.158-.574l-.885-1.442c-.196-.315-.717-.573-1.157-.574l-9.632-.013c-.973-.001-1.72.708-1.72 1.583l-.006 19.919h29.601V7.892c0-.777-.457-1.283-1.257-1.283z"/><path fill="#424b5c" d="M28.964 13.415H3.225V9.8c0-.591.434-1.205 1.259-1.205h23.123c.839 0 1.358.613 1.358 1.205z"/><path fill="#f3124e" d="M29.374 10.673H2.625c-.811 0-1.621.737-1.621 1.475v14.134c0 .975.8 1.718 1.783 1.718h26.427c.985 0 1.783-.742 1.783-1.718V12.148c0-.737-.811-1.475-1.621-1.475"/><g fill="#fff" opacity=".747"><path d="M24.982 19.917a.41.41 0 0 0-.41.41v2.048a.41.41 0 1 0 .82 0v-2.048a.41.41 0 0 0-.41-.41zm0 3.276a.41.41 0 1 0 0 .82.41.41 0 1 0 0-.82zm0-5.733c-2.483 0-4.505 2.022-4.505 4.505s2.022 4.505 4.505 4.505 4.505-2.022 4.505-4.505-2.022-4.505-4.505-4.505zm0 .819a3.686 3.686 0 1 1 0 7.372 3.686 3.686 0 1 1 0-7.372z" opacity="1" stroke="none"/></g></svg>