<svg xmlns="http://www.w3.org/2000/svg" width="32" height="32" xmlns:v="https://vecta.io/nano"><path fill="#ff38af" d="M15.759 6.609c-.44 0-.961-.258-1.158-.574l-.885-1.442c-.196-.315-.717-.573-1.157-.574l-9.632-.013c-.973-.001-1.72.708-1.72 1.583l-.006 19.919h29.601V7.892c0-.777-.457-1.283-1.257-1.283z"/><path fill="#424b5c" d="M28.964 13.415H3.225V9.8c0-.591.434-1.205 1.259-1.205h23.123c.839 0 1.358.613 1.358 1.205z"/><path fill="#c20074" d="M29.374 10.673H2.625c-.811 0-1.621.737-1.621 1.475v14.134c0 .975.8 1.718 1.783 1.718h26.427c.985 0 1.783-.742 1.783-1.718V12.148c0-.737-.811-1.475-1.621-1.475"/><path d="M28.679 21.332c.009.234-.064.361-.127.573-.212.064-.17.297-.191.361-.127.064-.743.722-.531.361-.212.149-.17.212-.509.318l-.009-.021c-.828.382-1.996-.382-1.996-1.444-.009.064-.021.042-.042.064-.021-1.189 1.359-1.868 2.165-1.146-.531-.616-1.656-.658-2.038.085-.212.127-.255.552-.34.616-.106 1.868 1.592 3.078 3.184 1.656.17-.127.34-.34.403-.361-.064.121.013.042-.042.149.127-.212.021-.658.255-.344.017-.403.467-1.231.234-.488.064-.255.021-.764.127-.297-.064-.255.064-.446.106-.594-.127-.318-.382-.913-.085-.488-.616-1.274.021-.743.255.106-.021-.229-.104-.45-.17-.658.042.021-.085-.467.064-.127-.191-.701-.807-1.316-1.38-1.656.382.382-1.104-.318-1.465-.446.255.149-1.295.149-.435.017-.297-.021-.679.085-.318-.106-.229.013-.531.127-.446.021-.446.234-1.804 1.146-1.422.658-.488.446-.785.764-1.04 1.359-1.677 2.356-.042 5.902 2.611 6.899.234.085.616.085.934.085-.361-.106-.425-.042-.785-.17-.255-.106-.318-.255-.509-.425-.015.17-.509-.011-.34-.212-.106-.009-.297-.191-.361-.297-.191.042-.361-.297-.361-.425-.021.064-.785-.701-.34-.488-.106-.106-.255-.127-.127-.255-.106-.297-.382-.425-.064-.318-.467-.318-.743-.828-.531-.849-.106-.127-.106-.234-.085-.403-.361-.785.021-1.762.297-2.42-.446.042.807-1.061 1.146-1.061-.042-.17.234-.382.573-.488-.021-.021 1.189-.552.679-.17 1.422-.467 2.993.764 3.078 2.038.085.021-.011.955-.021 1.019" fill="#f3081a"/></svg>