<svg width="32" height="32"><defs><linearGradient id="A" href="#H"><stop stop-color="#ffc937"/><stop stop-color="#ffeeba" offset="1"/></linearGradient><linearGradient id="B" x1="14.186" x2="14.186" y1="10.624" y2="3.686" href="#A"><stop stop-color="#c8923d"/><stop stop-color="#fdbd19" stop-opacity=".996" offset=".465"/></linearGradient><linearGradient id="C" x1="30.842" x2=".79" y1="16.793" y2="16.793" href="#H"><stop stop-color="#c99e1e"/><stop stop-color="#f3b51f" offset="1"/></linearGradient><filter id="D" x="0" y="0" width="1" height="1"><feColorMatrix result="A" values="1 0 0 0.05 -0 0 1 0 0.05 -0 0 0 1 0.05 -0 0 0 0 1 0"/><feColorMatrix values="0 0 0 -1 0 0 0 0 -1 0 0 0 0 -1 0 0 0 0 1 0"/><feColorMatrix in="A" values="1 0 0 0.05 -0 0 1 0 0.05 -0 0 0 1 0.05 -0 0 0 0 1 0"/></filter><linearGradient id="E" x1="30.452" x2="1.115" y1="14.428" y2="14.428" href="#H"><stop stop-color="#c6938a"/><stop stop-color="#c6938a" stop-opacity="0" offset=".648"/></linearGradient><linearGradient id="F" x1="30.617" x2="8.633" y1="27.285" y2="9.345" href="#A"/><linearGradient id="G" x1="30.842" x2=".79" y1="17.293" y2="17.293" href="#H"><stop stop-color="#eddcad"/><stop stop-color="#f1d886" offset="1"/></linearGradient><linearGradient id="H" gradientUnits="userSpaceOnUse"/><linearGradient id="I" x1="9.79" y1="22.409" x2="2.395" y2="9.602" href="#J"><stop offset="0" stop-color="#a9760c"/><stop offset="1" stop-color="#c68e08"/></linearGradient><linearGradient id="J" gradientUnits="userSpaceOnUse"/></defs><path d="M.999 25.823v1.189c0 .976.801 1.718 1.783 1.718h26.434c.985 0 1.783-.742 1.783-1.718v-1.189" fill="#ecaf24" fill-opacity=".996"/><path d="m15.761 6.6079c-.43988 0-.96075-.25793-1.1582-.57385l-.88477-1.4416c-.19645-.31542-.71731-.57335-1.1572-.57385l-9.6325-.013496c-.97275-.0014997-1.7196.70782-1.7196 1.5826l-.006 19.919h29.601v-17.615c0-.7768-.45688-1.2832-1.2572-1.2832z" fill="url(#B)" stroke="url(#E)" stroke-width=".5" paint-order="normal"/><path d="M28.964 13.415H3.225V9.8c0-.591.434-1.205 1.259-1.205h23.123c.839 0 1.358.613 1.358 1.205z" fill="#f3ede8"/><path d="M29.381 10.636H2.631c-.811 0-1.621.737-1.621 1.475v8.768l29.992-.081v-8.686c0-.737-.811-1.475-1.621-1.475" fill="url(#C)" filter="url(#D)"/><path d="M29.383 11.128H2.633c-.811 0-1.617.737-1.617 1.475v8.768l29.972-.081v-8.686c0-.737-.795-1.475-1.605-1.475" fill="url(#G)" filter="url(#D)"/><path d="M29.377 11.514H2.627c-.811 0-1.621.737-1.621 1.475v13.295c0 .975.8 1.718 1.783 1.718h26.427c.985 0 1.782-.742 1.782-1.718V12.99c0-.737-.811-1.475-1.621-1.475" fill="url(#F)"/><path d="M20.39 17.433c-.77 0-1.39.62-1.39 1.39v6.254c0 .77.62 1.39 1.39 1.39h7.7c.77 0 1.39-.62 1.39-1.39v-6.254c0-.77-.62-1.39-1.39-1.39zm0 .695h.475v.695h-1.17c0-.385.31-.695.696-.695m1.078 0h5.544v3.474h-5.544zm6.148 0h.474c.385 0 .695.31.695.695h-1.17zm-7.921 1.39h1.17v.695h-1.17zm7.92 0h1.17v.695h-1.17zm-7.92 1.39h1.17v.694h-1.17zm7.92 0h1.17v.694h-1.17zm-7.92 1.39h1.17v.694h-1.17zm1.773 0h5.544v3.474h-5.544zm6.148 0h1.169v.694h-1.17zm-7.921 1.39h1.17v.694h-1.17zm7.92 0h1.17v.694h-1.17zm-7.92 1.39h1.17v.694h-.475a.693.693 0 0 1-.695-.695m7.92 0h1.17c0 .385-.31.695-.695.695h-.474z" opacity=".91" fill="url(#I)"/></svg>