<svg xmlns="http://www.w3.org/2000/svg" width="32" height="32" xmlns:v="https://vecta.io/nano"><defs><linearGradient id="A" gradientUnits="userSpaceOnUse" spreadMethod="pad"><stop stop-color="#ffc937"/><stop stop-color="#ffeeba" offset="1"/></linearGradient><filter id="B" x="0" y="0" width="1" height="1"><feColorMatrix result="A" values="1 0 0 0.05 -0 0 1 0 0.05 -0 0 0 1 0.05 -0 0 0 0 1 0"/><feColorMatrix values="0 0 0 -1 0 0 0 0 -1 0 0 0 0 -1 0 0 0 0 1 0"/><feColorMatrix in="A" values="1 0 0 0.05 -0 0 1 0 0.05 -0 0 0 1 0.05 -0 0 0 0 1 0"/></filter><linearGradient id="C" gradientUnits="userSpaceOnUse"/><linearGradient id="D" x1="87.449" y1="13.185" x2="58.112" y2="13.185" href="#C"><stop stop-color="#c6938a"/><stop stop-color="#c6938a" stop-opacity="0" offset=".648"/></linearGradient><linearGradient id="E" x1="31.535" y1="16.985" x2=".423" y2="16.985" href="#C"><stop stop-color="#c99e1e"/><stop stop-color="#f3b51f" offset="1"/></linearGradient><linearGradient id="F" x1="31.535" x2=".423" y1="16.05" y2="16.05" href="#C"><stop stop-color="#eddcad"/><stop stop-color="#f1d886" offset="1"/></linearGradient><linearGradient href="#A" id="G" x1="30.582" y1="27.577" x2="10.872" y2="10.165"/><linearGradient id="H" x1="15.94" y1="12.503" x2="15.94" y2="4.167" href="#A"><stop stop-color="#c8923d"/><stop stop-color="#fdbd19" stop-opacity=".996" offset=".465"/></linearGradient><linearGradient id="I" x1="15.556" y1="8.662" x2="15.556" y2="16.971" gradientUnits="userSpaceOnUse"><stop offset=".189" stop-color="#fff"/><stop offset="1" stop-color="#cacaca"/></linearGradient></defs><path d="M.999 25.823v1.189c0 .976.801 1.718 1.783 1.718h26.434c.985 0 1.783-.742 1.783-1.718v-1.189" fill="#ecaf24" fill-opacity=".996"/><path d="m15.761 6.6079c-.43988 0-.96075-.25793-1.1582-.57385l-.88477-1.4416c-.19645-.31542-.71731-.57335-1.1572-.57385l-9.6325-.013496c-.97275-.0014997-1.7196.70782-1.7196 1.5826l-.006 19.919h29.601v-17.615c0-.7768-.45688-1.2832-1.2572-1.2832z" fill="url(#H)" stroke="url(#D)" stroke-width=".5" paint-order="normal"/><path d="M28.964 13.415H3.225V9.8c0-.591.434-1.205 1.259-1.205h23.123c.839 0 1.358.613 1.358 1.205z" fill="url(#I)"/><g transform="matrix(1 0 0 .924322 0 2.119127)"><path d="M30.26 10.636H1.752c-.864 0-1.81.742-1.727 1.475l.985 8.768 29.992-.081.985-8.686c.083-.732-.864-1.475-1.727-1.475" fill="url(#E)" filter="url(#B)"/><path d="M30.22 11.128H1.797c-.862 0-1.797.742-1.718 1.475l.938 8.768 29.972-.081.938-8.686c.079-.732-.845-1.475-1.705-1.475" fill="url(#F)" filter="url(#B)"/></g><path d="M30.159 12.762H1.845c-.858 0-1.764.683-1.716 1.363l.877 12.289c.064.899.8 1.588 1.783 1.588h26.427c.985 0 1.718-.688 1.782-1.588l.877-12.288c.049-.68-.858-1.363-1.716-1.363" fill="url(#G)"/></svg>