<svg width="32" height="32"><defs><linearGradient id="A" href="#H"><stop stop-color="#ffc937"/><stop stop-color="#ffeeba" offset="1"/></linearGradient><linearGradient id="B" x1="14.186" x2="14.186" y1="10.624" y2="3.686" href="#A"><stop stop-color="#c8923d"/><stop stop-color="#fdbd19" stop-opacity=".996" offset=".465"/></linearGradient><linearGradient id="C" x1="30.842" x2=".79" y1="16.793" y2="16.793" href="#H"><stop stop-color="#c99e1e"/><stop stop-color="#f3b51f" offset="1"/></linearGradient><filter id="D" x="0" y="0" width="1" height="1"><feColorMatrix result="A" values="1 0 0 0.05 -0 0 1 0 0.05 -0 0 0 1 0.05 -0 0 0 0 1 0"/><feColorMatrix values="0 0 0 -1 0 0 0 0 -1 0 0 0 0 -1 0 0 0 0 1 0"/><feColorMatrix in="A" values="1 0 0 0.05 -0 0 1 0 0.05 -0 0 0 1 0.05 -0 0 0 0 1 0"/></filter><linearGradient id="E" x1="30.452" x2="1.115" y1="14.428" y2="14.428" href="#H"><stop stop-color="#c6938a"/><stop stop-color="#c6938a" stop-opacity="0" offset=".648"/></linearGradient><linearGradient id="F" x1="30.617" x2="8.633" y1="27.285" y2="9.345" href="#A"/><linearGradient id="G" x1="30.842" x2=".79" y1="17.293" y2="17.293" href="#H"><stop stop-color="#eddcad"/><stop stop-color="#f1d886" offset="1"/></linearGradient><linearGradient id="H" gradientUnits="userSpaceOnUse"/><linearGradient id="I" x1="9.79" y1="22.409" x2="2.395" y2="9.602" href="#J"><stop offset="0" stop-color="#a9760c"/><stop offset="1" stop-color="#c68e08"/></linearGradient><linearGradient id="J" gradientUnits="userSpaceOnUse"/></defs><path d="M.999 25.823v1.189c0 .976.801 1.718 1.783 1.718h26.434c.985 0 1.783-.742 1.783-1.718v-1.189" fill="#ecaf24" fill-opacity=".996"/><path d="m15.761 6.6079c-.43988 0-.96075-.25793-1.1582-.57385l-.88477-1.4416c-.19645-.31542-.71731-.57335-1.1572-.57385l-9.6325-.013496c-.97275-.0014997-1.7196.70782-1.7196 1.5826l-.006 19.919h29.601v-17.615c0-.7768-.45688-1.2832-1.2572-1.2832z" fill="url(#B)" stroke="url(#E)" stroke-width=".5" paint-order="normal"/><path d="M28.964 13.415H3.225V9.8c0-.591.434-1.205 1.259-1.205h23.123c.839 0 1.358.613 1.358 1.205z" fill="#f3ede8"/><path d="M29.381 10.636H2.631c-.811 0-1.621.737-1.621 1.475v8.768l29.992-.081v-8.686c0-.737-.811-1.475-1.621-1.475" fill="url(#C)" filter="url(#D)"/><path d="M29.383 11.128H2.633c-.811 0-1.617.737-1.617 1.475v8.768l29.972-.081v-8.686c0-.737-.795-1.475-1.605-1.475" fill="url(#G)" filter="url(#D)"/><path d="M29.377 11.514H2.627c-.811 0-1.621.737-1.621 1.475v13.295c0 .975.8 1.718 1.783 1.718h26.427c.985 0 1.782-.742 1.782-1.718V12.99c0-.737-.811-1.475-1.621-1.475" fill="url(#F)"/><path d="M25.012 17.506q-.09.003-.177.01c-2.18.075-3.979 1.753-4.265 3.883q-.011.076-.019.153c-.321 3.047 2.62 5.657 5.721 4.744 1.075-.316 1.729-.922 2.173-1.412v-.002l-.008.003a4.5 4.5 0 0 0 1.062-2.892c-.01-1.932-1.499-4.48-4.487-4.487m.001.734l.012.001-.012.196a6.72 6.72 0 0 0 .182 1.532 4 4 0 0 1-2.152.924 6.2 6.2 0 0 1 1.32-2.595q.13-.022.264-.034l.114-.014q.135-.01.272-.01m.545.044l.008.002q.18.027.358.072h.002q.181.045.358.11l.013.004c-.161.38-.38.733-.648 1.047a6.3 6.3 0 0 1-.1-1.082c0-.05.008-.1.01-.153m-2.069.285a6.6 6.6 0 0 0-1.003 2.343 4 4 0 0 1-1.007-.162 4 4 0 0 1 .138-.34l.01-.02q.075-.16.167-.315l.005-.009a4 4 0 0 1 .441-.593l.004-.006q.123-.134.26-.257l.011-.01q.133-.12.277-.225l.016-.012a4 4 0 0 1 .3-.198l.008-.003q.159-.094.327-.172zm3.293.117l.003.002a4 4 0 0 1 .585.391l.033.024.003.003q.126.105.241.221l.032.03.002.003q.093.095.18.2l.074.085q.073.093.14.19l.08.113q.084.132.157.27l.026.044.001.003q.07.135.128.278l.027.06.002.007q.046.12.084.244l.04.121a4.5 4.5 0 0 0-2.059.865 6.2 6.2 0 0 1-.77-1.695 4.5 4.5 0 0 0 .99-1.459m-1.436 1.84c.193.594.464 1.152.805 1.662a4.55 4.55 0 0 0-1.316 2.383 6.2 6.2 0 0 1-1.729-.564 6.2 6.2 0 0 1-.235-1.679 6.39 6.39 0 0 1 .071-.892 4.5 4.5 0 0 0 2.404-.91m-4.01.732q.52.158 1.064.185-.06.44-.065.885c0 .45.047.888.13 1.314a6.2 6.2 0 0 1-1.138-.978 4 4 0 0 1-.037-.27l-.015-.119a3.7 3.7 0 0 1 .061-1.017m7.39.241a4 4 0 0 1 .035.49 3.75 3.75 0 0 1-.378 1.63l-.012.028a6.3 6.3 0 0 1-1.498-1.376 4 4 0 0 1 1.852-.77m-2.256 1.118a6.8 6.8 0 0 0 1.639 1.485l-.001.003a4 4 0 0 1-.152.198 6.2 6.2 0 0 1-2.068.362c-.175 0-.348-.012-.52-.026a4 4 0 0 1 1.102-2.022m-4.766 1.126q.447.358.952.636.122.375.284.73l-.003-.003a4 4 0 0 1-.284-.21l-.016-.012a3.8 3.8 0 0 1-.933-1.142m1.636.957q.69.28 1.424.4a5 5 0 0 0-.019.37l.012.255h-.005a3.8 3.8 0 0 1-.992-.208h-.005a6 6 0 0 1-.415-.816m3.781.382l-.001.003a4 4 0 0 1-.312.19l-.007.003h-.003q-.14.077-.285.14l-.07.03a4 4 0 0 1-.276.1l-.077.026a4 4 0 0 1-.258.067l-.116.026a4 4 0 0 1-.241.035 4 4 0 0 1-.179.022l-.015-.256q.002-.15.014-.297l.592.03a6.6 6.6 0 0 0 1.235-.118" opacity=".91" fill="url(#I)"/></svg>