<svg xmlns="http://www.w3.org/2000/svg" viewBox="0 0 32 32" xmlns:v="https://vecta.io/nano"><defs><linearGradient id="A" x1="64.115" x2="34.778" y1="12.832" y2="12.832" href="#L"><stop stop-color="#c6938a"/><stop stop-color="#c6938a" stop-opacity="0" offset=".648"/></linearGradient><linearGradient id="B" gradientTransform="matrix(1.3487105,0,0,0.74144899,33.663475,-1.5960862)" x1="-2.971" y1="35.83" x2="-16.332" y2="10.218" spreadMethod="pad" href="#L"><stop stop-color="#ffc937"/><stop stop-color="#ffeeba" offset="1"/></linearGradient><linearGradient id="C" x1="10.619" y1="8.966" x2="10.619" y2="-1.903" spreadMethod="pad" href="#L"><stop stop-color="#c8923d"/><stop stop-color="#fdbd19" stop-opacity=".996" offset=".465"/></linearGradient><linearGradient id="D" x1="52.32" y1="6.474" x2="52.32" y2="9.581" href="#L"><stop offset="0" stop-color="rgb(0%,0%,0%)" stop-opacity="0"/><stop offset="1" stop-color="rgb(0%,0%,0%)" stop-opacity=".2"/></linearGradient><linearGradient id="E" x1="49.339" y1="4.82" x2="76.242" y2="31.722" href="#L"><stop offset="0" stop-color="rgb(100%,84.313725%,38.039216%)"/><stop offset="1" stop-color="rgb(96.470588%,70.980392%,1.568627%)"/></linearGradient><linearGradient id="F" href="#L"><stop offset="0" stop-color="rgb(7.843137%,57.647059%,87.45098%)"/><stop offset="1" stop-color="rgb(0%,38.431373%,70.588235%)"/></linearGradient><filter  x="0" y="0" width="1" height="1"><feColorMatrix in="SourceGraphic" values="0 0 0 0 1 0 0 0 0 1 0 0 0 0 1 0 0 0 1 0"/></filter><clipPath id="H"><path d="M0 0h64v64H0z"/></clipPath><linearGradient id="I" x1="16.357" y1="1.693" x2="47.332" y2="32.668" href="#L"><stop offset="0" stop-color="rgb(100%,100%,100%)"/><stop offset="1" stop-color="rgb(96.470588%,70.980392%,1.568627%)" stop-opacity="0"/></linearGradient><linearGradient href="#F" id="J" x1="16.378" y1="16.42" x2="16.378" y2="29.755"/><linearGradient href="#F" id="K" x1="52.349" y1="9.678" x2="71.123" y2="42.195"/><linearGradient id="L" gradientUnits="userSpaceOnUse"/></defs><path d="M2.262 6.423v2.873c-1.177 0-.981 1.38-.981 1.915v12.834c0 2.292.981 3.057 3.925 3.057h21.589c2.922 0 3.925-.764 3.925-3.057V9.412c0-1.17-.803-2.031-1.963-2.031 0-2.873-14.397-.422-14.397-.422" fill="url(#B)"/><g fill-rule="evenodd" transform="matrix(1.036252 0 0 1.011097 -.579809 -.177098)" fill="url(#C)" stroke="url(#A)" paint-order="normal"><path d="M 5.395,2 C 2.961,2 2,3.033 2,4.707 V 9 h 10.347 l 2,-2 h 14.689 c 0,-2.919 -0.677,-3 -4,-3 H 16 C 15.019,4 14.932,2 12.932,2 Z" transform="matrix(.946989 0 0 .946989 .847843 .846033)" stroke-width=".516"/><path d="m 2.494,26.219 c 0.509,0.421 1.195,0.751 3.089,0.751 h 20.834 c 1.754,0 2.385,-0.252 3.053,-0.751 z" opacity=".404" stroke-width=".488"/></g><g transform="matrix(.869236 0 0 .957498 2.09553 .60095)"><g transform="rotate(90)"><rect width="13" height="8.006" x="17" y="-12.006" rx="1" ry="1.384" opacity=".4" fill="url(#J)"/><rect width="13" height="7.935" x="17" y="-28" rx="1" ry="1.384" opacity=".4" fill="url(#J)"/></g><path d="M5.712 16c-.952 0-1.724.676-1.706 1.532L4 28c0 .554.558 1 1.252 1h5.716a1 1 0 0 0 1.008-1v-5.464h8.049V28a1 1 0 0 0 1.008 1h5.716c.694 0 1.313-.446 1.313-1l-.002-10.366c.031-.918-.745-1.634-1.712-1.634z" fill="url(#J)"/></g><path d="M77.436 4.403H60.088L57.585 1.9c-.386-.386-.912-.605-1.461-.605h-8.984c-.858 0-1.554.696-1.554 1.554v6.732h33.143V5.697c0-.714-.581-1.295-1.295-1.295zm0 0" fill="#de9e00"/><path d="M45.588 6.474h13.464v3.107H45.588zm0 0" fill="url(#D)"/><path d="M77.695 5.438H59.588a1.29 1.29 0 0 0-.914.378L56.981 7.51H47.4c-1.001 0-1.812.811-1.812 1.813v19.161c0 1.001.811 1.813 1.813 1.813h29.518c1.001 0 1.813-.811 1.813-1.812V6.474c0-.572-.463-1.036-1.036-1.036zm0 0" fill="url(#E)"/><path d="M54.391 20.974a2.58 2.58 0 0 0-2.589 2.589v6.732h20.714v-6.732a2.58 2.58 0 0 0-2.589-2.589zm0 0" fill="url(#K)"/><path d="M56.566 25.117h11.187c.314-.026.591.204.621.518-.03.314-.307.544-.621.518H56.566c-.314.026-.591-.204-.621-.518.03-.314.307-.544.621-.518zm0 0" fill="#0f4a8a"/><g clip-path="url(#H)" transform="matrix(.517857 0 0 .517857 45.587662 -.775974)"><path d="M62 12H27.035a2.49 2.49 0 0 0-1.766.73L22 16H3.5A3.5 3.5 0 0 0 0 19.5v2A3.5 3.5 0 0 1 3.5 18H22l3.262-3.262A2.52 2.52 0 0 1 27.043 14H62a2 2 0 0 1 2 2v-2a2 2 0 0 0-2-2zm0 0" fill="url(#I)"/></g></svg>