<svg xmlns="http://www.w3.org/2000/svg" viewBox="0 0 32 32" xmlns:v="https://vecta.io/nano"><linearGradient x1="6" x2="22" y1="8" y2="23.272" gradientUnits="userSpaceOnUse"><stop offset="0" stop-color="#2a4c76"/><stop offset="1" stop-color="#d3dae3"/></linearGradient><g fill-rule="evenodd"><use href="#A" fill="#e6e6e6"/><use href="#B" fill="#dde3e6"/><use href="#C" fill="#f2f2f2"/><use href="#D" fill="#ccc"/><g transform="rotate(157.08 9.897 -5.293)"><path d="M6.346-14.906C4.131-15.583 5-15.203 5-15.203c.083-.663 1.717-1.4 2.78-2.797 0 0-.36 2.203-1.433 3.094z" fill="#e6e6e6"/><use href="#B" x="-4.744" y="-20.152" fill="#dde3e6"/><use href="#C" x="-4.744" y="-20.152" fill="#f2f2f2"/><use href="#D" x="-4.744" y="-20.152" fill="#ccc"/></g><path d="M7.334 16.361l-.119-5.047-.491-5.726 13.362-2.131 5.358 1.479.05 8.001-1.982 3.896 1.355 1.046-1.316 1.153.911 1.238-.852 2.118-.055 3.765-4.333.648-10.342-.148-1.005-2.14-.031-2.709.016-2.433z" fill="#fff"/></g><path d="M7.186 20.538l1.161-.063-.988-3.262-.598-3.962.474-3.183 1.394-2.742-2.381-.392.478-2.193-.505-.119 5.093-.23 4.055-.136-1.821 3.618 1.308 3.257L17.2 8.287l.49-3.169-1.825-1.026 3.755-.881-.349 1.606.426 1.711 1.629-3.013 4.7 1.203-.874 1.615-1.67-.114 1.999 2.576.593.677-.254.558-.891 1.758.793 1.133-1.338 2.49-1.996-.662.857 1.98-2.249-1.003-1.957-1.727-1.342-2.762-.498-.885.717 4.022 1.83 2.022 1.697.959.945.699-.169.637-1.51-.721-1.37.064-.411.441 3.884 1.51 1.091 2.468-.327 2.684-.159 1.073-1.98.278-3.001-.922-1.384-.516-.447-1.711-1.352 1.181-1.694-1.206-.156-.4-1.237-.305.397 1.687 2.985.748 2.816 1.318 2.134.516-3.884.132-4.012-.509h-.571l-1.849.119-1.588-.727 1.047.051-1.476-2.378zm.22-1.61l1.309.577.788-1.68 2.454-2.492.061-.51.619-.267-2.257-.799-.677 3.189-1.925.737zm-.299-2.4l2.325-3.289 2.434-.017-1.486-1.722-.935.374-2.863-.103 1.117 1.56-.532 2.17-.06 1.027zm1.192 7.479l1.746 1.098 1.563 1.364-.459-.75-.331-.92 2.216.813.764.422.802.442.777.396.683-.03.181-.262 1.951.178 2.067.038-3.199-.682-2.672-1.297-3.709-1.039-1.865-1.406-.578 1.225zm.987-1.012l1.07-.181 2.416-2.553 1.838.083 2.902 1.653 1.694-1.403-1.347-.243-1.081-.701-1.08-.784-2.71.664-2.937 2.262zM8.13 10.786l3.616-2.931 2.008 3.51.056-1.39.014-4.227.817-1.438-3.369.42-1.712.55-.222 3.954zm1.473-.044l1.136 1.881 3.723.38-.439-.224-1.411-2.372-2.235-.984zm2.454 6.545l.439-.218 1.632.211-1.048-1.453-.793.171zm3.155 4.215l.93 1.149 2.022 1.469 1.029.658 2.65.746.894.537.771-.851-2.906-1.031-3.062-2.135-2.436-.696zm.111-7.73l1.536-.861.457 2.318 1.223.066-1.463-2.976-1.108-.797zm.836 3.893l1.63-.971zm.849.822l4.664 1.877.913-.091-3.46-1.453-2.557-.538zm1.847-7.472l.877.168.713-2.825 1.942-1.567-3.739 2.162zm.854 12.661l2.363.813-1.118-2.278-1.166-.569zm.203-10.94l2.636-3.48 1.277-2.59-2.792 3.629zm.078 7.696l2.936 2.012.641-.677-3.05-1.363zm.399-7.041l2.142.211.009-3.432-.149-.248-2.135 3.403zm2.755-1.771l.776.769 1.585-1.225-.103-1.156-.551-1.912-1.502 1.944z" fill="gray"/><path d="M7.434 18.617l1.743-1.441 1.193-2.618.854-.905 1.564 1.535-.979-.302-1.785 2.246-1.117 1.886-.475.781-1.052-1.04zm-.34-2.573l1.018-2.839-.468-.588-.215-1.825 2.888.726 1.201 1.531-1.992.181-2 2.705zm1.137 7.62l.705-.972 2.663 1.491 3.192.657 2.899 1.452 2.586.543-2.255-.003-.108.164-2.242-.402.28.382-1.382-.688-1.596-.323.089-.363-2.86-.873 1.572 1.794-1.525-1.144L9.236 25zm-.08-13.375L9.94 7.102l-.395-2.644 3.279.926 2.496-.886-1.85 3.705.769 3.501-2.079-3.893-1.953 1.677-2.171 1.226zm6.961 10.953l2.826 1.184 2.289 1.597 2.617.974.534 1.039-1.422-.488-2.886-.885-.307-.37-2.396-1.691-.353-.596zm.193-8.27l1.419-1.719 1.223 3.443.069 1.571-.729-1.525-.8-2.265zm1.619 5.296l4.988 1.605.513.842-4.646-1.952zm3.068-5.966l2.604-4.31 1.641-.716-3.033 3.417-1.368 1.804.066-.111zm3.116-1.587l1.639-2.652.311 2.246.531 1.513-1.822.695z" fill="#1a1a1a"/><g fill-rule="evenodd"><use href="#A" x="10.093" y="-.781" fill="#e6e6e6"/><use href="#B" x="10.093" y="-.781" fill="#dde3e6"/><use href="#C" x="10.093" y="-.781" fill="#f2f2f2"/><use href="#D" x="10.093" y="-.781" fill="#ccc"/><path d="M25.495 26.586v.974c0 .885-.52 1.565-1.508 1.565H8.014c-.963 0-1.508-.496-1.508-1.565v-.974z" fill="#78909c"/><path d="M25.495 26.628l2.4-23.082c.025-.24-.287-.435-.644-.435H4.749c-.357 0-.669.195-.644.435l2.4 23.082z" opacity=".687" fill="#badcf9"/><path d="M24.222 26.613l2.302-22.634c.024-.235-.254-.426-.57-.426H6.046c-.316 0-.594.192-.57.426l2.302 22.634z" opacity=".677" fill="#edf6fe"/><path d="M12.726 17.61l-.593.987c-.248.532-.234.913-.206 1.089.054.332.656.87 1.192.87l2.153.001-.008-2.946-2.539-.001zm3.157-5.768l-.453-.846c-.372-.494-.731-.645-.919-.7-.422-.124-1.061.146-1.328.61l-1.097 1.813 2.536 1.505 1.331-2.246zm3.639 5.771l1.156.006c.585-.051.792-.254.931-.367.26-.213.425-1.003.157-1.467l-1.095-1.852-2.467 1.594 1.302 2.086z" fill="#1565c0"/><path d="M13.056 14.296l1.1 2.403-.624-.398-1.399 2.296c-.349.748-.18 1.199-.18 1.199l-1.797-3.001c-.076-.127-.091-.425.029-.632l.838-1.462-.662-.405zm5.889-.559l-2.94-.004.65-.36-1.212-2.341c-.548-.772-1.13-.767-1.13-.767l3.577-.006c.148 0 .404.107.533.309l.776 1.341.669-.37zm-2.403 5.362l1.274-2.206.006.7 2.856.022c.758-.065 1.028-.479 1.028-.479l-1.553 3.118c-.067.132-.323.291-.562.291l-1.753.008-.001.75z" fill="#1e88e4"/></g><defs><path id="A" d="M11.09 5.246c-2.215-.676-1.346-.297-1.346-.297.083-.663 1.717-1.4 2.78-2.797 0 0-.36 2.203-1.433 3.094z"/><path id="B" d="M5.799 1.381c2.203.715 3.798.768 3.798.768-1.227.722-2.022 1.284-2.828 2.747 0 0-1.071-1.333-.97-3.515z"/><path id="C" d="M10.646 5.626c-2.215-.676-3.811-.701-3.811-.701.083-.663.666-1.885 2.78-2.797 0 0 1.095 1.314 1.031 3.498z"/><path id="D" d="M15.1 5.993c-2.215-.676-3.892-.741-3.892-.741.568-.622.909-1.441 1.325-2.999 0 0 2.63 1.557 2.567 3.74z"/></defs></svg>