<svg xmlns="http://www.w3.org/2000/svg" viewBox="0 0 32 32" xmlns:v="https://vecta.io/nano"><linearGradient x1="6" x2="22" y1="8" y2="23.272" gradientUnits="userSpaceOnUse"><stop offset="0" stop-color="#2a4c76"/><stop offset="1" stop-color="#d3dae3"/></linearGradient><g fill-rule="evenodd"><path d="M25.495 26.586v.974c0 .885-.52 1.565-1.508 1.565H8.014c-.963 0-1.508-.496-1.508-1.565v-.974z" fill="#78909c"/><path d="M25.495 26.628l2.4-23.082c.025-.24-.287-.435-.644-.435H4.749c-.357 0-.669.195-.644.435l2.4 23.082z" opacity=".687" fill="#badcf9"/><path d="M24.222 26.613l2.302-22.634c.024-.235-.254-.426-.57-.426H6.046c-.316 0-.594.192-.57.426l2.302 22.634z" opacity=".677" fill="#edf6fe"/><path d="M12.726 17.61l-.593.987c-.248.532-.234.913-.206 1.089.054.332.656.87 1.192.87l2.153.001-.008-2.946-2.539-.001zm3.157-5.768l-.453-.846c-.372-.494-.731-.645-.919-.7-.422-.124-1.061.146-1.328.61l-1.097 1.813 2.536 1.505 1.331-2.246zm3.639 5.771l1.156.006c.585-.051.792-.254.931-.367.26-.213.425-1.003.157-1.467l-1.095-1.852-2.467 1.594 1.302 2.086z" fill="#1565c0"/><path d="M13.056 14.296l1.1 2.403-.624-.398-1.399 2.296c-.349.748-.18 1.199-.18 1.199l-1.797-3.001c-.076-.127-.091-.425.029-.632l.838-1.462-.662-.405zm5.889-.559l-2.94-.004.65-.36-1.212-2.341c-.548-.772-1.13-.767-1.13-.767l3.577-.006c.148 0 .404.107.533.309l.776 1.341.669-.37zm-2.403 5.362l1.274-2.206.006.7 2.856.022c.758-.065 1.028-.479 1.028-.479l-1.553 3.118c-.067.132-.323.291-.562.291l-1.753.008-.001.75z" fill="#1e88e4"/></g></svg>