<?xml version="1.0" encoding="UTF-8" standalone="no"?>
<svg
   width="32"
   height="32"
   version="1.1"
   id="svg2"
   sodipodi:docname="system-users.svg"
   inkscape:version="1.4.2 (ebf0e940d0, 2025-05-08)"
   xmlns:inkscape="http://www.inkscape.org/namespaces/inkscape"
   xmlns:sodipodi="http://sodipodi.sourceforge.net/DTD/sodipodi-0.dtd"
   xmlns="http://www.w3.org/2000/svg"
   xmlns:svg="http://www.w3.org/2000/svg">
  <defs
     id="defs2" />
  <sodipodi:namedview
     id="namedview2"
     pagecolor="#505050"
     bordercolor="#ffffff"
     borderopacity="1"
     inkscape:showpageshadow="0"
     inkscape:pageopacity="0"
     inkscape:pagecheckerboard="1"
     inkscape:deskcolor="#d1d1d1"
     inkscape:zoom="24.75"
     inkscape:cx="18.949495"
     inkscape:cy="14.262626"
     inkscape:window-width="1920"
     inkscape:window-height="998"
     inkscape:window-x="0"
     inkscape:window-y="0"
     inkscape:window-maximized="1"
     inkscape:current-layer="svg2" />
  <path
     d="M16 1C7.723 1 1 7.723 1 16s6.723 15 15 15 15-6.723 15-15S24.277 1 16 1z"
     opacity=".3"
     fill="#3b5a87"
     id="path1"
     style="fill:#4e4f56;fill-opacity:1;opacity:0.80037046" />
  <path
     d="M20.125 4.5a4.125 4.125 0 1 0 0 8.25 4.125 4.125 0 1 0 0-8.25zm0 .917a3.208 3.208 0 1 1 0 6.417 3.208 3.208 0 1 1 0-6.417zm-8.25 3.667c-2.278 0-4.125 1.847-4.125 4.125s1.847 4.125 4.125 4.125S16 15.487 16 13.208s-1.847-4.125-4.125-4.125zm0 .917a3.208 3.208 0 0 1 0 6.417 3.208 3.208 0 0 1 0-6.417zm8.25 3.667a6.5 6.5 0 0 0-2.37.458 5.96 5.96 0 0 1-.295 1.139c.827-.447 1.74-.68 2.666-.68 3.291 0 5.958 2.873 5.958 6.417h-7.647l.426.917H27V21c0-4.05-3.078-7.333-6.875-7.333zm-8.25 4.583C8.078 18.25 5 21.533 5 25.583v.917h13.75v-.917c0-4.05-3.078-7.333-6.875-7.333zm0 .917c3.291 0 5.958 2.873 5.958 6.417H5.917c0-3.544 2.668-6.417 5.958-6.417z"
     fill="#bac8df"
     id="path2" />
</svg>
