<svg xmlns="http://www.w3.org/2000/svg" width="22" height="22" xmlns:v="https://vecta.io/nano"><g fill-rule="evenodd"><path d="M4 20a1 1 0 0 1-1-1v-1a1 1 0 0 1 1-1h1v-1H4a1 1 0 0 1-1-1v-1a1 1 0 0 1 1-1h1v-1H4a1 1 0 0 1-1-1v-1a1 1 0 0 1 1-1h1V8a2 2 0 0 1 2-2h1V5a1 1 0 0 1 1-1h1a1 1 0 0 1 1 1v1h1V5a1 1 0 0 1 1-1h1a1 1 0 0 1 1 1v1h1V5a1 1 0 0 1 1-1h1a1 1 0 0 1 1 1v13a2 2 0 0 1-2 2zm0-1v-1h1.5a.5.5 0 0 0 .5-.5v-2a.5.5 0 0 0-.5-.5H4v-1h1.5a.5.5 0 0 0 .5-.5v-2a.5.5 0 0 0-.5-.5H4v-1h1.5a.5.5 0 0 0 .5-.5V8c0-.59.41-1 1-1h1.5a.5.5 0 0 0 .5-.5V5h1v1.5a.5.5 0 0 0 .5.5h2a.5.5 0 0 0 .5-.5V5h1v1.5a.5.5 0 0 0 .5.5h2a.5.5 0 0 0 .5-.5V5h1v13c0 .59-.41 1-1 1z" opacity=".3"/><path d="M4 19a1 1 0 0 1-1-1v-1a1 1 0 0 1 1-1h1v-1H4a1 1 0 0 1-1-1v-1a1 1 0 0 1 1-1h1v-1H4a1 1 0 0 1-1-1V9a1 1 0 0 1 1-1h1V7a2 2 0 0 1 2-2h1V4a1 1 0 0 1 1-1h1a1 1 0 0 1 1 1v1h1V4a1 1 0 0 1 1-1h1a1 1 0 0 1 1 1v1h1V4a1 1 0 0 1 1-1h1a1 1 0 0 1 1 1v13a2 2 0 0 1-2 2zm0-1v-1h1.5a.5.5 0 0 0 .5-.5v-2a.5.5 0 0 0-.5-.5H4v-1h1.5a.5.5 0 0 0 .5-.5v-2a.5.5 0 0 0-.5-.5H4V9h1.5a.5.5 0 0 0 .5-.5V7c0-.59.41-1 1-1h1.5a.5.5 0 0 0 .5-.5V4h1v1.5a.5.5 0 0 0 .5.5h2a.5.5 0 0 0 .5-.5V4h1v1.5a.5.5 0 0 0 .5.5h2a.5.5 0 0 0 .5-.5V4h1v13c0 .59-.41 1-1 1z" fill="#dfdbd2"/><path d="M7.5 12h9a.5.5 0 1 0 0-1h-9a.5.5 0 1 0 0 1z" opacity=".3"/><path d="M7.5 11h9a.5.5 0 1 0 0-1h-9a.5.5 0 1 0 0 1z" fill="#66c4e3"/><path d="M9 4v1.5a.5.5 0 0 1-.5.5H7c-.59 0-1 .41-1 1v1.5a.5.5 0 0 1-.5.5H4v1h1.5a.5.5 0 0 1 .5.5v2a.5.5 0 0 1-.5.5H4v1h1.5a.5.5 0 0 1 .5.5v2a.5.5 0 0 1-.5.5H4v1h13c.59 0 1-.41 1-1V4h-1v1.5a.5.5 0 0 1-.5.5h-2a.5.5 0 0 1-.5-.5V4h-1v1.5a.5.5 0 0 1-.5.5h-2a.5.5 0 0 1-.5-.5V4H9zM7.063 6.5h9.875a.57.57 0 0 1 .563.563v9.875a.57.57 0 0 1-.562.563H7.063a.57.57 0 0 1-.562-.562V7.063a.57.57 0 0 1 .563-.562z" opacity=".3" fill="#dfdbd2"/><use href="#B" opacity=".3"/><use href="#B" y="-1" fill="#dfdbd2"/><use href="#B" y="-3" opacity=".3"/><use href="#B" y="-4" fill="#acd1d9"/></g><defs ><path id="B" d="M17 16.5a.5.5 0 0 0-.5-.5h-9a.5.5 0 0 0-.5.5v1a.5.5 0 0 0 .5.5h9a.5.5 0 0 0 .5-.5z"/></defs></svg>