<svg xmlns="http://www.w3.org/2000/svg" width="16" height="16" xmlns:v="https://vecta.io/nano"><path d="M8 0c-.624 0-1.248.19-1.717.57L0 5.662v.07.535.07V13a2.01 2.01 0 0 0 .088.59l.002.006.064.178c.026.064.054.121.084.176C.575 14.576 1.236 15 2 15h12c.626 0 1.183-.285 1.549-.732l.111-.148.016-.023a1.99 1.99 0 0 0 .17-.324l.064-.176A2.01 2.01 0 0 0 16 13V6.34v-.072-.535-.072L9.719.57C9.25.19 8.624 0 8 0zm0 .893c.337 0 .673.105.932.314L14.848 6l-5.916 4.793c-.258.209-.595.314-.932.314s-.673-.105-.932-.314L1.152 6l5.916-4.793C7.327.998 7.663.893 8 .893zM1 7.148L4.52 10 1 12.852V7.149zm14 .002v5.699L11.482 10 15 7.15zm-9.695 3.486l.979.793c.469.38 1.092.57 1.717.57s1.25-.19 1.719-.57l.979-.793 3.902 3.162c-.167.125-.374.201-.6.201H2c-.226 0-.433-.076-.6-.201l3.904-3.162z" fill="#dedede" paint-order="stroke fill markers"/></svg>