<svg xmlns="http://www.w3.org/2000/svg" width="32" height="32" xmlns:v="https://vecta.io/nano"><defs><linearGradient id="A" x2="-384.572" y1="29" y2="25" x1="-384.572" href="#F"><stop stop-color="#b8c4ca" offset="0"/><stop offset="1" stop-color="#818990"/></linearGradient><linearGradient id="B" x1="0" x2="0" y1="25" y2="2" href="#F"><stop stop-color="#303845" offset="0"/><stop offset="1" stop-color="#373f43"/></linearGradient><linearGradient id="C" x1="9" x2="26" y1="4" y2="21" href="#F"><stop offset="0" stop-color="#030303"/><stop offset="1" stop-opacity="0"/></linearGradient><radialGradient id="D" cx="22.313" cy="24.751" fx="22.313" fy="24.751" r="13.063" gradientTransform="matrix(1.6504752,-0.03764921,0.02715028,1.1902189,-15.185732,-8.0429171)" href="#F"><stop stop-color="#0f7bc3" offset="0"/><stop stop-color="#20a3d1" offset=".445"/><stop offset="1" stop-color="#24acd4"/></radialGradient><radialGradient id="E" cx="6.25" cy="23.875" fx="6.25" fy="23.875" r="15" gradientTransform="matrix(1.7916667,-0.675,0.2115324,0.56147488,-9.9982527,9.9385372)" href="#F"><stop stop-color="#22a5d1" offset="0"/><stop offset="1" stop-color="#39d9e5"/></radialGradient><linearGradient id="F" gradientUnits="userSpaceOnUse"/></defs><path d="M4 2C1.784 2 0 3.784 0 6v15c0 2.216 1.784 4 4 4h24c2.216 0 4-1.784 4-4V6c0-2.216-1.784-4-4-4Zm0 1h24c1.662 0 3 1.784 3 4v14H1V7c0-2.216 1.338-4 3-4" fill="url(#B)" paint-order="stroke fill markers"/><path d="M30 4l1 3v14H1l4 4h23c.554 0 1.082-.11 1.56-.313a4 4 0 0 0 1.27-.857 3.97 3.97 0 0 0 .858-1.27A4 4 0 0 0 32 21V6z" opacity=".366" fill="url(#C)" fill-rule="evenodd"/><path d="M4 3c-.416 0-.81.11-1.17.313-.36.201-.682.495-.953.857C1.335 4.893 1 5.892 1 7v14h30V7c0-1.108-.335-2.107-.877-2.83a3.1 3.1 0 0 0-.953-.857A2.4 2.4 0 0 0 28 3Z" fill="url(#E)"/><path d="M29.645 3.653L4.875 21h20.262.139H31V7c0-1.108-.335-2.107-.877-2.83-.146-.195-.304-.366-.478-.517z" fill="url(#D)"/><path d="M13 25h6v4h-6z" fill="url(#A)"/><path d="M10 29h12v1H10Z" fill="#8596a2"/></svg>