<?xml version="1.0" encoding="UTF-8"?>
<svg width="32" height="32" version="1.1" xml:space="preserve" xmlns="http://www.w3.org/2000/svg">
    <defs>        
        <linearGradient id="linearGradient11" x2="0" y1="392.36" y2="365.36" gradientTransform="translate(-33,-363.36)" gradientUnits="userSpaceOnUse"><stop stop-color="#fff" stop-opacity="0" offset="0"/><stop stop-color="#fff" stop-opacity=".15" offset="1"/></linearGradient>
        <linearGradient id="linearGradient8" x1="18.727" x2="25.758" y1="16.98" y2="23.848" gradientTransform="translate(3.0101,-8.0101)" gradientUnits="userSpaceOnUse"><stop stop-color="#060606" offset="0"/><stop stop-opacity="0" offset="1"/></linearGradient>
    </defs>
    <path d="m6.6411 1.9968h13.363l6.9884 7.0071v19.4c0 0.884-0.72853 1.5957-1.6335 1.5957h-18.718c-0.90494 0-1.6335-0.71167-1.6335-1.5957v-24.811c0-0.884 0.72853-1.5957 1.6335-1.5957z" fill="#000344" stop-color="#000000" style="-inkscape-stroke:none;font-variation-settings:normal;paint-order:stroke fill markers"/><g transform="translate(0,-2)" fill="#9f9bf8" font-family="'Source Sans 3'" font-size="15.974px" font-weight="600" letter-spacing="0px" stroke-width=".39934" word-spacing="0px"><path transform="scale(.9379 1.0662)" d="m10.574 24.661v-10.447h3.2906q1.1661 0 2.0766 0.30351t1.4377 1.0064 0.52714 1.9169q0 1.1501-0.52714 1.9009-0.51117 0.75078-1.4217 1.1182-0.89454 0.3674-2.0287 0.3674h-1.5016v3.8338zm1.853-5.3193h1.3578q1.1661 0 1.7252-0.47922 0.57506-0.47922 0.57506-1.4217 0-0.99039-0.60701-1.3578-0.59104-0.38338-1.7571-0.38338h-1.2939z" opacity=".90958" aria-label="P"/><path transform="scale(.9379 1.0662)" d="m21.13 24.814q-0.81467 0-1.6134-0.30351-0.78273-0.30351-1.3578-0.84662l0.81467-1.0543q0.52714 0.4313 1.0703 0.62299t1.1501 0.19169q0.63896 0 0.94247-0.27156t0.30351-0.67091q0-0.31948-0.23961-0.54312-0.22364-0.22364-0.59104-0.38338t-0.81467-0.31948q-0.57506-0.20766-1.0703-0.49519-0.49519-0.30351-0.81467-0.7348-0.30351-0.44727-0.30351-1.0703 0-1.0383 0.76675-1.6932t2.0766-0.65493q0.7987 0 1.4696 0.27156 0.67091 0.25558 1.1501 0.67091l-0.81467 1.0383q-0.41532-0.30351-0.84662-0.44727t-0.91052-0.14377q-0.59104 0-0.87857 0.25558t-0.28753 0.60701q0 0.28753 0.17571 0.49519 0.19169 0.19169 0.54312 0.35143 0.35143 0.14377 0.84662 0.30351 0.60701 0.20766 1.1342 0.51117 0.52714 0.28753 0.83065 0.75078 0.31948 0.44727 0.31948 1.1342 0 0.67091-0.35143 1.23-0.35143 0.54312-1.0383 0.87857-0.67091 0.31948-1.6613 0.31948z" opacity=".90958" aria-label="s"/></g>
    <path d="m6.6411 1.9968h13.363l6.9884 7.0071v19.4c0 0.884-0.72853 1.5957-1.6335 1.5957h-18.718c-0.90494 0-1.6335-0.71167-1.6335-1.5957v-24.811c0-0.884 0.72853-1.5957 1.6335-1.5957z" fill="url(#linearGradient11)" stop-color="#000000" style="-inkscape-stroke:none;font-variation-settings:normal"/>
    <path d="m26.995 9.0014h-5.9863c-0.55559 0-1.0029-0.44728-1.0029-1.0029v-6.0044z" fill="#fff" opacity=".5" stop-color="#000000" style="-inkscape-stroke:none;font-variation-settings:normal"/>
    <g fill-rule="evenodd">
        <path d="m20.379 8.7871 0.23438 0.20703 6.3789 6.3535 2e-3 -6.3457h-5.9863c-0.23341 0-0.44714-0.080137-0.61719-0.21289-0.0074-0.00165-0.01172-0.00195-0.01172-0.00195zm6.6152 0.21484v-0.00781h-0.0078z" fill="url(#linearGradient8)" opacity=".1" stop-color="#000000" style="-inkscape-stroke:none;font-variation-settings:normal"/>
        <path d="m5.1235 29.004c0.2301 0.55992 0.77578 0.96086 1.4238 0.99609h18.902c0.64804-0.03523 1.1937-0.43618 1.4238-0.99609z" opacity=".25" stop-color="#000000" style="-inkscape-stroke:none;font-variation-settings:normal"/>
        <path d="m5.1235 2.9925c0.2301-0.55992 0.77578-0.96086 1.4238-0.99609h13.457l1.3e-5 0.99609z" fill="#fff" opacity=".4" stop-color="#000000" style="-inkscape-stroke:none;font-variation-settings:normal"/>
    </g>
</svg>
