<?xml version="1.0" encoding="UTF-8"?>
<svg width="32" height="32" version="1.1" xml:space="preserve" xmlns="http://www.w3.org/2000/svg" xmlns:xlink="http://www.w3.org/1999/xlink"><defs><linearGradient id="linearGradient11" x2="0" y1="392.36" y2="365.36" gradientTransform="translate(-33,-363.36)" gradientUnits="userSpaceOnUse"><stop stop-color="#fff" stop-opacity="0" offset="0"/><stop stop-color="#fff" stop-opacity=".15" offset="1"/></linearGradient>
    
    


<linearGradient id="linearGradient14" x1="17.444" x2="24.879" y1="17.05" y2="23.919" gradientTransform="translate(3.0808 -8)" gradientUnits="userSpaceOnUse"><stop stop-color="#060606" offset="0"/><stop stop-opacity="0" offset="1"/></linearGradient></defs>
    <path d="m6.6411 1.9968h13.363l6.9884 7.0071v19.4c0 0.884-0.72853 1.5957-1.6335 1.5957h-18.718c-0.90494 0-1.6335-0.71167-1.6335-1.5957v-24.811c0-0.884 0.72853-1.5957 1.6335-1.5957z" fill="#555" stop-color="#000000" style="-inkscape-stroke:none;font-variation-settings:normal"/><g transform="translate(-31.286 .78387)" fill="#343434" shape-rendering="auto" stop-color="#000000" style="-inkscape-stroke:none;font-variation-settings:normal"><path class="ColorScheme-Text" d="m41.091 11.939v12h13v-12zm1 2h11v9h-11z" color="#555555" color-rendering="auto" image-rendering="auto" stop-color="#000000" style="-inkscape-stroke:none;font-variation-settings:normal"/><rect x="44.091" y="14.939" width="3" height="3" color="#000000" color-rendering="auto" image-rendering="auto" stop-color="#000000" style="-inkscape-stroke:none;font-variation-settings:normal"/><rect x="48.091" y="14.939" width="3" height="3" color="#000000" color-rendering="auto" image-rendering="auto" stop-color="#000000" style="-inkscape-stroke:none;font-variation-settings:normal"/><rect x="44.091" y="18.939" width="3" height="3" color="#000000" color-rendering="auto" image-rendering="auto" stop-color="#000000" style="-inkscape-stroke:none;font-variation-settings:normal"/><rect x="48.091" y="18.939" width="3" height="3" color="#000000" color-rendering="auto" image-rendering="auto" stop-color="#000000" style="-inkscape-stroke:none;font-variation-settings:normal"/></g>
    <path d="m6.6411 1.9968h13.363l6.9884 7.0071v19.4c0 0.884-0.72853 1.5957-1.6335 1.5957h-18.718c-0.90494 0-1.6335-0.71167-1.6335-1.5957v-24.811c0-0.884 0.72853-1.5957 1.6335-1.5957z" fill="url(#linearGradient11)" stop-color="#000000" style="-inkscape-stroke:none;font-variation-settings:normal"/>

    <path d="m26.995 9.0014h-5.9863c-0.55559 0-1.0029-0.44728-1.0029-1.0029v-6.0044z" fill="#fff" opacity=".5" stop-color="#000000" style="-inkscape-stroke:none;font-variation-settings:normal"/><g transform="translate(-32)" fill="#e0e0e0" shape-rendering="auto"><path class="ColorScheme-Text" d="m41.091 11.939v12h13v-12zm1 2h11v9h-11z" color="#555555" color-rendering="auto" image-rendering="auto"/><g stroke-linecap="round" stroke-linejoin="round" stroke-width="1.5"><rect x="44.091" y="14.939" width="3" height="3" color="#000000" color-rendering="auto" image-rendering="auto"/><rect x="48.091" y="14.939" width="3" height="3" color="#000000" color-rendering="auto" image-rendering="auto"/><rect x="44.091" y="18.939" width="3" height="3" color="#000000" color-rendering="auto" image-rendering="auto"/><rect x="48.091" y="18.939" width="3" height="3" color="#000000" color-rendering="auto" image-rendering="auto"/></g></g><g fill-rule="evenodd"><path d="m20.379 8.7871 0.23438 0.20703 6.3789 6.3535 2e-3 -6.3457h-5.9863c-0.23341 0-0.44714-0.080137-0.61719-0.21289-0.0074-0.00165-0.01172-0.00195-0.01172-0.00195zm6.6152 0.21484v-0.00781h-0.0078z" fill="url(#linearGradient14)" opacity=".4" stop-color="#000000" style="-inkscape-stroke:none;font-variation-settings:normal"/><path d="m5.1235 29.004c0.2301 0.55992 0.77578 0.96086 1.4238 0.99609h18.902c0.64804-0.03523 1.1937-0.43618 1.4238-0.99609z" opacity=".25" stop-color="#000000" style="-inkscape-stroke:none;font-variation-settings:normal"/><path d="m5.1235 2.9925c0.2301-0.55992 0.77578-0.96086 1.4238-0.99609h13.457l1.3e-5 0.99609z" fill="#fff" opacity=".4" stop-color="#000000" style="-inkscape-stroke:none;font-variation-settings:normal"/></g></svg>
