<?xml version="1.0" encoding="UTF-8"?>
<svg width="32" height="32" version="1.1" xml:space="preserve" xmlns="http://www.w3.org/2000/svg" xmlns:xlink="http://www.w3.org/1999/xlink"><defs><linearGradient id="linearGradient11" x2="0" y1="392.36" y2="365.36" gradientTransform="translate(-59,-363.36)" gradientUnits="userSpaceOnUse"><stop stop-color="#fff" stop-opacity="0" offset="0"/><stop stop-color="#fff" stop-opacity=".15" offset="1"/></linearGradient>
    
    


<linearGradient id="b-13" x2="0" y1="392.36" y2="365.2" gradientTransform="translate(16,-347.36)" gradientUnits="userSpaceOnUse"><stop stop-color="#fff" stop-opacity="0" offset="0"/><stop stop-color="#fff" stop-opacity=".2" offset="1"/></linearGradient></defs>
    <path d="m6.6411 1.9968h18.76c0.86837 0 1.5929 0.73205 1.5929 1.6437 0 8.2545-1e-3 24.763-1e-3 24.763-3.7e-5 0.884-0.72853 1.5957-1.6335 1.5957h-18.718c-0.90494 0-1.6335-0.71167-1.6335-1.5957v-24.811c0-0.884 0.72853-1.5957 1.6335-1.5957z" fill="#afdde9" stop-color="#000000" style="-inkscape-stroke:none;font-variation-settings:normal"/><path d="m6.6411 1.9968h18.76c0.86837 0 1.5929 0.73205 1.5929 1.6437 0 8.2545-1e-3 24.763-1e-3 24.763-3.7e-5 0.884-0.72853 1.5957-1.6335 1.5957h-18.718c-0.90494 0-1.6335-0.71167-1.6335-1.5957v-24.811c0-0.884 0.72853-1.5957 1.6335-1.5957z" fill="url(#linearGradient11)" stop-color="#000000" style="-inkscape-stroke:none;font-variation-settings:normal"/>
    

    <path d="m5.1235 29.004c0.2301 0.55992 0.77578 0.96086 1.4238 0.99609h18.902c0.64804-0.03523 1.1937-0.43618 1.4238-0.99609z" fill-rule="evenodd" opacity=".25" stop-color="#000000" style="-inkscape-stroke:none;font-variation-settings:normal"/><path d="m6.5469 1.9961c-0.64802 0.03523-1.1937 0.43617-1.4238 0.99609l21.742 0.00195c-0.2301-0.55992-0.77581-0.99602-1.4238-0.99609z" fill="#fff" fill-rule="evenodd" opacity=".4" stop-color="#000000" style="-inkscape-stroke:none;font-variation-settings:normal"/><rect x="7.2929" y="3" width="1" height="26" fill="#fff" fill-opacity=".252"/><rect x="8.2929" y="3" width="1" height="26" color="#000000" color-rendering="auto" fill-opacity=".059" image-rendering="auto" shape-rendering="auto"/><path d="m40 18v28h22v-28h-17z" color="#000000" color-rendering="auto" fill="url(#b-13)" image-rendering="auto" opacity=".063169" shape-rendering="auto"/><g transform="translate(-30)"><path d="m44.042 20.974 3.65e-4 -9.971 0.99964-0.02897v2l1.4994 0.02734c0.49992 0.0091 0.5 0.486 0.5 0.486l-3.65e-4 6.999c-2.5e-5 0.486-0.5 0.486-0.5 0.486z" fill-rule="evenodd"/><path d="m52.042 11.974 4 4-4 4-4-4z" fill="#f90"/><path d="m41.042 20.974-3.65e-4 -6.9995h-0.5v-0.972h0.5l3.65e-4 -1.5145v0c0-0.4855 0.5-0.4855 0.5-0.4855h1.5v0.9715l-1 5e-4 -3.65e-4 1.0285 1-5e-4v0.9715l-1 5e-4 3.65e-4 6.9995z" fill-rule="evenodd"/><path d="m45.042 13.66h0.99969v6.3143h-0.99969z" fill="#afdde9" opacity=".99"/></g></svg>
