<?xml version="1.0" encoding="UTF-8"?>
<svg width="32" height="32" version="1.1" xml:space="preserve" xmlns="http://www.w3.org/2000/svg"><defs>
    
    


<linearGradient id="linearGradient10" x1="372.98" x2="379.72" y1="524.49" y2="531" gradientTransform="translate(-352.58 -515.8)" gradientUnits="userSpaceOnUse"><stop stop-color="#383e51" offset="0"/><stop stop-color="#655c6f" stop-opacity="0" offset="1"/></linearGradient><linearGradient id="a-8" x2="0" y1="61" y2="3" gradientTransform="matrix(.5 0 0 -.48276 28.001 31.421)" gradientUnits="userSpaceOnUse"><stop stop-color="#22a7f0" offset="0"/><stop stop-color="#19b5fe" offset="1"/></linearGradient><linearGradient id="b-6" x2="0" y1="518.04" y2="524.8" gradientTransform="translate(-356.57 -515.83)" gradientUnits="userSpaceOnUse"><stop stop-color="#c8e3fe" offset="0"/><stop stop-color="#fff" offset="1"/></linearGradient></defs>
    <path d="m6.6411 1.9968h13.363l6.9884 7.0071v19.4c0 0.884-0.72853 1.5957-1.6335 1.5957h-18.718c-0.90494 0-1.6335-0.71167-1.6335-1.5957v-24.811c0-0.884 0.72853-1.5957 1.6335-1.5957z" fill="url(#a-8)" stop-color="#000000" style="-inkscape-stroke:none;font-variation-settings:normal"/>
    

    <path d="m26.995 9.0014h-5.9863c-0.55559 0-1.0029-0.44728-1.0029-1.0029v-6.0044z" fill="url(#b-6)" stop-color="#000000" style="-inkscape-stroke:none;font-variation-settings:normal"/><path d="m12.748 23.89c-0.239-0.062-0.215-0.129 0.179-0.498 0.679-0.635 0.792-1.267 0.599-3.347-0.154-1.659-0.189-1.786-0.448-1.647-0.562 0.301-1.263-0.087-2.06-1.138-0.394-0.519-0.431-0.672-0.364-1.481 0.041-0.496 0.126-1.095 0.188-1.331 0.095-0.362 0.065-0.429-0.198-0.429-0.171 0-0.399-0.107-0.507-0.237-0.272-0.328 0.213-0.855 0.787-0.855 0.233 0 0.512-0.105 0.619-0.234 0.276-0.332 0.697-0.29 1.17 0.117 0.503 0.433 0.674 1.435 0.392 2.291-0.319 0.968-0.098 1.063 0.349 0.149 0.25-0.511 0.603-0.957 0.894-1.129 0.264-0.156 0.65-0.553 0.858-0.882s0.468-0.656 0.579-0.727c0.34-0.217 1.274-0.516 1.622-0.519 0.475-0.01 1.112 0.552 1.225 1.069 0.054 0.244 0.34 0.82 0.636 1.279 0.296 0.46 0.538 0.916 0.538 1.014s0.21 0.443 0.468 0.767c0.385 0.485 0.467 0.729 0.461 1.386-7e-3 0.901-0.492 2.049-0.67 1.586-0.056-0.146-0.033-0.395 0.052-0.553 0.177-0.331 0.021-1.799-0.171-1.607-0.134 0.134-0.221 1.566-0.184 3.01 0.049 1.874-0.042 3.64-0.19 3.688-0.378 0.12-0.543-0.191-0.388-0.732 0.233-0.814 0.185-2.979-0.074-3.321-0.12-0.158-0.264-0.561-0.32-0.896-0.057-0.335-0.164-0.646-0.239-0.692-0.246-0.152-0.617 0.832-0.617 1.635 0 0.629-0.095 0.919-0.468 1.434-0.528 0.729-0.569 0.944-0.234 1.222 0.261 0.217 0.312 0.713 0.087 0.852-0.081 0.05-0.291-0.064-0.468-0.254-0.25-0.268-0.321-0.29-0.321-0.1 0 0.285-0.578 0.479-0.897 0.3-0.171-0.095-0.13-0.18 0.183-0.386 0.559-0.366 0.505-0.666-0.242-1.349-0.582-0.532-0.634-0.639-0.538-1.112 0.302-1.498 0.301-1.537-0.048-1.537-0.228 0-0.329 0.098-0.329 0.322 0 0.177-0.077 0.467-0.172 0.644-0.167 0.312-0.217 0.563-0.621 3.127-0.201 1.278-0.251 1.327-1.121 1.1m4.186-2.721c0.202-0.392 0.232-0.727 0.145-1.654-0.115-1.231-0.2-1.274-0.537-0.272-0.115 0.343-0.34 0.791-0.5 0.995-0.371 0.476-0.364 0.62 0.049 1.06 0.443 0.471 0.539 0.457 0.843-0.13" fill="#fff"/><g fill-rule="evenodd"><path d="m20.379 8.7871 0.23438 0.20703 6.3789 6.3535 2e-3 -6.3457h-5.9863c-0.23341 0-0.44714-0.080137-0.61719-0.21289-0.0074-0.00165-0.01172-0.00195-0.01172-0.00195zm6.6152 0.21484v-0.00781h-0.0078z" fill="url(#linearGradient10)" opacity=".2" stop-color="#000000" style="-inkscape-stroke:none;font-variation-settings:normal"/><path d="m5.1235 29.004c0.2301 0.55992 0.77578 0.96086 1.4238 0.99609h18.902c0.64804-0.03523 1.1937-0.43618 1.4238-0.99609z" opacity=".25" stop-color="#000000" style="-inkscape-stroke:none;font-variation-settings:normal"/><path d="m5.1235 2.9925c0.2301-0.55992 0.77578-0.96086 1.4238-0.99609h13.457l1.3e-5 0.99609z" fill="#fff" opacity=".4" stop-color="#000000" style="-inkscape-stroke:none;font-variation-settings:normal"/></g></svg>
