<?xml version="1.0" encoding="UTF-8"?>
<svg width="32" height="32" version="1.1" xml:space="preserve" xmlns="http://www.w3.org/2000/svg"><defs><linearGradient id="linearGradient11" x2="0" y1="392.36" y2="365.36" gradientTransform="translate(-33,-363.36)" gradientUnits="userSpaceOnUse"><stop stop-color="#fff" stop-opacity="0" offset="0"/><stop stop-color="#fff" stop-opacity=".15" offset="1"/></linearGradient><linearGradient id="linearGradient8" x1="18.727" x2="25.758" y1="16.98" y2="23.848" gradientTransform="translate(3.0101,-8.0101)" gradientUnits="userSpaceOnUse"><stop stop-color="#060606" offset="0"/><stop stop-opacity="0" offset="1"/></linearGradient></defs>
    <path d="m6.6411 1.9968h13.363l6.9884 7.0071v19.4c0 0.884-0.72853 1.5957-1.6335 1.5957h-18.718c-0.90494 0-1.6335-0.71167-1.6335-1.5957v-24.811c0-0.884 0.72853-1.5957 1.6335-1.5957z" fill="#51db51" stop-color="#000000" style="-inkscape-stroke:none;font-variation-settings:normal"/>
    <g transform="translate(-32)" fill="#fff"><path d="m50.101 11.957c-2.168 0-3.926 1.757-3.926 3.924 0 0.589 0.133 1.146 0.365 1.646l-0.672 0.795-0.059 0.746c-6e-3 6e-3 -0.73 0.025-0.73 0.025l-0.373 0.271s3e-3 0.812 0 0.801l-2e-3 2e-3 -0.799 0.014-0.338 0.385-8e-3 0.729s-0.688-0.043-0.758 0.021c-0.441 0.406-0.738 0.695-0.738 0.695l4e-3 1.908s0.255-2e-3 0.373-2e-3l5.084-5.082c0.305 0.266 0.658 0.471 1.035 0.633 0.475 0.205 0.991 0.334 1.541 0.334 2.169 0 3.928-1.755 3.928-3.922 0-2.166-1.758-3.924-3.928-3.924m0.75 1.869c0.723 0 1.309 0.586 1.309 1.309s-0.586 1.309-1.309 1.309-1.309-0.586-1.309-1.309 0.586-1.309 1.309-1.309" opacity=".75"/><path d="m50.854 13.826c-0.723 0-1.309 0.586-1.309 1.309s0.586 1.309 1.309 1.309 1.309-0.586 1.309-1.309-0.586-1.309-1.309-1.309m0 0.748c0.31 0 0.561 0.251 0.561 0.561s-0.251 0.561-0.561 0.561-0.563-0.251-0.563-0.561 0.253-0.561 0.563-0.561m-3.326 4.262-5.086 5.084h1.869l4.439-4.361c-0.453-0.167-0.866-0.412-1.223-0.723" opacity=".5"/></g><path d="m6.6411 1.9968h13.363l6.9884 7.0071v19.4c0 0.884-0.72853 1.5957-1.6335 1.5957h-18.718c-0.90494 0-1.6335-0.71167-1.6335-1.5957v-24.811c0-0.884 0.72853-1.5957 1.6335-1.5957z" fill="url(#linearGradient11)" stop-color="#000000" style="-inkscape-stroke:none;font-variation-settings:normal"/>

    <path d="m26.995 9.0014h-5.9863c-0.55559 0-1.0029-0.44728-1.0029-1.0029v-6.0044z" fill="#fff" opacity=".6" stop-color="#000000" style="-inkscape-stroke:none;font-variation-settings:normal"/><g fill-rule="evenodd">
    <path d="m20.379 8.7871 0.23438 0.20703 6.3789 6.3535 2e-3 -6.3457h-5.9863c-0.23341 0-0.44714-0.080137-0.61719-0.21289-0.0074-0.00165-0.01172-0.00195-0.01172-0.00195zm6.6152 0.21484v-0.00781h-0.0078z" fill="url(#linearGradient8)" opacity=".1" stop-color="#000000" style="-inkscape-stroke:none;font-variation-settings:normal"/>
    <path d="m5.1235 29.004c0.2301 0.55992 0.77578 0.96086 1.4238 0.99609h18.902c0.64804-0.03523 1.1937-0.43618 1.4238-0.99609z" opacity=".25" stop-color="#000000" style="-inkscape-stroke:none;font-variation-settings:normal"/>

<path d="m5.1235 2.9925c0.2301-0.55992 0.77578-0.96086 1.4238-0.99609h13.457l1.3e-5 0.99609z" fill="#fff" opacity=".4" stop-color="#000000" style="-inkscape-stroke:none;font-variation-settings:normal"/>
</g></svg>
