<?xml version="1.0" encoding="UTF-8"?>
<svg width="32" height="32" version="1.1" xml:space="preserve" xmlns="http://www.w3.org/2000/svg"><defs><linearGradient id="linearGradient11" x2="0" y1="392.36" y2="365.36" gradientTransform="translate(-59,-363.36)" gradientUnits="userSpaceOnUse"><stop stop-color="#fff" stop-opacity="0" offset="0"/><stop stop-color="#fff" stop-opacity=".15" offset="1"/></linearGradient>
    
    


</defs>
    <path d="m6.6411 1.9968h18.76c0.86837 0 1.5929 0.73205 1.5929 1.6437 0 8.2545-1e-3 24.763-1e-3 24.763-3.7e-5 0.884-0.72853 1.5957-1.6335 1.5957h-18.718c-0.90494 0-1.6335-0.71167-1.6335-1.5957v-24.811c0-0.884 0.72853-1.5957 1.6335-1.5957z" fill="#da2c2c" stop-color="#000000" style="-inkscape-stroke:none;font-variation-settings:normal"/><path d="m13.798 10.063c-0.162 0.01-0.336 0-0.527 0.132-1.705 0.734-0.561 2.747 1.612 4.279 0.013-0.289 0.133-0.917 0.13-1.194-1.854-1.271-2.939-2.509-1.757-2.999 1.246-0.517 1.633 0.895 1.655 2.944 0.116 0.12 0.92 0.654 1.042 0.739-0.045-1.869-1.039-3.777-1.993-3.885-0.051-0.01-0.107-0.01-0.161-0.01m1.736 3.252-0.388-0.151-0.322 0.217-0.065 0.682 0.406 0.312 0.169 0.226c1.251 0.83 2.317 1.469 3.718 1.997l0.874 0.13h0.575c0.53-0.313 0.214-0.433 2.141-0.673l-2.171 0.168c-1.675-0.649-3.385-1.582-4.94-2.6m3.822 2.72c0.251 0 2.211-0.17 2.99-0.242 0.772-0.12 1.719-0.156 1.54 0.746 0.204-0.481-0.261-1.298-0.922-1.442-1.023-0.229-2.646 0.398-3.229 0.591m0.94 0.25c-0.304 0.12-0.999 0.207-1.327 0.316 0.465 0.241 2.802 1.103 3.766 0.923 0.154 0 0.805-0.468 0.821-0.805-0.05 0.613-2.906 0.156-3.26-0.445m0.635 0.011c-0.25-0.12-1.422-0.114-1.681-0.211-1.468 0.513-3.442 1.719-4.855 2.532l-0.409 0.12c-0.079 0.561-0.425 0.755-0.74 1.118l0.478 0.481 0.374-0.613c1.654-0.998 4.924-2.611 6.832-3.386m-6.832 3.386c-0.202 0.12-0.395 0.241-0.578 0.361-0.424 1.204-0.919 2.01-1.391 1.98 0.729 0.349 2.301-1.37 2.83-2.986m-2.83 2.986c-1.113-0.661 1.243-1.867 1.77-2.217 0.119-0.337-0.206-0.895-0.1-1.292-1.661 1.034-2.643 2.531-2.086 3.24 0.134 0.168 0.276 0.253 0.417 0.265m1.617-2.52c0.077-0.31 1.103-1.015 1.289-1.123 0.248-1.954 0.26-2.147 0.471-3.666-0.126-0.12-0.902-0.725-1.022-0.809-0.149 1.624-0.429 3.824-0.826 5.293" color="#000000" color-rendering="auto" fill="#fff" image-rendering="auto" opacity=".8" shape-rendering="auto"/><path d="m6.6411 1.9968h18.76c0.86837 0 1.5929 0.73205 1.5929 1.6437 0 8.2545-1e-3 24.763-1e-3 24.763-3.7e-5 0.884-0.72853 1.5957-1.6335 1.5957h-18.718c-0.90494 0-1.6335-0.71167-1.6335-1.5957v-24.811c0-0.884 0.72853-1.5957 1.6335-1.5957z" fill="url(#linearGradient11)" stop-color="#000000" style="-inkscape-stroke:none;font-variation-settings:normal"/>
    

    <path d="m5.1235 29.004c0.2301 0.55992 0.77578 0.96086 1.4238 0.99609h18.902c0.64804-0.03523 1.1937-0.43618 1.4238-0.99609z" fill-rule="evenodd" opacity=".25" stop-color="#000000" style="-inkscape-stroke:none;font-variation-settings:normal"/><path d="m6.5469 1.9961c-0.64802 0.03523-1.1937 0.43617-1.4238 0.99609l21.742 0.00195c-0.2301-0.55992-0.77581-0.99602-1.4238-0.99609z" fill="#fff" fill-rule="evenodd" opacity=".4" stop-color="#000000" style="-inkscape-stroke:none;font-variation-settings:normal"/><rect x="8" y="3" width="1" height="26" fill="#fff" fill-opacity=".252"/><rect x="9" y="3" width="1" height="26" color="#000000" color-rendering="auto" fill-opacity=".059" image-rendering="auto" shape-rendering="auto"/></svg>
