<?xml version="1.0" encoding="UTF-8"?>
<svg width="32" height="32" version="1.1" xml:space="preserve" xmlns="http://www.w3.org/2000/svg"><defs>
    
    


<linearGradient id="linearGradient10" x1="372.98" x2="379.72" y1="524.49" y2="531" gradientTransform="translate(-352.58 -515.8)" gradientUnits="userSpaceOnUse"><stop stop-color="#383e51" offset="0"/><stop stop-color="#655c6f" stop-opacity="0" offset="1"/></linearGradient><linearGradient id="linearGradient4306-3" x1="4.6102" x2="5.017" y1="3.1404" y2="60.86" gradientTransform="matrix(.5 0 0 -.48276 33 29.448)" gradientUnits="userSpaceOnUse"><stop stop-color="#bdc3c7" offset="0"/><stop stop-color="#dadfe1" offset="1"/></linearGradient><linearGradient id="linearGradient4357-7" x2="0" y1="61" y2="47" gradientTransform="matrix(.48276 0 0 -.48276 33.69 29.69)" gradientUnits="userSpaceOnUse"><stop stop-color="#566472" offset="0"/><stop stop-color="#5e6b78" offset="1"/></linearGradient></defs>
    <path d="m6.6411 1.9968h13.363l6.9884 7.0071v19.4c0 0.884-0.72853 1.5957-1.6335 1.5957h-18.718c-0.90494 0-1.6335-0.71167-1.6335-1.5957v-24.811c0-0.884 0.72853-1.5957 1.6335-1.5957z" fill="url(#linearGradient4306-3)" stop-color="#000000" style="-inkscape-stroke:none;font-variation-settings:normal"/><g transform="matrix(.035598 0 0 .035556 8.9819 10.916)" fill="#5e6b78"><path d="m28.6 30.5 84.275-8e-6v28.125l-56.183 8e-6v281.25h56.183v28.125l-84.275 6e-5z"/><path d="m281.42 114.87v28.125h-70.229v168.75h-28.092v-168.75h-70.229l0.72501-28.125z"/><path d="m365.7 368h-84.275v-28.125h56.183v-281.25h-56.183v-28.125h84.275z"/></g>
    

    <path d="m26.995 9.0014h-5.9863c-0.55559 0-1.0029-0.44728-1.0029-1.0029v-6.0044z" fill="url(#linearGradient4357-7)" stop-color="#000000" style="-inkscape-stroke:none;font-variation-settings:normal"/><g fill-rule="evenodd"><path d="m20.379 8.7871 0.23438 0.20703 6.3789 6.3535 2e-3 -6.3457h-5.9863c-0.23341 0-0.44714-0.080137-0.61719-0.21289-0.0074-0.00165-0.01172-0.00195-0.01172-0.00195zm6.6152 0.21484v-0.00781h-0.0078z" fill="url(#linearGradient10)" opacity=".2" stop-color="#000000" style="-inkscape-stroke:none;font-variation-settings:normal"/><path d="m5.1235 29.004c0.2301 0.55992 0.77578 0.96086 1.4238 0.99609h18.902c0.64804-0.03523 1.1937-0.43618 1.4238-0.99609z" fill="#2e3132" fill-opacity=".29412" stop-color="#000000" style="-inkscape-stroke:none;font-variation-settings:normal"/><path d="m5.1235 2.9925c0.2301-0.55992 0.77578-0.96086 1.4238-0.99609h13.457l1.3e-5 0.99609z" fill="#fff" opacity=".4" stop-color="#000000" style="-inkscape-stroke:none;font-variation-settings:normal"/></g></svg>
