<?xml version="1.0" encoding="UTF-8"?>
<svg width="32" height="32" version="1.1" xml:space="preserve" xmlns="http://www.w3.org/2000/svg"><defs>
    
    


<linearGradient id="linearGradient10" x1="372.98" x2="379.72" y1="524.49" y2="531" gradientTransform="translate(-352.58 -515.8)" gradientUnits="userSpaceOnUse"><stop stop-color="#383e51" offset="0"/><stop stop-color="#655c6f" stop-opacity="0" offset="1"/></linearGradient><linearGradient id="a-8" x2="0" y1="61" y2="3" gradientTransform="matrix(.5 0 0 -.48276 28.001 31.421)" gradientUnits="userSpaceOnUse"><stop stop-color="#22a7f0" offset="0"/><stop stop-color="#19b5fe" offset="1"/></linearGradient><linearGradient id="b-6" x2="0" y1="518.04" y2="524.8" gradientTransform="translate(-356.57 -515.83)" gradientUnits="userSpaceOnUse"><stop stop-color="#c8e3fe" offset="0"/><stop stop-color="#fff" offset="1"/></linearGradient></defs>
    <path d="m6.6411 1.9968h13.363l6.9884 7.0071v19.4c0 0.884-0.72853 1.5957-1.6335 1.5957h-18.718c-0.90494 0-1.6335-0.71167-1.6335-1.5957v-24.811c0-0.884 0.72853-1.5957 1.6335-1.5957z" fill="url(#a-8)" stop-color="#000000" style="-inkscape-stroke:none;font-variation-settings:normal"/><g transform="matrix(.01429 0 0 .01429 8.7909 10.183)" fill="#fff"><path d="m530.2 118.2c0 17.3-14.1 31.2-31.4 31.2-17.4 0-31.4-14-31.4-31.2v-76.9c0-17.3 14.1-31.3 31.4-31.3 17.4 0 31.4 14 31.4 31.3z"/><path d="m525.4 662c0 14.2-11.6 25.7-25.9 25.7h-1.4c-14.3 0-25.9-11.5-25.9-25.7v-83.1c0-14.2 11.6-25.8 25.9-25.8h1.4c14.3 0 25.9 11.5 25.9 25.8z"/><path d="m825.5 906.7c10.4-10.7 13.8-27.1 7.1-41.5l-260-551.2c-0.2-1.5-0.2-3.1-0.2-4.7 0-5.4 2-10.4 5.2-14.3 31-23.3 51-60.3 51-101.9 0-70.6-57.5-127.7-128.5-127.8-72.3 0-128.6 57.2-128.6 127.8 0 41.6 19.9 78.6 50.9 101.9 3.3 3.9 5.3 8.8 5.3 14.3 0 1.6 0 3.2-0.2 4.7l-260 551.2c-6.7 14.3-3.4 30.8 7.1 41.5l-41 83.3 64.8-70.2c17.2 4.5 35.6-3.7 43.4-20.2l247.9-525.4c2.3-2.9 5.8-4.7 9.8-4.7h1.2c4 0 7.5 1.9 9.7 4.7l247.9 525.4c7.7 16.6 26.2 24.7 43.3 20.2l64.8 70.2zm-325.4-640.1c-41 0-73.8-32.9-73.8-73.5 0-40.5 32.9-73.4 73.8-73.5 40.8 0 73.8 32.9 73.8 73.5s-33 73.5-73.8 73.5"/><path d="m781.7 622.9c0 9.3-7.5 16.8-16.9 16.8h-532.1c-9.3 0-16.9-7.5-16.9-16.8v-0.1c0-9.3 7.6-16.8 16.9-16.8h532.1c9.4 0.1 16.9 7.6 16.9 16.9"/></g>
    

    <path d="m26.995 9.0014h-5.9863c-0.55559 0-1.0029-0.44728-1.0029-1.0029v-6.0044z" fill="url(#b-6)" stop-color="#000000" style="-inkscape-stroke:none;font-variation-settings:normal"/><g fill-rule="evenodd"><path d="m20.379 8.7871 0.23438 0.20703 6.3789 6.3535 2e-3 -6.3457h-5.9863c-0.23341 0-0.44714-0.080137-0.61719-0.21289-0.0074-0.00165-0.01172-0.00195-0.01172-0.00195zm6.6152 0.21484v-0.00781h-0.0078z" fill="url(#linearGradient10)" opacity=".2" stop-color="#000000" style="-inkscape-stroke:none;font-variation-settings:normal"/><path d="m5.1235 29.004c0.2301 0.55992 0.77578 0.96086 1.4238 0.99609h18.902c0.64804-0.03523 1.1937-0.43618 1.4238-0.99609z" opacity=".25" stop-color="#000000" style="-inkscape-stroke:none;font-variation-settings:normal"/><path d="m5.1235 2.9925c0.2301-0.55992 0.77578-0.96086 1.4238-0.99609h13.457l1.3e-5 0.99609z" fill="#fff" opacity=".4" stop-color="#000000" style="-inkscape-stroke:none;font-variation-settings:normal"/></g></svg>
