<?xml version="1.0" encoding="UTF-8"?>
<svg width="32" height="32" version="1.1" xml:space="preserve" xmlns="http://www.w3.org/2000/svg"><defs><linearGradient id="linearGradient11" x2="0" y1="392.36" y2="365.36" gradientTransform="translate(-33,-363.36)" gradientUnits="userSpaceOnUse"><stop stop-color="#fff" stop-opacity="0" offset="0"/><stop stop-color="#fff" stop-opacity=".15" offset="1"/></linearGradient><linearGradient id="linearGradient8" x1="18.727" x2="25.758" y1="16.98" y2="23.848" gradientTransform="translate(3.0101,-8.0101)" gradientUnits="userSpaceOnUse"><stop stop-color="#060606" offset="0"/><stop stop-opacity="0" offset="1"/></linearGradient>
    
    


</defs>
    <path d="m6.6411 1.9968h13.363l6.9884 7.0071v19.4c0 0.884-0.72853 1.5957-1.6335 1.5957h-18.718c-0.90494 0-1.6335-0.71167-1.6335-1.5957v-24.811c0-0.884 0.72853-1.5957 1.6335-1.5957z" fill="#ff8b23" stop-color="#000000" style="-inkscape-stroke:none;font-variation-settings:normal"/><path d="m23.03 18.775c-0.08603-0.63058-0.29569-1.2286-0.62338-1.7772-0.28576-0.4788-0.65244-0.90464-1.0901-1.2666l0.0011-0.0011-4.5966-3.6776a0.1311 0.13656 0 0 0-0.01034-0.0085c-0.15283-0.12194-0.35974-0.18905-0.58241-0.18905-0.22295 0-0.43796 0.06725-0.6051 0.18944-0.17971 0.13076-0.28243 0.30427-0.28961 0.48896-0.0066 0.17231 0.07234 0.33811 0.22278 0.46735 0.29583 0.24315 0.59101 0.49159 0.88658 0.74033 0.28685 0.2415 0.58243 0.49022 0.87657 0.73235l-5.6301-0.0039c-0.64386 0-1.0823 0.31495-1.1725 0.84222-0.03963 0.23096 0.0303 0.4849 0.18662 0.67939 0.16585 0.20618 0.40665 0.31991 0.67801 0.31991l0.4292 3.07e-4c0.59293 0 1.1885-0.0015 1.7832-0.0031l0.56716-0.0013-5.1098 3.9379-0.020296 0.01545c-0.28542 0.22788-0.47227 0.54737-0.51259 0.87648-0.030553 0.24934 0.025281 0.47718 0.16155 0.65915 0.16241 0.21694 0.41598 0.33626 0.71405 0.33626 0.29282 0 0.59161-0.11558 0.84171-0.32603l2.7594-2.3523c-0.01173 0.11487-0.02611 0.28338-0.02448 0.40569 0.0032 0.19365 0.06278 0.58222 0.15727 0.89767 0.19524 0.6483 0.5241 1.2415 0.9774 1.7624 0.47167 0.54196 1.0461 0.97168 1.7073 1.2769 0.69898 0.32203 1.4504 0.4855 2.2334 0.4855h0.0073c0.78552-0.0021 1.5393-0.16804 2.2406-0.49374 0.66226-0.30888 1.2365-0.74033 1.7063-1.2822 0.45273-0.52357 0.78113-1.1177 0.97599-1.7655a4.3363 4.517 0 0 0 0.1841-0.98644c0.02408-0.3237 0.01372-0.65308-0.03033-0.97897zm-5.0267 3.1073c-1.7257 0-3.1251-1.304-3.1251-2.9126 0-1.6085 1.3994-2.9125 3.1251-2.9125 1.7257 0 3.125 1.304 3.125 2.9125 5.4e-5 1.6087-1.3993 2.9126-3.125 2.9126zm1.8022-3.1686c0.02544 0.48011-0.15865 0.92591-0.48194 1.2559-0.32886 0.3362-0.79812 0.54737-1.3229 0.54737-0.52452 0-0.99387-0.21117-1.3228-0.54737-0.32315-0.33001-0.50688-0.77575-0.48157-1.2555 0.0248-0.46637 0.24318-0.87803 0.57213-1.1695 0.32346-0.28661 0.7578-0.46146 1.2323-0.46146 0.47451 0 0.90874 0.17491 1.2322 0.46146 0.32912 0.29148 0.54757 0.70285 0.57262 1.1691z" opacity=".55417" stop-color="#000000" stroke-width="1.096" style="-inkscape-stroke:none;font-variation-settings:normal"/>
    <path d="m26.995 9.0014h-5.9863c-0.55559 0-1.0029-0.44728-1.0029-1.0029v-6.0044z" opacity=".6" stop-color="#000000" style="-inkscape-stroke:none;font-variation-settings:normal"/><path d="m6.6411 1.9968h13.363l6.9884 7.0071v19.4c0 0.884-0.72853 1.5957-1.6335 1.5957h-18.718c-0.90494 0-1.6335-0.71167-1.6335-1.5957v-24.811c0-0.884 0.72853-1.5957 1.6335-1.5957z" fill="url(#linearGradient11)" stop-color="#000000" style="-inkscape-stroke:none;font-variation-settings:normal"/><g fill-rule="evenodd">

    <path d="m20.379 8.7871 0.23438 0.20703 6.3789 6.3535 2e-3 -6.3457h-5.9863c-0.23341 0-0.44714-0.080137-0.61719-0.21289-0.0074-0.00165-0.01172-0.00195-0.01172-0.00195zm6.6152 0.21484v-0.00781h-0.0078z" fill="url(#linearGradient8)" opacity=".1" stop-color="#000000" style="-inkscape-stroke:none;font-variation-settings:normal"/><path d="m5.1235 29.004c0.2301 0.55992 0.77578 0.96086 1.4238 0.99609h18.902c0.64804-0.03523 1.1937-0.43618 1.4238-0.99609z" opacity=".25" stop-color="#000000" style="-inkscape-stroke:none;font-variation-settings:normal"/><path d="m5.1235 2.9925c0.2301-0.55992 0.77578-0.96086 1.4238-0.99609h13.457l1.3e-5 0.99609z" fill="#fff" opacity=".4" stop-color="#000000" style="-inkscape-stroke:none;font-variation-settings:normal"/></g></svg>
