<?xml version="1.0" encoding="UTF-8"?>
<svg width="32" height="32" version="1.1" xml:space="preserve" xmlns="http://www.w3.org/2000/svg"><defs><linearGradient id="linearGradient11" x2="0" y1="392.36" y2="365.36" gradientTransform="translate(-33,-363.36)" gradientUnits="userSpaceOnUse"><stop stop-color="#fff" stop-opacity="0" offset="0"/><stop stop-color="#fff" stop-opacity=".15" offset="1"/></linearGradient><linearGradient id="linearGradient8" x1="18.727" x2="25.758" y1="16.98" y2="23.848" gradientTransform="translate(3.0101,-8.0101)" gradientUnits="userSpaceOnUse"><stop stop-color="#060606" offset="0"/><stop stop-opacity="0" offset="1"/></linearGradient><linearGradient id="a-17" x2="0" y1="61" y2="3" gradientTransform="matrix(.5 0 0 -.48276 36.116 31.364)" gradientUnits="userSpaceOnUse"><stop stop-color="#5e6b78" offset="0"/><stop stop-color="#768492" offset="1"/></linearGradient><linearGradient id="b" x2="0" y1="518.04" y2="524.8" gradientTransform="translate(-352.56 -515.73)" gradientUnits="userSpaceOnUse"><stop stop-color="#dedede" offset="0"/><stop stop-color="#fbfbfb" offset="1"/></linearGradient></defs>
    <path d="m6.6411 1.9968h13.363l6.9884 7.0071v19.4c0 0.884-0.72853 1.5957-1.6335 1.5957h-18.718c-0.90494 0-1.6335-0.71167-1.6335-1.5957v-24.811c0-0.884 0.72853-1.5957 1.6335-1.5957z" fill="url(#a-17)" stop-color="#000000" style="-inkscape-stroke:none;font-variation-settings:normal"/>
    <path d="m10.01 12.071v12h12v-12zm1 3h3.336v0.666h-2.848v0.809h4.545c-0.273 0.785-0.703 1.53-1.289 2.182-0.378-0.419-0.693-0.879-0.941-1.363h-0.814c0.297 0.663 0.704 1.29 1.213 1.855l-2.07 2.043 0.578 0.578 2.035-2.035 1.266 1.266 0.309-0.83-1.033-1.021 0.012-0.012c0.708-0.79 1.213-1.698 1.51-2.658h1.191v-0.813h-2.848v-0.666h5.85v8c-0.404-4e-3 -0.748-6e-3 -1.137-0.01h0.578l-1.832-4.883h-0.814l-1.818 4.85c-1.605-5e-3 -3.21 5e-3 -4.977 0.043zm7.203 4.193 0.658 1.762h-1.318zm-0.969 2.576h1.934l0.459 1.219c-0.965-0.01-1.922-0.02-2.84-0.025z" fill="#fbfbfb"/><path d="m6.6411 1.9968h13.363l6.9884 7.0071v19.4c0 0.884-0.72853 1.5957-1.6335 1.5957h-18.718c-0.90494 0-1.6335-0.71167-1.6335-1.5957v-24.811c0-0.884 0.72853-1.5957 1.6335-1.5957z" fill="url(#linearGradient11)" opacity=".10627" stop-color="#000000" style="-inkscape-stroke:none;font-variation-settings:normal"/>

    <path d="m26.995 9.0014h-5.9863c-0.55559 0-1.0029-0.44728-1.0029-1.0029v-6.0044z" fill="url(#b)" stop-color="#000000" style="-inkscape-stroke:none;font-variation-settings:normal"/><g fill-rule="evenodd">
    <path d="m20.379 8.7871 0.23438 0.20703 6.3789 6.3535 2e-3 -6.3457h-5.9863c-0.23341 0-0.44714-0.080137-0.61719-0.21289-0.0074-0.00165-0.01172-0.00195-0.01172-0.00195zm6.6152 0.21484v-0.00781h-0.0078z" fill="url(#linearGradient8)" opacity=".1" stop-color="#000000" style="-inkscape-stroke:none;font-variation-settings:normal"/>
    <path d="m5.1235 29.004c0.2301 0.55992 0.77578 0.96086 1.4238 0.99609h18.902c0.64804-0.03523 1.1937-0.43618 1.4238-0.99609z" opacity=".25" stop-color="#000000" style="-inkscape-stroke:none;font-variation-settings:normal"/>

<path d="m5.1235 2.9925c0.2301-0.55992 0.77578-0.96086 1.4238-0.99609h13.457l1.3e-5 0.99609z" fill="#fff" opacity=".4" stop-color="#000000" style="-inkscape-stroke:none;font-variation-settings:normal"/>
</g></svg>
