<?xml version="1.0" encoding="UTF-8"?>
<svg width="32" height="32" version="1.1" xml:space="preserve" xmlns="http://www.w3.org/2000/svg"><defs><linearGradient id="linearGradient11" x2="0" y1="392.36" y2="365.36" gradientTransform="translate(-33,-363.36)" gradientUnits="userSpaceOnUse"><stop stop-color="#fff" stop-opacity="0" offset="0"/><stop stop-color="#fff" stop-opacity=".15" offset="1"/></linearGradient><linearGradient id="linearGradient8" x1="18.727" x2="25.758" y1="16.98" y2="23.848" gradientTransform="translate(3.0101,-8.0101)" gradientUnits="userSpaceOnUse"><stop stop-color="#060606" offset="0"/><stop stop-opacity="0" offset="1"/></linearGradient>
    
    


</defs>
    <path d="m6.6411 1.9968h13.363l6.9884 7.0071v19.4c0 0.884-0.72853 1.5957-1.6335 1.5957h-18.718c-0.90494 0-1.6335-0.71167-1.6335-1.5957v-24.811c0-0.884 0.72853-1.5957 1.6335-1.5957z" fill="#3b549e" stop-color="#000000" style="-inkscape-stroke:none;font-variation-settings:normal"/>
    <path d="m6.6411 1.9968h13.363l6.9884 7.0071v19.4c0 0.884-0.72853 1.5957-1.6335 1.5957h-18.718c-0.90494 0-1.6335-0.71167-1.6335-1.5957v-24.811c0-0.884 0.72853-1.5957 1.6335-1.5957z" fill="url(#linearGradient11)" stop-color="#000000" style="-inkscape-stroke:none;font-variation-settings:normal"/>

    <path d="m26.995 9.0014h-5.9863c-0.55559 0-1.0029-0.44728-1.0029-1.0029v-6.0044z" fill="#fff" opacity=".5" stop-color="#000000" style="-inkscape-stroke:none;font-variation-settings:normal"/><path d="m20.379 8.7871 0.23438 0.20703 6.3789 6.3535 2e-3 -6.3457h-5.9863c-0.23341 0-0.44714-0.080137-0.61719-0.21289-0.0074-0.00165-0.01172-0.00195-0.01172-0.00195zm6.6152 0.21484v-0.00781h-0.0078z" fill="url(#linearGradient8)" fill-rule="evenodd" opacity=".1" stop-color="#000000" style="-inkscape-stroke:none;font-variation-settings:normal"/><g><path d="m5.1235 29.004c0.2301 0.55992 0.77578 0.96086 1.4238 0.99609h18.902c0.64804-0.03523 1.1937-0.43618 1.4238-0.99609z" fill-rule="evenodd" opacity=".25" stop-color="#000000" style="-inkscape-stroke:none;font-variation-settings:normal"/><path d="m5.1235 2.9925c0.2301-0.55992 0.77578-0.96086 1.4238-0.99609h13.457l1.3e-5 0.99609z" fill="#fff" fill-rule="evenodd" opacity=".5" stop-color="#000000" style="-inkscape-stroke:none;font-variation-settings:normal"/><g transform="translate(.030303 -.030303)" fill="#fff" opacity=".75" stop-color="#000000" style="-inkscape-stroke:none;font-variation-settings:normal"><path d="m14.584 9.4366c-0.63588 0.14136-1.2649 0.33817-1.8546 0.63501 0.01349 0.52074 0.04716 1.0197 0.1154 1.5265-0.22903 0.14673-0.46976 0.27266-0.68367 0.44443-0.21735 0.16721-0.43932 0.32718-0.63612 0.52274-0.39318-0.26006-0.80932-0.50445-1.238-0.72018-0.46211 0.49733-0.8942 1.0341-1.2472 1.6348 0.2774 0.43543 0.57494 0.87309 0.85049 1.2144v3.6865c0.00674 6e-5 0.013475 3.14e-4 0.020156 9.38e-4l2.26 0.21791c0.11838 0.01143 0.21119 0.10672 0.21943 0.22535l0.06967 0.99765 1.9714 0.14068 0.13582-0.9208c0.01761-0.11938 0.12-0.20786 0.24076-0.20786h2.3844c0.1207 0 0.2231 0.08848 0.2407 0.20786l0.13582 0.9208 1.9715-0.14068 0.06964-0.99765c0.0083-0.11864 0.10102-0.21386 0.2194-0.22535l2.2592-0.21791c0.0067-6.24e-4 0.01336-8.76e-4 0.0201-9.38e-4v-0.29417l9.3e-4 -2.93e-4v-3.392c0.31825-0.40064 0.6196-0.84257 0.85049-1.2144-0.35284-0.60066-0.78517-1.1374-1.2473-1.6348-0.42858 0.21573-0.84488 0.46012-1.2381 0.72018-0.19674-0.19556-0.41834-0.35553-0.63601-0.52274-0.21385-0.17177-0.45485-0.2977-0.68344-0.44443 0.06806-0.50682 0.1017-1.0058 0.11525-1.5265-0.5898-0.29684-1.2187-0.49365-1.8549-0.63501-0.254 0.4269-0.48629 0.88919-0.68859 1.3411-0.23989-0.04009-0.4809-0.05493-0.72223-0.0578v-3.81e-4c-0.0017 0-0.0033 3.81e-4 -0.0047 3.81e-4 -0.0015 0-0.0031-3.81e-4 -0.0046-3.81e-4v3.81e-4c-0.24176 0.0029-0.4826 0.01772-0.72255 0.0578-0.20218-0.45193-0.4343-0.91423-0.68868-1.3411zm-1.788 5.3929c0.75227 0 1.362 0.60926 1.362 1.3613 0 0.75252-0.60972 1.3621-1.362 1.3621-0.75189 0-1.3618-0.60961-1.3618-1.3621 0-0.75202 0.60991-1.3613 1.3618-1.3613zm6.4077 0c0.75183 0 1.3617 0.60926 1.3617 1.3613 0 0.75252-0.60983 1.3621-1.3617 1.3621-0.75239 0-1.3621-0.60961-1.3621-1.3621 0-0.75202 0.60974-1.3613 1.3621-1.3613zm-3.204 0.79664c0.24214 0 0.43881 0.17862 0.43881 0.39841v1.2538c0 0.21997-0.19667 0.39844-0.43881 0.39844s-0.4384-0.17846-0.4384-0.39844v-1.2538c0-0.21979 0.19626-0.39841 0.4384-0.39841z" stop-color="#000000" style="-inkscape-stroke:none;font-variation-settings:normal"/><path d="m20.081 19.064-0.06999 1.003c-0.0084 0.12088-0.10458 0.2171-0.22547 0.22578l-2.4073 0.17177c-0.0059 4.36e-4 -0.01174 6.24e-4 -0.01755 6.24e-4 -0.11963 0-0.22284-0.08779-0.24052-0.20792l-0.13805-0.93621h-1.9643l-0.13805 0.93621c-0.01854 0.126-0.13118 0.2166-0.25806 0.2073l-2.4073-0.17177c-0.12088-0.0087-0.21704-0.1049-0.22547-0.22578l-0.07-1.003-2.0322-0.19594c9.36e-4 0.21841 0.00375 0.45768 0.00375 0.50532 0 2.1463 2.7227 3.1779 6.1054 3.1898h0.0083c3.3827-0.01186 6.1044-1.0435 6.1044-3.1898 0-0.04852 0.0029-0.28678 0.0039-0.50532z" stop-color="#000000" style="-inkscape-stroke:none;font-variation-settings:normal"/></g></g></svg>
