<?xml version="1.0" encoding="UTF-8"?>
<svg width="32" height="32" version="1.1" xml:space="preserve" xmlns="http://www.w3.org/2000/svg"><defs><linearGradient id="linearGradient11" x2="0" y1="392.36" y2="365.36" gradientTransform="translate(-33,-363.36)" gradientUnits="userSpaceOnUse"><stop stop-color="#fff" stop-opacity="0" offset="0"/><stop stop-color="#fff" stop-opacity=".15" offset="1"/></linearGradient><linearGradient id="linearGradient8" x1="18.727" x2="25.758" y1="16.98" y2="23.848" gradientTransform="translate(3.0101,-8.0101)" gradientUnits="userSpaceOnUse"><stop stop-color="#060606" offset="0"/><stop stop-opacity="0" offset="1"/></linearGradient>
    
    


</defs>
    <path d="m6.6411 1.9968h13.363l6.9884 7.0071v19.4c0 0.884-0.72853 1.5957-1.6335 1.5957h-18.718c-0.90494 0-1.6335-0.71167-1.6335-1.5957v-24.811c0-0.884 0.72853-1.5957 1.6335-1.5957z" fill="#209ae7" stop-color="#000000" style="-inkscape-stroke:none;font-variation-settings:normal"/>
    <g transform="translate(-32)"><rect x="42.543" y="11.432" width="11.055" height="11.055" rx=".63275" ry=".63275" fill="none" stroke="#fff" stroke-linecap="round" stroke-linejoin="round" stroke-opacity=".75" stroke-width=".94488"/><path d="m47.171 12.169v1.8h-0.95625l1.8562 2.1 1.8562-2.1h-0.95625v-1.8z" fill="#fff" fill-opacity=".75"/><path d="m47.743 16.369c-0.05187 0-0.08437 0.08847-0.08437 0.19688v0.68438c-0.20882 0.04755-0.40546 0.13271-0.58125 0.24375l-0.4875-0.4875c-0.07666-0.07666-0.1602-0.11168-0.19688-0.07501l-0.45937 0.45938c-0.03668 0.03667-0.0017 0.12023 0.075 0.19688l0.4875 0.4875c-0.11104 0.17579-0.1962 0.37244-0.24375 0.58125h-0.68437c-0.1084 0-0.19687 0.03252-0.19687 0.08438v0.65625c0 0.05187 0.08848 0.08438 0.19687 0.08438h0.68437c0.04755 0.20882 0.13271 0.40547 0.24375 0.58125l-0.4875 0.4875c-0.07664 0.07666-0.11168 0.1602-0.075 0.19688l0.45937 0.45938c0.03667 0.03668 0.12022 0.0017 0.19688-0.075l0.4875-0.4875c0.17578 0.11104 0.37243 0.1962 0.58125 0.24375v0.68438c0 0.1084 0.03252 0.19688 0.08438 0.19688h0.65625c0.05186 0 0.08438-0.08847 0.08438-0.19688v-0.68438c0.20882-0.04755 0.40546-0.13271 0.58125-0.24375l0.4875 0.4875c0.07665 0.07666 0.1602 0.11168 0.19687 0.075l0.45937-0.45938c0.03667-0.03667 0.0017-0.12023-0.075-0.19688l-0.48752-0.4875c0.11104-0.17579 0.1962-0.37244 0.24375-0.58125h0.68437c0.1084 0 0.19687-0.03252 0.19687-0.08438v-0.65625c0-0.05186-0.08847-0.08438-0.19687-0.08438h-0.68438c-0.04755-0.20881-0.13271-0.40546-0.24375-0.58125l0.4875-0.4875c0.07665-0.07666 0.11168-0.1602 0.07501-0.19688l-0.45937-0.45938c-0.03667-0.03667-0.12022-0.0017-0.19687 0.07501l-0.4875 0.4875c-0.17579-0.11104-0.37244-0.1962-0.58126-0.24375v-0.68438c0-0.1084-0.03252-0.19688-0.08438-0.19688zm0.32812 1.8656c0.45858 0 0.83437 0.37579 0.83437 0.83438s-0.37579 0.83438-0.83437 0.83438-0.83437-0.37579-0.83437-0.83438c0-0.45858 0.37579-0.83438 0.83437-0.83438z" fill="#fff" fill-opacity=".75"/></g><path d="m6.6411 1.9968h13.363l6.9884 7.0071v19.4c0 0.884-0.72853 1.5957-1.6335 1.5957h-18.718c-0.90494 0-1.6335-0.71167-1.6335-1.5957v-24.811c0-0.884 0.72853-1.5957 1.6335-1.5957z" fill="url(#linearGradient11)" stop-color="#000000" style="-inkscape-stroke:none;font-variation-settings:normal"/>

    <path d="m26.995 9.0014h-5.9863c-0.55559 0-1.0029-0.44728-1.0029-1.0029v-6.0044z" fill="#fff" opacity=".5" stop-color="#000000" style="-inkscape-stroke:none;font-variation-settings:normal"/><g fill-rule="evenodd"><path d="m20.379 8.7871 0.23438 0.20703 6.3789 6.3535 2e-3 -6.3457h-5.9863c-0.23341 0-0.44714-0.080137-0.61719-0.21289-0.0074-0.00165-0.01172-0.00195-0.01172-0.00195zm6.6152 0.21484v-0.00781h-0.0078z" fill="url(#linearGradient8)" opacity=".1" stop-color="#000000" style="-inkscape-stroke:none;font-variation-settings:normal"/><path d="m5.1235 29.004c0.2301 0.55992 0.77578 0.96086 1.4238 0.99609h18.902c0.64804-0.03523 1.1937-0.43618 1.4238-0.99609z" opacity=".25" stop-color="#000000" style="-inkscape-stroke:none;font-variation-settings:normal"/><path d="m5.1235 2.9925c0.2301-0.55992 0.77578-0.96086 1.4238-0.99609h13.457l1.3e-5 0.99609z" fill="#fff" opacity=".4" stop-color="#000000" style="-inkscape-stroke:none;font-variation-settings:normal"/></g></svg>
