<?xml version="1.0" encoding="UTF-8"?>
<svg width="32" height="32" version="1.1" xml:space="preserve" xmlns="http://www.w3.org/2000/svg"><defs><linearGradient id="linearGradient11" x2="0" y1="392.36" y2="365.36" gradientTransform="translate(-33,-363.36)" gradientUnits="userSpaceOnUse"><stop stop-color="#fff" stop-opacity="0" offset="0"/><stop stop-color="#fff" stop-opacity=".15" offset="1"/></linearGradient><linearGradient id="linearGradient8" x1="18.727" x2="25.758" y1="16.98" y2="23.848" gradientTransform="translate(3.0101,-8.0101)" gradientUnits="userSpaceOnUse"><stop stop-color="#060606" offset="0"/><stop stop-opacity="0" offset="1"/></linearGradient></defs>
    <path d="m6.6411 1.9968h13.363l6.9884 7.0071v19.4c0 0.884-0.72853 1.5957-1.6335 1.5957h-18.718c-0.90494 0-1.6335-0.71167-1.6335-1.5957v-24.811c0-0.884 0.72853-1.5957 1.6335-1.5957z" fill="#f7a01c" stop-color="#000000" style="-inkscape-stroke:none;font-variation-settings:normal"/>
    <path d="m15.444 12.057v1.125c-0.843 0.078-1.507 0.291-2 0.688-0.542 0.432-0.813 1.072-0.813 1.906 0 1.165 0.697 1.921 2.125 2.281l0.688 0.188v3.688c-0.887-0.079-1.719-0.273-2.5-0.656l-0.344 0.906c0.318 0.195 0.752 0.379 1.281 0.531 0.465 0.129 0.988 0.186 1.563 0.219v1.125h1v-1.125c0.85-0.068 1.533-0.327 2.031-0.781 0.534-0.483 0.812-1.183 0.813-2.094 0-0.737-0.2-1.289-0.594-1.688-0.394-0.403-0.987-0.693-1.75-0.875l-0.5-0.125v-3.25c0.386 0.029 0.787 0.083 1.156 0.188 0.424 0.114 0.742 0.262 1 0.406l0.313-0.906c-0.64-0.399-1.461-0.637-2.469-0.688v-1.063h-0.75zm-0.219 2.094c0.065-0.011 0.149 8e-3 0.219 0v2.969l-0.281-0.063c-0.47-0.114-0.825-0.284-1.063-0.5-0.233-0.22-0.344-0.515-0.344-0.875 0-0.856 0.483-1.366 1.469-1.531m1.219 4.313 0.188 0.063c0.576 0.144 0.971 0.34 1.188 0.594 0.22 0.25 0.312 0.593 0.313 1 0 1.133-0.563 1.735-1.688 1.844z" color="#4d4d4d" fill="#fddda3"/><path d="m6.6411 1.9968h13.363l6.9884 7.0071v19.4c0 0.884-0.72853 1.5957-1.6335 1.5957h-18.718c-0.90494 0-1.6335-0.71167-1.6335-1.5957v-24.811c0-0.884 0.72853-1.5957 1.6335-1.5957z" fill="url(#linearGradient11)" opacity=".10389" stop-color="#000000" style="-inkscape-stroke:none;font-variation-settings:normal"/>

    <path d="m26.995 9.0014h-5.9863c-0.55559 0-1.0029-0.44728-1.0029-1.0029v-6.0044z" fill="#fff" opacity=".5" stop-color="#000000" style="-inkscape-stroke:none;font-variation-settings:normal"/><g fill-rule="evenodd">
    <path d="m20.379 8.7871 0.23438 0.20703 6.3789 6.3535 2e-3 -6.3457h-5.9863c-0.23341 0-0.44714-0.080137-0.61719-0.21289-0.0074-0.00165-0.01172-0.00195-0.01172-0.00195zm6.6152 0.21484v-0.00781h-0.0078z" fill="url(#linearGradient8)" opacity=".1" stop-color="#000000" style="-inkscape-stroke:none;font-variation-settings:normal"/>
    <path d="m5.1235 29.004c0.2301 0.55992 0.77578 0.96086 1.4238 0.99609h18.902c0.64804-0.03523 1.1937-0.43618 1.4238-0.99609z" opacity=".25" stop-color="#000000" style="-inkscape-stroke:none;font-variation-settings:normal"/>

<path d="m5.1235 2.9925c0.2301-0.55992 0.77578-0.96086 1.4238-0.99609h13.457l1.3e-5 0.99609z" fill="#fff" opacity=".4" stop-color="#000000" style="-inkscape-stroke:none;font-variation-settings:normal"/>
</g></svg>
