<?xml version="1.0" encoding="UTF-8"?>
<svg width="32" height="32" version="1.1" xml:space="preserve" xmlns="http://www.w3.org/2000/svg"><defs><linearGradient id="linearGradient11" x2="0" y1="392.36" y2="365.36" gradientTransform="translate(-33,-363.36)" gradientUnits="userSpaceOnUse"><stop stop-color="#fff" stop-opacity="0" offset="0"/><stop stop-color="#fff" stop-opacity=".15" offset="1"/></linearGradient><linearGradient id="linearGradient8" x1="18.727" x2="25.758" y1="16.98" y2="23.848" gradientTransform="translate(3.0101,-8.0101)" gradientUnits="userSpaceOnUse"><stop stop-color="#060606" offset="0"/><stop stop-opacity="0" offset="1"/></linearGradient><linearGradient id="a-17" x2="0" y1="61" y2="3" gradientTransform="matrix(.5 0 0 -.48276 36.116 31.364)" gradientUnits="userSpaceOnUse"><stop stop-color="#5e6b78" offset="0"/><stop stop-color="#768492" offset="1"/></linearGradient><linearGradient id="b-7" x2="0" y1="518.04" y2="524.8" gradientTransform="translate(-347.57 -515.8)" gradientUnits="userSpaceOnUse"><stop stop-color="#dedede" offset="0"/><stop stop-color="#fbfbfb" offset="1"/></linearGradient></defs>
    <path d="m6.6411 1.9968h13.363l6.9884 7.0071v19.4c0 0.884-0.72853 1.5957-1.6335 1.5957h-18.718c-0.90494 0-1.6335-0.71167-1.6335-1.5957v-24.811c0-0.884 0.72853-1.5957 1.6335-1.5957z" fill="url(#a-17)" stop-color="#000000" style="-inkscape-stroke:none;font-variation-settings:normal"/>
    <path d="m6.6411 1.9968h13.363l6.9884 7.0071v19.4c0 0.884-0.72853 1.5957-1.6335 1.5957h-18.718c-0.90494 0-1.6335-0.71167-1.6335-1.5957v-24.811c0-0.884 0.72853-1.5957 1.6335-1.5957z" fill="url(#linearGradient11)" opacity=".10627" stop-color="#000000" style="-inkscape-stroke:none;font-variation-settings:normal"/>

    <path d="m26.995 9.0014h-5.9863c-0.55559 0-1.0029-0.44728-1.0029-1.0029v-6.0044z" fill="url(#b-7)" opacity=".75" stop-color="#000000" style="-inkscape-stroke:none;font-variation-settings:normal"/><g fill-rule="evenodd">
    <path d="m20.379 8.7871 0.23438 0.20703 6.3789 6.3535 2e-3 -6.3457h-5.9863c-0.23341 0-0.44714-0.080137-0.61719-0.21289-0.0074-0.00165-0.01172-0.00195-0.01172-0.00195zm6.6152 0.21484v-0.00781h-0.0078z" fill="url(#linearGradient8)" opacity=".1" stop-color="#000000" style="-inkscape-stroke:none;font-variation-settings:normal"/>
    <path d="m5.1235 29.004c0.2301 0.55992 0.77578 0.96086 1.4238 0.99609h18.902c0.64804-0.03523 1.1937-0.43618 1.4238-0.99609z" opacity=".25" stop-color="#000000" style="-inkscape-stroke:none;font-variation-settings:normal"/>

<path d="m5.1235 2.9925c0.2301-0.55992 0.77578-0.96086 1.4238-0.99609h13.457l1.3e-5 0.99609z" fill="#fff" opacity=".4" stop-color="#000000" style="-inkscape-stroke:none;font-variation-settings:normal"/>
</g><path d="m10.116 10.914v12h12v-12zm1 3h10v8c-3.551-0.037-6.45-0.077-10 0zm5.199 1c-0.486 0-0.94 0.17-1.26 0.49s-0.49 0.774-0.49 1.26h1c0-0.264 0.079-0.435 0.197-0.553s0.289-0.197 0.553-0.197 0.435 0.08 0.553 0.197c0.118 0.118 0.197 0.289 0.197 0.553 0 0.229-0.045 0.326-0.105 0.412-0.261 0.263-0.575 0.488-0.828 0.703-0.286 0.215-0.566 0.497-0.566 0.885v0.25h1v-0.25c0.355-0.364 0.885-0.682 1.215-1.016 0.174-0.25 0.285-0.589 0.285-0.984 0-0.486-0.17-0.94-0.49-1.26s-0.774-0.49-1.26-0.49m-0.75 5v1h1v-1z" fill="#fbfbfb" opacity=".75"/></svg>
