<?xml version="1.0" encoding="UTF-8"?>
<svg width="32" height="32" version="1.1" xml:space="preserve" xmlns="http://www.w3.org/2000/svg"><defs><linearGradient id="linearGradient11" x2="0" y1="392.36" y2="365.36" gradientTransform="translate(-33,-363.36)" gradientUnits="userSpaceOnUse"><stop stop-color="#fff" stop-opacity="0" offset="0"/><stop stop-color="#fff" stop-opacity=".15" offset="1"/></linearGradient><linearGradient id="linearGradient8" x1="18.727" x2="25.758" y1="16.98" y2="23.848" gradientTransform="translate(3.0101,-8.0101)" gradientUnits="userSpaceOnUse"><stop stop-color="#060606" offset="0"/><stop stop-opacity="0" offset="1"/></linearGradient><linearGradient id="b-1" x2="0" y1="518.04" y2="524.8" gradientTransform="translate(-354.48 -515.83)" gradientUnits="userSpaceOnUse"><stop stop-color="#97aad8" offset="0"/><stop stop-color="#c1cae7" offset="1"/></linearGradient></defs>
    <path d="m6.6411 1.9968h13.363l6.9884 7.0071v19.4c0 0.884-0.72853 1.5957-1.6335 1.5957h-18.718c-0.90494 0-1.6335-0.71167-1.6335-1.5957v-24.811c0-0.884 0.72853-1.5957 1.6335-1.5957z" fill="#2e6ad1" stop-color="#000000" style="-inkscape-stroke:none;font-variation-settings:normal"/>
    <path d="m16.026 11c-0.64-2e-3 -1.2945 0.0107-1.9355 0.2207-1.924 0.625-3.3343 2.1525-3.8633 4.1895-0.196 0.753-0.19931 0.90784-0.19531 3.0898 3e-3 1.83 0.0055 1.903 0.06055 2.168a2.794 2.794 0 0 0 1.7129 2.0469c0.096 0.039 0.19488 0.07937 0.29688 0.10938 0.039 0.011 0.08405 0.0172 0.12305 0.0332 0.086 0.034 0.16127 0.08228 0.19727 0.11328 0.022 0.019 0.04727 0.02906 0.07227 0.03906a0.119 0.119 0 0 0 0.0293 0.05664c0.063 0.057 0.12492 0.06027 0.16992 0.07227 0.1 0.043 0.21717 0.0273 0.32617 0.0293l0.04687 2e-3a1.43 1.43 0 0 0 0.38672-0.04102c0.109-0.03 0.20086-0.06816 0.25586-0.16016 0.026-0.047 0.01753-0.05031 0.01953-0.07031l0.0078-0.06836c4e-3 -0.054 0.0068-0.12684 0.0098-0.21484 0.0032-0.09477 0.0041-0.24285 0.0059-0.36914 0.30228 0.91608 0.37789 1.1179 0.38086 1.002 2e-3 -0.08 0.39002-3.0203 0.41602-3.1523 0.033-0.167 0.1235-0.14227 0.1875 0.05273a88.68 88.68 0 0 1 0.50195 2.041c0.281 1.178 0.45756 1.8496 0.47656 1.8086 0.015-0.035 0.15359-1.0518 0.30859-2.2598 0.352-2.753 0.32531-2.5927 0.44531-2.5527 0.07 0.024 0.069 0.0157 0.5 2.0957 0.194 0.937 0.35919 1.7183 0.36719 1.7383 0.021 0.055 0.05417-0.13894 0.20117-1.2109 0.235-1.702 0.33995-2.3703 0.37695-2.4043 0.063-0.06 0.12038 0.03562 0.23438 0.39062l0.0957 0.30469c0.01181 0.71592 0.02598 1.5182 0.02734 1.877l0.0078 1.0137 0.12305 0.08984c0.068 0.05 0.14966 0.08552 0.22266 0.10352h2e-3l2e-3 2e-3h0.0098a1.954 1.954 0 0 0 0.33594 0.01758c0.14-5e-3 0.26133-0.02736 0.36133-0.06836a0.448 0.448 0 0 0 0.13672-0.08984c0.041-0.025 0.08-0.05189 0.125-0.08789 0.022-0.02 0.14475-0.06856 0.21875-0.10156 0.068-0.03 0.15242-0.04331 0.23242-0.07031 0.45-0.15 0.74552-0.3345 1.1035-0.6875 0.354-0.35 0.54612-0.64589 0.70312-1.0879 0.233-0.787 0.16297-1.6928 0.16797-2.5098 0.01-2.383-0.04366-2.3961-0.22266-3.1191a5.73 5.73 0 0 0-1.5978-2.7833 5.853 5.853 0 0 0-2.2617-1.3672c-0.651-0.213-1.276-0.22847-1.916-0.23047zm0.11133 0.89844c0.312 0 0.61895 0.01678 0.81445 0.05078 1.495 0.26 2.8077 1.2457 3.5117 2.6367 0.305 0.602 0.38194 1.1114 0.46094 1.8184 0.27 1.51 0.3997 1.4892-0.9043 1.0352a4.698 4.698 0 0 1-0.44531-0.16211l-0.11133-0.08594c-0.167-0.13-0.41734-0.15476-0.65234-0.13476-0.118 0.01-0.23208 0.03522-0.33008 0.07422a0.435 0.435 0 0 0-0.23633 0.18359c-0.02 0.037-0.01848 0.05117-0.02148 0.07617a1.208 1.208 0 0 0-0.0059 0.08984 7.824 7.824 0 0 0-0.0039 0.32812c0 0.12364 0.0055 0.41403 0.0078 0.59961l-0.18359-0.55664c-0.151-0.461-0.23295-0.66409-0.25195-0.62109-0.016 0.035-0.08339 0.50783-0.15039 1.0488-0.132 1.074-0.22777 1.7566-0.25977 1.8516-0.012 0.034-0.04522 0.0625-0.07422 0.0625-0.1 0-0.13738-0.12958-0.60938-2.1426-0.17-0.724-0.33138-1.4057-0.35938-1.5117l-0.05078-0.19141-0.05273 0.41992c-0.16 1.275-0.56661 4.1215-0.59961 4.1895-0.046 0.095-0.10234 0.10158-0.15234 0.01758-0.052-0.088-0.46981-1.6779-0.75781-2.8809-0.135-0.565-0.25648-1.0273-0.27148-1.0273-0.014 0-0.03873 0.14717-0.05274 0.32617-0.045 0.563-0.30156 2.9439-0.35156 3.2539-0.048 0.299-0.10564 0.38091-0.18164 0.25391-0.0087-0.01438-0.06182-0.18372-0.08984-0.26367 0.0061-0.5058 0.0082-0.90183 0.01758-1.4102 0.019-0.998 0.03386-1.459 0.0059-1.709-0.014-0.125-0.04147-0.21344-0.10547-0.27344-0.063-0.06-0.12845-0.0707-0.18945-0.0957-0.18-0.072-0.41591-0.07778-0.62891-0.05078a1.177 1.177 0 0 0-0.28711 0.07031 0.344 0.344 0 0 0-0.16602 0.11328c-0.105 0.047-0.23794 0.09895-0.33594 0.12695-1.332 0.703-1.2779 0.3398-0.96289-1.0332 0.36-2.5 1.798-4.0638 4.166-4.4258 0.2225-0.034 0.53956-0.05078 0.85156-0.05078z" fill="#fff" opacity=".6"/><path d="m6.6411 1.9968h13.363l6.9884 7.0071v19.4c0 0.884-0.72853 1.5957-1.6335 1.5957h-18.718c-0.90494 0-1.6335-0.71167-1.6335-1.5957v-24.811c0-0.884 0.72853-1.5957 1.6335-1.5957z" fill="url(#linearGradient11)" stop-color="#000000" style="-inkscape-stroke:none;font-variation-settings:normal"/>

    <path d="m26.995 9.0014h-5.9863c-0.55559 0-1.0029-0.44728-1.0029-1.0029v-6.0044z" fill="url(#b-1)" stop-color="#000000" style="-inkscape-stroke:none;font-variation-settings:normal"/><g fill-rule="evenodd">
    <path d="m20.379 8.7871 0.23438 0.20703 6.3789 6.3535 2e-3 -6.3457h-5.9863c-0.23341 0-0.44714-0.080137-0.61719-0.21289-0.0074-0.00165-0.01172-0.00195-0.01172-0.00195zm6.6152 0.21484v-0.00781h-0.0078z" fill="url(#linearGradient8)" opacity=".1" stop-color="#000000" style="-inkscape-stroke:none;font-variation-settings:normal"/>
    <path d="m5.1235 29.004c0.2301 0.55992 0.77578 0.96086 1.4238 0.99609h18.902c0.64804-0.03523 1.1937-0.43618 1.4238-0.99609z" opacity=".25" stop-color="#000000" style="-inkscape-stroke:none;font-variation-settings:normal"/>

<path d="m5.1235 2.9925c0.2301-0.55992 0.77578-0.96086 1.4238-0.99609h13.457l1.3e-5 0.99609z" fill="#fff" opacity=".4" stop-color="#000000" style="-inkscape-stroke:none;font-variation-settings:normal"/>
</g></svg>
