<?xml version="1.0" encoding="UTF-8"?>
<svg width="32" height="32" version="1.1" xml:space="preserve" xmlns="http://www.w3.org/2000/svg"><defs><linearGradient id="linearGradient11" x2="0" y1="392.36" y2="365.36" gradientTransform="translate(-33,-363.36)" gradientUnits="userSpaceOnUse"><stop stop-color="#fff" stop-opacity="0" offset="0"/><stop stop-color="#fff" stop-opacity=".15" offset="1"/></linearGradient><linearGradient id="linearGradient8" x1="18.727" x2="25.758" y1="16.98" y2="23.848" gradientTransform="translate(3.0101,-8.0101)" gradientUnits="userSpaceOnUse"><stop stop-color="#060606" offset="0"/><stop stop-opacity="0" offset="1"/></linearGradient><linearGradient id="a" x2="0" y1="61" y2="3" gradientTransform="matrix(.5 0 0 -.48276 32.001 31.507)" gradientUnits="userSpaceOnUse"><stop stop-color="#768492" offset="0"/><stop stop-color="#5e6b78" offset="1"/></linearGradient><linearGradient id="b" x2="0" y1="518.04" y2="524.8" gradientTransform="translate(-354.57 -515.74)" gradientUnits="userSpaceOnUse"><stop stop-color="#fbfbfb" offset="0"/><stop stop-color="#dedede" offset="1"/></linearGradient></defs>
    <path d="m6.6411 1.9968h13.363l6.9884 7.0071v19.4c0 0.884-0.72853 1.5957-1.6335 1.5957h-18.718c-0.90494 0-1.6335-0.71167-1.6335-1.5957v-24.811c0-0.884 0.72853-1.5957 1.6335-1.5957z" fill="url(#a)" stop-color="#000000" style="-inkscape-stroke:none;font-variation-settings:normal"/>
    <path d="m15.061 10.727c-0.681 0-1.569 0.387-2.381 1.033-0.487 0.209-0.83 0.693-0.83 1.256 0 0.176 0.033 0.349 0.098 0.51-0.842 0.163-1.479 0.904-1.479 1.793 0 0.185 0.027 0.367 0.082 0.543-0.347 0.343-0.543 0.809-0.543 1.301 0 0.384 0.119 0.741 0.322 1.035-0.211 0.306-0.322 0.662-0.322 1.037 0 0.665 0.362 1.275 0.936 1.596-0.01 0.082-0.014 0.163-0.014 0.246 0 0.897 0.583 1.691 1.432 1.961 0.369 0.632 1.042 1.02 1.777 1.02 0.806 0 1.504-0.466 1.842-1.143 0.338 0.676 1.038 1.143 1.844 1.143 0.735 0 1.406-0.388 1.775-1.02 0.849-0.27 1.434-1.064 1.434-1.961 0-0.083-4e-3 -0.164-0.014-0.246 0.574-0.321 0.936-0.931 0.936-1.596 0-0.375-0.111-0.732-0.322-1.037 0.203-0.295 0.322-0.651 0.322-1.035 0-0.492-0.196-0.958-0.543-1.301 0.055-0.176 0.082-0.358 0.082-0.543 0-0.889-0.637-1.63-1.479-1.793 0.064-0.16 0.098-0.333 0.098-0.51 0-0.563-0.343-1.046-0.83-1.256-0.812-0.646-1.7-1.033-2.381-1.033-0.379 0-0.715 0.187-0.922 0.473-0.207-0.285-0.541-0.473-0.92-0.473m0 0.432c0.389 0 0.705 0.318 0.705 0.707v2.793c-0.194-0.154-0.439-0.246-0.705-0.246-0.119 0-0.217 0.097-0.217 0.217 0 0.119 0.098 0.215 0.217 0.215 0.389 0 0.705 0.316 0.705 0.705v5.191c-0.268-0.346-0.647-0.609-1.092-0.729-0.115-0.031-0.235 0.037-0.266 0.152s0.037 0.235 0.152 0.266c0.709 0.191 1.205 0.835 1.205 1.568 0 0.897-0.73 1.627-1.627 1.627-0.605 0-1.157-0.334-1.439-0.871-0.028-0.053-0.077-0.092-0.135-0.107-0.709-0.191-1.203-0.837-1.203-1.57 0-0.11 0.01-0.219 0.031-0.326 0.02-0.099-0.031-0.199-0.123-0.24-0.504-0.224-0.83-0.725-0.83-1.275 0-0.25 0.066-0.489 0.189-0.701 0.322 0.284 0.745 0.457 1.207 0.457 0.119 0 0.215-0.097 0.215-0.217 0-0.119-0.096-0.215-0.215-0.215-0.77 0-1.396-0.627-1.396-1.396 0-0.414 0.183-0.806 0.502-1.072 0.072-0.06 0.096-0.159 0.06-0.246-0.068-0.168-0.102-0.346-0.102-0.525 0-0.77 0.627-1.396 1.396-1.396 0.77 0 1.396 0.627 1.396 1.396 0 0.119 0.096 0.217 0.215 0.217s0.217-0.097 0.217-0.217c0-0.969-0.757-1.761-1.711-1.822-0.086-0.144-0.133-0.31-0.133-0.48 0-0.385 0.234-0.716 0.566-0.859 0.013-4e-3 0.027-9e-3 0.039-0.016 0.103-0.039 0.213-0.061 0.33-0.061 0.361 0 0.686 0.202 0.844 0.527 0.052 0.107 0.18 0.152 0.287 0.1s0.154-0.18 0.102-0.287c-0.18-0.371-0.523-0.64-0.916-0.734 0.551-0.336 1.094-0.527 1.527-0.527m1.842 0c0.433 0 0.976 0.191 1.527 0.527-0.393 0.095-0.736 0.363-0.916 0.734-0.052 0.107-7e-3 0.235 0.1 0.287s0.237 7e-3 0.289-0.1c0.158-0.325 0.48-0.527 0.842-0.527 0.117 0 0.229 0.021 0.332 0.061 0.012 6e-3 0.024 0.012 0.037 0.016 0.333 0.143 0.568 0.474 0.568 0.859 0 0.17-0.046 0.336-0.133 0.48-0.953 0.061-1.711 0.854-1.711 1.822 0 0.119 0.098 0.217 0.217 0.217s0.215-0.098 0.215-0.217c0-0.77 0.627-1.396 1.396-1.396 0.77 0 1.396 0.627 1.396 1.396 0 0.18-0.035 0.357-0.104 0.525-0.035 0.087-0.01 0.186 0.063 0.246 0.319 0.266 0.502 0.658 0.502 1.072 0 0.77-0.627 1.396-1.396 1.396-0.119 0-0.217 0.096-0.217 0.215s0.098 0.217 0.217 0.217c0.462 0 0.885-0.173 1.207-0.457 0.124 0.212 0.189 0.451 0.189 0.701 0 0.551-0.326 1.051-0.83 1.275-0.093 0.041-0.145 0.141-0.125 0.24 0.022 0.107 0.033 0.216 0.033 0.326 0 0.733-0.495 1.38-1.203 1.57-0.058 0.016-0.107 0.054-0.135 0.107-0.283 0.537-0.834 0.871-1.439 0.871-0.897 0-1.627-0.73-1.627-1.627 0-0.061-3e-3 -0.12-8e-3 -0.18 5e-3 -0.018 8e-3 -0.038 8e-3 -0.059v-7.131c0-0.389 0.316-0.707 0.705-0.707 0.119 0 0.217-0.096 0.217-0.215s-0.098-0.217-0.217-0.217c-0.266 0-0.511 0.092-0.705 0.246v-1.871c0-0.389 0.316-0.707 0.705-0.707m3.225 3.715c-0.119 0-0.217 0.096-0.217 0.215 0 0.77-0.625 1.396-1.395 1.396-0.378 0-0.733-0.148-0.998-0.418-0.083-0.085-0.22-0.087-0.305-4e-3s-0.087 0.22-4e-3 0.305c0.299 0.306 0.686 0.494 1.105 0.539 0.099 0.657 0.667 1.162 1.352 1.162 0.119 0 0.217-0.096 0.217-0.215s-0.098-0.217-0.217-0.217c-0.447 0-0.822-0.316-0.914-0.736 0.896-0.117 1.592-0.885 1.592-1.813 0-0.119-0.098-0.215-0.217-0.215m-7.83 0.231c-0.119 0-0.217 0.096-0.217 0.215 0 0.927 0.695 1.695 1.59 1.813-0.092 0.42-0.465 0.736-0.912 0.736-0.119 0-0.217 0.096-0.217 0.215s0.098 0.217 0.217 0.217c0.684 0 1.252-0.505 1.352-1.162 0.419-0.045 0.806-0.233 1.105-0.539 0.083-0.085 0.081-0.221-4e-3 -0.305-0.085-0.083-0.221-0.081-0.305 4e-3 -0.265 0.27-0.62 0.418-0.998 0.418-0.77 0-1.396-0.627-1.396-1.396 0-0.119-0.096-0.215-0.215-0.215m4.606 3.225c-0.119 0-0.215 0.096-0.215 0.215s0.096 0.217 0.215 0.217c0.77 0 1.396 0.627 1.396 1.396 0 0.049-3e-3 0.098-8e-3 0.146-0.67 0.271-1.145 0.929-1.145 1.695 0 0.119 0.098 0.217 0.217 0.217s0.215-0.097 0.215-0.217c0-0.77 0.627-1.396 1.396-1.396 0.119 0 0.217-0.096 0.217-0.215s-0.098-0.217-0.217-0.217c-0.083 0-0.164 7e-3 -0.244 0.018v-0.031c0-1.01-0.82-1.828-1.828-1.828m-2.533 0.461c-1.01 0-1.828 0.818-1.828 1.826v0.033c-0.08-0.011-0.161-0.018-0.244-0.018-0.119 0-0.217 0.096-0.217 0.215s0.098 0.217 0.217 0.217c0.77 0 1.396 0.627 1.396 1.396 0 0.119 0.096 0.215 0.215 0.215s0.217-0.096 0.217-0.215c0-0.766-0.475-1.424-1.145-1.695-5e-3 -0.049-8e-3 -0.097-8e-3 -0.146 0-0.77 0.627-1.396 1.396-1.396 0.119 0 0.215-0.098 0.215-0.217h2e-3c0-0.119-0.098-0.215-0.217-0.215" fill="#fbfbfb" opacity=".75"/><path d="m6.6411 1.9968h13.363l6.9884 7.0071v19.4c0 0.884-0.72853 1.5957-1.6335 1.5957h-18.718c-0.90494 0-1.6335-0.71167-1.6335-1.5957v-24.811c0-0.884 0.72853-1.5957 1.6335-1.5957z" fill="url(#linearGradient11)" opacity=".10627" stop-color="#000000" style="-inkscape-stroke:none;font-variation-settings:normal"/>

    <path d="m26.995 9.0014h-5.9863c-0.55559 0-1.0029-0.44728-1.0029-1.0029v-6.0044z" fill="url(#b)" stop-color="#000000" style="-inkscape-stroke:none;font-variation-settings:normal"/><g fill-rule="evenodd">
    <path d="m20.379 8.7871 0.23438 0.20703 6.3789 6.3535 2e-3 -6.3457h-5.9863c-0.23341 0-0.44714-0.080137-0.61719-0.21289-0.0074-0.00165-0.01172-0.00195-0.01172-0.00195zm6.6152 0.21484v-0.00781h-0.0078z" fill="url(#linearGradient8)" opacity=".1" stop-color="#000000" style="-inkscape-stroke:none;font-variation-settings:normal"/>
    <path d="m5.1235 29.004c0.2301 0.55992 0.77578 0.96086 1.4238 0.99609h18.902c0.64804-0.03523 1.1937-0.43618 1.4238-0.99609z" opacity=".25" stop-color="#000000" style="-inkscape-stroke:none;font-variation-settings:normal"/>

<path d="m5.1235 2.9925c0.2301-0.55992 0.77578-0.96086 1.4238-0.99609h13.457l1.3e-5 0.99609z" fill="#fff" opacity=".4" stop-color="#000000" style="-inkscape-stroke:none;font-variation-settings:normal"/>
</g></svg>
