<?xml version="1.0" encoding="UTF-8"?>
<svg width="32" height="32" version="1.1" xml:space="preserve" xmlns="http://www.w3.org/2000/svg">
    <defs>        
        <linearGradient id="linearGradient11" x2="0" y1="392.36" y2="365.36" gradientTransform="matrix(0 -1 -1 0 395.36 64.998)" gradientUnits="userSpaceOnUse"><stop stop-color="#fff" stop-opacity="0" offset="0"/><stop stop-color="#fff" stop-opacity=".15" offset="1"/></linearGradient>
        <linearGradient id="linearGradient8" x1="18.727" x2="25.758" y1="16.98" y2="23.848" gradientTransform="translate(6.0123 -5.0157)" gradientUnits="userSpaceOnUse"><stop stop-color="#060606" offset="0"/><stop stop-opacity="0" offset="1"/></linearGradient>
    
    
    
    



        
        
        
    </defs><path d="m30.002 25.357v-13.363l-7.0071-6.9884h-19.4c-0.884 0-1.5957 0.72853-1.5957 1.6335v18.718c0 0.90494 0.71167 1.6335 1.5957 1.6335h24.811c0.884 0 1.5957-0.72853 1.5957-1.6335z" fill="#fc7676" stop-color="#000000" style="-inkscape-stroke:none;font-variation-settings:normal;paint-order:stroke fill markers"/><path d="m9.6906 9.2293c-0.031719-0.00232-0.056475 0.00309-0.071948 0.019341-0.51137 0.51137 6.48 6.9295 6.48 6.9295l2.6195 2.4927c-0.84481 1.9712 1.8026 2.0029 2.3735 3.0025 0.25066 0.43865-0.05416 1.0336-0.5106 1.0638 0.9067 0.2994 2.1275-1.4413 1.76-2.4246-0.43788-1.1736-0.88194-1.6827-1.7159-2.0385-0.34427-0.14699-1.2185-0.1586-1.5241 0.01315l-2.4277-2.6837s-5.9903-6.2881-6.9859-6.374m1.104 6.2278c-0.23209 7.73e-4 -0.30326 0.33653-0.30326 0.7953 0.0441 0.90825 0.61814 3.5572 3.4705 5.4866 2.4021 1.6254 6.7979 1.039 6.7268 0.11527-0.96627-1.2007-2.5839-0.4518-2.6048-3.3266-0.93997 7e-3 -1.9527-0.13925-1.9148 0.25607 0.15782 1.6579-2.4702 0.46186-3.4891-1.2285-1.0227-1.5473-1.5867-2.1004-1.8854-2.0989m3.7452 2.0447c-0.1555 0-0.28083 0.05106-0.3404 0.15395-0.11837 0.20501 0.07349 0.53922 0.43014 0.74501 0.35665 0.20579 0.74192 0.20656 0.86028 7.74e-4 0.11837-0.20501-0.07427-0.53922-0.43092-0.74501-0.17871-0.10289-0.51911 7.74e-4 -0.51911-0.15473" opacity=".6" stroke-width=".77364"/><g fill-rule="evenodd"><path d="m23.381 11.781 0.23438 0.20703 6.3789 6.3535 2e-3 -6.3457h-5.9863c-0.23341 0-0.44714-0.08014-0.61719-0.21289-0.0074-0.0016-0.01172-2e-3 -0.01172-2e-3zm6.6152 0.21484v-0.0078h-0.0078z" fill="url(#linearGradient8)" opacity=".1" stop-color="#000000" style="-inkscape-stroke:none;font-variation-settings:normal"/><path d="m29.881 25.995c-0.2301 0.55992-0.76016 0.96086-1.4082 0.99609h-24.945c-0.64804-0.03523-1.1742-0.43618-1.4043-0.99609z" opacity=".25" stop-color="#000000" style="-inkscape-stroke:none;font-variation-settings:normal"/><path d="m2.1229 6.0033c0.2301-0.55992 0.76016-0.96086 1.4082-0.99609h19.465l1.3e-5 0.99609z" fill="#fff" opacity=".4" stop-color="#000000" style="-inkscape-stroke:none;font-variation-settings:normal"/>
    </g><path d="m30.001 25.357v-13.363l-7.0071-6.9884h-19.4c-0.884 0-1.5957 0.72853-1.5957 1.6335v18.718c0 0.90494 0.71167 1.6335 1.5957 1.6335h24.811c0.884 0 1.5957-0.72853 1.5957-1.6335z" fill="url(#linearGradient11)" stop-color="#000000" style="-inkscape-stroke:none;font-variation-settings:normal"/>
    <path d="m22.997 5.0033v5.9863c0 0.55559 0.44728 1.0029 1.0029 1.0029h6.0044z" opacity=".6" stop-color="#000000" style="-inkscape-stroke:none;font-variation-settings:normal"/>
    
</svg>
