<?xml version="1.0" encoding="UTF-8"?>
<svg width="32" height="32" version="1.1" xml:space="preserve" xmlns="http://www.w3.org/2000/svg"><defs><linearGradient id="linearGradient11" x2="0" y1="392.36" y2="365.36" gradientTransform="translate(-33,-363.36)" gradientUnits="userSpaceOnUse"><stop stop-color="#fff" stop-opacity="0" offset="0"/><stop stop-color="#fff" stop-opacity=".15" offset="1"/></linearGradient><linearGradient id="linearGradient8" x1="18.727" x2="25.758" y1="16.98" y2="23.848" gradientTransform="translate(3.0101,-8.0101)" gradientUnits="userSpaceOnUse"><stop stop-color="#060606" offset="0"/><stop stop-opacity="0" offset="1"/></linearGradient><linearGradient id="a" x2="0" y1="61" y2="3" gradientTransform="matrix(.5 0 0 -.48276 33.949 31.511)" gradientUnits="userSpaceOnUse"><stop stop-color="#f27935" offset="0"/><stop stop-color="#f2784b" offset="1"/></linearGradient></defs>
    <path d="m6.6411 1.9968h13.363l6.9884 7.0071v19.4c0 0.884-0.72853 1.5957-1.6335 1.5957h-18.718c-0.90494 0-1.6335-0.71167-1.6335-1.5957v-24.811c0-0.884 0.72853-1.5957 1.6335-1.5957z" fill="url(#a)" stop-color="#000000" style="-inkscape-stroke:none;font-variation-settings:normal"/>
    <g transform="translate(-413.76 -521.73)" color="#4d4d4d" fill="#fbd2bf"><path transform="translate(421.71,531.79)" d="m2 2v12h12v-12h-2v2h-2v-2h-4v2h-2v-2zm1 3h10v8h-10z"/><path d="m428.71 540.79v3h1v-1h3v1h1v-3h-1v1h-3v-1z"/><path d="m425.71 537.79v3h1v-1h4v1h1v-3h-1v1h-4v-1z"/></g><path d="m6.6411 1.9968h13.363l6.9884 7.0071v19.4c0 0.884-0.72853 1.5957-1.6335 1.5957h-18.718c-0.90494 0-1.6335-0.71167-1.6335-1.5957v-24.811c0-0.884 0.72853-1.5957 1.6335-1.5957z" fill="url(#linearGradient11)" opacity=".17466" stop-color="#000000" style="-inkscape-stroke:none;font-variation-settings:normal"/>

    <path d="m26.995 9.0014h-5.9863c-0.55559 0-1.0029-0.44728-1.0029-1.0029v-6.0044z" fill="#fff" opacity=".5" stop-color="#000000" style="-inkscape-stroke:none;font-variation-settings:normal"/><g fill-rule="evenodd">
    <path d="m20.379 8.7871 0.23438 0.20703 6.3789 6.3535 2e-3 -6.3457h-5.9863c-0.23341 0-0.44714-0.080137-0.61719-0.21289-0.0074-0.00165-0.01172-0.00195-0.01172-0.00195zm6.6152 0.21484v-0.00781h-0.0078z" fill="url(#linearGradient8)" opacity=".1" stop-color="#000000" style="-inkscape-stroke:none;font-variation-settings:normal"/>
    <path d="m5.1235 29.004c0.2301 0.55992 0.77578 0.96086 1.4238 0.99609h18.902c0.64804-0.03523 1.1937-0.43618 1.4238-0.99609z" opacity=".25" stop-color="#000000" style="-inkscape-stroke:none;font-variation-settings:normal"/>

<path d="m5.1235 2.9925c0.2301-0.55992 0.77578-0.96086 1.4238-0.99609h13.457l1.3e-5 0.99609z" fill="#fff" opacity=".4" stop-color="#000000" style="-inkscape-stroke:none;font-variation-settings:normal"/>
</g></svg>
