<?xml version="1.0" encoding="UTF-8"?>
<svg width="32" height="32" version="1.1" xml:space="preserve" xmlns="http://www.w3.org/2000/svg"><defs>
    
    


<linearGradient id="linearGradient10" x1="372.98" x2="379.72" y1="524.49" y2="531" gradientTransform="translate(-352.58 -515.8)" gradientUnits="userSpaceOnUse"><stop stop-color="#383e51" offset="0"/><stop stop-color="#655c6f" stop-opacity="0" offset="1"/></linearGradient><linearGradient id="a" x2="0" y1="61" y2="3" gradientTransform="matrix(.5 0 0 -.48276 32 29.45)" gradientUnits="userSpaceOnUse"><stop stop-color="#9b59b6" offset="0"/><stop stop-color="#8e44ad" offset="1"/></linearGradient><linearGradient id="b" x1="404.57" x2="404.57" y1="517.8" y2="524.8" gradientTransform="translate(-352.57 -517.8)" gradientUnits="userSpaceOnUse"><stop stop-color="#e8d9eb" offset="0"/><stop stop-color="#d3bdd7" offset="1"/></linearGradient></defs>
    <path d="m6.6411 1.9968h13.363l6.9884 7.0071v19.4c0 0.884-0.72853 1.5957-1.6335 1.5957h-18.718c-0.90494 0-1.6335-0.71167-1.6335-1.5957v-24.811c0-0.884 0.72853-1.5957 1.6335-1.5957z" fill="url(#a)" stop-color="#000000" style="-inkscape-stroke:none;font-variation-settings:normal"/>
    

    <path d="m26.995 9.0014h-5.9863c-0.55559 0-1.0029-0.44728-1.0029-1.0029v-6.0044z" fill="url(#b)" stop-color="#000000" style="-inkscape-stroke:none;font-variation-settings:normal"/><path d="m14.199 22.562c-1.0192 0-1.7141-0.49427-1.5288-1.7527 0.23164-1.5731 1.2045-2.09 4.2852-2.517 0.0231 0 0.97285-0.15721 0.97285-0.15721l-0.39378 2.7866c-0.83387 1.0112-2.3395 1.6403-3.3355 1.6403zm3.1734-0.13468 0.0463 1.3033h1.3203l1.2045-8.427c0.37061-2.5618-1.135-3.3034-3.2428-3.3034-1.5056 0-2.988 0.42698-3.8682 0.92144l0.2548 1.3932c0.94968-0.4494 2.2468-0.76393 3.4281-0.76393 1.4593 0 1.992 0.69654 1.8067 2.0449l-0.20846 1.2809-1.0887 0.13479c-2.8027 0.42697-5.536 0.85395-5.9761 3.8651-0.32429 2.1573 0.99601 3.1236 2.7564 3.1236 1.1118 0 2.4784-0.40445 3.5671-1.5729z" fill="#e8d9eb" stop-color="#000000" style="-inkscape-stroke:none;font-variation-settings:normal"/><g fill-rule="evenodd"><path d="m20.379 8.7871 0.23438 0.20703 6.3789 6.3535 2e-3 -6.3457h-5.9863c-0.23341 0-0.44714-0.080137-0.61719-0.21289-0.0074-0.00165-0.01172-0.00195-0.01172-0.00195zm6.6152 0.21484v-0.00781h-0.0078z" fill="url(#linearGradient10)" opacity=".2" stop-color="#000000" style="-inkscape-stroke:none;font-variation-settings:normal"/><path d="m5.1235 29.004c0.2301 0.55992 0.77578 0.96086 1.4238 0.99609h18.902c0.64804-0.03523 1.1937-0.43618 1.4238-0.99609z" opacity=".25" stop-color="#000000" style="-inkscape-stroke:none;font-variation-settings:normal"/><path d="m5.1235 2.9925c0.2301-0.55992 0.77578-0.96086 1.4238-0.99609h13.457l1.3e-5 0.99609z" fill="#fff" opacity=".4" stop-color="#000000" style="-inkscape-stroke:none;font-variation-settings:normal"/></g></svg>
