<?xml version="1.0" encoding="UTF-8"?>
<svg width="32" height="32" version="1.1" xml:space="preserve" xmlns="http://www.w3.org/2000/svg"><defs><linearGradient id="linearGradient11" x2="0" y1="392.36" y2="365.36" gradientTransform="translate(-33,-363.36)" gradientUnits="userSpaceOnUse"><stop stop-color="#fff" stop-opacity="0" offset="0"/><stop stop-color="#fff" stop-opacity=".15" offset="1"/></linearGradient><linearGradient id="linearGradient8" x1="18.727" x2="25.758" y1="16.98" y2="23.848" gradientTransform="translate(3.0101,-8.0101)" gradientUnits="userSpaceOnUse"><stop stop-color="#060606" offset="0"/><stop stop-opacity="0" offset="1"/></linearGradient></defs>
    <path d="m6.6411 1.9968h13.363l6.9884 7.0071v19.4c0 0.884-0.72853 1.5957-1.6335 1.5957h-18.718c-0.90494 0-1.6335-0.71167-1.6335-1.5957v-24.811c0-0.884 0.72853-1.5957 1.6335-1.5957z" fill="#f7a01c" stop-color="#000000" style="-inkscape-stroke:none;font-variation-settings:normal"/>
    <path d="m6.6411 1.9968h13.363l6.9884 7.0071v19.4c0 0.884-0.72853 1.5957-1.6335 1.5957h-18.718c-0.90494 0-1.6335-0.71167-1.6335-1.5957v-24.811c0-0.884 0.72853-1.5957 1.6335-1.5957z" fill="url(#linearGradient11)" opacity=".10389" stop-color="#000000" style="-inkscape-stroke:none;font-variation-settings:normal"/>

    <path d="m26.995 9.0014h-5.9863c-0.55559 0-1.0029-0.44728-1.0029-1.0029v-6.0044z" fill="#fff" opacity=".5" stop-color="#000000" style="-inkscape-stroke:none;font-variation-settings:normal"/><g fill-rule="evenodd">
    <path d="m20.379 8.7871 0.23438 0.20703 6.3789 6.3535 2e-3 -6.3457h-5.9863c-0.23341 0-0.44714-0.080137-0.61719-0.21289-0.0074-0.00165-0.01172-0.00195-0.01172-0.00195zm6.6152 0.21484v-0.00781h-0.0078z" fill="url(#linearGradient8)" opacity=".1" stop-color="#000000" style="-inkscape-stroke:none;font-variation-settings:normal"/>
    <path d="m5.1235 29.004c0.2301 0.55992 0.77578 0.96086 1.4238 0.99609h18.902c0.64804-0.03523 1.1937-0.43618 1.4238-0.99609z" opacity=".25" stop-color="#000000" style="-inkscape-stroke:none;font-variation-settings:normal"/>

<path d="m5.1235 2.9925c0.2301-0.55992 0.77578-0.96086 1.4238-0.99609h13.457l1.3e-5 0.99609z" fill="#fff" opacity=".4" stop-color="#000000" style="-inkscape-stroke:none;font-variation-settings:normal"/>
</g><g transform="matrix(.22222 0 0 .22222 12.865 14.222)" fill="#fddda3"><path d="m9.4877-10c-4.986 0-9 4.014-9 9h13.5v4.5h-18c-4.986 0-9 4.014-9 9v9c0 4.986 4.014 9 9 9v-4.5c0-4.0005 1.755-7.5402 4.5-10.011l0.008775-0.0088c0.594-0.5355 1.2365-1.0184 1.916-1.4414 0.0045-0.0045 0.013095-0.0043 0.017595-0.0088 0.6705-0.4185 1.3757-0.77526 2.1182-1.0723 0.135-0.054 0.27809-0.08684 0.41309-0.13184 0.63-0.2295 1.2807-0.43629 1.9512-0.57129 0.837-0.16203 1.6975-0.25491 2.584-0.25491h18v-13.5c0-4.986-4.014-9-9-9zm0 2.25c1.2465 0 2.25 1.0035 2.25 2.25s-1.0035 2.25-2.25 2.25-2.25-1.0035-2.25-2.25 1.0035-2.25 2.25-2.25z" stroke-width="4.5"/><path d="m31.988 17-6.75 6.75 3.1816 3.1816 3.5684-3.5684v16.137h-4.5v4.5h13.5v-4.5h-4.5v-22.5z"/><path transform="matrix(4.5 0 0 4.5 -22.012 -19)" d="m8 8c-0.55791 0-1.1221 0.27894-1.4746 0.80078-0.35256 0.52184-0.52539 1.2437-0.52539 2.1992 0 0.95553 0.17283 1.6774 0.52539 2.1992 0.35256 0.52184 0.91669 0.80078 1.4746 0.80078 0.55792 0 1.1221-0.27894 1.4746-0.80078 0.35256-0.52184 0.52539-1.2437 0.52539-2.1992 0-0.95554-0.17283-1.6774-0.52539-2.1992-0.35256-0.52184-0.91669-0.80078-1.4746-0.80078zm0 1c0.27051 0 0.45615 0.077649 0.64648 0.35938 0.034657 0.051297 0.065609 0.1215 0.097656 0.18945l-1.7305 1.7305c-0.0047093-0.093245-0.013672-0.17697-0.013672-0.2793 0-0.83018 0.16318-1.3589 0.35352-1.6406 0.19033-0.28173 0.37597-0.35938 0.64648-0.35938zm0.98633 1.7207c0.0047094 0.093246 0.013672 0.17697 0.013672 0.2793 0 0.83017-0.16318 1.3589-0.35352 1.6406-0.19034 0.28173-0.37598 0.35938-0.64648 0.35938-0.27051 0-0.45615-0.077645-0.64648-0.35938-0.034657-0.0513-0.065609-0.1215-0.097656-0.18945z"/></g></svg>
