<?xml version="1.0" encoding="UTF-8"?>
<svg width="32" height="32" version="1.1" xml:space="preserve" xmlns="http://www.w3.org/2000/svg" xmlns:xlink="http://www.w3.org/1999/xlink"><defs><linearGradient id="linearGradient11" x2="0" y1="392.36" y2="365.36" gradientTransform="translate(-33,-363.36)" gradientUnits="userSpaceOnUse"><stop stop-color="#fff" stop-opacity="0" offset="0"/><stop stop-color="#fff" stop-opacity=".15" offset="1"/></linearGradient>
    
    


<linearGradient id="linearGradient14" x1="17.444" x2="24.879" y1="17.05" y2="23.919" gradientTransform="translate(3.0808 -8)" gradientUnits="userSpaceOnUse"><stop stop-color="#060606" offset="0"/><stop stop-opacity="0" offset="1"/></linearGradient></defs>
    <path d="m6.6411 1.9968h13.363l6.9884 7.0071v19.4c0 0.884-0.72853 1.5957-1.6335 1.5957h-18.718c-0.90494 0-1.6335-0.71167-1.6335-1.5957v-24.811c0-0.884 0.72853-1.5957 1.6335-1.5957z" fill="#555" stop-color="#000000" style="-inkscape-stroke:none;font-variation-settings:normal"/><path d="m19.077 16.081c0.019-0.152 0.033-0.306 0.033-0.463s-0.014-0.311-0.033-0.463l1-0.785c0.09-0.071 0.116-0.199 0.057-0.304l-0.949-1.644c-0.059-0.102-0.183-0.145-0.289-0.102l-1.182 0.477c-0.244-0.187-0.513-0.346-0.802-0.467l-0.178-1.258c-0.021-0.112-0.119-0.199-0.237-0.199h-1.898c-0.119 0-0.216 0.088-0.235 0.199l-0.178 1.258c-0.289 0.121-0.558 0.278-0.802 0.467l-1.182-0.477c-0.107-0.04-0.23 0-0.289 0.102l-0.949 1.644c-0.059 0.102-0.033 0.23 0.057 0.304l1 0.785c-0.019 0.152-0.033 0.306-0.033 0.463s0.014 0.311 0.033 0.463l-1 0.785c-0.09 0.071-0.116 0.199-0.057 0.304l0.949 1.644c0.059 0.102 0.183 0.145 0.289 0.102l1.182-0.477c0.244 0.187 0.513 0.346 0.802 0.467l0.178 1.258c0.019 0.112 0.116 0.199 0.235 0.199h1.898c0.119 0 0.216-0.088 0.235-0.199l0.178-1.258c0.289-0.121 0.558-0.278 0.802-0.467l1.182 0.477c0.107 0.04 0.23 0 0.289-0.102l0.949-1.644c0.059-0.102 0.033-0.23-0.057-0.304zm-3.526 1.198c-0.918 0-1.661-0.743-1.661-1.661s0.743-1.661 1.661-1.661 1.661 0.743 1.661 1.661-0.743 1.661-1.661 1.661" fill="#343434"/><path d="m20.077 15.081c0.019-0.152 0.033-0.306 0.033-0.463s-0.014-0.311-0.033-0.463l1-0.785c0.09-0.071 0.116-0.199 0.057-0.304l-0.949-1.644c-0.059-0.102-0.183-0.145-0.289-0.102l-1.182 0.477c-0.244-0.187-0.513-0.346-0.802-0.467l-0.178-1.258c-0.021-0.112-0.119-0.199-0.237-0.199h-1.898c-0.119 0-0.216 0.088-0.235 0.199l-0.178 1.258c-0.289 0.121-0.558 0.278-0.802 0.467l-1.182-0.477c-0.107-0.04-0.23 0-0.289 0.102l-0.949 1.644c-0.059 0.102-0.033 0.23 0.057 0.304l1 0.785c-0.019 0.152-0.033 0.306-0.033 0.463s0.014 0.311 0.033 0.463l-1 0.785c-0.09 0.071-0.116 0.199-0.057 0.304l0.949 1.644c0.059 0.102 0.183 0.145 0.289 0.102l1.182-0.477c0.244 0.187 0.513 0.346 0.802 0.467l0.178 1.258c0.019 0.112 0.116 0.199 0.235 0.199h1.898c0.119 0 0.216-0.088 0.235-0.199l0.178-1.258c0.289-0.121 0.558-0.278 0.802-0.467l1.182 0.477c0.107 0.04 0.23 0 0.289-0.102l0.949-1.644c0.059-0.102 0.033-0.23-0.057-0.304zm-3.526 1.198c-0.918 0-1.661-0.743-1.661-1.661s0.743-1.661 1.661-1.661 1.661 0.743 1.661 1.661-0.743 1.661-1.661 1.661" fill="#e0e0e0"/><path d="m21.787 24.471c0.065-0.091 0.129-0.185 0.184-0.286s0.1-0.205 0.141-0.309l0.921-0.153c0.083-0.014 0.145-0.087 0.143-0.175l-0.033-1.39c-3e-3 -0.086-0.067-0.157-0.15-0.167l-0.927-0.108c-0.091-0.206-0.208-0.402-0.351-0.582l0.327-0.871c0.025-0.079-6e-3 -0.17-0.083-0.211l-1.22-0.666c-0.076-0.042-0.17-0.019-0.221 0.046l-0.555 0.746c-0.228-0.024-0.456-0.017-0.679 0.019l-0.592-0.721c-0.055-0.063-0.148-0.081-0.222-0.036l-1.187 0.724c-0.074 0.045-0.102 0.136-0.07 0.215l0.368 0.856c-0.065 0.091-0.129 0.185-0.184 0.286s-0.1 0.205-0.141 0.309l-0.919 0.154c-0.083 0.014-0.145 0.087-0.143 0.175l0.033 1.39c3e-3 0.086 0.067 0.157 0.15 0.167l0.927 0.108c0.091 0.206 0.208 0.402 0.351 0.582l-0.327 0.871c-0.027 0.078 5e-3 0.169 0.081 0.21l1.22 0.666c0.076 0.042 0.17 0.019 0.221-0.046l0.555-0.746c0.228 0.024 0.456 0.017 0.679-0.019l0.592 0.721c0.055 0.063 0.148 0.081 0.222 0.036l1.187-0.724c0.074-0.045 0.102-0.136 0.07-0.215zm-2.686-0.467c-0.59-0.322-0.807-1.06-0.485-1.65s1.06-0.807 1.65-0.485 0.807 1.06 0.485 1.65-1.06 0.807-1.65 0.485" fill="#343434"/>
    <path d="m6.6411 1.9968h13.363l6.9884 7.0071v19.4c0 0.884-0.72853 1.5957-1.6335 1.5957h-18.718c-0.90494 0-1.6335-0.71167-1.6335-1.5957v-24.811c0-0.884 0.72853-1.5957 1.6335-1.5957z" fill="url(#linearGradient11)" stop-color="#000000" style="-inkscape-stroke:none;font-variation-settings:normal"/><path d="m8.087 20.971v3h3v-3zm4 0v3h3v-3zm-4 4v3h3v-3zm4 0v3h3v-3z" color="#000000" color-rendering="auto" fill="#343434" image-rendering="auto" shape-rendering="auto"/><path d="m9.087 19.971v3h3v-3zm4 0v3h3v-3zm-4 4v3h3v-3zm4 0v3h3v-3z" color="#000000" color-rendering="auto" fill="#e0e0e0" image-rendering="auto" shape-rendering="auto"/>

    <path d="m26.995 9.0014h-5.9863c-0.55559 0-1.0029-0.44728-1.0029-1.0029v-6.0044z" fill="#fff" opacity=".5" stop-color="#000000" style="-inkscape-stroke:none;font-variation-settings:normal"/><path d="m20.379 8.7871 0.23438 0.20703 6.3789 6.3535 2e-3 -6.3457h-5.9863c-0.23341 0-0.44714-0.080137-0.61719-0.21289-0.0074-0.00165-0.01172-0.00195-0.01172-0.00195zm6.6152 0.21484v-0.00781h-0.0078z" fill="url(#linearGradient14)" fill-rule="evenodd" opacity=".4" stop-color="#000000" style="-inkscape-stroke:none;font-variation-settings:normal"/><path d="m22.787 23.471c0.065-0.091 0.129-0.185 0.184-0.286s0.1-0.205 0.141-0.309l0.921-0.153c0.083-0.014 0.145-0.087 0.143-0.175l-0.033-1.39c-3e-3 -0.086-0.067-0.157-0.15-0.167l-0.927-0.108c-0.091-0.206-0.208-0.402-0.351-0.582l0.327-0.871c0.025-0.079-6e-3 -0.17-0.083-0.211l-1.22-0.666c-0.076-0.042-0.17-0.019-0.221 0.046l-0.555 0.746c-0.228-0.024-0.456-0.017-0.679 0.019l-0.592-0.721c-0.055-0.063-0.148-0.081-0.222-0.036l-1.187 0.724c-0.074 0.045-0.102 0.136-0.07 0.215l0.368 0.856c-0.065 0.091-0.129 0.185-0.184 0.286s-0.1 0.205-0.141 0.309l-0.919 0.154c-0.083 0.014-0.145 0.087-0.143 0.175l0.033 1.39c3e-3 0.086 0.067 0.157 0.15 0.167l0.927 0.108c0.091 0.206 0.208 0.402 0.351 0.582l-0.327 0.871c-0.027 0.078 5e-3 0.169 0.081 0.21l1.22 0.666c0.076 0.042 0.17 0.019 0.221-0.046l0.555-0.746c0.228 0.024 0.456 0.017 0.679-0.019l0.592 0.721c0.055 0.063 0.148 0.081 0.222 0.036l1.187-0.724c0.074-0.045 0.102-0.136 0.07-0.215zm-2.686-0.467c-0.59-0.322-0.807-1.06-0.485-1.65s1.06-0.807 1.65-0.485 0.807 1.06 0.485 1.65-1.06 0.807-1.65 0.485" fill="#e0e0e0"/><path d="m5.1235 29.004c0.2301 0.55992 0.77578 0.96086 1.4238 0.99609h18.902c0.64804-0.03523 1.1937-0.43618 1.4238-0.99609z" fill-rule="evenodd" opacity=".25" stop-color="#000000" style="-inkscape-stroke:none;font-variation-settings:normal"/><path d="m5.1235 2.9925c0.2301-0.55992 0.77578-0.96086 1.4238-0.99609h13.457l1.3e-5 0.99609z" fill="#fff" fill-rule="evenodd" opacity=".4" stop-color="#000000" style="-inkscape-stroke:none;font-variation-settings:normal"/></svg>
