<?xml version="1.0" encoding="UTF-8"?>
<svg width="32" height="32" version="1.1" xml:space="preserve" xmlns="http://www.w3.org/2000/svg"><defs><linearGradient id="linearGradient11" x2="0" y1="392.36" y2="365.36" gradientTransform="translate(-33,-363.36)" gradientUnits="userSpaceOnUse"><stop stop-color="#fff" stop-opacity="0" offset="0"/><stop stop-color="#fff" stop-opacity=".15" offset="1"/></linearGradient><linearGradient id="linearGradient8" x1="18.727" x2="25.758" y1="16.98" y2="23.848" gradientTransform="translate(3.0101,-8.0101)" gradientUnits="userSpaceOnUse"><stop stop-color="#060606" offset="0"/><stop stop-opacity="0" offset="1"/></linearGradient></defs>
    <path d="m6.6411 1.9968h13.363l6.9884 7.0071v19.4c0 0.884-0.72853 1.5957-1.6335 1.5957h-18.718c-0.90494 0-1.6335-0.71167-1.6335-1.5957v-24.811c0-0.884 0.72853-1.5957 1.6335-1.5957z" fill="#2cbd2c" stop-color="#000000" style="-inkscape-stroke:none;font-variation-settings:normal"/><path d="m20.971 10.495c-0.06839-0.0011-0.13871 0.01677-0.20508 0.05859-0.03545 0.02431-0.18998 0.208-0.3418 0.4082l-0.27539 0.36719-0.09961-0.06836c-0.13876-0.09253-0.27284-0.11264-0.39844-0.05664-0.08681 0.03856-0.29004 0.30036-1.6309 2.0645-0.84618 1.1121-1.5352 2.0307-1.5332 2.0449 0.0016 0.0119 0.3408 0.27978 0.75195 0.5918l0.75195 0.57031 1-1.3164c0.55019-0.72502 1.0087-1.3129 1.0195-1.3047 0.03523 0.02663 0.09564 0.5976 0.08203 0.78125-0.0056 0.10019-0.04268 0.28104-0.08203 0.40039-0.07018 0.21327-0.07897 0.2266-1.3184 1.8652-0.68546 0.9059-1.2553 1.6746-1.2656 1.7051-0.02966 0.08403 0.0011 0.24142 0.06445 0.33203 0.10571 0.15277 0.36944 0.2015 0.51953 0.09375 0.10369-0.07485 2.5583-3.3429 2.6367-3.5137 0.22896-0.48706 0.27881-1.1127 0.13867-1.7285-0.05537-0.24444-0.12791-0.47927-0.19922-0.64648-0.02079-0.04566 0.01452-0.10479 0.24414-0.41016 0.21699-0.29151 0.26722-0.37347 0.27148-0.44922 0.0094-0.16122-0.03969-0.2512-0.19727-0.375l-0.14648-0.11523 0.29492-0.39258c0.2416-0.32394 0.29273-0.40864 0.29687-0.48438 0.01209-0.24146-0.17374-0.41864-0.37891-0.42188zm-4.959 5.4277c-0.0072 9.86e-4 -0.90769 1.1863-2.0039 2.6309-1.7631 2.3262-2.0147 2.6706-2.1777 2.9668-0.32391 0.58978-0.67791 1.4899-0.91406 2.3125-0.15305 0.52757-0.15935 0.47836 0.05078 0.36719 0.64817-0.34582 1.4949-0.90615 1.9883-1.3203 0.48245-0.40547 0.56455-0.50926 2.6133-3.209l1.9707-2.5996-0.75781-0.57617c-0.41666-0.31618-0.76234-0.57325-0.76953-0.57227zm0.2168 6.0254c-0.09565-0.0055-0.19524-0.0015-0.25977 0.01172-0.30456 0.06463-0.64295 0.32838-0.80664 0.63281-0.044 0.079-0.1142 0.25758-0.1582 0.39258-0.041 0.138-0.07903 0.25286-0.08203 0.25586-0.023 0.029-0.60722 0.16952-0.94922 0.22852-0.806 0.141-1.0265 0.19358-1.1055 0.26758-0.155 0.144-0.03445 0.28666 0.18555 0.22266 0.059-0.018 0.30687-0.06642 0.54687-0.10742 0.24-0.041 0.60841-0.11706 0.81641-0.16406 0.208-0.05 0.38358-0.08322 0.39258-0.07422s-0.02603 0.17705-0.08203 0.37305l-0.09961 0.35156-0.2207 0.09766c-0.12 0.053-0.29181 0.14408-0.38281 0.20508-0.275 0.182-0.32972 0.40964-0.13672 0.55664 0.106 0.079 0.39908 0.07509 0.58008-0.0039 0.161-0.073 0.25291-0.17636 0.37891-0.44336 0.067-0.138 0.11916-0.20975 0.16016-0.21875 0.032-9e-3 0.32348-0.06677 0.64648-0.13477 0.322-0.064 0.61434-0.12576 0.65234-0.13476 0.062-0.015 0.06778-0.0091 0.05078 0.04687-0.012 0.035-0.06609 0.13752-0.12109 0.22852-0.056 0.091-0.09961 0.19819-0.09961 0.24219 0 0.091 0.07667 0.1822 0.13867 0.1582 0.024-9e-3 0.05436-0.01758 0.06836-0.01758 0.015 0 0.07953-0.04647 0.14453-0.10547 0.12-0.108 0.41016-0.639 0.41016-0.75 0-0.056 0.04431-0.07134 0.07031-0.02734 9e-3 0.015 0.07544 0.04255 0.14844 0.06055 0.103 0.026 0.13281 0.04675 0.13281 0.09375 0 0.091 0.14925 0.22205 0.28125 0.24805 0.103 0.018 0.234-0.0035 0.375-0.0625 0.05-0.02 0.05316-0.0145 0.03516 0.0625-0.012 0.047-0.09845 0.19598-0.18945 0.33398-0.193 0.287-0.42728 0.74426-0.48828 0.94726-0.05 0.173-0.0285 0.30228 0.0625 0.36328 0.082 0.053 0.21711 0.02913 0.28711-0.04687 0.062-0.067 0.39458-0.7737 0.51758-1.0957 0.088-0.226 0.12912-0.28705 0.32812-0.49805 0.164-0.173 0.21664-0.21544 0.18164-0.14844-0.059 0.126-0.05523 0.22325 0.0098 0.28125 0.138 0.126 0.33676 0.0045 0.50976-0.3125 0.103-0.188 0.17955-0.24483 0.56055-0.42383l0.19922-0.08984-0.02148 0.10742c-0.012 0.059-0.07844 0.22614-0.14844 0.36914-0.138 0.29-0.16403 0.47481-0.08203 0.63281 0.056 0.108 0.11281 0.11058 0.38281 0.01758 0.375-0.126 0.86619-0.41503 0.99219-0.58203 0.173-0.234 0.22514-0.46111 0.11914-0.53711-0.108-0.079-0.16864-0.04575-0.30664 0.15625-0.185 0.275-0.41477 0.48866-0.63477 0.59766-0.103 0.053-0.19217 0.08713-0.20117 0.07813-0.012-0.012 0.22361-0.6415 0.34961-0.9375 0.026-0.062 0.04687-0.13792 0.04687-0.16992 0-0.082-0.10441-0.17578-0.19141-0.17578-0.041 0-0.23373 0.07969-0.42773 0.17969-0.402 0.199-0.37348 0.2168-0.27148-0.1582 0.062-0.231 0.03944-0.29359-0.10156-0.30859-0.135-0.015-0.18755 0.03-0.31055 0.25-0.079 0.149-0.18472 0.27198-0.38672 0.45898-0.267 0.246-0.27784 0.25494-0.33984 0.21094-0.094-0.067-0.147-0.05836-0.375 0.05664-0.223 0.111-0.29556 0.12559-0.35156 0.05859-0.047-0.056 0.02559-0.08506 0.43359-0.16406 0.396-0.076 0.44531-0.09769 0.44531-0.17969 0-0.132-0.10873-0.2568-0.30273-0.3418-0.334-0.149-0.37253-0.15909-0.51953-0.12109-0.158 0.041-0.39183 0.2682-0.42383 0.4082-0.032 0.147-0.13281 0.10341-0.13281-0.05859 0-0.067-0.08191-0.23758-0.12891-0.26758-0.1-0.067-0.25981 0.07961-0.38281 0.34961l-0.09766 0.20703-0.2168 0.04687c-0.281 0.062-1.099 0.22609-1.207 0.24609-0.07 0.012-0.08336 0.0058-0.06836-0.03516 0.012-0.029 0.04703-0.15706 0.08203-0.28906 0.091-0.363 0.118-0.41003 0.25-0.45703 0.158-0.056 0.69112-0.28447 0.82812-0.35547 0.065-0.032 0.19597-0.1327 0.29297-0.2207 0.296-0.275 0.34381-0.5288 0.13281-0.7168-0.059-0.05-0.13492-0.10319-0.16992-0.11719-0.054-0.0205-0.14776-0.03552-0.24414-0.04102zm-0.14453 0.3457c0.155 9e-3 0.21576 0.02331 0.25976 0.07031 0.059 0.059 0.05886 0.06283 0.0059 0.17383-0.035 0.07-0.1177 0.15166-0.2207 0.22266-0.179 0.123-0.73786 0.34959-0.75586 0.30859-0.024-0.067 0.15453-0.46866 0.26953-0.59766 0.152-0.173 0.19741-0.19173 0.44141-0.17773zm-1.6543 2.4531c0.02161 0.0014 0.02094 0.0206 0.0039 0.05469-0.038 0.073-0.13836 0.12742-0.19336 0.10742-0.064-0.026-0.04636-0.06323 0.05664-0.11523 0.0675-0.0335 0.11044-0.04838 0.13281-0.04687z" fill="#fff" opacity=".8"/>
    <path d="m6.6411 1.9968h13.363l6.9884 7.0071v19.4c0 0.884-0.72853 1.5957-1.6335 1.5957h-18.718c-0.90494 0-1.6335-0.71167-1.6335-1.5957v-24.811c0-0.884 0.72853-1.5957 1.6335-1.5957z" fill="url(#linearGradient11)" stop-color="#000000" style="-inkscape-stroke:none;font-variation-settings:normal"/>

    <path d="m26.995 9.0014h-5.9863c-0.55559 0-1.0029-0.44728-1.0029-1.0029v-6.0044z" fill="#fff" opacity=".6" stop-color="#000000" style="-inkscape-stroke:none;font-variation-settings:normal"/><g fill-rule="evenodd">
    <path d="m20.379 8.7871 0.23438 0.20703 6.3789 6.3535 2e-3 -6.3457h-5.9863c-0.23341 0-0.44714-0.080137-0.61719-0.21289-0.0074-0.00165-0.01172-0.00195-0.01172-0.00195zm6.6152 0.21484v-0.00781h-0.0078z" fill="url(#linearGradient8)" opacity=".1" stop-color="#000000" style="-inkscape-stroke:none;font-variation-settings:normal"/>
    <path d="m5.1235 29.004c0.2301 0.55992 0.77578 0.96086 1.4238 0.99609h18.902c0.64804-0.03523 1.1937-0.43618 1.4238-0.99609z" opacity=".25" stop-color="#000000" style="-inkscape-stroke:none;font-variation-settings:normal"/>

<path d="m5.1235 2.9925c0.2301-0.55992 0.77578-0.96086 1.4238-0.99609h13.457l1.3e-5 0.99609z" fill="#fff" opacity=".4" stop-color="#000000" style="-inkscape-stroke:none;font-variation-settings:normal"/>
</g></svg>
