<?xml version="1.0" encoding="UTF-8"?>
<svg width="32" height="32" version="1.1" xml:space="preserve" xmlns="http://www.w3.org/2000/svg" xmlns:xlink="http://www.w3.org/1999/xlink">
    <defs>        
        <linearGradient id="linearGradient11" x2="0" y1="392.36" y2="365.36" gradientTransform="translate(-33,-363.36)" gradientUnits="userSpaceOnUse"><stop stop-color="#fff" stop-opacity="0" offset="0"/><stop stop-color="#fff" stop-opacity=".15" offset="1"/></linearGradient>
        <linearGradient id="linearGradient8" x1="18.727" x2="25.758" y1="16.98" y2="23.848" gradientTransform="translate(3.0101,-8.0101)" gradientUnits="userSpaceOnUse"><stop stop-color="#060606" offset="0"/><stop stop-opacity="0" offset="1"/></linearGradient>
    
    
    
    


<linearGradient id="linearGradient9" x1="14.378" x2="14.378" y1="29.483" y2="3.8845" gradientUnits="userSpaceOnUse"><stop stop-color="#d40e13" offset="0"/><stop stop-color="#d40e3f" offset="1"/></linearGradient></defs><g><path d="m6.6411 1.9968h13.363l6.9884 7.0071v19.4c0 0.884-0.72853 1.5957-1.6335 1.5957h-18.718c-0.90494 0-1.6335-0.71167-1.6335-1.5957v-24.811c0-0.884 0.72853-1.5957 1.6335-1.5957z" fill="url(#linearGradient9)" stop-color="#000000" style="-inkscape-stroke:none;font-variation-settings:normal;paint-order:stroke fill markers"/><path d="m11.446 24.468v-5.424h-1.7034v-0.95603h4.4523v0.95603h-1.7034v5.424zm3.2492 0v-4.7899h1.0365v4.7899zm0.51373-5.6288c-0.18026 0-0.33047-0.05852-0.45064-0.1756-0.11416-0.11706-0.17124-0.27315-0.17124-0.46826 0-0.19511 0.05707-0.34794 0.17124-0.4585 0.12017-0.11706 0.27038-0.1756 0.45064-0.1756 0.18626 0 0.33648 0.05852 0.45064 0.1756 0.11416 0.11056 0.17124 0.2634 0.17124 0.4585 0 0.19511-0.05707 0.35119-0.17124 0.46826-0.11416 0.11706-0.26437 0.1756-0.45064 0.1756zm1.7479 5.6288v-5.2094c0-0.33168 0.05106-0.62434 0.15322-0.87798 0.10815-0.26014 0.27639-0.46175 0.50471-0.60483 0.22832-0.14308 0.51973-0.21462 0.87424-0.21462 0.16824 0 0.32746 0.01627 0.47768 0.04877 0.15622 0.03252 0.2854 0.0748 0.38755 0.12682l-0.19828 0.83896c-0.08411-0.04552-0.16824-0.07803-0.25236-0.09755-0.08411-0.01951-0.18626-0.02927-0.30643-0.02927-0.18026 0-0.32746 0.06828-0.44162 0.20486-0.10815 0.13658-0.16223 0.33818-0.16223 0.60483v5.2094zm2.7128 0v-5.2874c0-0.33168 0.04807-0.6276 0.1442-0.88774 0.10215-0.26014 0.25837-0.46175 0.46866-0.60483 0.21631-0.14958 0.4987-0.22437 0.8472-0.22437 0.16223 0 0.31244 0.01627 0.45064 0.04878 0.1442 0.03252 0.26437 0.07155 0.36051 0.11706l-0.19828 0.83896c-0.07811-0.03902-0.15922-0.06829-0.24334-0.0878-0.07811-0.01951-0.15622-0.02927-0.23433-0.02927-0.18026 0-0.31845 0.06503-0.41459 0.19511-0.09614 0.13007-0.1442 0.33494-0.1442 0.61459v5.3069zm-3.3708-3.9021v-0.83896l0.66694-0.04877h4.6055v0.88774z" fill="#fbb8b8" stroke-width=".23442" aria-label="Tiff"/><path d="m12.802 8.4081a0.94841 0.94841 0 0 0-0.94841 0.94841 0.94841 0.94841 0 0 0 0.94841 0.94841 0.94841 0.94841 0 0 0 0.94841-0.94841 0.94841 0.94841 0 0 0-0.94841-0.94841m0 0.63227a0.31614 0.31614 0 0 1 0.31614 0.31614 0.31614 0.31614 0 0 1-0.31614 0.31614 0.31614 0.31614 0 0 1-0.31614-0.31614 0.31614 0.31614 0 0 1 0.31614-0.31614m6.0066 0.63227-3.5407 3.5281-1.6439-1.6313-3.7936 3.7936h0.88897l1.9721-1.9487 0.89024-0.88771 0.98887 0.89656 0.69676 0.67527 3.5407-3.413 2.2724 2.1485h0.88898z" color="#000000" color-rendering="auto" fill="#fff" image-rendering="auto" opacity=".91473" shape-rendering="auto" stop-color="#000000" stroke-width=".2201" style="-inkscape-stroke:none;font-variation-settings:normal"/></g><g fill-rule="evenodd">
        <path d="m20.379 8.7871 0.23438 0.20703 6.3789 6.3535 2e-3 -6.3457h-5.9863c-0.23341 0-0.44714-0.080137-0.61719-0.21289-0.0074-0.00165-0.01172-0.00195-0.01172-0.00195zm6.6152 0.21484v-0.00781h-0.0078z" fill="url(#linearGradient8)" opacity=".1" stop-color="#000000" style="-inkscape-stroke:none;font-variation-settings:normal"/>
        <path d="m5.1235 29.004c0.2301 0.55992 0.77578 0.96086 1.4238 0.99609h18.902c0.64804-0.03523 1.1937-0.43618 1.4238-0.99609z" opacity=".25" stop-color="#000000" style="-inkscape-stroke:none;font-variation-settings:normal"/>
        <path d="m5.1235 2.9925c0.2301-0.55992 0.77578-0.96086 1.4238-0.99609h13.457l1.3e-5 0.99609z" fill="#fff" opacity=".4" stop-color="#000000" style="-inkscape-stroke:none;font-variation-settings:normal"/>
    </g>
    <path d="m6.6411 1.9968h13.363l6.9884 7.0071v19.4c0 0.884-0.72853 1.5957-1.6335 1.5957h-18.718c-0.90494 0-1.6335-0.71167-1.6335-1.5957v-24.811c0-0.884 0.72853-1.5957 1.6335-1.5957z" fill="url(#linearGradient11)" stop-color="#000000" style="-inkscape-stroke:none;font-variation-settings:normal"/>
    <path d="m26.995 9.0014h-5.9863c-0.55559 0-1.0029-0.44728-1.0029-1.0029v-6.0044z" fill="#fff" opacity=".5" stop-color="#000000" style="-inkscape-stroke:none;font-variation-settings:normal"/>
    
</svg>
