<?xml version="1.0" encoding="UTF-8"?>
<svg width="32" height="32" version="1.1" xml:space="preserve" xmlns="http://www.w3.org/2000/svg">
    <defs>        
        <linearGradient id="linearGradient11" x2="0" y1="392.36" y2="365.36" gradientTransform="translate(-33,-365.36)" gradientUnits="userSpaceOnUse"><stop stop-color="#fff" stop-opacity="0" offset="0"/><stop stop-color="#fff" stop-opacity=".15" offset="1"/></linearGradient>
        <linearGradient id="linearGradient8" x1="18.727" x2="25.758" y1="16.98" y2="23.848" gradientTransform="translate(3.0101,-6.0101)" gradientUnits="userSpaceOnUse"><stop stop-color="#060606" offset="0"/><stop stop-opacity="0" offset="1"/></linearGradient>
    
    <linearGradient id="a" x1="-17.188" x2="-17.188" y1="6.8841" y2="60.741" gradientTransform="matrix(.63636 0 0 .48276 25.761 -1.3793)" gradientUnits="userSpaceOnUse"><stop stop-color="#22f0e9" offset="0"/><stop stop-color="#19b5fe" offset="1"/></linearGradient>
        
        
        
    </defs><path d="m6.6411 3.9968h13.363l6.9884 7.0071v15.4c0 0.884-0.72853 1.5957-1.6335 1.5957h-18.718c-0.90494 0-1.6335-0.71167-1.6335-1.5957v-20.811c0-0.884 0.72853-1.5957 1.6335-1.5957z" fill="url(#a)" stop-color="#000000" style="-inkscape-stroke:none;font-variation-settings:normal;paint-order:stroke fill markers"/><path d="m11.434 12.303v9.2525h9.2525v-9.2525zm0.77104 0.77104h7.7104v6.1684h-7.7104zm1.5421 0.77104v1.5421h1.5421v-1.5421zm3.0842 0v1.5421h1.5421v-1.5421zm-3.0842 3.0842v1.5421h1.5421v-1.5421zm3.0842 0v1.5421h1.5421v-1.5421zm-4.6263 3.0842h7.7104v0.77104h-7.7104z" fill="#fff" stroke-width=".77104"/><g fill-rule="evenodd"><path d="m20.379 10.787 0.23438 0.20703 6.3789 6.3535 2e-3 -6.3457h-5.9863c-0.23341 0-0.44714-0.08014-0.61719-0.21289-0.0074-0.0016-0.01172-2e-3 -0.01172-2e-3zm6.6152 0.21484v-0.0078h-0.0078z" fill="url(#linearGradient8)" opacity=".1" stop-color="#000000" style="-inkscape-stroke:none;font-variation-settings:normal"/><path d="m5.1235 27c0.2301 0.55992 0.77578 0.96086 1.4238 0.99609h18.902c0.64804-0.03523 1.1937-0.43618 1.4238-0.99609z" opacity=".25" stop-color="#000000" style="-inkscape-stroke:none;font-variation-settings:normal"/><path d="m5.1235 4.9925c0.2301-0.55992 0.77578-0.96086 1.4238-0.99609h13.457l1.3e-5 0.99609z" fill="#fff" opacity=".4" stop-color="#000000" style="-inkscape-stroke:none;font-variation-settings:normal"/>
    </g><path d="m6.6411 3.9968h13.363l6.9884 7.0071v15.4c0 0.884-0.72853 1.5957-1.6335 1.5957h-18.718c-0.90494 0-1.6335-0.71167-1.6335-1.5957v-20.811c0-0.884 0.72853-1.5957 1.6335-1.5957z" fill="url(#linearGradient11)" stop-color="#000000" style="-inkscape-stroke:none;font-variation-settings:normal"/>
    <path d="m26.995 11.001h-5.9863c-0.55559 0-1.0029-0.44728-1.0029-1.0029v-6.0044z" fill="#fff" opacity=".5" stop-color="#000000" style="-inkscape-stroke:none;font-variation-settings:normal"/>
    
</svg>
