<?xml version="1.0" encoding="UTF-8"?>
<svg width="32" height="32" version="1.1" xml:space="preserve" xmlns="http://www.w3.org/2000/svg">
    <defs>        
        <linearGradient id="linearGradient11" x2="0" y1="392.36" y2="365.36" gradientTransform="translate(-33,-363.36)" gradientUnits="userSpaceOnUse"><stop stop-color="#fff" stop-opacity="0" offset="0"/><stop stop-color="#fff" stop-opacity=".15" offset="1"/></linearGradient>
        <linearGradient id="linearGradient8" x1="18.727" x2="25.758" y1="16.98" y2="23.848" gradientTransform="translate(3.0101,-8.0101)" gradientUnits="userSpaceOnUse"><stop stop-color="#060606" offset="0"/><stop stop-opacity="0" offset="1"/></linearGradient>
    
    </defs><path d="m6.6411 1.9968h13.363l6.9884 7.0071v19.4c0 0.884-0.72853 1.5957-1.6335 1.5957h-18.718c-0.90494 0-1.6335-0.71167-1.6335-1.5957v-24.811c0-0.884 0.72853-1.5957 1.6335-1.5957z" fill="#000344" stop-color="#000000" style="-inkscape-stroke:none;font-variation-settings:normal;paint-order:stroke fill markers"/><path d="m21.116 17.371v1.7851l0.03515 0.79295c-0.16476-0.17392-0.3352-0.30674-0.51172-0.40039-0.17064-0.09364-0.37981-0.14062-0.62696-0.14062-0.31775 0-0.61795 0.10318-0.90039 0.31054-0.27656 0.20736-0.50316 0.50459-0.67969 0.89257-0.17064 0.38797-0.25586 0.84961-0.25586 1.3848 0 0.80938 0.1627 1.4416 0.48633 1.8964 0.32363 0.45486 0.75554 0.68163 1.2968 0.68163 0.23537 0 0.46004-0.06236 0.67187-0.18945s0.39581-0.28033 0.55469-0.46093h0.03515l0.07226 0.53124h0.83789v-7.0839zm-11.199 0.526v6.5625h1.0234v-2.4081h0.83008c0.41778 0 0.79158-0.07662 1.1211-0.23047 0.3354-0.15385 0.59686-0.38872 0.78515-0.70312 0.19418-0.31439 0.29101-0.71172 0.29101-1.1933 0-0.50838-0.09684-0.91074-0.29101-1.205-0.19418-0.29432-0.45952-0.50571-0.79493-0.6328-0.3354-0.12709-0.71694-0.18945-1.1465-0.18945zm1.0234 0.93359h0.71485c0.42955 0 0.75299 0.07969 0.97073 0.24024 0.2236 0.15385 0.33594 0.43877 0.33594 0.8535 0 0.39466-0.10653 0.69189-0.31836 0.89257-0.20594 0.20068-0.52358 0.30078-0.95309 0.30078h-0.75zm5.1933 0.48436c-0.4825 0-0.86405 0.13785-1.1465 0.41211-0.28244 0.27426-0.42383 0.62769-0.42383 1.0625 0 0.26088 0.05617 0.48457 0.16797 0.67187 0.11769 0.1806 0.26681 0.33579 0.44922 0.46288 0.18241 0.12041 0.37996 0.22358 0.5918 0.31054 0.16476 0.06689 0.31388 0.13428 0.44922 0.20117s0.2438 0.14658 0.32617 0.24024c0.08826 0.09364 0.13282 0.208 0.13282 0.34179 0 0.16722-0.05617 0.3062-0.16797 0.41991-0.1118 0.11372-0.28416 0.17187-0.51953 0.17187-0.2236 0-0.43666-0.04082-0.63672-0.12109s-0.39566-0.21001-0.58985-0.39062l-0.45118 0.6621c0.21183 0.22743 0.46167 0.40415 0.75 0.53124 0.29421 0.12709 0.59248 0.1914 0.89258 0.1914 0.36482 0 0.67083-0.06738 0.91797-0.20117 0.25303-0.14047 0.44281-0.3253 0.57227-0.55273 0.12945-0.23412 0.19531-0.49053 0.19531-0.77147 0-0.28763-0.06005-0.52558-0.17773-0.71288-0.1118-0.19398-0.26481-0.35029-0.45899-0.4707-0.19418-0.12709-0.4014-0.2353-0.625-0.32226-0.18241-0.06689-0.3393-0.12924-0.46875-0.18945-0.12945-0.06689-0.23017-0.14043-0.30078-0.2207-0.06472-0.08696-0.0957-0.19209-0.0957-0.31249 0-0.14716 0.05229-0.27383 0.1582-0.38086 0.10592-0.10702 0.26862-0.16015 0.48633-0.16015 0.17653 0 0.34308 0.02964 0.50196 0.08984s0.31576 0.15415 0.46875 0.28124l0.44922-0.65233c-0.17653-0.17392-0.38763-0.31485-0.63477-0.42187-0.24714-0.11372-0.51829-0.16992-0.8125-0.16992zm4.5399 1.136c0.1471 0.0602 0.2943 0.16646 0.4414 0.32031v2.2988c-0.14122 0.1873-0.28454 0.32822-0.43164 0.42187-0.14711 0.08696-0.30592 0.1289-0.47656 0.1289-0.31186 0-0.55397-0.13897-0.72461-0.41991s-0.25586-0.68639-0.25586-1.2148c0-0.34784 0.04455-0.64199 0.13282-0.8828 0.09415-0.24081 0.21423-0.42564 0.36133-0.55273 0.35503-0.29494 0.78021-0.17037 0.95309-0.09961z" fill="#9f9bf8" opacity=".90958" stroke-width=".23527"/><path d="m12.802 8.4081a0.94841 0.94841 0 0 0-0.94841 0.94841 0.94841 0.94841 0 0 0 0.94841 0.94841 0.94841 0.94841 0 0 0 0.94841-0.94841 0.94841 0.94841 0 0 0-0.94841-0.94841m0 0.63227a0.31614 0.31614 0 0 1 0.31614 0.31614 0.31614 0.31614 0 0 1-0.31614 0.31614 0.31614 0.31614 0 0 1-0.31614-0.31614 0.31614 0.31614 0 0 1 0.31614-0.31614m6.0066 0.63227-3.5407 3.5281-1.6439-1.6313-3.7936 3.7936h0.88897l1.9721-1.9487 0.89024-0.88771 0.98887 0.89656 0.69676 0.67527 3.5407-3.413 2.2724 2.1485h0.88898z" color="#000000" color-rendering="auto" fill="#94cee9" image-rendering="auto" shape-rendering="auto" stop-color="#000000" stroke-width="1.2645" style="-inkscape-stroke:none;font-variation-settings:normal"/><g fill-rule="evenodd">
        <path d="m20.379 8.7871 0.23438 0.20703 6.3789 6.3535 2e-3 -6.3457h-5.9863c-0.23341 0-0.44714-0.080137-0.61719-0.21289-0.0074-0.00165-0.01172-0.00195-0.01172-0.00195zm6.6152 0.21484v-0.00781h-0.0078z" fill="url(#linearGradient8)" opacity=".1" stop-color="#000000" style="-inkscape-stroke:none;font-variation-settings:normal"/>
        <path d="m5.1235 29.004c0.2301 0.55992 0.77578 0.96086 1.4238 0.99609h18.902c0.64804-0.03523 1.1937-0.43618 1.4238-0.99609z" opacity=".25" stop-color="#000000" style="-inkscape-stroke:none;font-variation-settings:normal"/>
        <path d="m5.1235 2.9925c0.2301-0.55992 0.77578-0.96086 1.4238-0.99609h13.457l1.3e-5 0.99609z" fill="#fff" opacity=".4" stop-color="#000000" style="-inkscape-stroke:none;font-variation-settings:normal"/>
    </g>
    <path d="m6.6411 1.9968h13.363l6.9884 7.0071v19.4c0 0.884-0.72853 1.5957-1.6335 1.5957h-18.718c-0.90494 0-1.6335-0.71167-1.6335-1.5957v-24.811c0-0.884 0.72853-1.5957 1.6335-1.5957z" fill="url(#linearGradient11)" stop-color="#000000" style="-inkscape-stroke:none;font-variation-settings:normal"/>
    <path d="m26.995 9.0014h-5.9863c-0.55559 0-1.0029-0.44728-1.0029-1.0029v-6.0044z" fill="#fff" opacity=".5" stop-color="#000000" style="-inkscape-stroke:none;font-variation-settings:normal"/>
    
</svg>
