<?xml version="1.0" encoding="UTF-8"?>
<svg width="32" height="32" version="1.1" xml:space="preserve" xmlns="http://www.w3.org/2000/svg">
    <defs>        
        <linearGradient id="linearGradient11" x1="49.684" x2="49.684" y1="393.07" y2="365.65" gradientTransform="matrix(0,-1,-1,0,395.36,64.998)" gradientUnits="userSpaceOnUse"><stop stop-color="#fff" stop-opacity="0" offset="0"/><stop stop-color="#fff" stop-opacity=".15" offset="1"/></linearGradient>
        <linearGradient id="linearGradient8" x1="18.727" x2="25.758" y1="16.98" y2="23.848" gradientTransform="translate(6.0123 -5.0157)" gradientUnits="userSpaceOnUse"><stop stop-color="#060606" offset="0"/><stop stop-opacity="0" offset="1"/></linearGradient>
    
    
    
    



        
        
        
    
        
        
        
    
    
    



    
    



        
        
        
    
    
    <linearGradient id="a-0" x2="0" y1="61" y2="3" gradientTransform="matrix(.63636 0 0 .48276 42.868 1.9786)" gradientUnits="userSpaceOnUse"><stop stop-color="#3e61d4" offset="0"/><stop stop-color="#01bdd7" offset="1"/></linearGradient></defs><path d="m30.002 25.357v-13.363l-7.0071-6.9884h-19.4c-0.884 0-1.5957 0.72853-1.5957 1.6335v18.718c0 0.90494 0.71167 1.6335 1.5957 1.6335h24.811c0.884 0 1.5957-0.72853 1.5957-1.6335z" fill="url(#a-0)" stop-color="#000000" style="-inkscape-stroke:none;font-variation-settings:normal;paint-order:stroke fill markers"/><path d="m20.466 23.622q-0.30081 0-0.52172-0.1496-0.21621-0.15514-0.35251-0.4765l0.35251-0.28258q0.0799 0.17176 0.20211 0.26041 0.1269 0.08865 0.27261 0.08865 0.23031 0 0.33841-0.16068 0.1128-0.16068 0.1128-0.55961v-2.4102h0.54522v2.4656q0 0.33798-0.0987 0.61502-0.0987 0.27704-0.31021 0.44326-0.20681 0.16622-0.54052 0.16622zm1.7156-0.06649v-3.6236h0.96824q0.34311 0 0.61102 0.10527 0.26791 0.10527 0.42302 0.34906 0.15511 0.24379 0.15511 0.66489 0 0.39893-0.15511 0.65934-0.1504 0.26041-0.41832 0.38785-0.26321 0.12744-0.59692 0.12744h-0.44182v1.3298zm0.54522-1.8451h0.39952q0.34311 0 0.50762-0.16622 0.16921-0.16622 0.16921-0.49312 0-0.34352-0.17861-0.47096-0.17391-0.13298-0.51702-0.13298h-0.38071zm3.4781 1.9115q-0.41362 0-0.74263-0.21609-0.32901-0.21609-0.51702-0.63164-0.18801-0.42109-0.18801-1.0195 0-0.44326 0.1081-0.79232 0.1128-0.34906 0.31021-0.59286 0.20211-0.24933 0.46532-0.37677 0.26321-0.12744 0.56872-0.12744 0.32901 0 0.55932 0.13852 0.23031 0.13852 0.37132 0.32136l-0.29141 0.39339q-0.1128-0.13298-0.25851-0.21055-0.1457-0.08311-0.36191-0.08311-0.27261 0-0.47942 0.16068-0.20681 0.15514-0.31961 0.4488-0.1128 0.29366-0.1128 0.70367 0 0.41001 0.1081 0.70921 0.1081 0.2992 0.31491 0.45988 0.21151 0.15514 0.51702 0.15514 0.13161 0 0.24911-0.03878 0.1175-0.04432 0.19271-0.1219v-0.78124h-0.58282v-0.52637h1.0716v1.5957q-0.15511 0.18284-0.41362 0.31028-0.25381 0.1219-0.56872 0.1219z" fill="#efeeee" opacity=".80973" stroke-width="1.6335" aria-label="JPG"/><path d="m11.683 11.154a1.3217 1.3217 0 0 0-1.3217 1.3218 1.3217 1.3217 0 0 0 1.3217 1.3217 1.3217 1.3217 0 0 0 1.3217-1.3217 1.3217 1.3217 0 0 0-1.3217-1.3218m0 0.88116a0.44059 0.44059 0 0 1 0.44059 0.44059 0.44059 0.44059 0 0 1-0.44059 0.44059 0.44059 0.44059 0 0 1-0.44059-0.44059 0.44059 0.44059 0 0 1 0.44059-0.44059m8.3711 0.88116-4.9345 4.9169-2.291-2.2735-5.2869 5.2869h1.2389l2.7484-2.7158 1.2407-1.2372 1.3781 1.2495 0.97104 0.94109 4.9345-4.7565 3.1669 2.9943h1.2389z" color="#000000" color-rendering="auto" fill="#efeeee" image-rendering="auto" opacity=".80973" shape-rendering="auto" stop-color="#000000" stroke-width="1.7623" style="-inkscape-stroke:none;font-variation-settings:normal"/><g fill-rule="evenodd"><path d="m23.381 11.781 0.23438 0.20703 6.3789 6.3535 2e-3 -6.3457h-5.9863c-0.23341 0-0.44714-0.08014-0.61719-0.21289-0.0074-0.0016-0.01172-2e-3 -0.01172-2e-3zm6.6152 0.21484v-0.0078h-0.0078z" fill="url(#linearGradient8)" opacity=".1" stop-color="#000000" style="-inkscape-stroke:none;font-variation-settings:normal"/><path d="m29.881 25.995c-0.2301 0.55992-0.76016 0.96086-1.4082 0.99609h-24.945c-0.64804-0.03523-1.1742-0.43618-1.4043-0.99609z" opacity=".25" stop-color="#000000" style="-inkscape-stroke:none;font-variation-settings:normal"/><path d="m2.1229 6.0033c0.2301-0.55992 0.76016-0.96086 1.4082-0.99609h19.465l1.3e-5 0.99609z" fill="#fff" opacity=".4" stop-color="#000000" style="-inkscape-stroke:none;font-variation-settings:normal"/>
    </g><path d="m30.001 25.357v-13.363l-7.0071-6.9884h-19.4c-0.884 0-1.5957 0.72853-1.5957 1.6335v18.718c0 0.90494 0.71167 1.6335 1.5957 1.6335h24.811c0.884 0 1.5957-0.72853 1.5957-1.6335z" fill="url(#linearGradient11)" stop-color="#000000" style="-inkscape-stroke:none;font-variation-settings:normal"/>
    <path d="m22.997 5.0033v5.9863c0 0.55559 0.44728 1.0029 1.0029 1.0029h6.0044z" fill="#fff" opacity=".5" stop-color="#000000" style="-inkscape-stroke:none;font-variation-settings:normal"/>
    
</svg>
