<?xml version="1.0" encoding="UTF-8"?>
<svg width="32" height="32" version="1.1" xml:space="preserve" xmlns="http://www.w3.org/2000/svg">
    <defs>        
        <linearGradient id="linearGradient11" x2="0" y1="392.36" y2="365.36" gradientTransform="translate(-33,-363.36)" gradientUnits="userSpaceOnUse"><stop stop-color="#fff" stop-opacity="0" offset="0"/><stop stop-color="#fff" stop-opacity=".15" offset="1"/></linearGradient>
        <linearGradient id="linearGradient8" x1="18.727" x2="25.758" y1="16.98" y2="23.848" gradientTransform="translate(3.0101,-8.0101)" gradientUnits="userSpaceOnUse"><stop stop-color="#060606" offset="0"/><stop stop-opacity="0" offset="1"/></linearGradient>
    
    <linearGradient id="a-7" x2="0" y1="61" y2="3" gradientTransform="matrix(.5 0 0 -.48276 63.938 27.312)" gradientUnits="userSpaceOnUse"><stop stop-color="#6e5e78" offset="0"/><stop stop-color="#797692" offset="1"/></linearGradient>
    
    


</defs><path d="m6.6411 1.9968h13.363l6.9884 7.0071v19.4c0 0.884-0.72853 1.5957-1.6335 1.5957h-18.718c-0.90494 0-1.6335-0.71167-1.6335-1.5957v-24.811c0-0.884 0.72853-1.5957 1.6335-1.5957z" fill="url(#a-7)" stop-color="#000000" style="-inkscape-stroke:none;font-variation-settings:normal;paint-order:stroke fill markers"/><path transform="scale(.9612 1.0404)" d="m10.287 23.511 1.7798-3.2247-1.665-3.0333h1.2344l0.68896 1.3875q0.1244 0.21052 0.22965 0.44017t0.24879 0.51672h0.03828q0.11483-0.28707 0.21052-0.51672 0.10526-0.22965 0.21052-0.44017l0.66025-1.3875h1.177l-1.665 3.0812 1.7798 3.1769h-1.2344l-0.76551-1.4736q-0.1244-0.24879-0.24879-0.48801-0.11483-0.24879-0.25836-0.53586h-0.03828q-0.11483 0.28707-0.22965 0.53586-0.11483 0.23922-0.22965 0.48801l-0.74637 1.4736zm7.6169 0.11483q-0.65069 0-1.1674-0.28707-0.51672-0.29664-0.82293-0.84206-0.29664-0.555-0.29664-1.3301 0-0.78465 0.32534-1.3301 0.32534-0.555 0.8612-0.84206 0.54543-0.29664 1.1674-0.29664 0.44974 0 0.78465 0.1531 0.34448 0.14353 0.59327 0.37319l-0.52629 0.68896q-0.1531-0.14353-0.35405-0.22965-0.19138-0.08612-0.44017-0.08612-0.37319 0-0.66025 0.20095-0.28707 0.19138-0.45931 0.54543-0.16267 0.34448-0.16267 0.82292 0 0.46888 0.16267 0.82293 0.16267 0.34448 0.44017 0.54543 0.28707 0.19138 0.66025 0.19138 0.2775 0 0.51672-0.10526 0.24879-0.10526 0.44017-0.26793l0.44974 0.67939q-0.29664 0.26793-0.68896 0.4306-0.38276 0.16267-0.82292 0.16267zm2.6314-0.11483v-5.1863q0-0.48801 0.1531-0.87077 0.16267-0.38276 0.50715-0.59327 0.34448-0.22008 0.89948-0.22008 0.25836 0 0.47844 0.04784 0.22965 0.04784 0.38276 0.11483l-0.22965 0.79422q-0.24879-0.08612-0.49758-0.08612-0.28707 0-0.44017 0.19138t-0.1531 0.60284v5.2055zm-0.69853-3.8276v-0.82293l0.76551-0.04784h1.9521v0.87077z" fill="#e8cae8" stroke-width=".23922" aria-label="Xcf"/><path d="m12.802 8.4081a0.94841 0.94841 0 0 0-0.94841 0.94841 0.94841 0.94841 0 0 0 0.94841 0.94841 0.94841 0.94841 0 0 0 0.94841-0.94841 0.94841 0.94841 0 0 0-0.94841-0.94841m0 0.63227a0.31614 0.31614 0 0 1 0.31614 0.31614 0.31614 0.31614 0 0 1-0.31614 0.31614 0.31614 0.31614 0 0 1-0.31614-0.31614 0.31614 0.31614 0 0 1 0.31614-0.31614m6.0066 0.63227-3.5407 3.5281-1.6439-1.6313-3.7936 3.7936h0.88897l1.9721-1.9487 0.89024-0.88771 0.98887 0.89656 0.69676 0.67527 3.5407-3.413 2.2724 2.1485h0.88898z" color="#000000" color-rendering="auto" fill="#f8e5e8" image-rendering="auto" shape-rendering="auto" stop-color="#000000" stroke-width="1.2645" style="-inkscape-stroke:none;font-variation-settings:normal"/><g fill-rule="evenodd">
        <path d="m20.379 8.7871 0.23438 0.20703 6.3789 6.3535 2e-3 -6.3457h-5.9863c-0.23341 0-0.44714-0.080137-0.61719-0.21289-0.0074-0.00165-0.01172-0.00195-0.01172-0.00195zm6.6152 0.21484v-0.00781h-0.0078z" fill="url(#linearGradient8)" opacity=".1" stop-color="#000000" style="-inkscape-stroke:none;font-variation-settings:normal"/>
        <path d="m5.1235 29.004c0.2301 0.55992 0.77578 0.96086 1.4238 0.99609h18.902c0.64804-0.03523 1.1937-0.43618 1.4238-0.99609z" opacity=".25" stop-color="#000000" style="-inkscape-stroke:none;font-variation-settings:normal"/>
        <path d="m5.1235 2.9925c0.2301-0.55992 0.77578-0.96086 1.4238-0.99609h13.457l1.3e-5 0.99609z" fill="#fff" opacity=".4" stop-color="#000000" style="-inkscape-stroke:none;font-variation-settings:normal"/>
    </g>
    <path d="m6.6411 1.9968h13.363l6.9884 7.0071v19.4c0 0.884-0.72853 1.5957-1.6335 1.5957h-18.718c-0.90494 0-1.6335-0.71167-1.6335-1.5957v-24.811c0-0.884 0.72853-1.5957 1.6335-1.5957z" fill="url(#linearGradient11)" stop-color="#000000" style="-inkscape-stroke:none;font-variation-settings:normal"/>
    <path d="m26.995 9.0014h-5.9863c-0.55559 0-1.0029-0.44728-1.0029-1.0029v-6.0044z" fill="#fff" opacity=".5" stop-color="#000000" style="-inkscape-stroke:none;font-variation-settings:normal"/>
    
</svg>
