<?xml version="1.0" encoding="UTF-8"?>
<svg width="32" height="32" version="1.1" xml:space="preserve" xmlns="http://www.w3.org/2000/svg"><defs>
    
    


<linearGradient id="linearGradient10" x1="372.98" x2="379.72" y1="524.49" y2="531" gradientTransform="translate(-352.58,-515.8)" gradientUnits="userSpaceOnUse"><stop stop-color="#383e51" offset="0"/><stop stop-color="#655c6f" stop-opacity="0" offset="1"/></linearGradient>
    
    

    <linearGradient id="a-9" x2="0" y1="61" y2="3" gradientTransform="matrix(.5 0 0 -.48276 29 29.45)" gradientUnits="userSpaceOnUse"><stop stop-color="#f62459" offset="0"/><stop stop-color="#f73768" offset="1"/></linearGradient><linearGradient id="b-8" x2="0" y1="518.04" y2="524.8" gradientTransform="translate(-355.57 -517.8)" gradientUnits="userSpaceOnUse"><stop stop-color="#ffd6af" offset="0"/><stop stop-color="#fffcf9" offset="1"/></linearGradient></defs><path d="m6.6411 1.9968h13.363l6.9884 7.0071v19.4c0 0.884-0.72853 1.5957-1.6335 1.5957h-18.718c-0.90494 0-1.6335-0.71167-1.6335-1.5957v-24.811c0-0.884 0.72853-1.5957 1.6335-1.5957z" fill="url(#a-9)" stop-color="#000000" style="-inkscape-stroke:none;font-variation-settings:normal"/><path d="m10.01 13.99v0.6875 7.8125 1.2812 0.21875h5.9004v-1h-4.9004v-0.0625l3.9062-3.3438 0.75 0.75 0.24414 0.26562v-1.3965l-0.21289-0.21289h-1.5781l-3.1094 2.6562v-5.9688l2.3281 2.3281 0.34375-1.0312-1.9844-1.9844h2.6465l0.33204-1h-3.9785zm6 0v1h4.3125l-1.6172 1.6172-0.6875 2.0625 2.9922-2.9922v5.9688l-3.1016-2.6504-0.33203 0.99414 3.4336 2.9375v0.0625h-4.4336l-0.33203 1h5.7656v-0.21875-1.2812-7.8125-0.6875h-0.6875z" color="#000000" fill="#fffcf9" style="text-decoration-line:none;text-indent:0;text-transform:none"/><path d="m26.995 9.0014h-5.9863c-0.55559 0-1.0029-0.44728-1.0029-1.0029v-6.0044z" fill="url(#b-8)" stop-color="#000000" style="-inkscape-stroke:none;font-variation-settings:normal"/><g fill-rule="evenodd"><path d="m20.379 8.7871 0.23438 0.20703 6.3789 6.3535 2e-3 -6.3457h-5.9863c-0.23341 0-0.44714-0.080137-0.61719-0.21289-0.0074-0.00165-0.01172-0.00195-0.01172-0.00195zm6.6152 0.21484v-0.00781h-0.0078z" fill="url(#linearGradient10)" opacity=".2" stop-color="#000000" style="-inkscape-stroke:none;font-variation-settings:normal"/><path d="m5.1235 29.004c0.2301 0.55992 0.77578 0.96086 1.4238 0.99609h18.902c0.64804-0.03523 1.1937-0.43618 1.4238-0.99609z" opacity=".25" stop-color="#000000" style="-inkscape-stroke:none;font-variation-settings:normal"/><path d="m5.1235 2.9925c0.2301-0.55992 0.77578-0.96086 1.4238-0.99609h13.457l1.3e-5 0.99609z" fill="#fff" opacity=".4" stop-color="#000000" style="-inkscape-stroke:none;font-variation-settings:normal"/></g></svg>
