<?xml version="1.0" encoding="UTF-8"?>
<svg width="32" height="32" version="1.1" xml:space="preserve" xmlns="http://www.w3.org/2000/svg"><defs>
    
    


<linearGradient id="linearGradient10" x1="372.98" x2="379.72" y1="524.49" y2="531" gradientTransform="translate(-352.58,-515.8)" gradientUnits="userSpaceOnUse"><stop stop-color="#383e51" offset="0"/><stop stop-color="#655c6f" stop-opacity="0" offset="1"/></linearGradient>
    
    

    <linearGradient id="a-5" x2="0" y1="61" y2="3" gradientTransform="matrix(.5 0 0 -.48276 25.972 31.421)" gradientUnits="userSpaceOnUse"><stop stop-color="#e70673" offset="0"/><stop stop-color="#a3215f" offset=".92153"/></linearGradient><linearGradient id="b-6-0" x2="0" y1="518.04" y2="524.8" gradientTransform="translate(-358.6 -515.83)" gradientUnits="userSpaceOnUse"><stop stop-color="#ff9dcc" offset="0"/><stop stop-color="#e3cbd7" offset="1"/></linearGradient></defs><path d="m6.6411 1.9968h13.363l6.9884 7.0071v19.4c0 0.884-0.72853 1.5957-1.6335 1.5957h-18.718c-0.90494 0-1.6335-0.71167-1.6335-1.5957v-24.811c0-0.884 0.72853-1.5957 1.6335-1.5957z" fill="url(#a-5)" stop-color="#000000" style="-inkscape-stroke:none;font-variation-settings:normal"/><g transform="matrix(.056855 0 0 .056855 -1.0877 -3.8186)"><path d="m299.84 259.81a130.23 130.23 0 0 0-83.306 30.332c-12.987 12.962-20.301 31.149-20.618 48.15-3.3e-4 37.281 30.222 67.503 67.503 67.503 10.132-4e-3 20.133-2.2866 29.262-6.6816l5e-3 7e-3 40.582-19.527c0.21964-0.10793 0.44021-0.21391 0.66166-0.31805l0.48289-0.23217 0.0232 0.0441c5.4052-2.3644 11.238-3.5932 17.138-3.6101 23.787-3e-5 43.071 19.283 43.07 43.07-0.0292 15.088-7.9512 29.06-20.883 36.832-8.9331 7.372-42.69 10.247-50.913-10.215-5.5011-13.689 1.6794-35.742 19.36-38.676 32.519-2.4286 24.444 38.809-1.4324 23.474-0.84728-0.0651 10.471 14.102 23.92 6.194 24.334-14.308 4.7957-44.905-20.985-45.185-5.9494-0.0647-12.23 1.4864-18.382 5.2236-38.34 23.29-27.247 82.599 27.142 84.435-26.339 15.99-53.93 17.492-71.87 10.807-43.625-16.256-42.65-44.347-26.745-54.186 13.076-8.0885 27.662 0.52978 28.05 20.669 24.125-45.853-50.597-50.318-53.107-4.7872-0.58172 10.551 0.72986 21.657 11.536 32.21-11.651-6.8494-43.432-29.113-43.038-56.8 0.0895-6.2925 0.70155-22.531 20.621-23.077-14.82-13.582-29.076 1.3327-30.689 21.765-6.2499-11.891-17.058-49.973 0-85.535-9.5137 12.717-16.506 32.15-17.291 52.891a130.23 130.23 0 0 0 75.645 113.83l0.47826 0.20662a130.23 130.23 0 0 0 53.782 11.65 130.23 130.23 0 0 0 130.23-130.23 130.23 130.23 0 0 0-130.23-130.23zm57.295 57.792c2.3486 0.11399 7.0011 0.85144 8.9707 2.1359 10.72 5.0515 16.803 13.908 21.359 24.848-3.8968-2.5577-8.4079-4.0262-13.064-4.2509-4.5924-0.18175-9.1502 0.8517-13.215 2.9972l-0.0975-0.0719 2e-3 -0.0209c-1.6687 0.6243-3.4483 0.90507-5.2283 0.82649-7.3075-0.35123-12.945-6.5594-12.595-13.867 0.35123-7.3075 6.5594-12.948 13.867-12.597z" fill="#fff" stroke-width="4.3206"/></g><path d="m26.995 9.0014h-5.9863c-0.55559 0-1.0029-0.44728-1.0029-1.0029v-6.0044z" fill="url(#b-6-0)" stop-color="#000000" style="-inkscape-stroke:none;font-variation-settings:normal"/><g fill-rule="evenodd"><path d="m20.379 8.7871 0.23438 0.20703 6.3789 6.3535 2e-3 -6.3457h-5.9863c-0.23341 0-0.44714-0.080137-0.61719-0.21289-0.0074-0.00165-0.01172-0.00195-0.01172-0.00195zm6.6152 0.21484v-0.00781h-0.0078z" fill="url(#linearGradient10)" opacity=".2" stop-color="#000000" style="-inkscape-stroke:none;font-variation-settings:normal"/><path d="m5.1235 29.004c0.2301 0.55992 0.77578 0.96086 1.4238 0.99609h18.902c0.64804-0.03523 1.1937-0.43618 1.4238-0.99609z" opacity=".25" stop-color="#000000" style="-inkscape-stroke:none;font-variation-settings:normal"/><path d="m5.1235 2.9925c0.2301-0.55992 0.77578-0.96086 1.4238-0.99609h13.457l1.3e-5 0.99609z" fill="#fff" opacity=".4" stop-color="#000000" style="-inkscape-stroke:none;font-variation-settings:normal"/></g></svg>
