<?xml version="1.0" encoding="UTF-8"?>
<svg width="32" height="32" version="1.1" xml:space="preserve" xmlns="http://www.w3.org/2000/svg"><defs><linearGradient id="linearGradient11" x2="0" y1="392.36" y2="365.36" gradientTransform="translate(-33,-363.36)" gradientUnits="userSpaceOnUse"><stop stop-color="#fff" stop-opacity="0" offset="0"/><stop stop-color="#fff" stop-opacity=".15" offset="1"/></linearGradient><linearGradient id="linearGradient8" x1="18.727" x2="25.758" y1="16.98" y2="23.848" gradientTransform="translate(3.0101,-8.0101)" gradientUnits="userSpaceOnUse"><stop stop-color="#060606" offset="0"/><stop stop-opacity="0" offset="1"/></linearGradient><linearGradient id="a-1" x2="0" y1="3" y2="61" gradientTransform="matrix(.48264 0 0 -.48264 30.199 31.41)" gradientUnits="userSpaceOnUse"><stop stop-color="#734f96" offset="0"/><stop stop-color="#9263b2" offset="1"/></linearGradient></defs>
    <path d="m6.6411 1.9968h13.363l6.9884 7.0071v19.4c0 0.884-0.72853 1.5957-1.6335 1.5957h-18.718c-0.90494 0-1.6335-0.71167-1.6335-1.5957v-24.811c0-0.884 0.72853-1.5957 1.6335-1.5957z" fill="url(#a-1)" stop-color="#000000" stroke-width=".48264" style="-inkscape-stroke:none;font-variation-settings:normal"/><g transform="matrix(.0054567 0 0 .0054567 8.4244 10.012)"><path d="m350 2062 98-6c199-13 197-12 207-168 9-148-2.337-1306.8-9-1330-10.975-38.27-52.156-60.281-175-60.25l-121-0.75v-217h1860v831l-219-3.25c-2-2-8-60.75-12-114.75-23-254-80-400.14-190-457.14-58-30-148.56-38.842-438.65-38.93l-270.35 0.072v623h48c81-1 184-20 218-41 44-27 81-105 94-199 9.8-68.603 17.362-119.93 17.362-119.93l212.64-0.067v990h-220v-39c0-64-30-213-51-258-33-69-89-93-248-108l-73-7 4 321c3 305 5 322 24 348 24 32 50 38 209 50l106.73 5.077-0.727 217.92h-1071z" fill="#e8d9eb"/></g>
    <path d="m6.6411 1.9968h13.363l6.9884 7.0071v19.4c0 0.884-0.72853 1.5957-1.6335 1.5957h-18.718c-0.90494 0-1.6335-0.71167-1.6335-1.5957v-24.811c0-0.884 0.72853-1.5957 1.6335-1.5957z" fill="url(#linearGradient11)" stop-color="#000000" style="-inkscape-stroke:none;font-variation-settings:normal"/>

    <path d="m26.995 9.0014h-5.9863c-0.55559 0-1.0029-0.44728-1.0029-1.0029v-6.0044z" fill="#fff" opacity=".5" stop-color="#000000" style="-inkscape-stroke:none;font-variation-settings:normal"/><g fill-rule="evenodd">
    <path d="m20.379 8.7871 0.23438 0.20703 6.3789 6.3535 2e-3 -6.3457h-5.9863c-0.23341 0-0.44714-0.080137-0.61719-0.21289-0.0074-0.00165-0.01172-0.00195-0.01172-0.00195zm6.6152 0.21484v-0.00781h-0.0078z" fill="url(#linearGradient8)" opacity=".1" stop-color="#000000" style="-inkscape-stroke:none;font-variation-settings:normal"/>
    <path d="m5.1235 29.004c0.2301 0.55992 0.77578 0.96086 1.4238 0.99609h18.902c0.64804-0.03523 1.1937-0.43618 1.4238-0.99609z" opacity=".25" stop-color="#000000" style="-inkscape-stroke:none;font-variation-settings:normal"/>

<path d="m5.1235 2.9925c0.2301-0.55992 0.77578-0.96086 1.4238-0.99609h13.457l1.3e-5 0.99609z" fill="#fff" opacity=".4" stop-color="#000000" style="-inkscape-stroke:none;font-variation-settings:normal"/>
</g></svg>
