<?xml version="1.0" encoding="UTF-8"?>
<svg width="32" height="32" version="1.1" xml:space="preserve" xmlns="http://www.w3.org/2000/svg"><defs><linearGradient id="linearGradient11" x2="0" y1="392.36" y2="365.36" gradientTransform="translate(-33,-363.36)" gradientUnits="userSpaceOnUse"><stop stop-color="#fff" stop-opacity="0" offset="0"/><stop stop-color="#fff" stop-opacity=".15" offset="1"/></linearGradient><linearGradient id="linearGradient8" x1="18.727" x2="25.758" y1="16.98" y2="23.848" gradientTransform="translate(3.0101,-8.0101)" gradientUnits="userSpaceOnUse"><stop stop-color="#060606" offset="0"/><stop stop-opacity="0" offset="1"/></linearGradient><linearGradient id="linearGradient10" x1="397.07" x2="397.07" y1="517.8" y2="545.8" gradientTransform="translate(-352.53 -515.81)" gradientUnits="userSpaceOnUse"><stop stop-color="#23a38a" offset="0"/><stop stop-color="#008c9e" offset="1"/></linearGradient></defs>
    <path d="m6.6411 1.9968h13.363l6.9884 7.0071v19.4c0 0.884-0.72853 1.5957-1.6335 1.5957h-18.718c-0.90494 0-1.6335-0.71167-1.6335-1.5957v-24.811c0-0.884 0.72853-1.5957 1.6335-1.5957z" fill="url(#linearGradient10)" stop-color="#000000" style="-inkscape-stroke:none;font-variation-settings:normal"/>
    <path d="m6.6411 1.9968h13.363l6.9884 7.0071v19.4c0 0.884-0.72853 1.5957-1.6335 1.5957h-18.718c-0.90494 0-1.6335-0.71167-1.6335-1.5957v-24.811c0-0.884 0.72853-1.5957 1.6335-1.5957z" fill="url(#linearGradient11)" opacity=".16082" stop-color="#000000" style="-inkscape-stroke:none;font-variation-settings:normal"/>

    <path d="m26.995 9.0014h-5.9863c-0.55559 0-1.0029-0.44728-1.0029-1.0029v-6.0044z" fill="#fff" opacity=".5" stop-color="#000000" style="-inkscape-stroke:none;font-variation-settings:normal"/><g fill-rule="evenodd">
    <path d="m20.379 8.7871 0.23438 0.20703 6.3789 6.3535 2e-3 -6.3457h-5.9863c-0.23341 0-0.44714-0.080137-0.61719-0.21289-0.0074-0.00165-0.01172-0.00195-0.01172-0.00195zm6.6152 0.21484v-0.00781h-0.0078z" fill="url(#linearGradient8)" opacity=".1" stop-color="#000000" style="-inkscape-stroke:none;font-variation-settings:normal"/>
    <path d="m5.1235 29.004c0.2301 0.55992 0.77578 0.96086 1.4238 0.99609h18.902c0.64804-0.03523 1.1937-0.43618 1.4238-0.99609z" opacity=".25" stop-color="#000000" style="-inkscape-stroke:none;font-variation-settings:normal"/>

<path d="m5.1235 2.9925c0.2301-0.55992 0.77578-0.96086 1.4238-0.99609h13.457l1.3e-5 0.99609z" fill="#fff" opacity=".4" stop-color="#000000" style="-inkscape-stroke:none;font-variation-settings:normal"/>
</g><path d="m16.367 20.913c0 0.55678 0.07989 0.93041 0.23967 1.1209 0.15978 0.19048 0.45028 0.28572 0.8715 0.28572 0.43578 0 0.99501-0.21978 1.6777-0.65934l0.43578 0.72528c-1.2783 1.0696-2.3313 1.6044-3.1593 1.6044s-1.4816-0.1978-1.9609-0.59341c-0.47934-0.41026-0.71901-1.1282-0.71901-2.1539v-5.7582h-1.0894l-0.17431-0.81319 1.2637-0.3956v-1.0769l2.6146-1.2088v2.4176l2.571-0.1978-0.23969 1.4286-2.3313-0.08791z" fill="#e8d9eb" stroke-width=".49168"/></svg>
