<?xml version="1.0" encoding="UTF-8"?>
<svg width="32" height="32" version="1.1" xml:space="preserve" xmlns="http://www.w3.org/2000/svg" xmlns:xlink="http://www.w3.org/1999/xlink">
    <defs>
        
    <linearGradient id="a-6" x2="0" y1="61" y2="3" gradientTransform="matrix(.5 0 0 -.48276 30.343 30.448)" gradientUnits="userSpaceOnUse"><stop stop-color="#96281b" offset="0"/><stop stop-color="#a5281b" offset="1"/></linearGradient><linearGradient id="b" x2="0" y1="2.241" y2="9" gradientTransform="translate(30.343 -1)" gradientUnits="userSpaceOnUse"><stop stop-color="#e87c73" offset="0"/><stop stop-color="#f0aba4" offset="1"/></linearGradient></defs>
    
    <path d="m6.6411 1.9968h13.363l6.9884 7.0071v19.4c0 0.884-0.72853 1.5957-1.6335 1.5957h-18.718c-0.90494 0-1.6335-0.71167-1.6335-1.5957v-24.811c0-0.884 0.72853-1.5957 1.6335-1.5957z" fill="url(#a-6)" stop-color="#000000" style="-inkscape-stroke:none;font-variation-settings:normal"/><g transform="translate(-24)"><path id="d" d="m34.04 19.97c4 0.064 8-0.287 12-2v4c-4.761 1.786-8.275 1.737-12 2z" color="#4d4d4d" color-rendering="auto" fill="#f0aba4" image-rendering="auto" shape-rendering="auto"/><use transform="translate(0,-6)" color="#4d4d4d" color-rendering="auto" fill="#f0aba4" image-rendering="auto" shape-rendering="auto" text-rendering="auto" xlink:href="#d"/></g>
    
    <path d="m26.995 9.0014h-5.9863c-0.55559 0-1.0029-0.44728-1.0029-1.0029v-6.0044z" fill="url(#b)" stop-color="#000000" style="-inkscape-stroke:none;font-variation-settings:normal"/><g fill-rule="evenodd">
    <path d="m20.379 8.7871 0.23438 0.20703 6.3789 6.3535 2e-3 -6.3457h-5.9863c-0.23341 0-0.44714-0.080137-0.61719-0.21289-0.0074-0.00165-0.01172-0.00195-0.01172-0.00195zm6.6152 0.21484v-0.00781h-0.0078z" fill-opacity=".082353" stroke-width=".752"/>
    <path d="m5.1235 29.004c0.2301 0.55992 0.77578 0.96086 1.4238 0.99609h18.902c0.64804-0.03523 1.1937-0.43618 1.4238-0.99609z" fill="#2e3132" fill-opacity=".294" stop-color="#000000" style="-inkscape-stroke:none;font-variation-settings:normal"/>
    
 
  <path d="m5.1235 2.9925c0.2301-0.55992 0.77578-0.96086 1.4238-0.99609h13.457l1.3e-5 0.99609z" fill="#fff" opacity=".4" stop-color="#000000" style="-inkscape-stroke:none;font-variation-settings:normal"/></g></svg>
