<?xml version="1.0" encoding="UTF-8"?>
<svg width="32" height="32" version="1.1" xml:space="preserve" xmlns="http://www.w3.org/2000/svg">
    <defs>
        
    <linearGradient id="a-7" x2="0" y1="61" y2="3" gradientTransform="matrix(.5 0 0 -.48276 30.02 31.349)" gradientUnits="userSpaceOnUse"><stop stop-color="#8e44ad" offset="0"/><stop stop-color="#9b59b6" offset="1"/></linearGradient><linearGradient id="b-0" x2="0" y1="518.04" y2="524.8" gradientTransform="translate(-354.55 -515.9)" gradientUnits="userSpaceOnUse"><stop stop-color="#d3bdd7" offset="0"/><stop stop-color="#e8d9eb" offset="1"/></linearGradient><linearGradient id="linearGradient13" x1="374.59" x2="382.11" y1="524.63" y2="531.82" gradientTransform="translate(-354.55 -515.9)" gradientUnits="userSpaceOnUse"><stop stop-color="#383e51" offset="0"/><stop stop-color="#655c6f" stop-opacity="0" offset="1"/></linearGradient></defs>
    
    <path d="m6.6411 1.9968h13.363l6.9884 7.0071v19.4c0 0.884-0.72853 1.5957-1.6335 1.5957h-18.718c-0.90494 0-1.6335-0.71167-1.6335-1.5957v-24.811c0-0.884 0.72853-1.5957 1.6335-1.5957z" fill="url(#a-7)" stop-color="#000000" style="-inkscape-stroke:none;font-variation-settings:normal"/>
    
    <path d="m26.995 9.0014h-5.9863c-0.55559 0-1.0029-0.44728-1.0029-1.0029v-6.0044z" fill="url(#b-0)" stop-color="#000000" style="-inkscape-stroke:none;font-variation-settings:normal"/>
    <path d="m20.379 8.7871 0.23438 0.20703 6.3789 6.3535 2e-3 -6.3457h-5.9863c-0.23341 0-0.44714-0.080137-0.61719-0.21289-0.0074-0.00165-0.01172-0.00195-0.01172-0.00195zm6.6152 0.21484v-0.00781h-0.0078z" fill="url(#linearGradient13)" fill-rule="evenodd" opacity=".2" stop-color="#000000" style="-inkscape-stroke:none;font-variation-settings:normal"/>
    <path d="m10.02 11.899v1h12v-1zm4.268 2 0.018 0.486 3.43 4.514-3.715 4.445v0.555h8v-2.777h-0.572c0 0.555 0.15 0.9-0.338 1.232-0.534 0.365-1.238 0.434-1.857 0.434h-2.947l2.857-3.889-2.857-4.445h1.68c1.191 0 2.886-0.107 3.357 1.285 0.081 0.238 0.085 0.688 0.105 0.938h0.572v-2.777zm-4.268 1v1h4v-1zm0 2v1h5v-1zm0 3v1h5v-1zm0 2v1h4v-1z" fill="#e8d9eb"/><path d="m5.1235 29.004c0.2301 0.55992 0.77578 0.96086 1.4238 0.99609h18.902c0.64804-0.03523 1.1937-0.43618 1.4238-0.99609z" fill="#2e3132" fill-opacity=".294" fill-rule="evenodd" stop-color="#000000" style="-inkscape-stroke:none;font-variation-settings:normal"/>
    
 
  <path d="m5.1235 2.9925c0.2301-0.55992 0.77578-0.96086 1.4238-0.99609h13.457l1.3e-5 0.99609z" fill="#fff" fill-rule="evenodd" opacity=".4" stop-color="#000000" style="-inkscape-stroke:none;font-variation-settings:normal"/></svg>
