<?xml version="1.0" encoding="UTF-8"?>
<svg width="32" height="32" version="1.1" xmlns="http://www.w3.org/2000/svg">
 <path d="m6.6411 1.9968h13.363l6.9884 7.0071v19.4c0 0.884-0.72853 1.5957-1.6335 1.5957h-18.718c-0.90494 0-1.6335-0.71167-1.6335-1.5957v-24.811c0-0.884 0.72853-1.5957 1.6335-1.5957z" fill="#eee" fill-rule="evenodd" stroke-width=".74987"/>
 <path d="m10 22v-1h6v1zm0-2v-1h12v1zm0-3v-1h8v1zm0-2v-1h12v1zm0-2v-1h12v1z" color="#000000" color-rendering="auto" image-rendering="auto" opacity=".6" shape-rendering="auto"/>
 <path d="m6.6411 1.9968h13.363l6.9884 7.0071v19.4c0 0.884-0.72853 1.5957-1.6335 1.5957h-18.718c-0.90494 0-1.6335-0.71167-1.6335-1.5957v-24.811c0-0.884 0.72853-1.5957 1.6335-1.5957z" fill="#fff" fill-opacity=".18824" fill-rule="evenodd" stroke-width=".74987"/>
 <path d="m5.1235 29.004c0.2301 0.55992 0.77578 0.96086 1.4238 0.99609h18.902c0.64804-0.03523 1.1937-0.43618 1.4238-0.99609z" fill="#cbcbcb" stroke-width=".59953"/>
 <path d="m26.995 9.0014h-5.9863c-0.55559 0-1.0029-0.44728-1.0029-1.0029v-6.0044z" fill-opacity=".50196" stroke-width=".752"/>
 <path d="m20.379 8.7871 0.23438 0.20703 6.3789 6.3535 2e-3 -6.3457h-5.9863c-0.23341 0-0.44714-0.080137-0.61719-0.21289-0.0074-0.00165-0.01172-0.00195-0.01172-0.00195zm6.6152 0.21484v-0.00781h-0.0078z" fill-opacity=".082353" stroke-width=".752"/>
</svg>
