<?xml version="1.0" encoding="UTF-8"?>
<svg width="32" height="32" version="1.1" xml:space="preserve" xmlns="http://www.w3.org/2000/svg"><defs><linearGradient id="linearGradient11" x2="0" y1="392.36" y2="365.36" gradientTransform="translate(-33,-363.36)" gradientUnits="userSpaceOnUse"><stop stop-color="#fff" stop-opacity="0" offset="0"/><stop stop-color="#fff" stop-opacity=".15" offset="1"/></linearGradient><linearGradient id="linearGradient8" x1="18.727" x2="25.758" y1="16.98" y2="23.848" gradientTransform="translate(3.0101,-8.0101)" gradientUnits="userSpaceOnUse"><stop stop-color="#060606" offset="0"/><stop stop-opacity="0" offset="1"/></linearGradient><linearGradient id="b" x2="0" y1="518.04" y2="524.8" gradientTransform="translate(-352.56 -515.73)" gradientUnits="userSpaceOnUse"><stop stop-color="#dedede" offset="0"/><stop stop-color="#fbfbfb" offset="1"/></linearGradient><linearGradient id="a-7" x2="0" y1="61" y2="3" gradientTransform="matrix(.5 0 0 -.48276 32.939 29.309)" gradientUnits="userSpaceOnUse"><stop stop-color="#5e6b78" offset="0"/><stop stop-color="#768492" offset="1"/></linearGradient></defs>
    <path d="m6.6411 1.9968h13.363l6.9884 7.0071v19.4c0 0.884-0.72853 1.5957-1.6335 1.5957h-18.718c-0.90494 0-1.6335-0.71167-1.6335-1.5957v-24.811c0-0.884 0.72853-1.5957 1.6335-1.5957z" fill="url(#a-7)" stop-color="#000000" style="-inkscape-stroke:none;font-variation-settings:normal"/>
    <path d="m13.03 12a3 3 0 0 0-3 3 3 3 0 0 0 3 3 3 3 0 0 0 3-3 3 3 0 0 0-3-3m3 3a3 3 0 0 0 3 3 3 3 0 0 0 3-3 3 3 0 0 0-3-3 3 3 0 0 0-3 3m-3-2a2 2 0 0 1 2 2 2 2 0 0 1-2 2 2 2 0 0 1-1.3711-0.54883 1.5 1.5 0 0 0 0.37109 0.04883 1.5 1.5 0 0 0 1.5-1.5 1.5 1.5 0 0 0-1.5-1.5 1.5 1.5 0 0 0-0.375 0.04883 2 2 0 0 1 1.375-0.54883m6 0a2 2 0 0 1 2 2 2 2 0 0 1-2 2 2 2 0 0 1-1.3711-0.54883 1.5 1.5 0 0 0 0.37109 0.04883 1.5 1.5 0 0 0 1.5-1.5 1.5 1.5 0 0 0-1.5-1.5 1.5 1.5 0 0 0-0.375 0.04883 2 2 0 0 1 1.375-0.54883m1.08 6.15c-0.94 0.533-2.457 0.849-4.08 0.85-1.394-1e-3 -2.725-0.234-3.67-0.645l-0.629 0.735c0.389 0.198 0.831 0.354 1.299 0.49v1.42a2 2 0 0 0 2 2 2 2 0 0 0 1.5-0.67969 2 2 0 0 0 1.5 0.67969 2 2 0 0 0 2-2v-1.773c0.272-0.127 0.528-0.253 0.754-0.401zm-1.08 1.426v1.424a1 1 0 0 1-1 1 1 1 0 0 1-1-1v-1.059c0.712-0.061 1.382-0.185 2-0.365m-5 0.238c0.638 0.114 1.309 0.186 2 0.186v1a1 1 0 0 1-1 1 1 1 0 0 1-1-1z" color="#4d4d4d" color-rendering="auto" fill="#fbfbfb" image-rendering="auto" shape-rendering="auto" text-rendering="auto"/><path d="m6.6411 1.9968h13.363l6.9884 7.0071v19.4c0 0.884-0.72853 1.5957-1.6335 1.5957h-18.718c-0.90494 0-1.6335-0.71167-1.6335-1.5957v-24.811c0-0.884 0.72853-1.5957 1.6335-1.5957z" fill="url(#linearGradient11)" opacity=".10627" stop-color="#000000" style="-inkscape-stroke:none;font-variation-settings:normal"/>

    <path d="m26.995 9.0014h-5.9863c-0.55559 0-1.0029-0.44728-1.0029-1.0029v-6.0044z" fill="url(#b)" stop-color="#000000" style="-inkscape-stroke:none;font-variation-settings:normal"/><g fill-rule="evenodd">
    <path d="m20.379 8.7871 0.23438 0.20703 6.3789 6.3535 2e-3 -6.3457h-5.9863c-0.23341 0-0.44714-0.080137-0.61719-0.21289-0.0074-0.00165-0.01172-0.00195-0.01172-0.00195zm6.6152 0.21484v-0.00781h-0.0078z" fill="url(#linearGradient8)" opacity=".1" stop-color="#000000" style="-inkscape-stroke:none;font-variation-settings:normal"/>
    <path d="m5.1235 29.004c0.2301 0.55992 0.77578 0.96086 1.4238 0.99609h18.902c0.64804-0.03523 1.1937-0.43618 1.4238-0.99609z" opacity=".25" stop-color="#000000" style="-inkscape-stroke:none;font-variation-settings:normal"/>

<path d="m5.1235 2.9925c0.2301-0.55992 0.77578-0.96086 1.4238-0.99609h13.457l1.3e-5 0.99609z" fill="#fff" opacity=".4" stop-color="#000000" style="-inkscape-stroke:none;font-variation-settings:normal"/>
</g></svg>
