<?xml version="1.0" encoding="UTF-8"?>
<svg width="32" height="32" version="1.1" xml:space="preserve" xmlns="http://www.w3.org/2000/svg" xmlns:xlink="http://www.w3.org/1999/xlink">
<defs>
<linearGradient id="linearGradient11" x2="0" y1="392.36" y2="365.36" gradientTransform="translate(-33,-363.36)" gradientUnits="userSpaceOnUse"><stop stop-color="#fff" stop-opacity="0" offset="0"/><stop stop-color="#fff" stop-opacity=".15" offset="1"/></linearGradient>
<linearGradient id="linearGradient9" x1="21.444" x2="28.232" y1="16.939" y2="23.646" gradientTransform="translate(-1 -8.0505)" gradientUnits="userSpaceOnUse"><stop stop-color="#060606" offset="0"/><stop stop-opacity="0" offset="1"/></linearGradient>
</defs>
<path d="m6.6411 1.9968h13.363l6.9884 7.0071v19.4c0 0.884-0.72853 1.5957-1.6335 1.5957h-18.718c-0.90494 0-1.6335-0.71167-1.6335-1.5957v-24.811c0-0.884 0.72853-1.5957 1.6335-1.5957z" fill="#13a4f7" stop-color="#000000" style="-inkscape-stroke:none;font-variation-settings:normal"/>
<path d="m6.6411 1.9968h13.363l6.9884 7.0071v19.4c0 0.884-0.72853 1.5957-1.6335 1.5957h-18.718c-0.90494 0-1.6335-0.71167-1.6335-1.5957v-24.811c0-0.884 0.72853-1.5957 1.6335-1.5957z" fill="url(#linearGradient11)" stop-color="#000000" style="-inkscape-stroke:none;font-variation-settings:normal"/>
<g>
    <path d="m26.995 9.0014h-5.9863c-0.55559 0-1.0029-0.44728-1.0029-1.0029v-6.0044z" opacity=".6" stop-color="#000000" style="-inkscape-stroke:none;font-variation-settings:normal"/>
    <g>
        <path d="m20.379 8.7871 0.23438 0.20703 6.3789 6.3535 2e-3 -6.3457h-5.9863c-0.23341 0-0.44714-0.080137-0.61719-0.21289-0.0074-0.00165-0.01172-0.00195-0.01172-0.00195zm6.6152 0.21484v-0.00781h-0.0078z" fill="url(#linearGradient9)" opacity=".1" stop-color="#000000" style="-inkscape-stroke:none;font-variation-settings:normal"/>
        <path d="m5.1235 29.004c0.2301 0.55992 0.77578 0.96086 1.4238 0.99609h18.902c0.64804-0.03523 1.1937-0.43618 1.4238-0.99609z" opacity=".25" stop-color="#000000" style="-inkscape-stroke:none;font-variation-settings:normal"/>
        <path d="m5.1235 2.9925c0.2301-0.55992 0.77578-0.96086 1.4238-0.99609h13.457l1.3e-5 0.99609z" fill="#fff" opacity=".5" stop-color="#000000" style="-inkscape-stroke:none;font-variation-settings:normal"/>
    </g>
    <path d="m21 21.448-3.3455 0.0019-2.2799-3.3054s-0.36707-0.61919-0.59277-0.79897c-0.18816-0.14966-0.2686-0.20321-0.45481-0.20321h-0.42313l9.75e-4 4.3032-2.9044 0.0014v-10.997h6.3235s2.5626 0.46379 2.6148 2.9534c0.05801 2.7756-2.4768 3.5922-2.4768 3.5922 0.34757 0.13962 3.1437 3.8093 3.5386 4.4505m-5.0136-8.6112-2.0532-0.0014-9.75e-4 1.87 2.0542-4.78e-4s0.95154-0.0029 0.95154-0.95101c0-0.96727-0.95154-0.91659-0.95154-0.91659" opacity=".7"/>
</g>
</svg>
