<?xml version="1.0" encoding="UTF-8"?>
<svg width="32" height="32" version="1.1" xml:space="preserve" xmlns="http://www.w3.org/2000/svg" xmlns:xlink="http://www.w3.org/1999/xlink"><defs><linearGradient id="a" x2="0" y1="61" y2="3" gradientTransform="matrix(.5 0 0 -.48276 31.99 31.45)" gradientUnits="userSpaceOnUse"><stop stop-color="#8e44ad" offset="0"/><stop stop-color="#9b59b6" offset="1"/></linearGradient><linearGradient id="b" x2="0" y1="518.04" y2="524.8" gradientTransform="translate(-352.58 -515.8)" gradientUnits="userSpaceOnUse"><stop stop-color="#d3bdd7" offset="0"/><stop stop-color="#e8d9eb" offset="1"/></linearGradient>
    
    


<linearGradient id="linearGradient10" x1="372.98" x2="379.72" y1="524.49" y2="531" gradientTransform="translate(-352.58 -515.8)" gradientUnits="userSpaceOnUse"><stop stop-color="#383e51" offset="0"/><stop stop-color="#655c6f" stop-opacity="0" offset="1"/></linearGradient></defs><g>
    <path d="m6.6411 1.9968h13.363l6.9884 7.0071v19.4c0 0.884-0.72853 1.5957-1.6335 1.5957h-18.718c-0.90494 0-1.6335-0.71167-1.6335-1.5957v-24.811c0-0.884 0.72853-1.5957 1.6335-1.5957z" fill="url(#a)" stop-color="#000000" style="-inkscape-stroke:none;font-variation-settings:normal"/>
    

    <path d="m26.995 9.0014h-5.9863c-0.55559 0-1.0029-0.44728-1.0029-1.0029v-6.0044z" fill="url(#b)" stop-color="#000000" style="-inkscape-stroke:none;font-variation-settings:normal"/><path d="m20.379 8.7871 0.23438 0.20703 6.3789 6.3535 2e-3 -6.3457h-5.9863c-0.23341 0-0.44714-0.080137-0.61719-0.21289-0.0074-0.00165-0.01172-0.00195-0.01172-0.00195zm6.6152 0.21484v-0.00781h-0.0078z" fill="url(#linearGradient10)" fill-rule="evenodd" opacity=".2" stop-color="#000000" style="-inkscape-stroke:none;font-variation-settings:normal"/></g><path d="m5.1235 29.004c0.2301 0.55992 0.77578 0.96086 1.4238 0.99609h18.902c0.64804-0.03523 1.1937-0.43618 1.4238-0.99609z" fill-rule="evenodd" opacity=".25" stop-color="#000000" style="-inkscape-stroke:none;font-variation-settings:normal"/><path d="m5.1235 2.9925c0.2301-0.55992 0.77578-0.96086 1.4238-0.99609h13.457l1.3e-5 0.99609z" fill="#fff" fill-rule="evenodd" opacity=".4" stop-color="#000000" style="-inkscape-stroke:none;font-variation-settings:normal"/><path d="m15.89 12c-1.662 0-3 1.338-3 3h2v1h-2v2h2v1h-1.818c0.412 1.165 1.509 2 2.818 2s2.407-0.835 2.818-2h-1.818v-1h2v-2h-2v-1h2c0-1.662-1.338-3-3-3m-4.9 7c0.396 1.963 1.937 3.496 3.9 3.893v0.107l-1 1h4l-1-1v-0.107c1.963-0.397 3.505-1.929 3.9-3.893h-1.039c-0.444 1.726-1.993 3-3.861 3-1.869 0-3.418-1.274-3.861-3z" fill="#e8d9eb"/></svg>
