<svg xmlns="http://www.w3.org/2000/svg" viewBox="0 0 32 32"><defs><linearGradient id="d" x1="12.705" x2="19.346" y1="13.055" y2="19.49" href="#a"><stop offset="0" stop-color="#2d699f"/><stop offset="1" stop-color="#276399"/></linearGradient><linearGradient id="b" x1="24.547" x2="8.537" y1="23.463" y2="7.877" href="#a"><stop offset="0" stop-color="#d3d3d4"/><stop offset="1" stop-color="#eeeeef"/></linearGradient><linearGradient id="c" x1="4.062" x2="13.142" y1="3.102" y2="15.586" href="#a"><stop offset="0" stop-color="#7e7e7e"/><stop offset="1" stop-color="#55545e"/></linearGradient><linearGradient id="e" x1="12.297" x2="17.556" y1="12.297" y2="17.092" href="#a"><stop offset="0"/><stop offset="1" stop-opacity="0"/></linearGradient><linearGradient id="a" gradientUnits="userSpaceOnUse"/></defs><circle cx="16.003" cy="15.997" r="13.503" fill="url(#b)" fill-rule="evenodd"/><path fill="url(#c)" d="M16.417 9.583c0 7.054-8.528 10.585-13.515 5.598S1.446 1.666 8.5 1.666a7.92 7.92 0 0 1 7.917 7.917m-2.327-.557a.39.39 0 0 0-.312-.371l-.952-.165-.05-.003a4.4 4.4 0 0 0-.467-1.125.3.3 0 0 0 .034-.039l.556-.79a.39.39 0 0 0-.041-.482l-.81-.81a.39.39 0 0 0-.483-.042l-.79.557a.3.3 0 0 0-.039.033 4.4 4.4 0 0 0-1.124-.466.3.3 0 0 0-.004-.05l-.164-.952a.39.39 0 0 0-.37-.312H7.926a.39.39 0 0 0-.37.312l-.165.951a.3.3 0 0 0-.004.05 4.4 4.4 0 0 0-1.125.467.3.3 0 0 0-.039-.033L5.435 5.2a.39.39 0 0 0-.483.042l-.81.81a.39.39 0 0 0-.042.483l.557.79a.3.3 0 0 0 .033.038c-.207.352-.364.73-.466 1.125l-.05.003-.952.165a.39.39 0 0 0-.312.37v1.147a.39.39 0 0 0 .312.37l.952.165a.3.3 0 0 0 .05.004c.102.394.259.773.466 1.124a.3.3 0 0 0-.033.04l-.557.789a.39.39 0 0 0 .042.482l.81.81a.39.39 0 0 0 .483.042l.79-.557a.3.3 0 0 0 .039-.033c.351.207.729.364 1.124.466q0 .026.004.051l.164.952a.39.39 0 0 0 .371.312h1.146a.39.39 0 0 0 .37-.312l.165-.952a.3.3 0 0 0 .004-.05c.395-.103.773-.26 1.124-.467a.3.3 0 0 0 .04.033l.789.557a.39.39 0 0 0 .483-.041l.81-.81a.39.39 0 0 0 .042-.483l-.557-.79a.3.3 0 0 0-.033-.039c.207-.351.364-.729.466-1.124a.3.3 0 0 0 .05-.004l.952-.165a.39.39 0 0 0 .312-.37z" transform="translate(-.694 -2.828)scale(1.9644)"/><path fill="url(#d)" d="M21.139 15.992c0 4.572-5.527 6.86-8.759 3.628s-.944-8.759 3.628-8.759a5.13 5.13 0 0 1 5.131 5.131"/><path fill="url(#e)" d="M16.003 10.85c-4.571 0-6.859 5.528-3.627 8.76q.265.265.549.48c-2.293-3.269-.016-8.041 4.232-8.041a5.1 5.1 0 0 1 3.072 1.02 5.13 5.13 0 0 0-4.227-2.219z" opacity=".462"/></svg>