<svg xmlns="http://www.w3.org/2000/svg" viewBox="0 0 32 32"><defs><linearGradient id="c" href="#a"><stop offset="0" stop-color="#7d7d7e"/><stop offset="1" stop-color="#62616c"/></linearGradient><linearGradient id="b" href="#a"><stop offset="0" stop-color="#d3d3d4"/><stop offset="1" stop-color="#fff"/></linearGradient><linearGradient id="i" x1="13.038" x2="19.009" y1="13.352" y2="19.137" href="#a"><stop offset="0" stop-color="#2d699f"/><stop offset="1" stop-color="#2f7abd"/></linearGradient><linearGradient id="j" x1="12.671" x2="17.399" y1="12.67" y2="16.981" href="#a"><stop offset="0"/><stop offset="1" stop-opacity="0"/></linearGradient><linearGradient id="g" x1="7.675" x2="22.376" y1="7.863" y2="24.14" href="#b"/><linearGradient id="d" x1="5.336" x2="26.457" y1="5.486" y2="27.284" href="#c"/><linearGradient id="f" x1="2.35" x2="29.727" y1=".023" y2="31.965" href="#a"><stop offset="0" stop-color="#404040"/><stop offset="1" stop-color="#404040" stop-opacity="0"/></linearGradient><linearGradient id="e" x1="46.136" x2="67.257" y1="-8.338" y2="13.459" href="#c"/><linearGradient id="h" x1="40.988" x2="55.689" y1="-35.081" y2="-18.804" href="#b"/><linearGradient id="a" gradientUnits="userSpaceOnUse"/></defs><g fill-rule="evenodd"><circle cx="16" cy="16" r="15.108" fill="url(#d)"/><circle cx="56.8" cy="2.175" r="15.108" fill="url(#e)"/><path fill="url(#f)" d="M14.137 4.2a.77.77 0 0 0-.727.613l-.324 1.869a1 1 0 0 0-.008.098 8.6 8.6 0 0 0-2.209.918 1 1 0 0 0-.078-.066L9.244 6.54a.77.77 0 0 0-.949.084l-1.592 1.59a.77.77 0 0 0-.082.949l1.094 1.553a1 1 0 0 0 .064.074 8.6 8.6 0 0 0-.914 2.209 1 1 0 0 0-.098.006l-1.871.324a.77.77 0 0 0-.613.727v2.254a.77.77 0 0 0 .613.727l1.871.324a1 1 0 0 0 .098.008 8.6 8.6 0 0 0 .914 2.209 1 1 0 0 0-.064.078l-1.094 1.549a.77.77 0 0 0 .082.947l1.592 1.592a.766.766 0 0 0 .949.082l1.551-1.094a1 1 0 0 0 .078-.064c.69.406 1.432.713 2.207.914a1 1 0 0 0 .008.102l.322 1.869a.766.766 0 0 0 .729.613h2.252a.77.77 0 0 0 .727-.613l.324-1.869a.6.6 0 0 0 .008-.1 8.6 8.6 0 0 0 2.207-.916 1 1 0 0 0 .08.064l1.549 1.094c.297.197.69.164.949-.08l1.592-1.592a.77.77 0 0 0 .082-.949l-1.094-1.551a1 1 0 0 0-.066-.076c.406-.69.715-1.434.916-2.209a1 1 0 0 0 .098-.008l1.871-.324a.766.766 0 0 0 .613-.727v-2.254a.77.77 0 0 0-.613-.729l-1.871-.324a.5.5 0 0 0-.098-.006 8.6 8.6 0 0 0-.918-2.209 1 1 0 0 0 .068-.076l1.092-1.553a.77.77 0 0 0-.08-.947l-1.592-1.59a.77.77 0 0 0-.949-.084l-1.551 1.094a1 1 0 0 0-.078.066 8.7 8.7 0 0 0-2.207-.916.5.5 0 0 0-.008-.098l-.322-1.871a.77.77 0 0 0-.727-.613z"/><path fill="url(#g)" d="M14.872 5.018a.77.77 0 0 0-.727.613L13.821 7.5a1 1 0 0 0-.008.098 8.6 8.6 0 0 0-2.209.918 1 1 0 0 0-.078-.066L9.979 7.357a.77.77 0 0 0-.949.084l-1.592 1.59a.77.77 0 0 0-.082.949l1.094 1.553a1 1 0 0 0 .064.074 8.6 8.6 0 0 0-.914 2.209 1 1 0 0 0-.098.006l-1.871.324a.77.77 0 0 0-.613.727v2.254a.77.77 0 0 0 .613.727l1.871.324a1 1 0 0 0 .098.008 8.6 8.6 0 0 0 .914 2.209 1 1 0 0 0-.064.078l-1.094 1.549a.77.77 0 0 0 .082.947l1.592 1.592a.766.766 0 0 0 .949.082l1.551-1.094a1 1 0 0 0 .078-.064c.69.406 1.432.713 2.207.914a1 1 0 0 0 .008.102l.322 1.869a.766.766 0 0 0 .729.613h2.252a.77.77 0 0 0 .727-.613l.324-1.869a.6.6 0 0 0 .008-.1 8.6 8.6 0 0 0 2.207-.916 1 1 0 0 0 .08.064l1.549 1.094c.297.197.69.164.949-.08l1.592-1.592a.77.77 0 0 0 .082-.949l-1.094-1.551a1 1 0 0 0-.066-.076c.406-.69.715-1.434.916-2.209a1 1 0 0 0 .098-.008l1.871-.324a.766.766 0 0 0 .613-.727v-2.254a.77.77 0 0 0-.613-.729l-1.871-.324a.5.5 0 0 0-.098-.006 8.6 8.6 0 0 0-.918-2.209 1 1 0 0 0 .068-.076l1.092-1.553a.77.77 0 0 0-.08-.947l-1.592-1.59a.77.77 0 0 0-.949-.084L20.47 8.449a1 1 0 0 0-.078.066 8.7 8.7 0 0 0-2.207-.916.5.5 0 0 0-.008-.098l-.322-1.871a.77.77 0 0 0-.727-.613z"/><path fill="url(#h)" d="M48.185-37.926a.77.77 0 0 0-.727.613l-.324 1.869a1 1 0 0 0-.008.098 8.6 8.6 0 0 0-2.209.918 1 1 0 0 0-.078-.066l-1.547-1.092a.77.77 0 0 0-.949.084l-1.592 1.59a.77.77 0 0 0-.082.949l1.094 1.553a1 1 0 0 0 .064.074 8.6 8.6 0 0 0-.914 2.209 1 1 0 0 0-.098.006l-1.871.324a.77.77 0 0 0-.613.727v2.254a.77.77 0 0 0 .613.727l1.871.324a1 1 0 0 0 .098.008 8.6 8.6 0 0 0 .914 2.209 1 1 0 0 0-.064.078l-1.094 1.549a.77.77 0 0 0 .082.947l1.592 1.592a.766.766 0 0 0 .949.082l1.551-1.094a1 1 0 0 0 .078-.064c.69.406 1.432.713 2.207.914a1 1 0 0 0 .008.102l.322 1.869a.766.766 0 0 0 .729.613h2.252a.77.77 0 0 0 .727-.613l.324-1.869a1 1 0 0 0 .008-.1 8.6 8.6 0 0 0 2.207-.916 1 1 0 0 0 .08.064l1.549 1.094c.297.197.69.164.949-.08l1.592-1.592a.77.77 0 0 0 .082-.949l-1.094-1.551a1 1 0 0 0-.066-.076c.406-.69.715-1.434.916-2.209a1 1 0 0 0 .098-.008l1.871-.324a.766.766 0 0 0 .613-.727v-2.254a.77.77 0 0 0-.613-.729l-1.871-.324a1 1 0 0 0-.098-.006 8.6 8.6 0 0 0-.918-2.209 1 1 0 0 0 .068-.076l1.092-1.553a.77.77 0 0 0-.08-.947l-1.592-1.59a.77.77 0 0 0-.949-.084l-1.551 1.094a1 1 0 0 0-.078.066 8.7 8.7 0 0 0-2.207-.916.5.5 0 0 0-.008-.098l-.322-1.871a.77.77 0 0 0-.727-.613z"/></g><path fill="url(#i)" d="M20.621 15.992c0 4.11-4.969 6.168-7.876 3.262s-.848-7.876 3.262-7.876a4.613 4.613 0 0 1 4.613 4.613z"/><path fill="url(#j)" d="M16.003 11.369c-4.11 0-6.167 4.97-3.261 7.876a5 5 0 0 0 .493.432c-2.062-2.939-.014-7.23 3.806-7.23 1.036 0 1.993.341 2.762.917a4.61 4.61 0 0 0-3.8-1.995" opacity=".352"/><path fill="url(#g)" d="M3.24 59.44c.768.001 1.533-.084 2.282-.255l2.498 2.286a13.1 13.1 0 0 0 3.438-1.987l-.732-3.311a10.2 10.2 0 0 0 2.286-3.951l3.228-1.02a13.3 13.3 0 0 0 0-3.968l-3.228-1.02a10.2 10.2 0 0 0-2.286-3.953l.732-3.306a13.1 13.1 0 0 0-3.438-1.987L5.522 39.25a10.2 10.2 0 0 0-4.564 0l-2.498-2.282a13.1 13.1 0 0 0-3.438 1.987l.732 3.306a10.2 10.2 0 0 0-2.286 3.951l-3.228 1.02a13.3 13.3 0 0 0 0 3.968l3.228 1.02a10.2 10.2 0 0 0 2.286 3.953l-.732 3.306a13.1 13.1 0 0 0 3.438 1.987l2.498-2.282c.749.17 1.514.255 2.282.255zm-4.666-10.223c0-4.157 5.026-6.238 7.965-3.299s.858 7.965-3.299 7.965a4.666 4.666 0 0 1-4.666-4.666"/></svg>