<svg xmlns="http://www.w3.org/2000/svg" width="32" height="32"><defs><linearGradient id="a" x1="14.552" x2="23.982" y1="1038.612" y2="1047.58" gradientUnits="userSpaceOnUse"><stop offset="0" stop-color="#292c2f"/><stop offset="1" stop-opacity="0"/></linearGradient><linearGradient id="b" x2="0" y1="40" y2="6" gradientTransform="matrix(.65883 0 0 .63823 .388 1021.018)" gradientUnits="userSpaceOnUse"><stop offset="0" stop-color="#b1b1b1"/><stop offset="1" stop-color="#ddd"/></linearGradient><linearGradient id="c" x1="15.5" x2="27.4" y1="1034.262" y2="1046.862" gradientUnits="userSpaceOnUse"><stop offset="0"/><stop offset="1" stop-opacity="0"/></linearGradient><linearGradient id="d" x2="0" y1="1040.95" y2="1012.95" gradientTransform="matrix(.7 0 0 .7 -.6 316.51)" gradientUnits="userSpaceOnUse"><stop offset="0" stop-color="#f2f2f2"/><stop offset="1" stop-color="#fff"/></linearGradient><linearGradient id="h" x1="49.23" x2="49.23" y1="27.449" y2="18.665" gradientTransform="rotate(180 27.701 522.981)scale(.7)" gradientUnits="userSpaceOnUse"><stop offset="0"/><stop offset="1" stop-color="#655c6f" stop-opacity="0"/></linearGradient><linearGradient id="f" x1="26" x2="20.432" y1="1029.362" y2="1023.409" gradientUnits="userSpaceOnUse"><stop offset="0" stop-color="#eee"/><stop offset="1" stop-color="#fcfcfc"/></linearGradient><linearGradient id="e" x1="8.5" x2="8.5" y1="1050.366" y2="1021.782" gradientUnits="userSpaceOnUse"><stop offset="0"/><stop offset="1" stop-opacity=".384"/></linearGradient></defs><g fill-rule="evenodd" transform="translate(0 -1020.362)"><path fill="url(#a)" d="m13.494 1043.362 6.71 6.71h9.8v-4.2l-9.51-9.51z" opacity=".4"/><rect width="22" height="28" x="5" y="1022.362" fill="url(#b)" rx="1" ry="1"/><path fill="url(#c)" d="m26 1045.462-20 3.9 1 1h20v-26l-1-1z" opacity=".2"/><path fill="url(#d)" d="M6 1023.362v26h20v-26z"/><path fill="#1b1b1b" d="M6 1048.362h20v1H6z" opacity=".437"/></g><path fill="url(#e)" d="M8 1023.362h1v25H8z" opacity=".082" transform="translate(0 -1020.362)"/><path fill="#fff" d="M6 3h2v25H6z" opacity=".373"/><g fill-rule="evenodd"><g fill="#bcbcbc"><path d="M10 10h8v1h-8zM19 10h5v1h-5zM10 12h6v1h-6zM17 12h7v1h-7zM10 14h4.03v1H10zM15 14h4v1h-4zM10 6h5v1h-5zM10 8h7v1h-7zM18 8h3v1h-3zM16 6h4v1h-4z"/></g><path fill="url(#f)" d="m26 1029.362-6-6v6z" transform="translate(0 -1020.362)"/><path fill="#fdfdfd" d="m20 3 6 6V3z"/><path fill="#bcbcbc" d="M10 23h7v-1h-7zM10 21h4.03v-1H10zM15 21h8v-1h-8zM10 19h10v-1H10zM21 19h3v-1h-3z"/><path fill="url(#h)" d="m20.002 1029.163 6 6v-6z" opacity=".2" transform="translate(0 -1020.362)"/></g></svg>