<svg xmlns="http://www.w3.org/2000/svg" width="48" height="48"><defs><linearGradient id="b" x1="-51.07" x2="-51.07" href="#a"><stop offset="0" stop-color="#c6cdd1"/><stop offset="1" stop-color="#e0e5e7"/></linearGradient><linearGradient id="e" x1="-401.39" x2="-401.39" y1="45.304" y2="2.78" href="#a"><stop offset="0" stop-color="#1d1e1e"/><stop offset="1" stop-color="#44484c"/></linearGradient><linearGradient id="h" y1="506.8" y2="504.8" href="#b"/><linearGradient id="j" y1="508.8" y2="506.8" href="#b"/><linearGradient id="k" y1="507.8" y2="504.8" href="#b"/><linearGradient id="l" y1="33" y2="25" href="#b"/><linearGradient id="f" x1="10" x2="35" y1="7" y2="32" href="#a"><stop offset="0" stop-color="#383e51"/><stop offset="1" stop-color="#655c6f" stop-opacity="0"/></linearGradient><linearGradient id="c" x1="-436.05" x2="-436.05" y1="45" y2="3" href="#b"/><linearGradient id="d" x1="24.44" x2="24.44" y1="2.487" y2="45.342" href="#a"><stop offset="0" stop-color="#7b8189"/><stop offset="1" stop-color="#4a4d4d"/></linearGradient><linearGradient id="a" gradientUnits="userSpaceOnUse"/><path id="g" d="M404.57 504.8v3h3v-1h1v-1h-1v-1z"/><path id="i" d="M412.57 506.8v3h-3v-1h-1v-1h1v-1z"/></defs><rect width="42" height="42" x="2.999" y="3" fill="url(#c)" stroke="url(#d)" rx="20.167" ry="20.899"/><path fill="url(#e)" d="M20.014 3.928c2.376-.384 5.834-.37 8.107 0v40.129c-2.41.414-6.306.377-8.107 0z"/><path fill="url(#f)" fill-rule="evenodd" d="M28 7v3h-3l3 3v1h-3l3 3v1h-3l3 3v1h-3l17 17V21l-2-2zm-2 18v4h-1v4h-2l11 11h8v-3l-2-2z" opacity=".2" transform="matrix(1.0284 0 0 1.05 -.673 -1.2)"/><g transform="matrix(1.0284 0 0 1.05 -396.18 -525.99)"><use fill="url(#h)" href="#g"/><use fill="url(#j)" href="#i"/><use y="4" fill="url(#h)" href="#g"/><use y="4" fill="url(#j)" href="#i"/><use y="8" fill="url(#h)" href="#g"/><use y="8" fill="url(#j)" href="#i"/><use y="12" fill="url(#h)" href="#g"/><use y="12" fill="url(#j)" href="#i"/><use y="16" fill="url(#k)" href="#g"/></g><path fill="url(#l)" d="M22 25v4h1v4h2v-4h1v-4zm1 1h2v2h-2z" transform="matrix(1.0284 0 0 1.05 -.673 -1.2)"/></svg>