<svg xmlns="http://www.w3.org/2000/svg" width="48" height="48"><path fill="#fff" d="M18.277 26.451c.162-2.878 1.569-5.42 3.7-7.218 2.087-1.766 4.889-2.847 7.965-2.847 3.06 0 5.863 1.08 7.949 2.847 2.132 1.797 3.533 4.34 3.7 7.218.162 2.955-1.028 5.71-3.106 7.751-2.132 2.071-5.147 3.38-8.543 3.38s-6.426-1.3-8.543-3.38c-2.086-2.04-3.274-4.781-3.106-7.735z"/><path fill="#265787" d="M24.658 26.099c.083-1.48.806-2.786 1.901-3.71 1.072-.907 2.512-1.463 4.093-1.463 1.573 0 3.013.555 4.085 1.464 1.095.923 1.815 2.23 1.901 3.709.083 1.518-.528 2.934-1.596 3.983-1.096 1.064-2.645 1.737-4.39 1.737s-3.302-.668-4.39-1.737c-1.072-1.049-1.683-2.457-1.597-3.975z"/><path fill="#ea7600" d="M15.267 29.229c.01.58.195 1.706.472 2.582.582 1.863 1.573 3.584 2.942 5.095 1.409 1.557 3.146 2.81 5.15 3.701a16.6 16.6 0 0 0 6.76 1.409 16.5 16.5 0 0 0 6.762-1.432c2.003-.9 3.74-2.152 5.149-3.717 1.377-1.526 2.363-3.248 2.942-5.11a13 13 0 0 0 .553-2.849q.11-1.41-.091-2.833a13.1 13.1 0 0 0-1.878-5.133c-.892-1.448-2.05-2.708-3.428-3.772l.003-.002-13.85-10.643q-.018-.015-.037-.028c-.907-.698-2.441-.696-3.435.004-1.01.707-1.127 1.878-.227 2.614l-.004.003 5.783 4.704-17.607.018h-.023c-1.456.002-2.857.955-3.13 2.168-.285 1.229.704 2.254 2.222 2.254l-.003.005 8.921-.017L3.25 30.458l-.061.045c-1.503 1.15-1.988 3.068-1.041 4.273.962 1.228 3.005 1.236 4.523.007l8.686-7.121s-.127.962-.117 1.533zm22.38 3.216c-1.791 1.824-4.303 2.864-7.01 2.864-2.716.005-5.228-1.017-7.02-2.84a8.4 8.4 0 0 1-1.917-2.997 7.8 7.8 0 0 1-.44-3.35 7.9 7.9 0 0 1 .962-3.153 8.8 8.8 0 0 1 2.129-2.536c1.745-1.416 3.96-2.19 6.276-2.19 2.324-.004 4.539.757 6.284 2.175a8.8 8.8 0 0 1 2.128 2.527 7.8 7.8 0 0 1 .963 3.154 7.8 7.8 0 0 1-.442 3.35 8.35 8.35 0 0 1-1.917 3.004z"/></svg>