<svg xmlns="http://www.w3.org/2000/svg" width="48" height="48"><defs><linearGradient id="a" x1="0" x2="217.604" y1="129.532" y2="129.532" gradientUnits="userSpaceOnUse"><stop offset="0" stop-color="#f50"/><stop offset=".41" stop-color="#f50"/><stop offset=".582" stop-color="#ff2000"/></linearGradient><linearGradient id="b" x1="22.377" x2="199.11" y1="23.342" y2="23.342" gradientUnits="userSpaceOnUse"><stop offset="0" stop-color="#ff452a"/><stop offset="1" stop-color="#ff2000"/></linearGradient><path id="c" d="M170.27 25.336 147.966 0H69.63L47.326 25.336s-19.584-5.447-28.832 3.813c0 0 26.112-2.36 35.088 12.255 0 0 24.208 4.63 27.472 4.63s10.336-2.723 16.864-4.902 10.88-2.194 10.88-2.194 4.352.016 10.88 2.194 13.6 4.902 16.864 4.902 27.472-4.63 27.472-4.63c8.976-14.615 35.088-12.255 35.088-12.255-9.248-9.26-28.832-3.813-28.832-3.813"/></defs><g fill-rule="evenodd" transform="translate(6.121 3.01)scale(.16432)"><path fill="url(#a)" d="m209.98 61.285 5.984-14.706s-7.616-8.17-16.864-17.43-28.832-3.813-28.832-3.813L147.964 0H69.628L47.324 25.336s-19.584-5.447-28.832 3.813-16.864 17.43-16.864 17.43l5.984 14.706-7.616 21.787 25.024 95.319c5.168 20.426 8.704 28.323 23.392 38.672s41.344 28.323 45.696 31.047 9.792 7.362 14.688 7.362 10.336-4.639 14.688-7.362 31.008-20.698 45.696-31.047 18.224-18.247 23.392-38.672l25.024-95.319z"/><path fill="#fff" d="M164.02 41.404s28.688 34.723 28.688 42.145-3.609 9.38-7.237 13.238l-21.511 22.871c-2.035 2.164-6.272 5.445-3.78 11.35s6.168 13.419 2.08 21.04-11.093 12.708-15.581 11.867-15.028-6.356-18.904-8.876-16.161-12.663-16.161-16.545 12.699-10.85 15.044-12.433 13.047-7.711 13.267-10.116.135-3.111-3.023-9.055-8.845-13.876-7.898-19.153 10.118-8.021 16.664-10.496l20.72-7.875c1.575-.727 1.168-1.419-3.601-1.872s-18.301-2.251-24.402-.548-16.524 4.293-17.368 5.667-1.589 1.42-.722 6.159l5.764 31.516c.434 4.039 1.281 6.709-3.068 7.704s-11.672 2.725-14.188 2.725-9.838-1.729-14.188-2.725-3.502-3.666-3.069-7.704 4.897-26.777 5.764-31.516.122-4.785-.722-6.159-11.268-3.964-17.369-5.667-19.633.096-24.402.548-5.176 1.145-3.601 1.872 14.176 5.4 20.72 7.875 15.717 5.22 16.664 10.497-4.741 13.209-7.898 19.153-3.242 6.649-3.022 9.055 10.92 8.534 13.266 10.116 15.044 8.552 15.044 12.433-12.284 14.026-16.16 16.545-14.416 8.034-18.904 8.876-11.492-4.246-15.581-11.867-.412-15.135 2.08-21.04-1.744-9.186-3.78-11.35L32.133 96.787c-3.628-3.858-7.237-5.817-7.237-13.238s28.688-42.145 28.688-42.145 24.208 4.63 27.472 4.63 10.336-2.723 16.864-4.902 10.88-2.194 10.88-2.194 4.352.016 10.88 2.194 13.6 4.902 16.864 4.902 27.472-4.63 27.472-4.63zm-21.507 132.82c1.776 1.113.693 3.212-.925 4.357s-23.357 18-25.466 19.862-5.21 4.94-7.318 4.94-5.209-3.077-7.318-4.94-23.848-18.717-25.466-19.862-2.7-3.244-.925-4.357 7.332-3.922 14.999-7.894 17.22-7.349 18.711-7.349 11.045 3.377 18.711 7.349z"/><use fill="url(#b)" href="#c"/></g></svg>