<svg xmlns="http://www.w3.org/2000/svg" width="48" height="48"><defs><linearGradient id="b" x1="384.535" x2="383.988" y1="127.469" y2="511.985" href="#a"><stop offset="0" stop-color="#afccfb"/><stop offset="1" stop-color="#8bb5f8"/></linearGradient><linearGradient id="c" x1="218.865" x2="240.025" y1="3.9" y2="347.91" href="#a"><stop offset="0" stop-color="#1972e7"/><stop offset="1" stop-color="#1969d5"/></linearGradient><linearGradient id="d" x1=".018" x2="1.77" y1="-.512" y2=".499" gradientTransform="matrix(94.93156 164.42687 -164.4276 94.93114 97.556 173.61)" href="#a"><stop offset="0" stop-color="#659cf6"/><stop offset="1" stop-color="#4285f4"/></linearGradient><linearGradient id="e" x1="254.933" x2="255.993" y1="152.392" y2="359.992" href="#a"><stop offset="0" stop-color="#3680f0"/><stop offset="1" stop-color="#2678ec"/></linearGradient><linearGradient id="a" gradientUnits="userSpaceOnUse"/></defs><path fill="url(#b)" d="m255.993 255.994 110.85 63.997-110.85 191.994c141.381 0 255.992-114.611 255.992-255.991 0-46.642-12.536-90.332-34.331-127.997H255.991z" transform="matrix(.07976 0 0 .07976 3.581 3.581)"/><path fill="url(#c)" d="M255.991 0C161.24 0 78.577 51.513 34.312 128.027L145.14 319.991l110.85-63.997V127.997h221.663C433.382 51.502 350.729 0 255.991 0" transform="matrix(.07976 0 0 .07976 3.581 3.581)"/><path fill="url(#d)" d="M.002 255.994c0 141.38 114.607 255.991 255.992 255.991l110.85-191.994-110.85-63.997-110.85 63.997L34.315 128.027C12.531 165.682 0 209.356 0 255.991" transform="matrix(.07976 0 0 .07976 3.581 3.581)"/><path fill="#fff" d="M34.21 24c0 5.639-4.571 10.21-10.21 10.21S13.79 29.639 13.79 24 18.362 13.79 24 13.79 34.21 18.363 34.21 24"/><path fill="url(#e)" d="M359.992 255.994c0 57.436-46.562 103.998-103.998 103.998S151.995 313.43 151.995 255.994s46.563-103.998 103.998-103.998 103.998 46.562 103.998 103.998" transform="matrix(.07976 0 0 .07976 3.581 3.581)"/></svg>