<svg xmlns="http://www.w3.org/2000/svg" width="128" height="128"><defs><linearGradient id="a" gradientUnits="userSpaceOnUse"><stop offset="0" stop-color="#e01b24"/><stop offset="1" stop-color="#f66151"/></linearGradient><linearGradient id="b" x1="34" x2="34" y1="34.095" y2="22.095" gradientUnits="userSpaceOnUse"><stop offset="0" stop-color="#3d3846"/><stop offset="1" stop-color="#77767b"/></linearGradient><linearGradient id="e" x1="-318.5" x2="-298.5" y1="111.75" y2="111.75" href="#a"/><linearGradient id="f" x1="59.75" x2="59.75" y1="314.5" y2="302.5" href="#a"/><linearGradient id="d" x1="84.026" x2="111.13" y1="248.33" y2="273.231" gradientUnits="userSpaceOnUse"><stop offset="0" stop-color="#7e7e7e"/><stop offset="1" stop-color="#a3a3a3" stop-opacity="0"/></linearGradient><clipPath id="c"><rect width="112" height="82" x="-120" y="-282" fill="#f6f5f4" stroke-width="13.719" rx="8" transform="scale(-1)"/></clipPath></defs><g transform="scale(-1)"><rect width="111.505" height="30.25" x="-119.505" y="-110.095" fill="#5e5c64" rx="8"/><rect width="112" height="85.728" x="-120" y="-107.822" fill="#f6f5f4" rx="8" ry="8.364"/></g><path fill="url(#b)" d="M16 22.095c-4.432 0-8 3.568-8 8v8h112v-8c0-4.432-3.568-8-8-8z"/><path fill="#3d3846" d="M8 30.095h112v2H8z"/><path fill="#5e5c64" d="M8 32.095h112v2H8z"/><path fill="url(#d)" d="m117.285 187.666-63.398 63.396 1.414 1.414-7.07 15.557 2.828 2.828 56.229 21.548-16.277-6.678 84.007-6.273z" clip-path="url(#c)" opacity=".484" transform="translate(0 -174.905)"/><path fill="none" stroke="#e01b24" stroke-linecap="round" stroke-width="4" d="M23.901 55.597c13.385 4.543-5.589 17.696 13.921 18.944 11.466.734 11.376 16.554 11.376 16.554"/><path fill="url(#e)" d="M-318.5 69.75h20v84h-20z" transform="rotate(-135 -121.6 -1.528)"/><path fill="#3d3846" d="M116.113 39.216 101.97 25.073l2.828-2.828 14.142 14.142zM76.515 78.814 62.373 64.67l2.828-2.828 14.142 14.142z"/><path fill="url(#f)" d="M69.75 316.5v-16l-16 6v4z" transform="rotate(-45 -210.195 204.976)"/><path fill-opacity=".259" d="M69.444 85.885 55.302 71.743l-1.415 1.414L68.03 87.299z"/><path fill="#3d3846" d="M76.515 50.53a10 5-45 0 0 10.606-3.536 10 5-45 0 0 3.536-10.607z"/></svg>