<svg xmlns="http://www.w3.org/2000/svg" width="96" height="96"><defs><linearGradient id="e" x1="48" x2="48" y1="20.221" y2="138.661" href="#a"><stop offset="0" stop-color="#fff"/><stop offset="1" stop-color="#fff" stop-opacity="0"/></linearGradient><linearGradient id="g" x1="49.475" x2="104.914" y1="38.723" y2="82.466" href="#a"><stop offset="0"/><stop offset="1" stop-opacity="0"/></linearGradient><linearGradient id="a" gradientUnits="userSpaceOnUse"/><linearGradient id="b" x1="-48" x2="-48" y1="-6.798" y2="-89.214" gradientUnits="userSpaceOnUse"><stop offset="0" stop-color="#70d246"/><stop offset="1" stop-color="#2b7b1e"/></linearGradient><linearGradient id="c" x1="48" x2="48" y1="89.202" y2="6.786" gradientUnits="userSpaceOnUse"><stop offset="0"/><stop offset="1" stop-color="#fff"/></linearGradient><clipPath id="d"><rect width="84" height="84" x="6" y="6" fill="#fff" rx="6"/></clipPath><filter id="f" width="1.392" height="1.392" x="-.196" y="-.196" color-interpolation-filters="sRGB"><feGaussianBlur stdDeviation="5.28"/></filter></defs><rect width="82.405" height="82.405" x="-89.202" y="-89.202" fill="url(#b)" rx="10.276" ry="9.783" transform="scale(-1)"/><path fill="url(#c)" d="M17.074 6.798c-5.693 0-10.277 4.363-10.277 9.783v62.838c0 5.42 4.585 9.783 10.277 9.783h61.852c5.693 0 10.277-4.363 10.277-9.783V16.581c0-5.42-4.585-9.783-10.277-9.783zm.459 2.18h60.936c5.608 0 10.123 4.133 10.123 9.266v59.514c0 5.133-4.515 9.266-10.123 9.266H17.533c-5.608 0-10.125-4.133-10.125-9.266V18.243c0-5.133 4.517-9.266 10.125-9.266z" opacity=".396"/><rect width="66" height="66" x="15" y="15" fill="url(#e)" stroke="#fff" stroke-width=".5" clip-path="url(#d)" filter="url(#f)" opacity=".1" rx="12"/><path fill="url(#g)" fill-rule="evenodd" d="m49.475 20.587 23.91 10.482 15.207 12.63.024 34.581s.109 3.149-3.057 6.076-6.27 2.585-6.27 2.585l-38.119.089-18.1-10.336 7.698-2.686 4.808-33.085z" opacity=".23"/><path fill="#f2f2f2" d="M48.338 20.629c-16.922 0-30.64 11.22-30.64 25.06 0 8.816 5.571 16.562 13.985 21.029-.32 2.329-1.777 8.028-8.675 9.978 8.935.971 14.868-3.384 18.018-6.671a37.2 37.2 0 0 0 7.312.725c16.922 0 30.64-11.22 30.64-25.06S65.26 20.63 48.338 20.63zm2.582 8.353a4.12 4.12 0 0 1 2.93 1.16c.821.764 1.219 1.681 1.219 2.755s-.398 1.992-1.219 2.755c-.806.75-1.785 1.131-2.93 1.131a4.25 4.25 0 0 1-2.96-1.131c-.821-.764-1.219-1.681-1.219-2.755s.398-1.992 1.219-2.755 1.813-1.16 2.96-1.16m-3.888 11.312c1.684 0 2.982.427 3.888 1.247.92.806 1.364 1.86 1.364 3.162a14 14 0 0 1-.087 1.421 9 9 0 0 1-.348 1.856l-1.741 6.178a17 17 0 0 0-.377 1.682c-.113.636-.174 1.125-.174 1.45 0 .82.183 1.385.551 1.682s1.009.435 1.915.435c.424 0 .913-.062 1.451-.203.538-.156.92-.293 1.161-.406l-.464 1.914a76 76 0 0 1-3.366 1.247c-.835.297-1.798.435-2.901.435-1.698 0-3.027-.398-3.975-1.218-.934-.834-1.393-1.889-1.393-3.162 0-.495.045-.999.116-1.508.071-.523.164-1.119.319-1.769l1.741-6.178a25 25 0 0 0 .377-1.682 7 7 0 0 0 .174-1.45c0-.792-.168-1.342-.493-1.653s-.937-.493-1.857-.493c-.453 0-.912.091-1.393.232-.467.141-.879.279-1.219.406l.464-1.914a41 41 0 0 1 3.308-1.189c1.047-.339 2.026-.522 2.96-.522z"/></svg>