<svg xmlns="http://www.w3.org/2000/svg" width="32" height="32"><defs><linearGradient id="d" x1="404.045" x2="430.736" y1="521.633" y2="528.35" gradientTransform="matrix(.66667 0 0 .85555 -256.38 -429.027)" href="#a"><stop stop-color="#cc4a5e"/><stop offset="1" stop-color="#aa478a"/></linearGradient><linearGradient id="e" x1="9.016" x2="6.29" y1="34.873" y2="20.051" href="#b"/><linearGradient id="b" href="#a"><stop stop-color="#334545"/><stop offset="1" stop-color="#536161"/></linearGradient><linearGradient id="f" x1="431.571" x2="439.571" y1="568.798" y2="562.798" gradientTransform="matrix(-.66667 0 0 .85555 303.047 557.113)" href="#b"/><linearGradient id="g" x1="406.537" x2="423.32" y1="581.87" y2="572.678" gradientTransform="matrix(-.66667 0 0 .85555 303.048 557.113)" href="#b"/><linearGradient id="h" x1="423.054" x2="431.225" y1="572.334" y2="566.766" gradientTransform="matrix(-.66667 0 0 .85555 303.047 557.113)" href="#b"/><linearGradient id="i" x1="431.313" x2="440.632" y1="577.102" y2="571.445" gradientTransform="matrix(-.66667 0 0 .85555 303.048 557.113)" href="#b"/><linearGradient id="j" x1="430.567" x2="423.75" y1="577.362" y2="591.328" gradientTransform="matrix(-.66667 0 0 .85555 303.048 557.113)" href="#b"/><linearGradient id="k" x1="9" x2="23" y1="1028.362" y2="1042.362" href="#a"><stop stop-color="#383e51"/><stop offset="1" stop-color="#655c6f" stop-opacity="0"/></linearGradient><linearGradient id="l" x1="0" x2="0" y1="1042.362" y2="1028.362" href="#a"><stop stop-color="#eff0f1"/><stop offset="1" stop-color="#fcfcfc"/></linearGradient><linearGradient id="c" x1="418.17" x2="384.571" y1="503.079" y2="531.458" gradientTransform="matrix(.66667 0 0 .85555 -256.38 591.336)" href="#a"><stop stop-color="#1abc9c"/><stop offset="1" stop-color="#2980b9"/></linearGradient><linearGradient id="a" gradientUnits="userSpaceOnUse"/></defs><path fill="url(#c)" d="M5 1022.362a5 5 0 0 0-3.54 1.461 5 5 0 0 0-1.46 3.54v18a5 5 0 0 0 1.46 3.538 5 5 0 0 0 3.54 1.461h22a5 5 0 0 0 3.54-1.46 5 5 0 0 0 1.46-3.54v-18a5 5 0 0 0-1.46-3.539 5 5 0 0 0-3.54-1.46z" transform="translate(0 -1020.362)"/><path fill="url(#d)" d="M25.746 30H27a5 5 0 0 0 3.54-1.46A5 5 0 0 0 32 25V7a5 5 0 0 0-1.46-3.54c-.077-.075-.188-.108-.269-.179L9.977 18.316 25.747 30z"/><path fill="url(#e)" d="M.117 25.58c.057.47.098.949.276 1.37a5 5 0 0 0 2.658 2.657c.617.26 1.28.394 1.949.393h20.895L10 18.256z"/><path fill="url(#f)" d="m15.506 1042.697-5.506-4.08v8.16z" transform="translate(0 -1020.362)"/><path fill="url(#g)" d="M21.011 1046.775v3.587h4.841l-4.84-3.587z" transform="translate(0 -1020.362)"/><path fill="url(#h)" d="M15.506 1042.697v7.665h.666l4.84-3.586z" transform="translate(0 -1020.362)"/><path fill="url(#i)" d="M10 1046.776v3.586h4.84z" transform="translate(0 -1020.362)"/><path fill="url(#j)" d="m21.011 1046.775-4.84 3.587h4.84z" transform="translate(0 -1020.362)"/><path fill="#aa478a" d="M32 9.971v-2.97a5 5 0 0 0-1.46-3.54c-.077-.076-.188-.109-.269-.18L9.977 18.318z"/><path fill="#fff" fill-opacity=".784" d="M.124 26c.067.317.146.658.269.95a5 5 0 0 0 2.658 2.658A5 5 0 0 0 5 30h22a5 5 0 0 0 3.54-1.46 5 5 0 0 0 1.067-1.59 5.4 5.4 0 0 0 .285-.95z"/><g fill="#4d4d4d" transform="translate(0 -1020.362)"><circle cx="28" cy="1048.362" r="1"/><path d="M2 1047.362v1h1v-1zm1 1v1h1v-1z"/></g><path fill="url(#k)" fill-rule="evenodd" d="M19 1050.362h8a5 5 0 0 0 3.54-1.46c.45-.453.718-1.043 1.067-1.59.372-.583.393-1.238.393-1.95v-6l-9-9v1H9l9 9h-4l-1 1h-1l-1 1z" opacity=".2" transform="translate(0 -1020.362)"/><path fill="url(#l)" d="M17.5 1028.362a2.49 2.49 0 0 0-2.45 2H9v1h6.05a2.494 2.494 0 0 0 2.45 2 2.49 2.49 0 0 0 2.45-2H23v-1h-3.05a2.49 2.49 0 0 0-2.45-2m-6 9a2.495 2.495 0 0 0-2.5 2.5c0 1.385 1.115 2.5 2.5 2.5a2.49 2.49 0 0 0 2.45-2H23v-1h-9.05a2.49 2.49 0 0 0-2.45-2m0 1a1.5 1.5 0 0 1 1.5 1.5c0 .831-.669 1.5-1.5 1.5s-1.5-.669-1.5-1.5a1.5 1.5 0 0 1 1.5-1.5" transform="translate(0 -1020.362)"/></svg>