<svg xmlns="http://www.w3.org/2000/svg" xmlns:xlink="http://www.w3.org/1999/xlink" xml:space="preserve" width="48" height="48"><defs><linearGradient id="a"><stop offset="0" style="stop-color:#1b8cf0;stop-opacity:1"/><stop offset="1" style="stop-color:#1a80e2;stop-opacity:1"/></linearGradient><linearGradient xlink:href="#a" id="c" x1="17.25" x2="17.25" y1="29.643" y2="3.056" gradientTransform="translate(-.46 -.637)scale(1.44392)" gradientUnits="userSpaceOnUse"/></defs><rect width="42" height="42" x="3" y="3" rx="21" ry="21" style="fill:url(#c);fill-opacity:1;stroke-width:3.88082;stroke-linecap:round;stroke-linejoin:round"/><path d="M40.639 21.871c-.742-.5-2.691-.712-4.109-.33-.076-1.412-.804-2.602-2.136-3.64l-.493-.331-.328.496c-.646.98-.918 2.287-.822 3.474.076.731.33 1.554.822 2.15-1.845 1.07-3.545.827-11.075.827H10.872c-.034 1.7.24 4.971 2.32 7.634q.343.442.754.853c1.691 1.693 4.246 2.935 8.067 2.938 5.828.006 10.822-3.145 13.86-10.762 1 .016 3.638.179 4.93-2.316.03-.042.328-.662.328-.662zm-22.18-1.555h-3.27v3.27h3.27zm4.224 0h-3.27v3.27h3.27zm4.223 0h-3.269v3.27h3.27zm4.224 0h-3.27v3.27h3.27zm-16.894 0h-3.27v3.27h3.27zm4.223-4.129h-3.27v3.27h3.27zm4.224 0h-3.27v3.27h3.27zm4.223 0h-3.269v3.27h3.27zm0-4.13h-3.269v3.27h3.27z" style="fill:#fff;stroke-width:0"/></svg>