<svg xmlns="http://www.w3.org/2000/svg" xml:space="preserve" width="48" height="48"><defs><linearGradient id="c" x1="144" x2="112" y2="256" gradientTransform="translate(-.139 -.01)" gradientUnits="userSpaceOnUse"><stop offset="0" stop-color="#bd0000"/><stop offset=".186" stop-color="#b70000"/><stop offset=".827" stop-color="#a50000"/><stop offset="1" stop-color="#8e0000"/></linearGradient></defs><path fill="url(#c)" fill-rule="evenodd" d="m112 0-6.674 26.771a104 104 0 0 0-18.6 5.906L65.706 15.04 39.817 33.85 50.07 59.225a104 104 0 0 0-11.404 15.922l-27.457-1.92-9.888 30.434 23.375 14.607a104 104 0 0 0-.696 9.73 104 104 0 0 0 .696 9.731L1.32 152.337l9.888 30.434 27.457-1.92a104 104 0 0 0 11.404 15.922L39.817 222.15l25.89 18.81 21.02-17.638a104 104 0 0 0 18.6 5.907l6.673 26.77h32l6.674-26.77a104 104 0 0 0 18.6-5.907l21.02 17.637 25.889-18.809-10.252-25.377a104 104 0 0 0 11.404-15.922l27.457 1.92 9.888-30.434-23.375-14.607a104 104 0 0 0 .696-9.73 104 104 0 0 0-.477-9.867l23.156-14.471-9.888-30.434-27.248 1.906a104 104 0 0 0-11.598-15.95l10.236-25.335-25.89-18.81-20.935 17.567a104 104 0 0 0-18.746-6.088l-6.612-26.52z" style="font-variation-settings:normal;fill:url(#c);-inkscape-stroke:none" transform="matrix(.16336 0 0 .16336 3.09 3.09)"/><path fill="#fff" d="M20.08 37.069h14.375v-2.614H24L34.455 24v-2.614h-16.99v-7.84h13.07v-2.614H14.851v26.137h2.614V24h13.068L20.08 34.455z" class="st2"/></svg>