<svg xmlns="http://www.w3.org/2000/svg" xmlns:xlink="http://www.w3.org/1999/xlink" width="48" height="48"><defs><linearGradient id="l" x2="0" y1="44" y2="20" gradientTransform="translate(384.57 499.8)" gradientUnits="userSpaceOnUse"><stop stop-color="#eef1f2"/><stop offset="1" stop-color="#f9fafb"/></linearGradient><linearGradient id="c" x1="419.57" x2="426.57" y1="529.8" y2="536.8" gradientUnits="userSpaceOnUse"><stop/><stop offset="1" stop-opacity="0"/></linearGradient><linearGradient id="a" x2="0" y1="519.8" y2="504.8" gradientTransform="translate(0 1)" gradientUnits="userSpaceOnUse"><stop stop-color="#bd8d48"/><stop offset="1" stop-color="#e8b971"/></linearGradient><linearGradient xlink:href="#a" id="f" x2="0" y1="519.8" y2="504.8" gradientTransform="translate(0 -1)" gradientUnits="userSpaceOnUse"/><linearGradient id="g" x1="428.57" x2="406.57" gradientUnits="userSpaceOnUse"><stop stop-color="#e3dfd6"/><stop offset="1" stop-color="#f4f1e8"/></linearGradient><linearGradient id="e" x1="392.57" x2="400.57" y1="516.8" y2="508.8" gradientTransform="translate(0 1)" gradientUnits="userSpaceOnUse"><stop stop-color="#f39c12"/><stop offset="1" stop-color="#f5ab35"/></linearGradient><linearGradient id="b" x1="427.71" x2="437.71" gradientUnits="userSpaceOnUse"><stop stop-color="#ebc69a"/><stop offset="1" stop-color="#f4e0c8"/></linearGradient><linearGradient xlink:href="#b" id="k" x1="428.76" x2="430.47" y1="541.51" y2="528.51" gradientUnits="userSpaceOnUse"/><linearGradient xlink:href="#c" id="j" x2="0" y1="531.79" y2="544.79" gradientTransform="rotate(-45 -392.174 755.39)" gradientUnits="userSpaceOnUse"/></defs><g stroke-linecap="round" stroke-linejoin="round" color="#000"><path fill="url(#e)" d="M392.57 509.8h19v16h-19z" transform="rotate(-15 -1688.378 1728.459)"/><path fill="#fff" d="M6.252 12.736 24.604 7.82l.777 2.897-18.353 4.918z" opacity=".2"/><path fill="url(#f)" d="M406.57 504.8h22v33h-22z" transform="translate(-384.57 -499.8)"/><path fill="url(#g)" d="M406.57 505.8h22v33h-22z" transform="translate(-384.57 -499.8)"/><path fill="url(#a)" d="M406.57 506.8h22v33h-22z" transform="translate(-384.57 -499.8)"/></g><g fill="url(#b)" transform="translate(-399.71 -517.793)"><path fill="url(#j)" d="m35.12 11.879-4.242 4.242 2.637 2.637-3.891.148L28.999 20v3l8.984.229 2.086 2.086 4.244-4.244z" color="#000" opacity=".2" transform="translate(399.71 517.79)"/><path fill="url(#k)" d="M432.71 528.79c-1.662 0-3 1.338-3 3s1.338 3 3 3 3-1.338 3-3-1.338-3-3-3m0 7c-2.77 0-5 .892-5 2v6h10v-6c0-1.108-2.23-2-5-2m0 1c2.216 0 4 .636 4 1.428v4.572h-8v-4.572c0-.791 1.784-1.428 4-1.428"/></g><path fill="url(#l)" d="M388.57 519.8v24h40v-24z" transform="translate(-384.57 -499.8)"/><path fill="#d1d3d4" d="M4 43h40v1H4z"/><g fill-rule="evenodd"><path fill="#c0392b" d="m7 44 1-2h2l-1 2z"/><path fill="#2980b9" d="m15 44 1-2h2l-1 2z"/><path fill="#c0392b" d="m23 44 1-2h2l-1 2z"/><path fill="#2980b9" d="m31 44 1-2h2l-1 2z"/><path fill="#c0392b" d="m39 44 1-2h2l-1 2z"/><path fill="#2980b9" d="m42 38 2 1v2l-2-1z"/><path fill="#c0392b" d="m42 30 2 1v2l-2-1z"/><path fill="#2980b9" d="m42 22 2 1v2l-2-1zM6 39l-2 1v2l2-1z"/><path fill="#c0392b" d="m6 31-2 1v2l2-1z"/><path fill="#2980b9" d="m6 23-2 1v2l2-1z"/><path fill="#c0392b" d="m6 20 1 2h2l-1-2z"/><path fill="#2980b9" d="m14 20 1 2h2l-1-2z"/><path fill="#c0392b" d="m22 20 1 2h2l-1-2z"/><path fill="#2980b9" d="m30 20 1 2h2l-1-2z"/><path fill="#c0392b" d="m38 20 1 2h2l-1-2z"/><path fill="url(#c)" d="m424.57 523.8 4 4v11l-9-9z" opacity=".2" transform="translate(-384.57 -499.8)"/></g><g stroke-linecap="round" stroke-linejoin="round" color="#000"><path fill="#fcfcfc" d="M35 24h5v6h-5z"/><path fill="#16a085" d="M36 25h3v4h-3z"/><path fill="#bdc3c7" d="M20 29h7v1h-7zm0 2h4v1h-4zm0 2h10v1H20zm0 2h5v1h-5zM8 24h4v1H8zm0 2h7v1H8zm0 2h6v1H8z"/><path fill="#7f8c8d" d="M25 4h1v4h-1zm15 0h1v4h-1zM30 4h1v4h-1zm5 0h1v4h-1z"/></g></svg>