<svg xmlns="http://www.w3.org/2000/svg" xmlns:xlink="http://www.w3.org/1999/xlink" width="128" height="128" version="1.0"><defs><linearGradient id="w"><stop offset="0" style="stop-color:#fff;stop-opacity:1"/><stop offset="1" style="stop-color:#fff;stop-opacity:0"/></linearGradient><linearGradient id="v"><stop offset="0" style="stop-color:#7f7f7f;stop-opacity:1"/><stop offset="1" style="stop-color:#7f7f7f;stop-opacity:0"/></linearGradient><linearGradient id="q"><stop offset="0" style="stop-color:#000;stop-opacity:1"/><stop offset="1" style="stop-color:#000;stop-opacity:0"/></linearGradient><linearGradient id="d"><stop offset="0" style="stop-color:#f7f7f7;stop-opacity:1"/><stop offset=".5" style="stop-color:#f4f4f4;stop-opacity:1"/><stop offset=".75" style="stop-color:#efefef;stop-opacity:1"/><stop offset="1" style="stop-color:#cbcbcb;stop-opacity:1"/></linearGradient><linearGradient id="o"><stop offset="0" style="stop-color:#fff;stop-opacity:1"/><stop offset="1" style="stop-color:#fff;stop-opacity:0"/></linearGradient><linearGradient id="k"><stop offset="0" style="stop-color:#572b00;stop-opacity:1"/><stop offset="1" style="stop-color:#de6e00;stop-opacity:0"/></linearGradient><linearGradient id="C"><stop offset="0" style="stop-color:#fff;stop-opacity:1"/><stop offset="1" style="stop-color:#fff;stop-opacity:0"/></linearGradient><linearGradient id="B"><stop offset="0" style="stop-color:#fff;stop-opacity:1"/><stop offset="1" style="stop-color:#fff;stop-opacity:0"/></linearGradient><linearGradient id="b"><stop offset="0" style="stop-color:#a1a1a1;stop-opacity:1"/><stop offset=".25" style="stop-color:#d3d3d3;stop-opacity:1"/><stop offset=".5" style="stop-color:#dedede;stop-opacity:1"/><stop offset=".625" style="stop-color:#f2f2f2;stop-opacity:1"/><stop offset=".75" style="stop-color:#d7d7d7;stop-opacity:1"/><stop offset="1" style="stop-color:#a1a1a1;stop-opacity:1"/></linearGradient><linearGradient id="A"><stop offset="0" style="stop-color:#fff;stop-opacity:1"/><stop offset="1" style="stop-color:#fff;stop-opacity:0"/></linearGradient><linearGradient id="i"><stop offset="0" style="stop-color:#fff;stop-opacity:1"/><stop offset="1" style="stop-color:#fff;stop-opacity:0"/></linearGradient><linearGradient id="g"><stop offset="0" style="stop-color:#fff;stop-opacity:1"/><stop offset="1" style="stop-color:#fff;stop-opacity:0"/></linearGradient><linearGradient id="z"><stop offset="0" style="stop-color:#fff;stop-opacity:1"/><stop offset=".5" style="stop-color:#eee;stop-opacity:.65124553"/><stop offset="1" style="stop-color:#dedede;stop-opacity:0"/></linearGradient><linearGradient id="x"><stop offset="0" style="stop-color:#000;stop-opacity:0"/><stop offset="1" style="stop-color:#000;stop-opacity:1"/></linearGradient><linearGradient id="p"><stop offset="0" style="stop-color:#fff;stop-opacity:1"/><stop offset=".5" style="stop-color:#f4f4f4;stop-opacity:1"/><stop offset=".75" style="stop-color:#efefef;stop-opacity:1"/><stop offset="1" style="stop-color:#cbcbcb;stop-opacity:1"/></linearGradient><linearGradient id="f"><stop offset="0" style="stop-color:#000;stop-opacity:1"/><stop offset="1" style="stop-color:#000;stop-opacity:0"/></linearGradient><linearGradient id="e"><stop offset="0" style="stop-color:#000;stop-opacity:1"/><stop offset="1" style="stop-color:#000;stop-opacity:0"/></linearGradient><linearGradient id="y"><stop offset="0" style="stop-color:#000;stop-opacity:1"/><stop offset="1" style="stop-color:#000;stop-opacity:0"/></linearGradient><linearGradient id="a"><stop offset="0" style="stop-color:#f5f5f5;stop-opacity:1"/><stop offset="1" style="stop-color:#d0d2cb;stop-opacity:1"/></linearGradient><linearGradient xlink:href="#a" id="D" x1="91.177" x2="91.177" y1="425.956" y2="354.963" gradientTransform="translate(0 54.985)" gradientUnits="userSpaceOnUse"/><linearGradient xlink:href="#b" id="E" x1="38.837" x2="191.493" y1="329.203" y2="329.203" gradientTransform="translate(238.201 3.518)" gradientUnits="userSpaceOnUse"/><linearGradient xlink:href="#d" id="G" x1="896.699" x2="912.867" y1="334.945" y2="406.607" gradientUnits="userSpaceOnUse"/><linearGradient xlink:href="#a" id="J" x1="91.177" x2="91.177" y1="425.956" y2="354.963" gradientTransform="translate(267.929 9.843)" gradientUnits="userSpaceOnUse"/><linearGradient xlink:href="#e" id="O" x1="15.7" x2="47.812" y1="373.836" y2="379.249" gradientUnits="userSpaceOnUse"/><linearGradient xlink:href="#f" id="Q" x1="125.089" x2="101.922" y1="277.115" y2="379.482" gradientTransform="translate(267.929 9.843)" gradientUnits="userSpaceOnUse"/><linearGradient xlink:href="#g" id="V" x1="185.817" x2="82.098" y1="466.016" y2="399.199" gradientTransform="translate(238.201)" gradientUnits="userSpaceOnUse"/><linearGradient xlink:href="#d" id="X" x1="896.699" x2="912.867" y1="334.945" y2="406.607" gradientTransform="translate(-197.845)" gradientUnits="userSpaceOnUse"/><linearGradient xlink:href="#a" id="aa" x1="85.438" x2="91.177" y1="471.893" y2="354.963" gradientTransform="translate(267.929 9.843)" gradientUnits="userSpaceOnUse"/><linearGradient xlink:href="#e" id="ac" x1=".75" x2="47.812" y1="367.772" y2="379.249" gradientUnits="userSpaceOnUse"/><linearGradient xlink:href="#f" id="ad" x1="125.089" x2="101.922" y1="277.115" y2="379.482" gradientTransform="translate(267.929 9.843)" gradientUnits="userSpaceOnUse"/><linearGradient xlink:href="#i" id="ae" x1="488.214" x2="405.533" y1="440.521" y2="401.246" gradientTransform="translate(-94.493)" gradientUnits="userSpaceOnUse"/><linearGradient xlink:href="#i" id="ag" x1="488.214" x2="405.533" y1="440.521" y2="401.246" gradientTransform="translate(-332.694)" gradientUnits="userSpaceOnUse"/><linearGradient xlink:href="#b" id="al" x1="38.837" x2="191.493" y1="329.203" y2="329.203" gradientTransform="translate(238.201 3.518)" gradientUnits="userSpaceOnUse"/><linearGradient xlink:href="#b" id="am" x1="38.837" x2="191.493" y1="329.203" y2="329.203" gradientTransform="translate(238.201 3.518)" gradientUnits="userSpaceOnUse"/><linearGradient xlink:href="#k" id="ax" x1="398.923" x2="364.386" y1="360.402" y2="325.804" gradientUnits="userSpaceOnUse"/><linearGradient xlink:href="#o" id="ay" x1="469.344" x2="341.898" y1="749.654" y2="698.166" gradientTransform="matrix(1 0 0 -1 0 1052.362)" gradientUnits="userSpaceOnUse"/><linearGradient xlink:href="#d" id="aC" x1="242.854" x2="242.854" y1="-187.779" y2="6.17" gradientTransform="translate(-20.636 88.991)scale(.49658)" gradientUnits="userSpaceOnUse"/><linearGradient xlink:href="#p" id="aE" x1="217.031" x2="270.233" y1="2.009" y2="80.305" gradientUnits="userSpaceOnUse"/><linearGradient xlink:href="#q" id="aA" x1="91.786" x2="67.671" y1="47.533" y2="108.314" gradientUnits="userSpaceOnUse"/><linearGradient xlink:href="#v" id="aD" x1="97.536" x2="93.984" y1="86.327" y2="54.06" gradientUnits="userSpaceOnUse"/><linearGradient xlink:href="#w" id="aF" x1="51.853" x2="9.048" y1="83.456" y2="68.491" gradientUnits="userSpaceOnUse"/><filter id="M"><feGaussianBlur stdDeviation="1.659"/></filter><filter id="P" width="1.723" height="1.293" x="-.362" y="-.147"><feGaussianBlur stdDeviation="3.761"/></filter><filter id="R"><feGaussianBlur stdDeviation=".554"/></filter><filter id="U"><feGaussianBlur stdDeviation="1.756"/></filter><filter id="W"><feGaussianBlur stdDeviation=".998"/></filter><filter id="af"><feGaussianBlur stdDeviation=".718"/></filter><filter id="ah" width="1.101" height="1.68" x="-.05" y="-.34"><feGaussianBlur stdDeviation=".562"/></filter><filter id="ak"><feGaussianBlur stdDeviation=".765"/></filter><filter id="F"><feGaussianBlur stdDeviation=".182"/></filter><filter id="ao" width="1.032" height="1.341" x="-.016" y="-.17"><feGaussianBlur stdDeviation=".903"/></filter><filter id="aq"><feGaussianBlur stdDeviation="1.298"/></filter><filter id="as"><feGaussianBlur stdDeviation=".038"/></filter><filter id="az"><feGaussianBlur stdDeviation=".26"/></filter><filter id="Z"><feGaussianBlur stdDeviation="1.689"/></filter><filter id="aB"><feGaussianBlur stdDeviation=".586"/></filter><filter id="H"><feGaussianBlur stdDeviation=".819"/></filter><filter id="aG"><feGaussianBlur stdDeviation=".178"/></filter><radialGradient xlink:href="#x" id="I" cx="113.773" cy="421.472" r="102.654" fx="113.773" fy="421.472" gradientTransform="matrix(1 0 0 .47598 238.201 220.86)" gradientUnits="userSpaceOnUse"/><radialGradient xlink:href="#y" id="L" cx="85.438" cy="511.891" r="78.938" fx="85.438" fy="511.891" gradientTransform="matrix(.43232 0 0 .70032 48.5 129.749)" gradientUnits="userSpaceOnUse"/><radialGradient xlink:href="#z" id="T" cx="81.205" cy="437.665" r="38.88" fx="81.205" fy="437.665" gradientTransform="matrix(2.30912 -2.98903 -.41164 3.46418 73.853 -835.762)" gradientUnits="userSpaceOnUse"/><radialGradient xlink:href="#y" id="ab" cx="85.438" cy="511.891" r="78.938" fx="85.438" fy="511.891" gradientTransform="matrix(.43232 0 0 .70032 48.5 129.749)" gradientUnits="userSpaceOnUse"/><radialGradient xlink:href="#A" id="ai" cx="189.808" cy="375.149" r="27.057" fx="189.808" fy="375.149" gradientTransform="matrix(.99592 .0902 -.36013 3.9765 374.077 -1141.662)" gradientUnits="userSpaceOnUse"/><radialGradient xlink:href="#B" id="an" cx="354.771" cy="343.229" r="56.351" fx="354.771" fy="343.229" gradientTransform="matrix(1 0 0 .0941 0 310.931)" gradientUnits="userSpaceOnUse"/><radialGradient xlink:href="#C" id="ar" cx="773.415" cy="338.251" r="2.707" fx="773.415" fy="338.251" gradientTransform="matrix(1 0 0 .54545 0 153.75)" gradientUnits="userSpaceOnUse"/><radialGradient xlink:href="#C" id="at" cx="773.415" cy="338.251" r="2.707" fx="773.415" fy="338.251" gradientTransform="matrix(1 0 0 .54545 0 153.75)" gradientUnits="userSpaceOnUse"/><radialGradient xlink:href="#C" id="au" cx="773.415" cy="338.251" r="2.707" fx="773.415" fy="338.251" gradientTransform="matrix(1 0 0 .54545 0 153.75)" gradientUnits="userSpaceOnUse"/><radialGradient xlink:href="#C" id="av" cx="773.415" cy="338.251" r="2.707" fx="773.415" fy="338.251" gradientTransform="matrix(1 0 0 .54545 0 153.75)" gradientUnits="userSpaceOnUse"/><radialGradient xlink:href="#C" id="aw" cx="773.415" cy="338.251" r="2.707" fx="773.415" fy="338.251" gradientTransform="matrix(1 0 0 .54545 0 153.75)" gradientUnits="userSpaceOnUse"/><clipPath id="K" clipPathUnits="userSpaceOnUse"><path d="M55.688 476.985c4.518 7.826 19.422 10.75 29.75 10.75s25.231-2.924 29.75-10.75c-24.211-41.935-42.236-39.067-59.5 0" style="fill:url(#D);fill-opacity:1;fill-rule:evenodd;stroke:none;stroke-width:1px;stroke-linecap:butt;stroke-linejoin:miter;stroke-opacity:1"/></clipPath><clipPath id="N" clipPathUnits="userSpaceOnUse"><path d="M10.827 344.157c2.553 27.852 16.271 47.474 25.1 56.597 30.045 20.542 2.661-30.932 4.922-52.168 1.168-4.199-19.658-18.248-30.022-4.43" style="opacity:.31868131;fill:#000;fill-opacity:1;fill-rule:evenodd;stroke:none;stroke-width:1px;stroke-linecap:butt;stroke-linejoin:miter;stroke-opacity:1"/></clipPath><clipPath id="S" clipPathUnits="userSpaceOnUse"><path d="M73.338 392.02c-43.297 0-73.088 12.844-64.376 33.746s52.646 41.99 95.943 41.99 69.652-21.088 60.94-41.99-49.21-33.747-92.507-33.747" style="opacity:.22710625;fill:#dedede;fill-opacity:1;stroke:none;stroke-width:2.5999999;stroke-linecap:butt;stroke-linejoin:miter;stroke-miterlimit:4;stroke-dashoffset:1.08779998;stroke-opacity:1"/></clipPath><clipPath id="aj" clipPathUnits="userSpaceOnUse"><path d="M353.21-62.55c-43.222 0-78.281 11.687-78.281 26.095S309.988-5.458 353.21-5.458s78.313-16.59 78.313-30.997-35.09-26.094-78.313-26.094" style="fill:#fff;fill-opacity:1;stroke:none;stroke-width:4;stroke-linecap:butt;stroke-linejoin:miter;stroke-miterlimit:4;stroke-dasharray:none;stroke-dashoffset:1.08779998;stroke-opacity:1"/></clipPath><clipPath id="ap" clipPathUnits="userSpaceOnUse"><path d="M353.351 309.564c-42.135 0-76.313 10.365-76.313 23.143s34.178 23.17 76.313 23.17 76.344-10.392 76.344-23.17-34.209-23.143-76.344-23.143" style="opacity:.30769234;fill:url(#E);fill-opacity:1;stroke:none;stroke-width:4;stroke-linecap:butt;stroke-linejoin:miter;stroke-miterlimit:4;stroke-dasharray:none;stroke-dashoffset:1.08779998;stroke-opacity:1;filter:url(#F)" transform="matrix(1.00178 0 0 1 449.709 -2.627)"/></clipPath><clipPath id="Y" clipPathUnits="userSpaceOnUse"><path d="m879.966 354.984-.492 4.922 5.414-3.445c3.129-10.7 21.657-13.686 25.1-4.184 8.461 23.358-31.724 37.588-45.032 42.817l-10.09 16.734c24.177-8.142 71.806-23.558 64.964-62.258-1.95-11.037-20.433-20.95-36.665-9.597z" style="opacity:1;fill:url(#G);fill-opacity:1;fill-rule:evenodd;stroke:none;stroke-width:1px;stroke-linecap:butt;stroke-linejoin:miter;stroke-opacity:1"/></clipPath></defs><path d="M63.63 15.234c-24.07 0-43.594 6.542-43.594 14.594 0 .82.205 1.623.594 2.406.213 8.92 1.73 16.927 4.437 24.063C10.426 60.929 1.005 68.484 1.005 78.203c0 7.306 5.327 14.64 14.187 20.594 7.369 8.162 26.38 13.969 48.657 13.969 22.92 0 42.368-6.154 49.25-14.688 8.245-5.822 13.187-12.855 13.187-19.875 0-6.162-3.81-11.429-10.312-15.656 7.312-5.312 12.469-12.629 10.656-22.938-1.068-6.07-11.175-11.526-20.062-5.343.03-.661.046-1.33.062-2 .4-.794.625-1.606.625-2.438 0-8.052-19.555-14.594-43.625-14.594m51.781 22.72c2.594-.124 4.987.863 5.813 3.155 2.823 7.834-4.215 13.78-11.813 17.907a69 69 0 0 0-7.219-2.72 66 66 0 0 0 3.22-11.562l2.062-1.312c.965-3.32 4.602-5.31 7.937-5.469" style="opacity:.59706936;fill:#4b4b4b;fill-opacity:1;stroke:none;stroke-width:5;stroke-linecap:butt;stroke-linejoin:miter;stroke-miterlimit:4;stroke-dasharray:none;stroke-dashoffset:1.08779998;stroke-opacity:1;filter:url(#H)"/><path d="M212.978 451.708a94.657 41.064 0 1 1-189.314 0 94.657 41.064 0 1 1 189.314 0" style="opacity:.59706936;fill:#cacaca;fill-opacity:1;stroke:none;stroke-width:5;stroke-linecap:butt;stroke-linejoin:miter;stroke-miterlimit:4;stroke-dasharray:none;stroke-dashoffset:1.08779998;stroke-opacity:1" transform="matrix(.54859 0 0 .52347 -1.064 -145.38)"/><path d="M353.366 371.219c-63.027 0-114.187 18.698-114.187 49.125s51.16 61.125 114.187 61.125 114.188-30.698 114.188-61.125-51.16-49.125-114.188-49.125" style="fill:#f2f2f2;fill-opacity:1;stroke:none;stroke-width:2.5999999;stroke-linecap:butt;stroke-linejoin:miter;stroke-miterlimit:4;stroke-dashoffset:1.08779998;stroke-opacity:1" transform="matrix(.54859 0 0 .55151 -130.21 -153.826)"/><path d="M351.974 372.61c-56.66 0-102.653 16.574-102.653 43.543 0 26.97 45.993 54.18 102.653 54.18s102.654-27.21 102.654-54.18-45.993-43.542-102.654-43.542" style="opacity:.22710625;fill:url(#I);fill-opacity:1;stroke:none;stroke-width:2.5999999;stroke-linecap:butt;stroke-linejoin:miter;stroke-miterlimit:4;stroke-dashoffset:1.08779998;stroke-opacity:1" transform="matrix(.54859 0 0 .55151 -130.21 -153.826)"/><path d="M274.929 333.03c0 44.58 17.588 76.839 48.687 98.813 4.519 7.826 19.423 10.75 29.75 10.75s25.232-2.924 29.75-10.75c31.1-21.974 48.688-54.233 48.688-98.812l-78.438 2.28z" style="fill:url(#J);fill-opacity:1;fill-rule:evenodd;stroke:none;stroke-width:1px;stroke-linecap:butt;stroke-linejoin:miter;stroke-opacity:1" transform="matrix(.54859 0 0 .55151 -130.21 -153.826)"/><path d="M55.688 476.985c4.518 7.826 19.422 10.75 29.75 10.75s25.231-2.924 29.75-10.75c171.864-134.722-230.157-144.86-59.5 0z" clip-path="url(#K)" style="fill:none;fill-opacity:1;fill-rule:evenodd;stroke:url(#L);stroke-width:2.5999999;stroke-linecap:butt;stroke-linejoin:miter;stroke-miterlimit:4;stroke-dasharray:none;stroke-opacity:1;filter:url(#M)" transform="matrix(.54859 0 0 .55151 16.772 -179.069)"/><path d="M15.866 348.21c-1.82 21.745 11.704 39.542 19.713 51.252 5.278-10.628-14.277-28.847-8.761-46.434z" clip-path="url(#N)" style="opacity:.22710625;fill:url(#O);fill-opacity:1;fill-rule:evenodd;stroke:none;stroke-width:1px;stroke-linecap:butt;stroke-linejoin:miter;stroke-opacity:1;filter:url(#P)" transform="matrix(.54859 0 0 .55151 16.772 -148.397)"/><path d="M415.491 348.937c-14.313 6.258-36.887 10.312-62.281 10.312-10.284 0-20.096-.67-29.094-1.875 1.206 11.833 14.796 21.157 31.344 21.157 8.229 0 15.71-2.317 21.313-6.094a29.15 29.15 0 0 0 11.875 2.531c14.861 0 26.937-10.843 26.937-24.219 0-.606-.045-1.217-.094-1.812" style="opacity:.22710625;fill:url(#Q);fill-opacity:1;stroke:none;stroke-width:2.5999999;stroke-linecap:butt;stroke-linejoin:miter;stroke-miterlimit:4;stroke-dasharray:none;stroke-dashoffset:1.08779998;stroke-opacity:1;filter:url(#R)" transform="matrix(.54859 0 0 .55151 -130.21 -153.826)"/><path d="M120.085 437.665a38.88 43.801 0 1 1-77.76 0 38.88 43.801 0 1 1 77.76 0" clip-path="url(#S)" style="fill:url(#T);fill-opacity:1;stroke:none;stroke-width:5;stroke-linecap:butt;stroke-linejoin:miter;stroke-miterlimit:4;stroke-dasharray:none;stroke-dashoffset:1.08779998;stroke-opacity:1;filter:url(#U)" transform="matrix(.79857 0 -.33285 .80284 135.56 -263.821)"/><path d="M351.974 372.61c-56.66 0-102.653 16.574-102.653 43.543 0 26.97 45.993 54.18 102.653 54.18s102.654-27.21 102.654-54.18-45.993-43.542-102.654-43.542" style="fill:url(#V);fill-opacity:1;stroke:none;stroke-width:2.5999999;stroke-linecap:butt;stroke-linejoin:miter;stroke-miterlimit:4;stroke-dashoffset:1.08779998;stroke-opacity:1" transform="matrix(.54859 0 0 .55151 -130.21 -153.826)"/><path d="M311.04 424.377c.293 14.442 3.209 28.508 21.654 40.357 37-6.798 46.488-18.909 61.027-30.698 18.235 3.69 33.665-3.084 44.293-10.15 6.19-4.116 2.767-14.325-2.952-11.32-13.596 7.141-29.49 13.284-45.278 7.874z" style="opacity:.56410253;fill:#9d9d9d;fill-opacity:1;fill-rule:evenodd;stroke:none;stroke-width:1px;stroke-linecap:butt;stroke-linejoin:miter;stroke-opacity:1;filter:url(#W)" transform="matrix(.54859 0 0 .55151 -130.21 -153.826)"/><path d="m682.121 354.984-.492 4.922 5.414-3.445c3.13-10.7 21.657-13.686 25.1-4.184 8.462 23.358-31.724 37.588-45.032 42.817l-10.09 16.734c24.177-8.142 71.806-23.558 64.965-62.258-1.952-11.037-20.434-20.95-36.666-9.597z" style="opacity:1;fill:url(#X);fill-opacity:1;fill-rule:evenodd;stroke:none;stroke-width:1px;stroke-linecap:butt;stroke-linejoin:miter;stroke-opacity:1" transform="matrix(.54859 0 0 .55151 -269.436 -153.39)"/><path d="m879.474 354-.492 4.921 5.413-3.445c3.13-10.7 22.15-12.7 25.592-3.199 8.462 23.358-29.263 39.802-42.57 45.032l-13.535 12.55c23.941-9.436 65.987-19.968 63.242-55.367-.867-11.175-19.45-18.736-35.681-7.382z" clip-path="url(#Y)" style="opacity:.36263739;fill:#1f1f1f;fill-opacity:1;fill-rule:evenodd;stroke:none;stroke-width:1px;stroke-linecap:butt;stroke-linejoin:miter;stroke-opacity:1;filter:url(#Z)" transform="matrix(.54859 0 0 .55151 -377.97 -153.39)"/><path d="M274.929 333.03c0 44.58 17.588 76.839 48.687 98.813 4.519 7.826 19.423 10.75 29.75 10.75s25.232-2.924 29.75-10.75c31.1-21.974 48.688-54.233 48.688-98.812l-78.438 2.28z" style="fill:url(#aa);fill-opacity:1;fill-rule:evenodd;stroke:none;stroke-width:1px;stroke-linecap:butt;stroke-linejoin:miter;stroke-opacity:1" transform="matrix(.54859 0 0 .55151 -130.21 -153.826)"/><path d="M55.688 476.985c4.518 7.826 19.422 10.75 29.75 10.75s25.231-2.924 29.75-10.75c171.864-134.722-230.157-144.86-59.5 0z" clip-path="url(#K)" style="opacity:.57509161;fill:none;fill-opacity:1;fill-rule:evenodd;stroke:url(#ab);stroke-width:5;stroke-linecap:butt;stroke-linejoin:miter;stroke-miterlimit:4;stroke-dasharray:none;stroke-opacity:1;filter:url(#M)" transform="matrix(.54859 0 0 .55151 16.772 -178.241)"/><path d="M15.866 348.21c-1.82 21.745 11.704 39.542 19.713 51.252 5.278-10.628-14.277-28.847-8.761-46.434z" clip-path="url(#N)" style="opacity:.14652016;fill:url(#ac);fill-opacity:1;fill-rule:evenodd;stroke:none;stroke-width:1px;stroke-linecap:butt;stroke-linejoin:miter;stroke-opacity:1;filter:url(#P)" transform="matrix(.96992 0 .102 .80572 -22.967 -234.226)"/><path d="M415.491 348.937c-14.313 6.258-36.887 10.312-62.281 10.312-10.284 0-20.096-.67-29.094-1.875 1.206 11.833 14.796 21.157 31.344 21.157 8.229 0 15.71-2.317 21.313-6.094a29.15 29.15 0 0 0 11.875 2.531c14.861 0 26.937-10.843 26.937-24.219 0-.606-.045-1.217-.094-1.812" style="opacity:.12087911;fill:url(#ad);fill-opacity:1;stroke:none;stroke-width:2.5999999;stroke-linecap:butt;stroke-linejoin:miter;stroke-miterlimit:4;stroke-dasharray:none;stroke-dashoffset:1.08779998;stroke-opacity:1;filter:url(#R)" transform="matrix(.54859 0 0 .55151 -130.21 -153.826)"/><path d="M393.72 418.472c-32.884 17.94-58.482-1.776-82.68-17.226 23.791 16.606 47.117 40.705 76.31 23.426 2.25-1.331 4.043-4.375 6.37-6.2" style="opacity:.59706936;fill:url(#ae);fill-opacity:1;fill-rule:evenodd;stroke:none;stroke-width:1px;stroke-linecap:butt;stroke-linejoin:miter;stroke-opacity:1;filter:url(#af)" transform="matrix(.54859 0 0 .55151 -130.21 -153.826)"/><path d="M155.52 418.472c-32.885 17.94-58.483-1.776-82.682-17.226 23.792 16.606 47.117 40.705 76.311 23.426 2.249-1.331 4.043-4.375 6.37-6.2" style="opacity:.59706936;fill:url(#ag);fill-opacity:1;fill-rule:evenodd;stroke:none;stroke-width:1px;stroke-linecap:butt;stroke-linejoin:miter;stroke-opacity:1;filter:url(#af)" transform="matrix(-.55782 0 0 .78658 127.174 -254.513)"/><path d="m382.623 426.652-10.615 3.306-11.658-.522z" style="fill:#fff;fill-opacity:1;fill-rule:evenodd;stroke:none;stroke-width:1px;stroke-linecap:butt;stroke-linejoin:miter;stroke-opacity:1;filter:url(#ah)" transform="matrix(.54859 0 0 .55151 -130.21 -153.826)"/><path d="M428.007 344.558c.3 40.113-36.292 81.294-49.311 86.15l-4.801.97c19.923-20.214 44.372-35.363 54.112-87.12" style="opacity:.71428576;fill:url(#ai);fill-opacity:1;fill-rule:evenodd;stroke:none;stroke-width:1px;stroke-linecap:butt;stroke-linejoin:miter;stroke-opacity:1" transform="matrix(.54859 0 0 .55151 -130.21 -153.826)"/><path d="M353.21-63.245c-43.798 0-79.325 11.842-79.325 26.441 0 14.6 35.527 26.474 79.325 26.474s79.356-11.874 79.356-26.474-35.558-26.441-79.356-26.441" clip-path="url(#aj)" style="fill:#fff;fill-opacity:1;stroke:none;stroke-width:4;stroke-linecap:butt;stroke-linejoin:miter;stroke-miterlimit:4;stroke-dasharray:none;stroke-dashoffset:1.08779998;stroke-opacity:1;filter:url(#ak)" transform="matrix(.54956 0 0 .55151 -130.478 49.925)"/><path d="M353.351 309.564c-42.135 0-76.313 10.365-76.313 23.143s34.178 23.17 76.313 23.17 76.344-10.392 76.344-23.17-34.209-23.143-76.344-23.143" style="opacity:1;fill:url(#al);fill-opacity:1;stroke:none;stroke-width:4;stroke-linecap:butt;stroke-linejoin:miter;stroke-miterlimit:4;stroke-dasharray:none;stroke-dashoffset:1.08779998;stroke-opacity:1;filter:url(#F)" transform="matrix(.54956 0 0 .55151 -130.478 -154.189)"/><path d="M353.351 309.564c-42.135 0-76.313 10.365-76.313 23.143s34.178 23.17 76.313 23.17 76.344-10.392 76.344-23.17-34.209-23.143-76.344-23.143" style="opacity:.30769234;fill:url(#am);fill-opacity:1;stroke:none;stroke-width:4;stroke-linecap:butt;stroke-linejoin:miter;stroke-miterlimit:4;stroke-dasharray:none;stroke-dashoffset:1.08779998;stroke-opacity:1;filter:url(#F)" transform="matrix(.54956 0 0 .55151 -130.448 -154.219)"/><path d="M353.546 320.664c-36.395 0-65.997 10.002-67.031 22.469 13 7.168 38.144 12.031 67.03 12.031 28.888 0 54.053-4.863 67.063-12.031-1.035-12.467-30.667-22.469-67.062-22.469" style="opacity:.8827839;fill:#de6e00;fill-opacity:1;stroke:none;stroke-width:4;stroke-linecap:butt;stroke-linejoin:miter;stroke-miterlimit:4;stroke-dasharray:none;stroke-dashoffset:1.08779998;stroke-opacity:1;filter:url(#F)" transform="matrix(.54859 0 0 .55151 -130.21 -153.826)"/><path d="M298.42 348.04c37.846-10.484 78.958-11.663 112.703.492-23.048-14.672-83.736-13.44-112.703-.493" style="fill:url(#an);fill-opacity:1;fill-rule:evenodd;stroke:none;stroke-width:1px;stroke-linecap:butt;stroke-linejoin:miter;stroke-opacity:1;filter:url(#ao)" transform="matrix(.54859 0 0 .55151 -130.21 -153.826)"/><path d="M803.688 318.75c-36.395 0-65.997 10.002-67.032 22.469 10.048 11.105 38.145 14.46 67.032 14.46s57.99.582 67.062-14.46c-1.036-12.467-30.668-22.469-67.062-22.469z" clip-path="url(#ap)" style="opacity:1;fill:none;fill-opacity:1;stroke:#ff7e00;stroke-width:1;stroke-linecap:butt;stroke-linejoin:miter;stroke-miterlimit:4;stroke-dasharray:none;stroke-dashoffset:1.08779998;stroke-opacity:1;filter:url(#aq)" transform="matrix(.54859 0 0 .55151 -377.151 -152.77)"/><path d="M776.122 338.251a2.707 1.476 0 1 1-5.413 0 2.707 1.476 0 1 1 5.413 0" style="opacity:1;fill:url(#ar);fill-opacity:1;stroke:none;stroke-width:1;stroke-linecap:butt;stroke-linejoin:miter;stroke-miterlimit:4;stroke-dasharray:none;stroke-dashoffset:1.08779998;stroke-opacity:1;filter:url(#as)" transform="matrix(.54859 0 0 .55151 -377.151 -152.77)"/><path d="M776.122 338.251a2.707 1.476 0 1 1-5.413 0 2.707 1.476 0 1 1 5.413 0" style="opacity:1;fill:url(#at);fill-opacity:1;stroke:none;stroke-width:1;stroke-linecap:butt;stroke-linejoin:miter;stroke-miterlimit:4;stroke-dasharray:none;stroke-dashoffset:1.08779998;stroke-opacity:1;filter:url(#as)" transform="matrix(.54859 0 0 .55151 -333.264 -149.461)"/><path d="M776.122 338.251a2.707 1.476 0 1 1-5.413 0 2.707 1.476 0 1 1 5.413 0" style="opacity:1;fill:url(#au);fill-opacity:1;stroke:none;stroke-width:1;stroke-linecap:butt;stroke-linejoin:miter;stroke-miterlimit:4;stroke-dasharray:none;stroke-dashoffset:1.08779998;stroke-opacity:1;filter:url(#as)" transform="matrix(.78443 0 0 .74573 -558.919 -227.91)"/><path d="M776.122 338.251a2.707 1.476 0 1 1-5.413 0 2.707 1.476 0 1 1 5.413 0" style="opacity:1;fill:url(#av);fill-opacity:1;stroke:none;stroke-width:1;stroke-linecap:butt;stroke-linejoin:miter;stroke-miterlimit:4;stroke-dasharray:none;stroke-dashoffset:1.08779998;stroke-opacity:1;filter:url(#as)" transform="matrix(.78443 0 0 .74573 -555.546 -228.656)"/><path d="M776.122 338.251a2.707 1.476 0 1 1-5.413 0 2.707 1.476 0 1 1 5.413 0" style="opacity:1;fill:url(#aw);fill-opacity:1;stroke:none;stroke-width:1;stroke-linecap:butt;stroke-linejoin:miter;stroke-miterlimit:4;stroke-dasharray:none;stroke-dashoffset:1.08779998;stroke-opacity:1;filter:url(#as)" transform="matrix(.54859 0 0 .55151 -347.912 -163.249)"/><path d="M353.351 309.564c-42.135 0-76.313 10.365-76.313 23.143s34.178 23.17 76.313 23.17 76.344-10.392 76.344-23.17-34.209-23.143-76.344-23.143" style="opacity:.30769234;fill:url(#ax);fill-opacity:1;stroke:none;stroke-width:4;stroke-linecap:butt;stroke-linejoin:miter;stroke-miterlimit:4;stroke-dasharray:none;stroke-dashoffset:1.08779998;stroke-opacity:1;filter:url(#F)" transform="matrix(.54956 0 0 .55151 -130.448 -154.219)"/><path d="M358.656 322.406c-7.773.115-14.688 1.032-19.312 2.813-12.827 4.94-10.762 10.382-2.156 14.969 18.001-6.087 37.04-10.05 55.75-13.625-10.47-2.863-23.236-4.32-34.282-4.157m38.875 5.563c-17.27 3.862-34.319 8.421-49.125 16.719 5.362 5.167 79.671.767 49.75-16.532-.2-.07-.422-.118-.625-.187" style="opacity:.73626374;fill:url(#ay);fill-opacity:1;fill-rule:evenodd;stroke:none;stroke-width:1px;stroke-linecap:butt;stroke-linejoin:miter;stroke-opacity:1;filter:url(#az)" transform="matrix(.54859 0 0 .55151 -130.21 -153.826)"/><path d="M88.833 41.381c-.482 6.89-3.367 17.75-9.628 24.64l-10.552 1.034-2.513 1.983c-.392 4.736-5.204 15.824-6.902 20.56l.984 2.46 24.608-1.23 4.956-26.776-9.843 1.722c10.011-8.348 7.797-17.837 8.89-24.393" style="fill:url(#aA);fill-opacity:1;fill-rule:evenodd;stroke:none;stroke-width:1px;stroke-linecap:butt;stroke-linejoin:miter;stroke-opacity:1;filter:url(#aB);opacity:.43589744"/><path d="M82.497 54.308h22.973l4.399 4.399V81.68l-4.4 4.399H82.498l-4.399-4.4V58.708z" style="fill:url(#aC);fill-opacity:1;stroke:url(#aD);stroke-width:.49696344;stroke-linecap:round;stroke-linejoin:round;stroke-miterlimit:4;stroke-dashoffset:1.08779998;stroke-opacity:1;stroke-dasharray:none" transform="translate(-19.063 -3.29)scale(1.15099)"/><path d="M264.777 2.01a23.623 23.623 0 1 1-47.246 0 23.623 23.623 0 1 1 47.246 0z" style="opacity:1;fill:url(#aE);fill-opacity:1;stroke:#1a1a1a;stroke-width:1;stroke-linecap:butt;stroke-linejoin:miter;stroke-miterlimit:4;stroke-dasharray:none;stroke-dashoffset:1.08779998;stroke-opacity:1" transform="translate(-48.721 76.353)scale(.57155)"/><path d="M264.777 2.01a23.623 23.623 0 1 1-47.246 0 23.623 23.623 0 1 1 47.246 0z" style="opacity:1;fill:#000;fill-opacity:1;stroke:#1a1a1a;stroke-width:1;stroke-linecap:butt;stroke-linejoin:miter;stroke-miterlimit:4;stroke-dasharray:none;stroke-dashoffset:1.08779998;stroke-opacity:1" transform="translate(73.6 77.372)scale(.06432)"/><path d="M93.617 69.46c.611-.733 6.965-8.31 6.965-8.31l-.062 1.476-5.803 8.056z" style="fill:#000;fill-opacity:1;fill-rule:evenodd;stroke:none;stroke-width:1px;stroke-linecap:butt;stroke-linejoin:miter;stroke-opacity:1" transform="translate(-19.063 -3.29)scale(1.15099)"/><path d="M93.447 70.288c-.431-.566-4.882-6.442-4.882-6.442l1.062.29 4.89 5.555z" style="fill:#000;fill-opacity:1;fill-rule:evenodd;stroke:none;stroke-width:1px;stroke-linecap:butt;stroke-linejoin:miter;stroke-opacity:1" transform="translate(-19.063 -3.29)scale(1.15099)"/><path d="M241.4-22.475a3.076 3.076 0 1 1-6.152 0 3.076 3.076 0 1 1 6.152 0" style="opacity:1;fill:#000;fill-opacity:1;stroke:none;stroke-width:1;stroke-linecap:butt;stroke-linejoin:miter;stroke-miterlimit:4;stroke-dasharray:none;stroke-dashoffset:1.08779998;stroke-opacity:1" transform="translate(-47.174 76.915)scale(.57155)"/><path d="M241.4-22.475a3.076 3.076 0 1 1-6.152 0 3.076 3.076 0 1 1 6.152 0" style="opacity:1;fill:#000;fill-opacity:1;stroke:none;stroke-width:1;stroke-linecap:butt;stroke-linejoin:miter;stroke-miterlimit:4;stroke-dasharray:none;stroke-dashoffset:1.08779998;stroke-opacity:1" transform="translate(-47.174 103.357)scale(.57155)"/><path d="M241.4-22.475a3.076 3.076 0 1 1-6.152 0 3.076 3.076 0 1 1 6.152 0" style="opacity:1;fill:#000;fill-opacity:1;stroke:none;stroke-width:1;stroke-linecap:butt;stroke-linejoin:miter;stroke-miterlimit:4;stroke-dasharray:none;stroke-dashoffset:1.08779998;stroke-opacity:1" transform="rotate(90 74.17 15.245)scale(.57155)"/><path d="M241.4-22.475a3.076 3.076 0 1 1-6.152 0 3.076 3.076 0 1 1 6.152 0" style="opacity:1;fill:#000;fill-opacity:1;stroke:none;stroke-width:1;stroke-linecap:butt;stroke-linejoin:miter;stroke-miterlimit:4;stroke-dasharray:none;stroke-dashoffset:1.08779998;stroke-opacity:1" transform="rotate(90 60.95 2.025)scale(.57155)"/><path d="M241.4-22.475a3.076 3.076 0 1 1-6.152 0 3.076 3.076 0 1 1 6.152 0" style="opacity:1;fill:#000;fill-opacity:1;stroke:none;stroke-width:1;stroke-linecap:butt;stroke-linejoin:miter;stroke-miterlimit:4;stroke-dasharray:none;stroke-dashoffset:1.08779998;stroke-opacity:1" transform="rotate(120 58.225 48.088)scale(.28578)"/><path d="M241.4-22.475a3.076 3.076 0 1 1-6.152 0 3.076 3.076 0 1 1 6.152 0" style="opacity:1;fill:#000;fill-opacity:1;stroke:none;stroke-width:1;stroke-linecap:butt;stroke-linejoin:miter;stroke-miterlimit:4;stroke-dasharray:none;stroke-dashoffset:1.08779998;stroke-opacity:1" transform="rotate(120 50.592 34.867)scale(.28578)"/><path d="M241.4-22.475a3.076 3.076 0 1 1-6.152 0 3.076 3.076 0 1 1 6.152 0" style="opacity:1;fill:#000;fill-opacity:1;stroke:none;stroke-width:1;stroke-linecap:butt;stroke-linejoin:miter;stroke-miterlimit:4;stroke-dasharray:none;stroke-dashoffset:1.08779998;stroke-opacity:1" transform="rotate(150 69.13 44.85)scale(.28578)"/><path d="M241.4-22.475a3.076 3.076 0 1 1-6.152 0 3.076 3.076 0 1 1 6.152 0" style="opacity:1;fill:#000;fill-opacity:1;stroke:none;stroke-width:1;stroke-linecap:butt;stroke-linejoin:miter;stroke-miterlimit:4;stroke-dasharray:none;stroke-dashoffset:1.08779998;stroke-opacity:1" transform="rotate(150 65.588 31.628)scale(.28578)"/><path d="M241.4-22.475a3.076 3.076 0 1 1-6.152 0 3.076 3.076 0 1 1 6.152 0" style="opacity:1;fill:#000;fill-opacity:1;stroke:none;stroke-width:1;stroke-linecap:butt;stroke-linejoin:miter;stroke-miterlimit:4;stroke-dasharray:none;stroke-dashoffset:1.08779998;stroke-opacity:1" transform="rotate(-150 88.02 39.24)scale(.28578)"/><path d="M241.4-22.475a3.076 3.076 0 1 1-6.152 0 3.076 3.076 0 1 1 6.152 0" style="opacity:1;fill:#000;fill-opacity:1;stroke:none;stroke-width:1;stroke-linecap:butt;stroke-linejoin:miter;stroke-miterlimit:4;stroke-dasharray:none;stroke-dashoffset:1.08779998;stroke-opacity:1" transform="rotate(-150 91.562 26.02)scale(.28578)"/><path d="M241.4-22.475a3.076 3.076 0 1 1-6.152 0 3.076 3.076 0 1 1 6.152 0" style="opacity:1;fill:#000;fill-opacity:1;stroke:none;stroke-width:1;stroke-linecap:butt;stroke-linejoin:miter;stroke-miterlimit:4;stroke-dasharray:none;stroke-dashoffset:1.08779998;stroke-opacity:1" transform="rotate(-120 98.925 36.001)scale(.28578)"/><path d="M241.4-22.475a3.076 3.076 0 1 1-6.152 0 3.076 3.076 0 1 1 6.152 0" style="opacity:1;fill:#000;fill-opacity:1;stroke:none;stroke-width:1;stroke-linecap:butt;stroke-linejoin:miter;stroke-miterlimit:4;stroke-dasharray:none;stroke-dashoffset:1.08779998;stroke-opacity:1" transform="rotate(-120 106.558 22.78)scale(.28578)"/><path d="M89.08 60.083V41.381s-.017-1.893-1.477-1.968h0" style="fill:none;fill-opacity:.75;fill-rule:evenodd;stroke:#696969;stroke-width:1px;stroke-linecap:round;stroke-linejoin:miter;stroke-opacity:1"/><path d="M40.368 86.24c-15.383-4.493-22.252-13.305-25.056-23.665 3.368 10.318 12.21 17.31 21.576 18.793z" style="fill:url(#aF);fill-opacity:1;fill-rule:evenodd;stroke:none;stroke-width:1px;stroke-linecap:butt;stroke-linejoin:miter;stroke-opacity:1;filter:url(#aG)"/></svg>