<svg xmlns="http://www.w3.org/2000/svg" width="48" height="48" xmlns:v="https://vecta.io/nano"><defs><linearGradient id="A" x1="7.461" x2="84.384" y1="47.862" y2="47.862" href="#E"><stop stop-color="#3f8acc" offset="0"/><stop stop-color="#3982c4" offset="1"/></linearGradient><linearGradient id="B" x1="38.255" x2="13.652" y1="35.993" y2="38.271" href="#E"><stop stop-color="#7cc8e8" offset="0"/><stop stop-color="#7ec6e8" offset="1"/></linearGradient><linearGradient id="C" x1="33.74" x2="79.965" y1="32.992" y2="5.883" href="#E"><stop stop-color="#2ea1da" offset="0"/><stop stop-color="#088bc8" offset=".511"/><stop stop-color="#095579" offset="1"/></linearGradient><radialGradient id="D" cx="136.06" cy="43.573" r="43.09" gradientTransform="matrix(1 0 0 .97009 -92 1.3031)" href="#E"><stop stop-color="#5b6f93" offset="0"/><stop stop-color="#282e3d" offset="1"/></radialGradient><linearGradient id="E" gradientUnits="userSpaceOnUse"/></defs><g transform="matrix(.5295 0 0 .5295 .67827 0)"><path d="M87.146 43.573c0 12.373-5.541 23.49-14.348 31.144-29.811 2.802-35.906 3.688-61.855-4.395C4.714 63.073.966 53.748.966 43.573c0-23.086 19.292-41.801 43.09-41.801s43.09 18.715 43.09 41.801z" fill="url(#D)"/><path d="M10.567 36.201s8.807-2.08 15.894-5.785S43.586 17.157 48.98 15.61c5.743-1.647 14.963-.357 16.068-1.087 2.045-1.35 5.967-4.991 8.376-6.443 2.738-1.651 6.161-2.819 7.289-2.336s.121 12.484.121 12.484 2.281-.833 2.879.04c1.587 2.314.013 6.398-1.168 8.554-1.46 2.664-8.759 7.989-9.772 10.061-1.772 3.624-6.343 14.924-6.826 17.34s-1.236 7.39 2.564 11.209c3.859 3.879 5.84 3.819 8.74 4.946-.368.66-1.477 1.918-3.235 3.374-.401.332-.846 1.791-.846 1.791l-1.517.154-.406 1.137s-2.296-.435-2.672-.21c-.424.253.164 1.496.164 1.496s-2.344-.117-3.149-.349c-.093.615.224 1.218.34 1.79-.914.324-2.642-.063-3.616-.14-.189-.015.858 1.495.68 1.565-1.047.411-2.558.539-3.776.371-.371-.051-1.252-.172-2.163-.423.117 1.34.643 3.107.993 4.559-1.289.065-5.569-3.585-5.569-3.585s-.069 2.331.303 3.213c-.905.048-2.436-1.131-3.223-1.829-1.022.565-2.622 6.797-2.622 6.797s-4.618-4.077-6.939-7.442c-.507-.065-.864 2.008-1.234 3.926-.598-.152-2.57-4.095-2.684-5.214-3.204.823-7.816 4.88-10.103 7.708-2.009-2.393-2.921-8.723-3.294-11.182-5.709.25-11.537 3.118-13.923 4.136-.716-2.212 7.14-9.119 7.14-9.119l-8.439-.672s7.692-7.329 11.236-12.323 7.088-10.954 6.443-11.92c-1.299-.312-4.188-.644-7.732-3.222s-6.84-8.565-6.84-8.565z" fill="url(#A)"/><path d="M40.98 60.492c-1.102-6.131 1.919-13.989 11.672-23.063.632 4.367 2.798 9.202 4.824 10.97.526-9.812 1.4-12.949 9.278-20.164 6.194-5.674 13.452-9.669 13.452-9.669s2.964-1.232 3.563-.358c1.587 2.314.013 6.398-1.168 8.554-1.46 2.664-8.759 7.989-9.772 10.061-1.772 3.624-6.343 14.924-6.826 17.34s-1.236 7.39 2.564 11.209c3.859 3.879 5.84 3.819 8.74 4.946-.138.247-1.062 3.766-12.031 4.526-.378.026-.611-.335-1.369-.871.234.952-.618.493-1.327.244-.405-.142-.529.972-1.002 1.139-.486-.11-1.165-.792-2.254-1.049-.793.145-.881 1.017-1.678 1.266-.403-.984-.532-1.329-.79-1.761-.52-.052-2.105.905-2.105.905s-.593-1.62-1.123-1.728c-.577-.118-1.257.456-1.978 1.016-.402-.111-.862-1.918-.975-2.471-.428-.145-1.211 1.231-1.341 1.551-.543-1.246-.907-2.953-.907-2.953s-.901 1.131-1.142 1.901c-.259-.16-.227-3.67-.227-3.67s-.94 1.707-1.261 2.589c-.342-.29.025-3.604.025-3.604s-1.055.5-1.96 1.846c-1.129-2.848-.382-11.24-.382-11.24s-1.083 1.859-1.821 4.995c-.264-.935-.485-1.403-.675-2.459z" fill="#fcfefd"/><path d="M10.554 36.185s8.807-2.08 15.894-5.785 17.124-13.258 22.518-14.806c5.743-1.647 14.963-.357 16.068-1.087 2.045-1.35 5.967-4.991 8.376-6.443 2.738-1.651 6.737-3.309 7.403-2.279.582.901.411 3.785.411 3.785s-1.816-3.946-5.171-2.126c-2.182 1.184-5.437 4.339-8.124 7.793-1.793 2.304-3.614 5.18-6.808 7.2-1.214.768-4.509 1.529-8.597 1.94-4.384.441-8.826.453-12.813 2.002-9.398 3.651-11.59 5.585-22.649 8.74-2.339.667-3.66.797-6.508 1.066z" fill="url(#C)"/><path d="M75.387 21.585s1.604-7.953 3.288-8.604c2.191-.847.549 6.045.549 6.045s-2.057 1.11-3.838 2.559z" fill="#153747"/><path d="M10.593 36.307s5.195 10.481 13.213 11.076c8.624.64 13.896-8.201 13.896-9.682s.228-5.581-5.353-4.784-7.765 1.832-11.979 2.573c-3.618.636-9.776.817-9.776.817z" fill="url(#B)"/><path d="M29.279 36.463c.812 1.143.765 4.038-5.473 10.915 8.624.64 13.896-8.201 13.896-9.682s.228-5.581-5.353-4.784-7.765 1.832-11.979 2.573c8.222.152 8.235.029 8.91.978z" fill="#69b0cd"/><path d="M46.494 24.551l8.614-4.045c3.14-1.141 5.991 1.765 1.648 2.652-4.587.937-10.262 1.393-10.262 1.393z" fill="#fff"/></g></svg>