<svg xmlns="http://www.w3.org/2000/svg" width="48" height="48" xmlns:v="https://vecta.io/nano"><defs><linearGradient id="A" x1="11.782" y1="103.387" x2="185.309" y2="101.438" gradientUnits="userSpaceOnUse"><stop offset="0" stop-color="#686ae9"/><stop offset="1" stop-color="#552cca"/></linearGradient><linearGradient  gradientUnits="userSpaceOnUse"/></defs><g transform="matrix(.215794 0 0 .215794 2.42067 2.42067)"><rect width="189.833" height="189.997" x="5.083" y="5.001" ry="40.634" opacity=".22"/><rect width="183.808" height="183.967" x="8.345" y="8.165" ry="36.868" fill="url(#A)"/><rect width="51.894" height="16.889" x="120.427" y="145.639" ry="7.713" fill="#805bd4"/><rect width="79.19" height="16.158" x="57.415" y="40.81" ry="7.348" fill="#8a7ce4"/><rect width="79.19" height="16.158" x="33.624" y="40.817" ry="7.348" fill="#e7e5fa"/><rect width="79.921" height="15.914" x="88.166" y="61.746" ry="7.713" fill="#8670de"/><rect width="79.921" height="15.914" x="64.283" y="61.775" ry="7.713" fill="#e7e5fa"/><rect width="80.165" height="16.158" x="69.46" y="82.352" ry="8.079" fill="#866fdd"/><rect width="80.165" height="16.158" x="45.634" y="82.398" ry="8.079" fill="#e7e5fa"/><rect width="79.921" height="16.158" x="46.928" y="104.229" ry="7.957" fill="#866fdd"/><rect width="79.921" height="16.158" x="22.798" y="104.245" ry="7.957" fill="#e7e5fa"/><rect width="79.678" height="15.914" x="69.849" y="125.032" ry="7.713" fill="#8365d9"/><g fill="#e7e5fa"><rect width="79.678" height="15.914" x="45.863" y="125.083" ry="7.713"/><rect width="51.894" height="16.889" x="96.079" y="145.672" ry="7.713"/></g></g></svg>