<svg xmlns="http://www.w3.org/2000/svg" xml:space="preserve" width="48" height="48"><defs><radialGradient id="d" cx="161.83" cy="68.91" r="95.38" gradientTransform="matrix(1 0 0 -.95 0 248.84)" gradientUnits="userSpaceOnUse"><stop offset=".72" stop-opacity="0"/><stop offset=".95" stop-opacity=".53"/><stop offset="1"/></radialGradient><radialGradient id="f" cx="-340.29" cy="62.99" r="143.24" gradientTransform="matrix(.15 -.99 -.8 -.12 176.64 -125.4)" gradientUnits="userSpaceOnUse"><stop offset=".76" stop-opacity="0"/><stop offset=".95" stop-opacity=".5"/><stop offset="1"/></radialGradient><radialGradient id="g" cx="113.37" cy="570.21" r="202.43" gradientTransform="matrix(-.04 1 2.13 .08 -1179.54 -106.69)" gradientUnits="userSpaceOnUse"><stop offset="0" stop-color="#35c1f1"/><stop offset=".11" stop-color="#34c1ed"/><stop offset=".23" stop-color="#2fc2df"/><stop offset=".31" stop-color="#2bc3d2"/><stop offset=".67" stop-color="#36c752"/></radialGradient><radialGradient id="h" cx="376.52" cy="567.97" r="97.34" gradientTransform="matrix(.28 .96 .78 -.23 -303.76 -148.5)" gradientUnits="userSpaceOnUse"><stop offset="0" stop-color="#66eb6e"/><stop offset="1" stop-color="#66eb6e" stop-opacity="0"/></radialGradient><linearGradient id="c" x1="63.33" x2="241.67" y1="84.03" y2="84.03" gradientTransform="matrix(1 0 0 -1 0 266)" gradientUnits="userSpaceOnUse"><stop offset="0" stop-color="#0c59a4"/><stop offset="1" stop-color="#114a8b"/></linearGradient><linearGradient id="e" x1="157.35" x2="45.96" y1="161.39" y2="40.06" gradientTransform="matrix(1 0 0 -1 0 266)" gradientUnits="userSpaceOnUse"><stop offset="0" stop-color="#1b9de2"/><stop offset=".16" stop-color="#1595df"/><stop offset=".67" stop-color="#0680d7"/><stop offset="1" stop-color="#0078d4"/></linearGradient></defs><g style="display:inline"><path d="M235.68 195.46a94 94 0 0 1-10.54 4.71 101.9 101.9 0 0 1-35.9 6.46c-47.32 0-88.54-32.55-88.54-74.32A31.48 31.48 0 0 1 117.13 105c-42.8 1.8-53.8 46.4-53.8 72.53 0 73.88 68.09 81.37 82.76 81.37 7.91 0 19.84-2.3 27-4.56l1.31-.44a128.34 128.34 0 0 0 66.6-52.8 4 4 0 0 0-5.32-5.64" class="cls-1" style="display:inline;fill:url(#c)" transform="matrix(.15975 0 0 .15975 2.802 2.74)"/><path d="M235.68 195.46a94 94 0 0 1-10.54 4.71 101.9 101.9 0 0 1-35.9 6.46c-47.32 0-88.54-32.55-88.54-74.32A31.48 31.48 0 0 1 117.13 105c-42.8 1.8-53.8 46.4-53.8 72.53 0 73.88 68.09 81.37 82.76 81.37 7.91 0 19.84-2.3 27-4.56l1.31-.44a128.34 128.34 0 0 0 66.6-52.8 4 4 0 0 0-5.32-5.64" class="cls-2" style="display:inline;opacity:.35;fill:url(#d)" transform="matrix(.15975 0 0 .15975 2.802 2.74)"/><path d="M110.34 246.34A79.2 79.2 0 0 1 87.6 225a80.72 80.72 0 0 1 29.53-120c3.12-1.47 8.45-4.13 15.54-4a32.35 32.35 0 0 1 25.69 13 31.88 31.88 0 0 1 6.36 18.66c0-.21 24.46-79.6-80-79.6-43.9 0-80 41.66-80 78.21a130.15 130.15 0 0 0 12.11 56 128 128 0 0 0 156.38 67.11 75.55 75.55 0 0 1-62.78-8z" class="cls-3" style="display:inline;fill:url(#e)" transform="matrix(.15975 0 0 .15975 2.802 2.74)"/><path d="M110.34 246.34A79.2 79.2 0 0 1 87.6 225a80.72 80.72 0 0 1 29.53-120c3.12-1.47 8.45-4.13 15.54-4a32.35 32.35 0 0 1 25.69 13 31.88 31.88 0 0 1 6.36 18.66c0-.21 24.46-79.6-80-79.6-43.9 0-80 41.66-80 78.21a130.15 130.15 0 0 0 12.11 56 128 128 0 0 0 156.38 67.11 75.55 75.55 0 0 1-62.78-8z" class="cls-4" style="display:inline;opacity:.41;fill:url(#f)" transform="matrix(.15975 0 0 .15975 2.802 2.74)"/><path d="M156.94 153.78c-.81 1.05-3.3 2.5-3.3 5.66 0 2.61 1.7 5.12 4.72 7.23 14.38 10 41.49 8.68 41.56 8.68a59.56 59.56 0 0 0 30.27-8.35 61.38 61.38 0 0 0 30.43-52.88c.26-22.41-8-37.31-11.34-43.91-21.19-41.45-66.93-65.29-116.67-65.29a128 128 0 0 0-128 126.2c.48-36.54 36.8-66.05 80-66.05 3.5 0 23.46.34 42 10.07 16.34 8.58 24.9 18.94 30.85 29.21 6.18 10.67 7.28 24.15 7.28 29.52s-2.74 13.33-7.8 19.91" class="cls-5" style="display:inline;fill:url(#g)" transform="matrix(.15975 0 0 .15975 2.802 2.74)"/><path d="M156.94 153.78c-.81 1.05-3.3 2.5-3.3 5.66 0 2.61 1.7 5.12 4.72 7.23 14.38 10 41.49 8.68 41.56 8.68a59.56 59.56 0 0 0 30.27-8.35 61.38 61.38 0 0 0 30.43-52.88c.26-22.41-8-37.31-11.34-43.91-21.19-41.45-66.93-65.29-116.67-65.29a128 128 0 0 0-128 126.2c.48-36.54 36.8-66.05 80-66.05 3.5 0 23.46.34 42 10.07 16.34 8.58 24.9 18.94 30.85 29.21 6.18 10.67 7.28 24.15 7.28 29.52s-2.74 13.33-7.8 19.91" class="cls-6" style="display:inline;fill:url(#h)" transform="matrix(.15975 0 0 .15975 2.802 2.74)"/></g><g style="font-weight:500;font-size:19.7556px;font-family:&quot;SMTOWN(OTF)&quot;;display:inline;fill:#000;stroke-width:2.95799"><path d="M73.595 159.426a3.414 3.414 0 0 1 3.406-3.42h53.014a3.41 3.41 0 0 1 3.403 3.42v18.062a3.41 3.41 0 0 1-3.403 3.418H77.001a3.41 3.41 0 0 1-3.406-3.418z" style="font-weight:500;font-size:19.7556px;font-family:&quot;SMTOWN(OTF)&quot;;display:inline;fill:#50e6ff;fill-opacity:1;fill-rule:evenodd;stroke:none;stroke-width:.265162" transform="matrix(.48358 0 0 .48358 -20.056 -43.009)"/><path d="M81.334 175.409v-13.833h5.036q2.315 0 3.56.85 1.244.848 1.244 2.391 0 1.12-.762 1.959-.753.839-1.93 1.167v.038q1.476.184 2.354 1.09.887.907.887 2.21 0 1.9-1.36 3.019-1.36 1.109-3.713 1.109zm3.116-11.537v3.28h1.37q.965 0 1.514-.463.56-.473.56-1.293 0-1.524-2.277-1.524zm0 5.595v3.646h1.688q1.08 0 1.688-.501.618-.502.618-1.37 0-.83-.608-1.302-.598-.473-1.678-.473zm18.272 5.942h-8.296v-13.833h7.978v2.537h-4.862v3.077h4.524v2.528h-4.524v3.164h5.18zm12.399-11.296h-3.945v11.296h-3.126v-11.296h-3.926v-2.537h10.997zm13.086 11.296h-3.395l-.984-3.077h-4.92l-.974 3.077h-3.376l5.035-13.833h3.694zm-5.093-5.47-1.486-4.649q-.164-.52-.231-1.244h-.077q-.049.607-.242 1.205l-1.504 4.689z" style="font-weight:700;font-family:&quot;Segoe UI&quot;;display:inline;fill:#000;stroke-width:2.958" transform="matrix(.48024 0 0 .48024 -19.887 -42.562)"/></g></svg>