<svg xmlns="http://www.w3.org/2000/svg" xml:space="preserve" width="48" height="48"><defs><linearGradient id="c" x2="1" gradientTransform="matrix(0 73.25683 -73.25683 0 31.493 1.237)" gradientUnits="userSpaceOnUse"><stop offset="0" stop-color="#ff1b2d"/><stop offset=".3" stop-color="#ff1b2d"/><stop offset=".614" stop-color="#ff1b2d"/><stop offset="1" stop-color="#a70014"/></linearGradient><linearGradient id="d" x2="1" gradientTransform="matrix(0 64.79171 -64.79171 0 50.47 5.556)" gradientUnits="userSpaceOnUse"><stop offset="0" stop-color="#9c0000"/><stop offset=".7" stop-color="#ff4b4b"/><stop offset="1" stop-color="#ff4b4b"/></linearGradient></defs><path fill="url(#c)" d="M37.794.005C16.92.005 0 16.926 0 37.8 0 58.068 15.957 74.61 35.994 75.55a38 38 0 0 0 1.8.044c9.677 0 18.501-3.638 25.188-9.618-4.43 2.938-9.61 4.629-15.145 4.629-9 0-17.061-4.465-22.482-11.506-4.18-4.934-6.886-12.226-7.07-20.41v-1.78c.184-8.183 2.89-15.476 7.068-20.408C30.775 9.46 38.836 4.994 47.836 4.994c5.536 0 10.717 1.69 15.147 4.63C56.33 3.672 47.558.041 37.936.006l-.143-.002z" style="fill:url(#c);stroke-width:1.3333" transform="matrix(.54267 0 0 .54267 3.49 3.568)"/><path fill="url(#d)" d="M25.354 16.502c3.468-4.094 7.947-6.563 12.841-6.563 11.003 0 19.92 12.474 19.92 27.862s-8.918 27.862-19.92 27.862c-4.894 0-9.373-2.468-12.84-6.563 5.421 7.041 13.481 11.506 22.482 11.506 5.536 0 10.715-1.69 15.145-4.628 7.736-6.92 12.607-16.98 12.607-28.177s-4.87-21.254-12.604-28.174c-4.431-2.94-9.612-4.63-15.148-4.63-9 0-17.06 4.465-22.482 11.506" style="fill:url(#d);stroke-width:1.3333" transform="matrix(.54267 0 0 .54267 3.49 3.568)"/></svg>