<svg xmlns="http://www.w3.org/2000/svg" width="64" height="64"><linearGradient id="d" href="#a"/><linearGradient id="o" x1="35.002" x2="52.002" y1="32" y2="49" href="#b"/><linearGradient id="g" x1="6" x2="19" y1="32" y2="45" href="#b"/><linearGradient id="f" x1="32" x2="32" y1="58" y2="32" gradientUnits="userSpaceOnUse"><stop offset="0" stop-color="#fdad23"/><stop offset="1" stop-color="#fdc96f"/></linearGradient><linearGradient id="h" x1="32" x2="32" y1="32" y2="6" gradientUnits="userSpaceOnUse"><stop offset="0" stop-color="#27ad60"/><stop offset="1" stop-color="#58d68d"/></linearGradient><linearGradient id="e" x1="32" x2="32" y1="58" y2="32" gradientUnits="userSpaceOnUse"><stop offset="0" stop-color="#8e44ad"/><stop offset="1" stop-color="#af7ac4"/></linearGradient><linearGradient id="n" x1="32" x2="32" y1="35" y2="29" href="#a"/><linearGradient id="j" x1="32" x2="32" y1="36" y2="28" gradientUnits="userSpaceOnUse"><stop offset="0" stop-color="#5c7274"/><stop offset="1" stop-color="#a4a4a4"/></linearGradient><linearGradient id="p" y1="58" y2="40" href="#c"/><linearGradient id="l" x1="25.637" x2="57.998" y1="40.676" y2="40.676" gradientUnits="userSpaceOnUse"><stop offset="0" stop-color="#292c2f"/><stop offset="1" stop-color="#292c2f" stop-opacity="0"/></linearGradient><linearGradient id="m" x1="46" x2="53.135" y1="40" y2="47.135" href="#b"/><linearGradient id="b" gradientUnits="userSpaceOnUse"><stop offset="0" stop-color="#292c2f"/><stop offset="1" stop-opacity="0"/></linearGradient><linearGradient id="i" x1="32" x2="32" y1="32" y2="6" gradientUnits="userSpaceOnUse"><stop offset="0" stop-color="#1190d9"/><stop offset="1" stop-color="#73c4ef"/></linearGradient><linearGradient id="c" x1="32" x2="32" y1="41" y2="23" gradientUnits="userSpaceOnUse"><stop offset="0" stop-color="#cecece"/><stop offset="1" stop-color="#ececec"/></linearGradient><linearGradient id="a" x1="6" x2="6" y1="58" y2="6" gradientUnits="userSpaceOnUse"><stop offset="0" stop-color="#98a7b0"/><stop offset="1" stop-color="#dde1e3"/></linearGradient><linearGradient id="k" x1="26" x2="50" y1="26" y2="50" href="#b"/><path fill="url(#d)" d="M32 23a9 9 0 1 0 0 18 9 9 0 1 0 0-18m0 6c1.662 0 3 1.338 3 3s-1.338 3-3 3-3-1.338-3-3 1.338-3 3-3"/><path fill="url(#e)" d="M32.002 57V37a5 5 0 0 0 5-5H58c0 14.404-11.595 25-25.998 25"/><path fill="url(#f)" d="M31.998 57V37a5 5 0 0 1-5-5H6c0 14.404 11.595 25 25.998 25"/><path fill="url(#g)" d="m6 32 22 22 3.998-2.998v-6.277l-6.361-6.362.004-.004A9 9 0 0 1 23 32zm22.582 8.32a9 9 0 0 0 .272.1 9 9 0 0 1-.272-.1m.842.3a9 9 0 0 0 .306.077 9 9 0 0 1-.306-.078zm.879.214a9 9 0 0 0 .306.047 9 9 0 0 1-.306-.047m.875.125a9 9 0 0 0 .82.041 9 9 0 0 1-.82-.041" opacity=".1"/><path fill="url(#h)" d="M32 6v21a5 5 0 0 0-5 5H6.002C6.002 17.596 17.597 6 32 6"/><path fill="#292c2f" d="M6.025 31 6 32h18v-1z" opacity=".2"/><path fill="#ca902a" d="M6.002 31.191v.655c0 11.513 7.324 21.237 17.559 24.748l.976-.711C13.991 52.654 6.283 42.779 6.002 31.19z"/><path fill="url(#i)" d="M32 6v21a5 5 0 0 1 5 5h20.998C57.998 17.596 46.403 6 32 6"/><path fill="#292c2f" d="M40 31v1h17.998l-.025-1zm-8-4a5 5 0 1 0 0 10 5 5 0 0 0 0-10m0 2c1.662 0 3 1.338 3 3s-1.338 3-3 3-3-1.338-3-3 1.338-3 3-3" opacity=".2"/><path fill="url(#c)" d="M32 23a9 9 0 1 0 0 18 9 9 0 0 0 0-18m0 4a5 5 0 1 1 0 10 5 5 0 0 1 0-10"/><path fill="#292c2f" d="M37 28a1 1 0 1 1 0-2 1 1 0 0 1 0 2M27 38a1 1 0 1 1 0-2 1 1 0 0 1 0 2m1-11a1 1 0 1 1-2 0 1 1 0 0 1 2 0m10 10a1 1 0 1 1-2 0 1 1 0 0 1 2 0" opacity=".4"/><path fill="url(#j)" d="M32 28a4 4 0 1 0 0 8 4 4 0 0 0 0-8m0 1a3 3 0 1 1 0 6 3 3 0 0 1 0-6"/><path fill="#4d4d4d" d="M33 25a1 1 0 1 1-2 0 1 1 0 0 1 2 0m7 7a1 1 0 1 1-2 0 1 1 0 0 1 2 0m-7 7a1 1 0 1 1-2 0 1 1 0 0 1 2 0m-7-7a1 1 0 1 1-2 0 1 1 0 0 1 2 0"/><path fill="#7f8c8d" d="M40.979 32.424A9 9 0 0 1 32 41a9 9 0 0 1-8.979-8.424A9 9 0 0 0 23 33a9 9 0 1 0 18 0 9 9 0 0 0-.021-.576"/><path fill="url(#k)" d="M41 32a9 9 0 0 1-15.36 6.36l-.003.003 9.5 9.5L37 46l1-2 8-4 7.135 7.135a26 26 0 0 0 2.486-4.242L44.727 32zm11.967 15.389-.264.343zm-1.705 2.095-.162.17zM49.54 51.2l-.24.223zm-2.01 1.658-.306.229zm-2.203 1.475-.334.193zm-2.371 1.258-.066.03.004.003z" opacity=".3"/><path fill="url(#l)" d="M41 32h3.727l-6.27-6.27A9 9 0 0 1 41 32" opacity=".2"/><path fill="#292c2f" d="m46 40-8 4-1 2-3 3-10.447 7.6A26.1 26.1 0 0 0 32 58l.648-.016L37 52l3-3 2-1z" opacity=".2"/><path fill="url(#m)" d="m46 40-4 8-2 1-3 3-4.352 5.984a25.91 25.91 0 0 0 20.5-10.836z" opacity=".2"/><circle cx="32" cy="32" r="3" fill="url(#n)"/><path fill="url(#o)" d="m44.721 32 10.883 10.88A25.9 25.9 0 0 0 58 32z" opacity=".1"/><path fill="#6e3e86" d="M57.998 31.191c-.333 13.717-11.07 25.039-24.605 25.77l-.745 1.023c14.1-.345 25.35-11.868 25.35-26.138z"/><path fill="url(#p)" d="m46 40-8 4-1 2-3 3-10.447 7.6A26.1 26.1 0 0 0 32 58l.648-.016L37 52l3-3 2-1zm-6 4.586L41.414 46 40 47.414 38.586 46zM36.586 48 38 49.414l-.586.586H36v-1.414zM34 51a1 1 0 1 1 0 2 1 1 0 1 1 0-2m-3 2 2 2-1.654 1.984a25.5 25.5 0 0 1-4.516-.51zm-4.035 4.51.289.05z"/><path fill="#292c2f" d="M36 48.586 31 53l2 2 4.414-5H36zM38.586 46l-2 2L38 49.414l2-2zM44 42l-4 2.586L41.414 46z" opacity=".1"/></svg>