<svg xmlns="http://www.w3.org/2000/svg" width="128" height="128"><style>.B{stroke-linecap:round}.C{stroke-linejoin:round}.D{stroke-width:3.765}</style><defs><linearGradient id="A" x1="266" x2="265" y1="102" y2="101" gradientUnits="userSpaceOnUse"><stop offset="0" stop-color="#d5d3cf"/><stop offset="1" stop-color="#fff"/></linearGradient><clipPath id="B"><path fill="#e74747" d="m252 116 28-28v-8h-36v36z"/></clipPath></defs><g transform="translate(0 -172)"><g transform="matrix(-.3 0 0 -.2128 -12.8 247.36)"><rect width="346.67" height="451.13" x="-429.33" y="-190.96" fill="#1a5fb4" rx="26.667" ry="44.432"/><rect width="346.67" height="451.13" x="-429.33" y="-181.57" fill="#d5d3cf" rx="26.667" ry="44.432"/><rect width="346.67" height="451.13" x="-429.33" y="-153.37" fill="#f6f5f4" rx="26.667" ry="37.594"/></g><g fill="#d5d3cf"><circle cx="108" cy="252" r="2"/><circle cx="108" cy="242" r="2"/><circle cx="108" cy="232" r="2"/><circle cx="108" cy="222" r="2"/><circle cx="108" cy="212" r="2"/><circle cx="108" cy="202" r="2"/><circle cx="108" cy="192" r="2"/><circle cx="20" cy="272" r="2"/><circle cx="20" cy="262" r="2"/><circle cx="20" cy="252" r="2"/><circle cx="20" cy="242" r="2"/><circle cx="20" cy="232" r="2"/><circle cx="20" cy="222" r="2"/><circle cx="20" cy="212" r="2"/><circle cx="20" cy="202" r="2"/><circle cx="20" cy="192" r="2"/></g><path fill="none" stroke="#d5d3cf" stroke-width="2" d="M28 191h72m-72 10h72m-72 10h72m-72 10h72m-72 10h72m-72 10h72m-72 10h72m-72 10h72m-72 10h66" opacity=".3"/><g fill="none" stroke="#00000f" opacity=".1"><path stroke-width="6" d="m30 238-8 8"/><path stroke-width="12" d="M22 246 8 260" class="B"/><circle cx="52" cy="216" r="30.118" class="C D" opacity="1"/></g><g fill="none"><path stroke="#fff" stroke-width="1.638" d="m5.89 254.55 15.457-15.457" class="B" opacity=".154"/><g stroke-width="6"><path stroke="#949390" d="m30 236-8 8"/><path stroke="#d5d3cf" d="m30 234-8 8"/></g><g stroke-width="12" class="B"><path stroke="#241f31" d="M22 244 8 258"/><path stroke="#424048" d="M22 242 8 256"/></g></g><circle cx="-72" cy="212.06" r="29.938" fill="#fff" opacity=".5" transform="matrix(-1 0 0 1 -20 0)"/><g fill="none"><g class="C D"><circle cx="52" cy="214" r="30.118" stroke="#1a5fb4"/><circle cx="52" cy="212" r="30.118" stroke="#62a0ea"/></g><path stroke="#fff" stroke-width="2" d="m5 255 16-16" class="B" opacity=".154"/></g><rect width="36" height="36" x="252" y="88" fill="url(#A)" clip-path="url(#B)" rx="8" transform="matrix(0 1 1 0 0 0)"/></g></svg>