<svg xmlns="http://www.w3.org/2000/svg" width="48" height="48"><defs><linearGradient id="a" href="#b"><stop offset="0"/><stop offset="1" stop-opacity="0"/></linearGradient><linearGradient id="c" x1="-1051.935" x2="-1051.935" y1="-150.697" y2="327.66" href="#b"><stop offset="0" stop-opacity="0"/><stop offset=".5"/><stop offset="1" stop-opacity="0"/></linearGradient><linearGradient id="f" x1="27" x2="27.25" y1="38" y2="10.375" href="#b"><stop offset="0" stop-color="#d3d7cf"/><stop offset="1" stop-color="#e0e3dd"/></linearGradient><linearGradient id="h" x1="4" x2="8.125" y1="23" y2="60.875" href="#b"><stop offset="0" stop-color="#fff"/><stop offset="1" stop-color="#fff" stop-opacity="0"/></linearGradient><linearGradient id="i" x1="37.33" x2="41.689" y1="22.135" y2="22.135" href="#b"><stop offset="0" stop-color="#204a87"/><stop offset="1" stop-color="#204a87" stop-opacity="0"/></linearGradient><linearGradient id="j" x1="37.33" x2="40.628" y1="31.946" y2="31.946" href="#b"><stop offset="0" stop-color="#c00"/><stop offset="1" stop-color="#c00" stop-opacity="0"/></linearGradient><linearGradient id="b" gradientUnits="userSpaceOnUse"/><radialGradient id="e" cx="605.714" cy="486.648" r="117.143" fx="605.714" fy="486.648" gradientTransform="matrix(-2.77439 0 0 1.9697 112.762 -872.885)" href="#a"/><radialGradient id="d" cx="605.714" cy="486.648" r="117.143" fx="605.714" fy="486.648" gradientTransform="matrix(2.77439 0 0 1.9697 -1891.633 -872.885)" href="#a"/><radialGradient id="g" cx="21.92" cy="24.842" r="14.319" fx="21.92" fy="24.842" href="#b"><stop offset="0" stop-color="#fff"/><stop offset="1" stop-color="#fff" stop-opacity="0"/></radialGradient></defs><path fill="url(#c)" d="M-1559.252-150.697h1339.634V327.66h-1339.634z" opacity=".402" transform="matrix(.02295 0 0 .0176 44.55 39.846)"/><path fill="url(#d)" d="M-219.619-150.68v478.33c142.874.9 345.4-107.17 345.4-239.196S-33.655-150.68-219.619-150.68" opacity=".402" transform="matrix(.02295 0 0 .0176 44.55 39.846)"/><path fill="url(#e)" d="M-1559.252-150.68v478.33c-142.874.9-345.4-107.17-345.4-239.196s159.437-239.135 345.4-239.135z" opacity=".402" transform="matrix(.02295 0 0 .0176 44.55 39.846)"/><rect width="41" height="39" x="3.5" y="3.5" fill="url(#f)" stroke="#888a85" stroke-linejoin="round" rx="1.946" ry="1.818"/><path fill="url(#g)" d="M36.239 24.842a14.32 14.32 0 0 1-21.478 12.401 14.32 14.32 0 0 1 0-24.801 14.32 14.32 0 0 1 21.478 12.401z" opacity=".577" transform="matrix(1.23457 0 0 1.23457 -3.728 -6.767)"/><g fill="none"><rect width="39" height="37" x="4.5" y="4.5" stroke="url(#h)" stroke-linejoin="round" opacity=".6" rx=".975"/><path stroke="url(#i)" d="m6.718 37.338 7.248-11.73L20 31l7.961-12.161 8.134 4.378 5.094-16.285"/><path stroke="url(#j)" d="m6.718 37.338 7.236-4.524 5.921 3.334 7.948-9.292 8.063 3.057 5.303-3.358"/></g><path fill="#204a87" d="M15.938 26c0 1.105-.881 2-1.969 2S12 27.105 12 26s.881-2 1.969-2 1.969.895 1.969 2m6 5c0 1.105-.881 2-1.969 2S18 32.105 18 31s.881-2 1.969-2 1.969.895 1.969 2M30 19c0 1.105-.881 2-1.969 2s-1.969-.895-1.969-2 .881-2 1.969-2S30 17.895 30 19m7.938 4c0 1.105-.881 2-1.969 2S34 24.105 34 23s.881-2 1.969-2 1.969.895 1.969 2"/><path fill="#c00" d="M15.938 33c0 1.105-.881 2-1.969 2S12 34.105 12 33s.881-2 1.969-2 1.969.895 1.969 2m6 3c0 1.105-.881 2-1.969 2S18 37.105 18 36s.881-2 1.969-2 1.969.895 1.969 2m8-9c0 1.105-.881 2-1.969 2S26 28.105 26 27s.881-2 1.969-2 1.969.895 1.969 2m8 3c0 1.105-.881 2-1.969 2S34 31.105 34 30s.881-2 1.969-2 1.969.895 1.969 2"/></svg>