<svg xmlns="http://www.w3.org/2000/svg" width="128" height="128"><style>.B{stroke-width:2.009}.C{stroke-width:4.018}.D{stroke-width:6.027}</style><defs><linearGradient id="A" x1="135.203" x2="123.633" y1="239.791" y2="251.361" gradientUnits="userSpaceOnUse"><stop offset="0" stop-color="#f6f5f4"/><stop offset=".257" stop-color="#fff"/><stop offset=".6" stop-color="#c0bfbc"/><stop offset=".703" stop-color="#f6f5f4"/></linearGradient><linearGradient id="B" x1="144.278" x2="141.657" y1="238.96" y2="241.581" gradientUnits="userSpaceOnUse"><stop offset="0" stop-color="#c0bfbc"/><stop offset="1" stop-color="#f6f5f4"/></linearGradient><linearGradient id="C" x1="142" x2="198" y1="268" y2="268" gradientUnits="userSpaceOnUse"><stop offset="0" stop-color="#77767b"/><stop offset=".176" stop-color="#c0bfbc"/><stop offset=".409" stop-color="#77767b"/><stop offset="1" stop-color="#3d3846"/></linearGradient><path id="D" d="M27 240.01v16.001"/><path id="E" d="m125.41 214.44-16.971 16.971 8.367 8.367 3.653-3.418 4.243 4.243h2.828v2.828l2.121 2.121h4.243v4.243h2.828v2.828h5.657v5.657h2.828v2.828h12.728l4.95-4.95v-4.243z"/></defs><g transform="translate(0 -172)"><rect width="112" height="64" x="8" y="224" fill="#2ec27e" rx="8"/><g fill="none" stroke="#26a269"><use class="B" href="#D"/><use x="5" class="C" href="#D"/><g class="B"><use x="10" href="#D"/><use x="14" href="#D"/></g><g class="C"><use x="19" href="#D"/><use x="29" href="#D"/></g><use x="24" class="B" href="#D"/><use x="36" class="D" href="#D"/><g class="B"><use x="42" href="#D"/><use x="46" href="#D"/><use x="50" href="#D"/></g><use x="55" class="C" href="#D"/><g class="B"><use x="60" href="#D"/><use x="72" href="#D"/></g><use x="66" class="D" href="#D"/><g class="B"><use x="76" href="#D"/><use x="80" href="#D"/></g></g><path fill="#8ff0a4" d="m22.216 266 1.197 5.068-3.9-3.279-1.453 2.592 5.01 1.658-5.043 1.59 1.434 2.641 3.955-3.305-1.2 5.035h3.41l-1.102-4.959 3.834 3.314 1.477-2.619-4.978-1.686 5.117-1.426-1.453-2.619-4.033 3.084 1.137-5.09zm16 0 1.197 5.068-3.9-3.279-1.453 2.592 5.01 1.658-5.043 1.59 1.434 2.641 3.955-3.305-1.2 5.035h3.41l-1.102-4.959 3.834 3.314 1.477-2.619-4.979-1.686 5.117-1.426-1.453-2.619-4.033 3.084 1.137-5.09zm16 0 1.197 5.068-3.9-3.279-1.453 2.592 5.01 1.658-5.043 1.59 1.434 2.641 3.955-3.305-1.2 5.035h3.41l-1.102-4.959 3.834 3.314 1.477-2.619-4.979-1.686 5.117-1.426-1.453-2.619-4.033 3.084 1.137-5.09zm16 0 1.197 5.068-3.9-3.279-1.453 2.592 5.01 1.658-5.043 1.59 1.434 2.641 3.955-3.305-1.2 5.035h3.41l-1.102-4.959 3.834 3.314 1.477-2.619-4.978-1.686 5.117-1.426-1.453-2.619-4.033 3.084 1.137-5.09zm16 0 1.197 5.068-3.9-3.279-1.453 2.592 5.01 1.658-5.043 1.59 1.434 2.641 3.955-3.305-1.2 5.035h3.41l-1.102-4.959 3.834 3.314 1.477-2.619-4.978-1.686 5.117-1.426-1.453-2.619-4.033 3.084 1.137-5.09zm16.004 0 1.197 5.068-3.9-3.279-1.453 2.592 5.01 1.658-5.043 1.59 1.434 2.641 3.955-3.305-1.2 5.035h3.41l-1.102-4.959 3.834 3.314 1.477-2.619-4.978-1.686 5.117-1.426-1.453-2.619-4.033 3.084 1.137-5.09z"/><rect width="112" height="40" x="8" y="200" fill="#2ec27e" rx="8"/><path fill="#241f31" d="M8 214h112v18H8z"/><path fill="#26a269" fill-rule="evenodd" d="m22 242-7.2 6 7.2 6z"/><path fill="url(#C)" d="M170 296a28 28 0 1 1 0-56 28 28 0 1 1 0 56m.031-12a6.031 6 0 0 0 6.031-6 6.031 6 0 0 0-6.031-6 6.031 6 0 0 0-6.031 6 6.031 6 0 0 0 6.031 6" transform="rotate(180 107.5 242)"/><g transform="scale(-1 1)rotate(45 14.861 34.786)"><use fill="#77767b" href="#E"/><use x="-1.41" y="-1.41" fill="url(#A)" href="#E"/><path fill="url(#B)" d="M125.75 221.26c-1.794.002-2.678 2.182-1.393 3.434l33.585 33.586 2.828-2.828-33.586-33.586a2 2 0 0 0-1.436-.605z"/></g><path fill="#f6f5f4" d="M45 186a28 28 0 1 0 0 56 28 28 0 1 0 0-56m.031 12a6 6.031 90 0 1 6.031 6 6 6.031 90 0 1-6.031 6A6 6.031 90 0 1 39 204a6 6.031 90 0 1 6.031-6"/></g></svg>