<svg xmlns="http://www.w3.org/2000/svg" width="48" height="48" version="1.0"><defs><linearGradient id="a" x2="0" y1="543.8" y2="503.8" gradientTransform="matrix(1.04995 0 0 1.05 -373.29 -534.913)" gradientUnits="userSpaceOnUse"><stop stop-color="#c6cdd1"/><stop offset="1" stop-color="#e0e5e7"/></linearGradient><linearGradient id="b" x2="0" y1="543.8" y2="503.8" gradientTransform="matrix(1.04995 0 0 1.05 -452.978 -525.99)" gradientUnits="userSpaceOnUse"><stop stop-color="#c6cdd1"/><stop offset="1" stop-color="#e0e5e7"/></linearGradient></defs><path d="M-311.79 19.865V17.07ZM154.95-108.35v-2.794zM-41.154-321.614v-2.795zm-21.265 74.007v-1.053z" style="fill:#fff;fill-opacity:.756881;fill-rule:nonzero;stroke:none;stroke-width:.5;stroke-linecap:round;stroke-linejoin:round;stroke-miterlimit:4;stroke-dasharray:none;stroke-dashoffset:4;stroke-opacity:1"/><rect width="41.998" height="42" x="-45" y="3" fill="url(#a)" rx="20.999" style="fill:url(#b)" transform="scale(-1 1)"/><path fill="#99a1a7" d="M3.013 23.475C3.008 23.65 3 23.824 3 24c0 11.634 9.366 21 20.999 21a20.954 20.954 0 0 0 20.999-21c0-.176-.008-.35-.013-.525A20.95 20.95 0 0 1 24 43.95 20.947 20.947 0 0 1 3.013 23.475" style="stroke-width:2.93993;stroke-opacity:.55"/><path d="M8.773 23.644a9 9 0 0 0-.023.629A8.727 8.727 0 0 0 17.477 33a8.73 8.73 0 0 0 8.084-5.455h5.008v-1.09h-5.007a8.73 8.73 0 0 1-8.084 5.454 8.727 8.727 0 0 1-8.704-8.265Zm27.25 2.81v1.091h3.272v-1.09zm-5.455 3.273v1.091h5.455v-1.09z" style="opacity:.2;stroke-width:.545455"/><path d="M17.477 15a8.727 8.727 0 0 0-8.727 8.727 8.727 8.727 0 0 0 8.727 8.728A8.73 8.73 0 0 0 25.561 27h5.007v3.273h5.455V27h3.272v-6.545H25.563A8.73 8.73 0 0 0 17.477 15" style="fill:#4bae4f;stroke-width:.545455"/><circle cx="17.477" cy="24.273" r="3.273" style="opacity:.2;stroke-width:.545455"/><circle cx="17.477" cy="23.727" r="3.273" style="fill:#f9f9f9;stroke-width:.545455"/><path d="M17.477 15a8.727 8.727 0 0 0-8.704 8.099l-.011-.235a9 9 0 0 0-.012.318 9 9 0 0 0 .023.462 8.727 8.727 0 0 1 8.704-8.099A8.73 8.73 0 0 1 25.563 21h13.732v-.545H25.563A8.73 8.73 0 0 0 17.477 15" style="opacity:.2;fill:#fff;stroke-width:.545455"/></svg>