<svg xmlns="http://www.w3.org/2000/svg" viewBox="0 0 32 32"><defs><linearGradient id="c" x1="13.038" x2="19.009" y1="13.352" y2="19.137" href="#a"><stop offset="0" stop-color="#2d699f"/><stop offset="1" stop-color="#2f7abd"/></linearGradient><linearGradient id="d" x1="12.671" x2="17.399" y1="12.67" y2="16.981" href="#a"><stop offset="0"/><stop offset="1" stop-opacity="0"/></linearGradient><linearGradient id="b" x1="5.336" x2="26.457" y1="5.486" y2="27.284" href="#a"><stop offset="0" stop-color="#7d7d7e"/><stop offset="1" stop-color="#62616c"/></linearGradient><linearGradient id="e" x1="-27.371" x2="-2.87" y1="16.877" y2="45.464" href="#a"><stop offset="0" stop-color="#404040"/><stop offset="1" stop-color="#404040" stop-opacity="0"/></linearGradient><linearGradient id="f" x1="9.66" x2="22.637" y1="6.777" y2="25.088" href="#a"><stop offset="0" stop-color="#d3d3d4"/><stop offset="1" stop-color="#fff"/></linearGradient><linearGradient id="a" gradientUnits="userSpaceOnUse"/></defs><circle cx="16" cy="16" r="15.108" fill="url(#b)" fill-rule="evenodd"/><path fill="url(#c)" d="M20.621 15.992c0 4.11-4.969 6.168-7.876 3.262s-.848-7.876 3.262-7.876a4.613 4.613 0 0 1 4.613 4.613z"/><path fill="url(#d)" d="M16.003 11.369c-4.11 0-6.167 4.97-3.261 7.876a5 5 0 0 0 .493.432c-2.062-2.939-.014-7.23 3.806-7.23 1.036 0 1.993.341 2.762.917a4.61 4.61 0 0 0-3.8-1.995" opacity=".352"/><path fill="url(#e)" d="M15.346 24.234a9.2 9.2 0 0 0 2.042-.228l2.236 2.046a11.8 11.8 0 0 0 3.077-1.779l-.655-2.963a9.1 9.1 0 0 0 2.046-3.536l2.889-.913a11.9 11.9 0 0 0 0-3.551l-2.889-.913a9.14 9.14 0 0 0-2.046-3.538l.655-2.959a11.8 11.8 0 0 0-3.077-1.779l-2.236 2.042a9.1 9.1 0 0 0-4.085 0l-2.236-2.042A11.8 11.8 0 0 0 7.99 5.9l.655 2.959a9.1 9.1 0 0 0-2.046 3.536l-2.889.913a11.9 11.9 0 0 0 0 3.551l2.889.913a9.14 9.14 0 0 0 2.046 3.538l-.655 2.96a11.8 11.8 0 0 0 3.077 1.779l2.236-2.042a9.2 9.2 0 0 0 2.042.228zm-4.176-9.149c0-3.721 4.498-5.583 7.128-2.953s.768 7.128-2.953 7.128a4.176 4.176 0 0 1-4.176-4.176z"/><path fill="url(#f)" d="M15.932 25.092a9.2 9.2 0 0 0 2.042-.228l2.236 2.046a11.8 11.8 0 0 0 3.077-1.779l-.655-2.963a9.1 9.1 0 0 0 2.046-3.536l2.889-.913a11.9 11.9 0 0 0 0-3.551l-2.889-.913a9.14 9.14 0 0 0-2.046-3.538l.655-2.959a11.8 11.8 0 0 0-3.077-1.779l-2.236 2.042a9.1 9.1 0 0 0-4.085 0l-2.236-2.042a11.8 11.8 0 0 0-3.077 1.779l.655 2.959a9.1 9.1 0 0 0-2.046 3.536l-2.889.913a11.9 11.9 0 0 0 0 3.551l2.889.913a9.14 9.14 0 0 0 2.046 3.538l-.655 2.959a11.8 11.8 0 0 0 3.077 1.779l2.236-2.042a9.2 9.2 0 0 0 2.042.228zm-4.176-9.149c0-3.721 4.498-5.583 7.128-2.953s.768 7.128-2.953 7.128a4.176 4.176 0 0 1-4.176-4.176z"/></svg>