<svg xmlns="http://www.w3.org/2000/svg" width="48" height="48"><defs><linearGradient id="b" x1="-51.07" x2="-51.07" href="#a"><stop offset="0" stop-color="#197cf1"/><stop offset="1" stop-color="#20bcfa"/></linearGradient><linearGradient id="c" x1="-2.216" x2="-2.216" y1="44.664" y2="10.222" href="#b"/><linearGradient id="g" x2="0" y1="10" y2="14" href="#a"><stop offset="0" stop-color="#1d1e1e"/><stop offset="1" stop-color="#44484c"/></linearGradient><linearGradient id="e" y1="14" y2="10" href="#b"/><linearGradient id="h" x1="-422.3" x2="-422.3" y1="16.504" y2="2.936" href="#b"/><linearGradient id="d" x1="-478.08" x2="-478.08" y1="44.684" y2="13.373" href="#b"/><linearGradient id="i" x1="27.786" x2="48.001" y1="14.976" y2="34.291" href="#a"><stop offset="0" stop-color="#292c2f"/><stop offset="1" stop-opacity="0"/></linearGradient><linearGradient id="a" gradientUnits="userSpaceOnUse"/><path id="f" fill-rule="evenodd" d="m10 10-1 1 1 1-4 2h36l-4-2 1-1-1-1H24z"/></defs><path fill="url(#c)" fill-rule="evenodd" d="M7.615 10.221v2.087l1.092-1.044zm32.77 0-1.092 1.044 1.092 1.044z"/><path fill="url(#d)" d="M4.338 13.352v24.885a6.71 6.411 0 0 0 6.724 6.425h25.875a6.71 6.411 0 0 0 6.724-6.425V13.352h-32.6z"/><g transform="matrix(1.0923 0 0 1.0437 -2.216 -1.26)"><use fill="url(#e)" href="#f"/><use fill="url(#g)" href="#f" opacity=".6"/></g><path d="m8.707 9.177-1.092 1.044h32.77l-1.092-1.044H24z" opacity=".2"/><path fill="url(#h)" d="M15.261 16.483v-5.218c0-4.625 3.898-8.349 8.739-8.349s8.739 3.724 8.739 8.349v5.218h-1.092v-5.218c0-4.047-3.41-7.306-7.646-7.306s-7.646 3.258-7.646 7.306v5.218z"/><path fill="#bddfe3" d="M15.809 14.394a1.639 1.566 0 0 1 1.638 1.566 1.639 1.566 0 0 1-1.639 1.565 1.639 1.566 0 0 1-1.639-1.565 1.639 1.566 0 0 1 1.639-1.565m0 1.044a.546.522 0 0 0-.546.522.546.522 0 0 0 .546.522.546.522 0 0 0 .546-.522.546.522 0 0 0-.546-.522m16.385-1.043a1.639 1.566 0 0 0-1.639 1.566 1.639 1.566 0 0 0 1.639 1.566 1.639 1.566 0 0 0 1.639-1.565 1.639 1.566 0 0 0-1.639-1.565m0 1.044a.546.522 0 0 1 .546.522.546.522 0 0 1-.546.522.546.522 0 0 1-.546-.522.546.522 0 0 1 .546-.522"/><path fill="#1c5593" d="M43.662 37.069a6.71 6.411 0 0 1-6.724 6.425H11.063a6.71 6.411 0 0 1-6.724-6.425v1.168a6.71 6.411 0 0 0 6.724 6.425h25.875a6.71 6.411 0 0 0 6.724-6.425z"/><path fill="url(#i)" d="M22.421 44.662h14.42l.67-.031.663-.094.651-.158.629-.219.606-.277q.294-.153.571-.334c.277-.181.364-.249.535-.386a7 7 0 0 0 .492-.436 6 6 0 0 0 .443-.48 6 6 0 0 0 .393-.52q.182-.27.334-.557a6 6 0 0 0 .275-.582 6 6 0 0 0 .213-.607q.09-.31.147-.626a8 8 0 0 0 .083-.637L32.977 22.229l-12.968-1.646-.147 10.636 2.697 3.329 2.818.757 2.546 1.491-5.478-8.172-5.472-7.907-1.881 14.795z" opacity=".2"/><path fill="#bddfe3" d="M33.738 36.723v-12.06a4.175 4.175 0 0 0-4.175-4.175h-9.277a.464.464 0 0 0-.464.464v10.205a.464.464 0 0 0 .464.464h1.855a.464.464 0 0 0 .464-.464v-7.422a.464.464 0 0 1 .464-.464h1.855a.464.464 0 0 1 .464.464v7.422a.464.464 0 0 0 .464.464h1.855a.464.464 0 0 0 .464-.464v-7.422a.464.464 0 0 1 .464-.464h.928a1.39 1.39 0 0 1 1.392 1.392v9.277a.464.464 0 0 1-.464.464h-12.06a1.39 1.39 0 0 1-1.392-1.392v-12.06a.464.464 0 0 0-.464-.464H14.72a.464.464 0 0 0-.464.464v12.06a4.175 4.175 0 0 0 4.175 4.175h14.843a.464.464 0 0 0 .464-.464"/></svg>