<svg xmlns="http://www.w3.org/2000/svg" width="48" height="48" xmlns:v="https://vecta.io/nano"><defs><linearGradient id="A" gradientUnits="userSpaceOnUse"><stop offset="0" stop-color="#31363b" stop-opacity=".208"/><stop offset="1" stop-color="#31363b" stop-opacity="0"/></linearGradient><linearGradient href="#A" id="B" x1="31.969" x2="45.969" y1="17" y2="31"/><linearGradient href="#A" id="C" x1="27.063" x2="41.947" y1="15.1" y2="27.487"/><linearGradient href="#A" id="D" x1="14.755" x2="29.639" y1="27.761" y2="40.148"/><linearGradient href="#A" id="E" x1="19.099" x2="33.099" y1="29.83" y2="43.83"/><linearGradient id="F" x1="24.215" y1="4.419" x2="24.215" y2="43.494" gradientUnits="userSpaceOnUse"><stop stop-color="#111d2e" offset="0%"/><stop stop-color="#051839" offset="21.2%"/><stop stop-color="#0a1b48" offset="40.7%"/><stop stop-color="#132e62" offset="58.1%"/><stop stop-color="#144b7e" offset="73.8%"/><stop stop-color="#136497" offset="87.3%"/><stop stop-color="#1387b8" offset="100%"/></linearGradient></defs><circle cx="24" cy="24" r="20" fill="url(#F)"/><g fill-rule="evenodd"><path d="M26.586 23.663l8.105-.42 1.91-6.755-5.591-4.442-6.872 5.833z" fill="url(#C)"/><path d="M31.028 23.995L35 23l1.977-2.976-4-4-4.95 4.97z" fill="url(#B)"/><path d="M15.316 35.706l6.36-.64 1.357-7.552-6.63-1.768-3.8 4.574z" fill="url(#D)"/><path d="M16.985 35.872l3.973-.417 2.21-3.445-3.062-3.156-6.933 3.987z" fill="url(#E)"/></g><path d="M23.011 18.855l.002.099-4.904 7.124c-.794-.036-1.591.103-2.347.415a5.1 5.1 0 0 0-.938.501l-10.77-4.439s-.304 3.881.789 7.155l7.614 3.142c.376 1.709 1.553 3.207 3.283 3.927 2.834 1.177 6.086-.163 7.267-2.995a5.57 5.57 0 0 0 .428-2.29l7.01-5.014.172.003c4.199 0 7.613-3.423 7.613-7.629a7.63 7.63 0 0 0-7.613-7.625 7.63 7.63 0 0 0-7.613 7.625zm-1.177 14.437a4.29 4.29 0 0 1-5.607 2.314c-.969-.407-1.755-1.157-2.207-2.106l2.478 1.027c1.61.67 3.459-.092 4.128-1.703s-.09-3.461-1.7-4.134l-2.568-1.062a4.26 4.26 0 0 1 3.163.048c1.065.44 1.879 1.27 2.315 2.33s.433 2.23-.006 3.286m8.796-9.354c-2.802-.008-5.07-2.28-5.072-5.081.003-2.801 2.271-5.073 5.072-5.08 2.802.007 5.07 2.278 5.073 5.08-.002 2.802-2.271 5.074-5.073 5.081m-3.801-5.089c-.002-2.105 1.703-3.814 3.808-3.817s3.811 1.71 3.811 3.817-1.705 3.814-3.811 3.816c-2.105-.003-3.81-1.711-3.809-3.816z" fill="#fff"/></svg>