<svg xmlns="http://www.w3.org/2000/svg" width="48" height="48" xmlns:v="https://vecta.io/nano"><defs><linearGradient id="A" x2="0" y1="543.8" y2="503.8" href="#F"><stop stop-color="#c6cdd1"/><stop offset="1" stop-color="#e0e5e7"/></linearGradient><linearGradient id="B" x2="384.57" y1="512.8" y2="532.8" x1="384.57" href="#F"><stop stop-color="#f67400"/><stop offset="1" stop-color="#fdbc4b"/></linearGradient><linearGradient href="#B" id="C" y1="541.8" y2="505.8"/><linearGradient id="D" x1="410.57" x2="428.57" y1="539.8" y2="523.8" href="#F"><stop stop-color="#f67400"/><stop offset="1" stop-color="#f67400" stop-opacity="0"/></linearGradient><linearGradient id="E" x1="402.57" x2="418.57" y1="520.8" y2="536.8" href="#F"><stop stop-color="#292c2f"/><stop offset="1" stop-opacity="0"/></linearGradient><linearGradient id="F" gradientUnits="userSpaceOnUse"/></defs><g transform="translate(-384.57 -499.8)"><rect width="40" height="40" x="388.57" y="503.8" fill="url(#A)" rx="20"/><path fill="url(#B)" d="m408.57 512.8-9 9h5v11h8v-11h5z"/><path fill="gray" d="M408.57 541.8c9.972 0 18-8.03 18-18s-8.03-18-18-18v2c8.864 0 16 7.136 16 16s-7.136 16-16 16z" opacity=".5"/><path fill="url(#D)" d="M408.57 505.8c-9.972 0-18 8.03-18 18s8.03 18 18 18 18-8.03 18-18-8.03-18-18-18m0 2c8.864 0 16 7.136 16 16s-7.136 16-16 16-16-7.136-16-16 7.136-16 16-16"/><path fill="url(#C)" d="M24 42v-2c-8.864 0-16-7.136-16-16S15.136 8 24 8V6C14.028 6 6 14.03 6 24s8.03 18 18 18" transform="translate(384.57 499.8)"/><path fill="#99a1a7" d="M388.58 523.3l-.012.5a19.96 19.96 0 1 0 40 0l-.012-.5a19.953 19.953 0 0 1-19.988 19.5 19.95 19.95 0 0 1-19.988-19.5"/><path fill="url(#E)" fill-rule="evenodd" d="M412.57 521.8v11h-8l10.06 10.06a19.95 19.95 0 0 0 12.467-11.533l-9.531-9.531z" opacity=".2"/></g></svg>