<svg xmlns="http://www.w3.org/2000/svg" xml:space="preserve" width="48" height="48"><path fill="#1d9bf0" d="M40.802 15.38c.026.373.026.745.026 1.121 0 11.456-8.72 24.667-24.667 24.667v-.007a24.54 24.54 0 0 1-13.29-3.887q1.029.124 2.064.126a17.4 17.4 0 0 0 10.767-3.719 8.68 8.68 0 0 1-8.099-6.02c1.3.25 2.639.199 3.914-.15a8.67 8.67 0 0 1-6.954-8.497v-.11a8.6 8.6 0 0 0 3.934 1.085A8.68 8.68 0 0 1 5.814 8.413a24.6 24.6 0 0 0 17.868 9.057 8.679 8.679 0 0 1 14.774-7.907A17.4 17.4 0 0 0 43.96 7.46a8.7 8.7 0 0 1-3.811 4.794 17.2 17.2 0 0 0 4.978-1.364 17.6 17.6 0 0 1-4.326 4.49z" style="stroke-width:.17167"/></svg>