<svg xmlns="http://www.w3.org/2000/svg" xml:space="preserve" width="48" height="48"><defs><linearGradient id="e" x1="184.354" x2="176.727" y1="20.419" y2="245.417" gradientUnits="userSpaceOnUse"><stop stop-color="#87BDFF"/><stop offset=".971" stop-color="#4791CE"/></linearGradient><clipPath id="b"><path fill="#fff" d="M0 0h256v256H0z"/></clipPath></defs><g clip-path="url(#b)" style="fill:none" transform="matrix(.16098 0 0 .16098 3.394 3.394)"><path fill="#304059" d="M198.54 256H57.46a57.46 57.46 0 0 1-40.613-16.823A57.5 57.5 0 0 1 0 198.54V57.46c0-15.218 6.077-29.842 16.848-40.613A57.6 57.6 0 0 1 57.46 0l141.08.024a57.48 57.48 0 0 1 40.637 16.824A57.46 57.46 0 0 1 256 57.46v141.08a57.48 57.48 0 0 1-16.823 40.637A57.48 57.48 0 0 1 198.54 256"/><mask id="c" width="256" height="256" x="0" y="0" maskUnits="userSpaceOnUse"><path fill="#fff" d="M198.54 256H57.46a57.46 57.46 0 0 1-40.613-16.823A57.5 57.5 0 0 1 0 198.54V57.46c0-15.218 6.077-29.842 16.848-40.613A57.6 57.6 0 0 1 57.46 0l141.08.024a57.48 57.48 0 0 1 40.637 16.824A57.46 57.46 0 0 1 256 57.46v141.08a57.48 57.48 0 0 1-16.823 40.637A57.48 57.48 0 0 1 198.54 256"/></mask><g mask="url(#c)"><path fill="#304059" d="M198.542 243.642H57.458c-24.892 0-45.1-20.208-45.1-45.1V57.458c0-24.891 20.208-45.1 45.1-45.1h141.084c24.891 0 45.1 20.209 45.1 45.1v141.084c0 24.892-20.209 45.1-45.1 45.1"/><mask id="d" width="232" height="232" x="12" y="12" maskUnits="userSpaceOnUse"><path fill="#fff" d="M198.542 243.642H57.458c-24.892 0-45.1-20.208-45.1-45.1V57.458c0-24.891 20.208-45.1 45.1-45.1h141.084c24.891 0 45.1 20.209 45.1 45.1v141.084c0 24.892-20.209 45.1-45.1 45.1"/></mask><g mask="url(#d)"><path fill="#4791ce" d="M127.992 50.92H89.447V12.373h38.545z"/><path fill="#87bdff" d="M127.992 89.464H89.447V50.919h38.545z"/><path fill="#4791ce" d="M127.992 128.008H89.447V89.464h38.545z"/><path fill="#87bdff" d="M127.992 166.553H89.447v-38.545h38.545z"/><path fill="#4791ce" d="M127.992 205.098H89.447v-38.545h38.545z"/><path fill="#87bdff" d="M127.992 243.642H89.447v-38.544h38.545zM89.447 50.92H50.902V12.373h38.545z"/><path fill="#4791ce" d="M89.447 89.464H50.902V50.919h38.545z"/><path fill="#87bdff" d="M89.447 128.008H50.902V89.464h38.545z"/><path fill="#4791ce" d="M89.447 166.553H50.902v-38.545h38.545z"/><path fill="#87bdff" d="M89.447 205.098H50.902v-38.545h38.545z"/><path fill="#4791ce" d="M89.447 243.642H50.902v-38.544h38.545zM50.902 50.92H12.358V12.375h38.544z"/><path fill="#87bdff" d="M50.902 89.464H12.358V50.919h38.544z"/><path fill="#4791ce" d="M50.902 128.008H12.358V89.464h38.544z"/><path fill="#87bdff" d="M50.902 166.553H12.358v-38.545h38.544z"/><path fill="#4791ce" d="M50.902 205.098H12.358v-38.545h38.544z"/><path fill="#87bdff" d="M50.902 243.642H12.358v-38.544h38.544z"/><path fill="url(#e)" d="M243.642 243.659H128V12.374h115.642z" style="fill:url(#e)"/><path fill="#304059" d="M156.701 128c0 15.845-12.864 28.71-28.709 28.71-15.846 0-28.71-12.865-28.71-28.71s12.864-28.71 28.71-28.71 28.709 12.865 28.709 28.71"/><path fill="#87bdff" d="m148.396 128-6.261-4.246-6.261-4.245v16.983l6.261-4.246zM107.588 128l6.269-4.246 6.269-4.245v16.983l-6.269-4.246z"/></g><path fill="#304059" d="M134.182 247.202h-12.364V8.799h12.364z"/></g></g></svg>