<svg xmlns="http://www.w3.org/2000/svg" width="48" height="48"><defs><linearGradient id="a" x1="142.697" x2="359.597" y1="80.391" y2="456.066" gradientUnits="userSpaceOnUse"><stop offset="0%" stop-opacity=".2"/><stop offset="79.08%" stop-opacity=".05"/></linearGradient></defs><path fill="#ef3939" d="M24 44.392c8.966 0 13.949 0 17.213-3.247 3.256-3.247 3.256-8.211 3.256-17.15s0-13.904-3.256-17.15C37.949 3.608 32.966 3.608 24 3.608s-13.949 0-17.213 3.247c-3.256 3.247-3.256 8.211-3.256 17.15s0 13.904 3.256 17.15c3.265 3.238 8.247 3.238 17.213 3.238z"/><path fill="url(#a)" d="M376 143.7c-21.8-38.1-58.3-67.8-104.2-80.1C180.7 39.3 87.1 93.1 62.7 183.8c-12.3 45.6-4.7 91.9 17.5 129.7.3.5.6 1.1 1 1.6l80.2 138.5c13.3.4 27.7.5 43.2.5h22.6c44.3 0 79.9 0 109-3.2 36.3-4 62.3-12.9 82.4-32.9 29.3-29.2 34.9-71 36-138.7z" transform="matrix(.08993 0 0 .08993 3.495 3.536)"/><path fill="#fff" d="M34.774 13.212c-5.981-5.972-15.684-5.972-21.674 0a15.26 15.26 0 0 0 0 21.611c5.981 5.972 15.684 5.972 21.674 0s5.99-15.648 0-21.611m-.917 7.024-7.581 13.148c-.468.818-1.151 1.304-2.086 1.376a2.44 2.44 0 0 1-2.401-1.268l-4.766-8.256-2.896-5.027c-.971-1.691.126-3.75 2.068-3.849 1.025-.054 1.817.423 2.338 1.313l2.122 3.669 1.529 2.635c.755 1.268 1.871 1.979 3.355 2.068 2.095.126 4.047-1.394 4.299-3.615.018-.162.027-.333.036-.414-.009-.719-.144-1.331-.432-1.898a2.54 2.54 0 0 1 1.754-3.696c1.385-.306 2.824.71 3.004 2.113.09.603-.036 1.169-.342 1.7z"/></svg>