<svg xmlns="http://www.w3.org/2000/svg" width="48" height="48" xmlns:v="https://vecta.io/nano"><defs><linearGradient id="A" x2="-384.57" y1="44" y2="4" gradientUnits="userSpaceOnUse" x1="-384.57"><stop stop-color="#ddd" offset="0"/><stop offset="1" stop-color="#fff"/></linearGradient><linearGradient id="B" gradientUnits="userSpaceOnUse" x1="9.708" y1="9.953" x2="37.34" y2="36.614"><stop offset="0" stop-color="#5696e2"/><stop offset="1" stop-color="#2367bc"/></linearGradient></defs><rect width="40" height="40" x="4" y="4" fill="url(#A)" rx="20"/><path fill="#687178" d="M4.01 23.5l-.012.5a19.96 19.96 0 0 0 20 20 19.96 19.96 0 0 0 20-20l-.012-.5A19.953 19.953 0 0 1 23.998 43 19.95 19.95 0 0 1 4.01 23.5" opacity=".505"/><path d="M23.503 10.231a1.75 1.75 0 0 0-.525 2.421c2.89 4.475 3.572 7.85 3.276 10.808-1.196 5.664-3.796 6.813-6.068 6.813-2.218 0-1.624-3.65.043-4.719.995-.621 2.27-1.025 3.249-1.025.97 0 1.756-.783 1.756-1.75s-.786-1.75-1.756-1.75c-1.143 0-2.264.24-3.31.649.214-1.009.293-2.099.016-3.258-.42-1.76-1.628-3.44-3.725-5.07a1.76 1.76 0 0 0-1.295-.357c-.462.057-.883.295-1.169.661a1.75 1.75 0 0 0 .308 2.457c1.709 1.327 2.273 2.31 2.466 3.118s.038 1.676-.35 2.868c-.495 1.606-1.07 3.041-1.323 4.416-.124.677-.135 1.413-.167 2.002-1.231-1.199-1.712-2.783-1.712-5.097 0-.967-.786-1.75-1.756-1.75s-1.754.784-1.754 1.75c0 3.16.924 6.167 3.401 8.173 2.242 2.136 7.944 1.347 7.944 4.776 0 .968 1.417 1.439 2.386 1.439.994 0 2.245-.665 2.245-1.439 0-3.891 4.1-6.256 10.851-6.245.97.001 1.756-.781 1.758-1.748s-.783-1.752-1.752-1.754a22.36 22.36 0 0 0-1.355.041c.755-1.775 1.089-3.729 1.02-5.839-.032-.966-.843-1.724-1.812-1.692s-1.73.841-1.698 1.808c.091 2.764-.012 5.231-2.071 6.532-.585.37-1.266.69-1.911.69.501-1.363.88-2.802 1.034-4.352.099-.99.109-2.165-.003-3.079-.175-1.415-.387-3.02.15-4.228.483-1.041 1.564-1.477 3.151-1.477.969-.001 1.754-.784 1.754-1.75s-.785-1.751-1.754-1.752c-2.359 0-4.147 1.241-5.16 2.741-.53-1.132-1.175-2.298-1.955-3.506-.252-.39-.649-.664-1.103-.763-.225-.049-.458-.053-.685-.013a1.76 1.76 0 0 0-.638.25z" fill="url(#B)"/></svg>