<svg xmlns="http://www.w3.org/2000/svg" width="48" height="48"><defs><filter id="b" width="116.727" height="92.246" x="-8.394" y="15.829" color-interpolation-filters="sRGB" filterUnits="userSpaceOnUse"><feFlood flood-opacity="0" result="A"/><feColorMatrix in="SourceAlpha" values="0 0 0 0 0 0 0 0 0 0 0 0 0 0 0 0 0 0 127 0"/><feOffset/><feGaussianBlur stdDeviation="4.167"/><feColorMatrix values="0 0 0 0 0 0 0 0 0 0 0 0 0 0 0 0 0 0 0.25 0"/><feBlend in2="A" mode="overlay"/><feBlend in="SourceGraphic"/></filter><filter id="c" width="47.917" height="116.151" x="60.417" y="-8.076" color-interpolation-filters="sRGB" filterUnits="userSpaceOnUse"><feFlood flood-opacity="0" result="A"/><feColorMatrix in="SourceAlpha" values="0 0 0 0 0 0 0 0 0 0 0 0 0 0 0 0 0 0 127 0"/><feOffset/><feGaussianBlur stdDeviation="4.167"/><feColorMatrix values="0 0 0 0 0 0 0 0 0 0 0 0 0 0 0 0 0 0 0.25 0"/><feBlend in2="A" mode="overlay"/><feBlend in="SourceGraphic"/></filter><linearGradient id="d" x1="49.939" x2="49.939" y1=".258" y2="99.742" gradientUnits="userSpaceOnUse"><stop stop-color="#fff"/><stop offset="1" stop-color="#fff" stop-opacity="0"/></linearGradient><mask id="a" width="100" height="100" x="0" y="0" mask-type="alpha" maskUnits="userSpaceOnUse"><path fill="#fff" fill-rule="evenodd" d="M70.912 99.317a6.22 6.22 0 0 0 4.961-.191l20.588-9.907A6.25 6.25 0 0 0 100 83.587V16.413a6.25 6.25 0 0 0-3.539-5.632L75.873.874a6.23 6.23 0 0 0-6.359.573 6 6 0 0 0-.744.636L29.355 38.042 12.187 25.01a4.16 4.16 0 0 0-5.318.236l-5.506 5.009a4.17 4.17 0 0 0-.004 6.162L16.247 50 1.359 63.583a4.17 4.17 0 0 0 .004 6.162l5.506 5.009a4.16 4.16 0 0 0 5.318.236l17.168-13.032 39.414 35.958a6.2 6.2 0 0 0 2.143 1.4zm4.103-72.018L45.109 50l29.906 22.701z"/></mask></defs><g mask="url(#a)" transform="matrix(.4193 0 0 .4193 3.029 3.034)"><path fill="#0065a9" d="M96.461 10.796 75.857.876a6.23 6.23 0 0 0-7.107 1.208l-67.451 61.5a4.17 4.17 0 0 0 .004 6.162l5.51 5.009a4.17 4.17 0 0 0 5.321.237L93.361 13.37c2.725-2.067 6.639-.124 6.639 3.297v-.239a6.25 6.25 0 0 0-3.539-5.631z"/><g filter="url(#b)"><path fill="#007acc" d="m96.461 89.204-20.604 9.921a6.23 6.23 0 0 1-7.107-1.208l-67.451-61.5a4.17 4.17 0 0 1 .004-6.162l5.51-5.009a4.166 4.166 0 0 1 5.321-.236l81.227 61.62c2.725 2.067 6.639.124 6.639-3.297v.239a6.25 6.25 0 0 1-3.539 5.631z"/></g><g filter="url(#c)"><path fill="#1f9cf0" d="M75.858 99.126a6.23 6.23 0 0 1-7.108-1.21c2.306 2.306 6.25.673 6.25-2.589V4.672c0-3.262-3.944-4.895-6.25-2.589A6.23 6.23 0 0 1 75.858.874l20.601 9.907A6.25 6.25 0 0 1 100 16.413v67.174a6.25 6.25 0 0 1-3.541 5.633z"/></g><path fill="url(#d)" fill-rule="evenodd" d="M70.851 99.317a6.22 6.22 0 0 0 4.961-.191L96.4 89.22a6.25 6.25 0 0 0 3.539-5.633V16.413A6.25 6.25 0 0 0 96.4 10.78L75.812.874a6.23 6.23 0 0 0-7.103 1.209L29.294 38.041 12.126 25.01a4.16 4.16 0 0 0-5.318.236l-5.506 5.009a4.17 4.17 0 0 0-.004 6.162L16.186 50 1.298 63.583a4.17 4.17 0 0 0 .004 6.162l5.506 5.009a4.16 4.16 0 0 0 5.318.237l17.168-13.032 39.414 35.958a6.2 6.2 0 0 0 2.143 1.4m4.103-72.018L45.048 50l29.906 22.701z" opacity=".25" style="mix-blend-mode:overlay"/></g></svg>