<svg xmlns="http://www.w3.org/2000/svg" width="48" height="48"><defs><linearGradient id="a" x1="2.55" x2="3.16" y1="949.31" y2="950.36" gradientTransform="matrix(256 0 0 -256 -255 243457)" gradientUnits="userSpaceOnUse"><stop offset="0" stop-color="#0845bf"/><stop offset=".19" stop-color="#0950de"/><stop offset=".38" stop-color="#0b59f6"/><stop offset=".5" stop-color="#0b5cff"/><stop offset=".67" stop-color="#0e5efe"/><stop offset=".78" stop-color="#1665fc"/><stop offset=".86" stop-color="#246ff9"/><stop offset=".94" stop-color="#387ff4"/><stop offset="1" stop-color="#4f90ee"/></linearGradient></defs><path fill="url(#a)" d="M623.99 299.46c0 15.66-1.18 31.32-3.84 46.38-7.98 49.93-47.57 89.52-97.5 97.5-15.07 2.66-30.73 3.84-46.38 3.84s-31.32-1.18-46.38-3.84c-49.93-7.98-89.52-47.57-97.5-97.5-2.66-15.07-3.84-30.73-3.84-46.38s1.18-31.32 3.84-46.38c7.98-49.93 47.57-89.52 97.5-97.5 15.07-2.66 30.73-3.84 46.38-3.84s31.32 1.18 46.38 3.84c49.93 7.98 89.52 47.57 97.5 97.5 2.66 15.07 3.84 30.73 3.84 46.38" transform="matrix(.14244 0 0 .14244 -43.849 -18.645)"/><path fill="#fff" d="M20.669 30.67H9.881c-.714 0-1.39-.375-1.719-1.014a1.87 1.87 0 0 1 .338-2.184l7.506-7.499c-2.414-.281-7.989 1.241-8.055-2.676h9.938c.714 0 1.39.375 1.719 1.014a1.87 1.87 0 0 1-.338 2.184l-7.506 7.499h6.226a2.675 2.675 0 0 1 2.679 2.676m14.058-13.473a5.18 5.18 0 0 0-3.886 1.735c-2.988-3.584-9.253-1.107-9.097 3.572v8.267c3.984-.077 2.37-5.833 2.679-8.294.04-3.383 5.002-3.44 5.084-.064v5.682a2.675 2.675 0 0 0 2.679 2.676v-8.294c.041-3.384 5.002-3.438 5.084-.064v5.682a2.675 2.675 0 0 0 2.678 2.676c-.264-4.492 1.753-13.395-5.22-13.574z"/></svg>