<svg xmlns="http://www.w3.org/2000/svg" height="64" viewBox="0 0 48 48" width="64" xmlns:v="https://vecta.io/nano"><defs><linearGradient id="A" x1="35.974" y1="78.659" x2="35.974" y2="29.03" gradientUnits="userSpaceOnUse"><stop stop-color="#fcc2b1"/><stop offset=".885" stop-color="#d9420b"/></linearGradient><linearGradient id="B" x1="35.974" y1="57.171" x2="35.974" y2="24.532" gradientUnits="userSpaceOnUse"><stop stop-color="#deedc9"/><stop offset=".661" stop-color="#8bba25"/></linearGradient><linearGradient id="C" x1="35.974" y1="43.955" x2="35.974" y2="-.461" gradientUnits="userSpaceOnUse"><stop stop-color="#c2ebfa"/><stop offset="1" stop-color="#26a8de"/></linearGradient></defs><linearGradient gradientUnits="userSpaceOnUse" x1="3.78" x2="44.22" y1="34.795" y2="34.795"><stop offset="0" stop-color="#ffe031"/><stop offset="1" stop-color="#fa0075"/></linearGradient><linearGradient gradientUnits="userSpaceOnUse" x1="19.97" x2="18.573" y1="20.458" y2="36.472"><stop offset="0" stop-color="#43e97b"/><stop offset=".978" stop-color="#38f9d7"/></linearGradient><linearGradient gradientUnits="userSpaceOnUse" x1="3.998" x2="43.998" y1="13.225" y2="13.225"><stop offset="0" stop-color="#00c6ff"/><stop offset=".987" stop-color="#0072ff"/></linearGradient><g transform="matrix(.531144 0 0 .588383 4.878873 4.240124)" fill-rule="evenodd"><path d="M31.503 65.774L1.892 52.181c-2.522-1.187-2.522-3.021 0-4.1l10.309-4.747 19.193 8.847c2.523 1.187 6.58 1.187 8.993 0l19.193-8.847 10.309 4.747c2.522 1.187 2.522 3.021 0 4.1L40.277 65.774c-2.303 1.079-6.361 1.079-8.774 0z" fill="url(#A)"/><path d="M31.503 49.052L1.892 35.458c-2.522-1.187-2.522-3.021 0-4.1l10.09-4.639 19.522 8.955c2.522 1.187 6.58 1.187 8.993 0l19.522-8.955 10.09 4.639c2.522 1.187 2.522 3.021 0 4.1L40.496 49.052c-2.522 1.187-6.58 1.187-8.993 0z" fill="url(#B)"/><path d="M31.503 32.761L1.892 19.167c-2.522-1.187-2.522-3.021 0-4.1L31.503 1.473c2.522-1.187 6.58-1.187 8.993 0l29.612 13.594c2.522 1.187 2.522 3.021 0 4.1L40.496 32.761c-2.522 1.079-6.58 1.079-8.993 0z" fill="url(#C)"/></g></svg>