<svg xmlns="http://www.w3.org/2000/svg" width="48" height="48" xmlns:v="https://vecta.io/nano"><ellipse cx="23.967" cy="24.323" rx="18.06" ry="17.819" fill="#fff" fill-rule="evenodd" paint-order="stroke fill markers"/><path d="M24 2.988C12.546 2.988 3.261 12.396 3.261 24S12.546 45.012 24 45.012 44.739 35.604 44.739 24 35.454 2.988 24 2.988zm13.288 17.716l-1.333.325a12.07 12.07 0 0 0-1.398-3.392l1.175-.708a13.4 13.4 0 0 1 1.556 3.775zm-23.133 7.64a10.87 10.87 0 0 1-.748-2.399c-1.976-10.487 10.717-17.283 18.351-9.832s1.147 20.305-9.385 18.583a10.91 10.91 0 0 1-4.03-1.526l-1.591.373-1.672.391-1.291.303.298-1.298.387-1.684.369-1.609c-.258-.418-.488-.853-.688-1.301zm18.002-15.332c1.128.83 2.121 1.83 2.944 2.963l-1.112.805a12.2 12.2 0 0 0-2.645-2.662zm-4.805-2.243c1.361.33 2.662.872 3.855 1.604l-.716 1.17c-1.073-.658-2.242-1.145-3.465-1.442zm-3.203-.382c.696 0 1.392.053 2.08.159l-.211 1.356c-1.249-.192-2.52-.191-3.768.005l-.214-1.355a13.57 13.57 0 0 1 2.114-.164zm-3.237.39l.329 1.333a12.07 12.07 0 0 0-3.445 1.441l-.717-1.17a13.44 13.44 0 0 1 3.833-1.604zm-4.783 2.244l.815 1.106a12.21 12.21 0 0 0-2.578 2.578l-1.105-.813a13.58 13.58 0 0 1 2.868-2.871zm-3.509 3.819l1.17.717a12.09 12.09 0 0 0-1.449 3.479l-1.333-.324c.331-1.367.875-2.674 1.612-3.872zm-1.992 7.067c0-.694.053-1.386.158-2.072l1.356.21c-.19 1.235-.189 2.491.002 3.726l-1.357.211c-.106-.687-.159-1.38-.159-2.075zm1.716 2.874c.125.523.286 1.037.483 1.538a12.11 12.11 0 0 0 .89 1.817l-.441 1.808-.017.067-1.249-.343.3-1.229c-.58-1.048-1.018-2.17-1.3-3.334zm.311 10.17a1.3 1.3 0 0 1-1.552-1.571l.641-2.626 1.25.344-.621 2.543 2.569-.596.361 1.292zm8.272.089c-1.131-.276-2.221-.698-3.243-1.256l-1.292.3-.36-1.293.074-.017 1.832-.425a12.13 12.13 0 0 0 1.927.928c.454.171.918.315 1.39.429zm3.222.387a13.47 13.47 0 0 1-2.098-.163l.212-1.355a12.25 12.25 0 0 0 3.751.002l.211 1.356c-.687.106-1.381.159-2.076.159zm3.199-.381l-.325-1.333a12.08 12.08 0 0 0 3.448-1.43l.714 1.171a13.45 13.45 0 0 1-3.836 1.591zm4.787-2.228l-.81-1.108a12.23 12.23 0 0 0 2.63-2.63l1.108.81a13.61 13.61 0 0 1-2.928 2.928zM35.7 30.94l-1.172-.714c.654-1.073 1.138-2.241 1.433-3.463l1.334.323c-.327 1.36-.865 2.66-1.594 3.853zm1.815-4.977l-1.357-.209a12.27 12.27 0 0 0-.002-3.716l1.356-.211c.21 1.371.211 2.765.004 4.136z" fill="#242ffd"/></svg>