<svg xmlns="http://www.w3.org/2000/svg" width="32" height="32" xmlns:v="https://vecta.io/nano"><path fill="#d6dbf1" d="M16.024 12.658c1.159 0 2.1-.929 2.1-2.073V2.038c0-1.144-.94-2.073-2.1-2.073s-2.1.929-2.1 2.073v8.546c0 1.144.94 2.073 2.1 2.073m8.021-9.374c-.83-.482-1.893-.209-2.388.614a1.71 1.71 0 0 0 .622 2.359c3.591 2.096 5.944 5.808 5.948 10.236-.013 6.662-5.464 12.053-12.203 12.065-6.739-.012-12.192-5.403-12.203-12.065.004-4.428 2.357-8.14 5.95-10.236a1.71 1.71 0 0 0 .62-2.359c-.488-.821-1.555-1.096-2.386-.612v-.002C3.412 5.94.33 10.815.335 16.49c0 8.57 6.712 15.514 15.691 15.514 8.892 0 15.689-6.944 15.691-15.514.006-5.677-3.081-10.553-7.67-13.207z"/></svg>