<svg xmlns="http://www.w3.org/2000/svg" width="32" height="32"><defs><linearGradient id="b" href="#a"><stop stop-color="#2a2c2f"/><stop offset="1" stop-color="#424649"/></linearGradient><linearGradient id="d" x1="0" x2="0" y1="537.798" y2="531.798" href="#b"/><linearGradient id="f" x1="0" x2="0" y1="-531.798" y2="-521.798" href="#b"/><linearGradient id="c" x2="0" y1="541.798" y2="517.798" href="#a"><stop stop-color="#21c9fb"/><stop offset="1" stop-color="#197cf1"/></linearGradient><linearGradient id="e" x1="393.571" x2="407.571" y1="522.798" y2="536.798" href="#a"><stop stop-color="#292c2f"/><stop offset="1" stop-opacity="0"/></linearGradient><linearGradient id="h" x1="0" x2="0" y1="544.798" y2="540.798" href="#a"><stop stop-color="#c6cdd1"/><stop offset="1" stop-color="#e0e5e7"/></linearGradient><linearGradient id="g" x1="-3" x2="-3" y1="540.798" y2="517.798" href="#b"/><linearGradient id="a" gradientUnits="userSpaceOnUse"/></defs><g transform="translate(-384.571 -515.798)"><rect width="32" height="22" x="384.571" y="517.798" fill="url(#c)" rx="3"/><path fill="url(#d)" d="M384.571 534.798h32v3h-32z"/><rect width="12" height="12" x="394.571" y="520.798" fill="#ebf9fe" opacity=".3" rx="6"/><path fill="url(#e)" fill-rule="evenodd" d="m404.571 523.698-7 7.1 10 10h9v-5z" opacity=".2"/><rect width="10" height="10" x="395.571" y="-531.798" fill="url(#f)" rx="5" transform="scale(1 -1)"/><path fill="#fff" fill-rule="evenodd" d="M398.571 523.798v6l4.5-3z"/><path fill="url(#g)" d="M384.571 520.798v17q0 3 3 3h25.876c2.124 0 3.124-1 3.124-3v-17q0-3-3-3h-26.107c-1.893 0-2.893 1-2.893 3m1 0c0-1.496.707-2 2.012-2h26.091c1.331 0 1.896.661 1.896 2v16h-30z"/><path fill="url(#h)" d="M397.571 540.798h6v4h-6z"/><path fill="#99a1a7" d="M394.571 544.798h12v1h-12z"/><path fill="#3092df" d="M386.571 535.798h15v1h-15z"/><path fill="#1c1e20" d="M400.571 535.798h14v1h-14z"/><path fill="#daebf9" d="M399.571 535.798h1v1h-1z"/></g></svg>