<svg xmlns="http://www.w3.org/2000/svg" width="32" height="32"><defs><linearGradient id="a" x1="398.571" x2="348.571" y1="545.798" y2="503.798" gradientUnits="userSpaceOnUse"><stop offset="0" stop-color="#343b40"/><stop offset="1" stop-color="#555e63"/></linearGradient><linearGradient id="b" x1="372.571" x2="372.571" y1="545.798" y2="503.798" gradientUnits="userSpaceOnUse"><stop offset="0" stop-color="#bd8d48"/><stop offset="1" stop-color="#e8b971"/></linearGradient><path id="c" d="m106.24 636.718-.144-1.024 3.23-3.586q.325-.363.625-.937a7 7 0 0 0 .444-.975l.144-.394q0-.774-.431-1.199c-.431-.425-.695-.431-1.224-.431q-1.324 0-2.086.768l-.362-.937q.862-.812 2.524-.812 1.274 0 2.03.693c.756.693.756 1.072.756 1.843l-.075.237-.219.568-.344.806q-.181.381-.462.837c-.281.456-.371.558-.562.762l-2.636 2.817h4.329l-.069.962h-5.466"/></defs><g transform="matrix(.66667 0 0 .66667 -232.38 -333.865)"><rect width="48" height="42" x="348.571" y="503.798" fill="url(#a)" rx="4.406"/><path fill="url(#b)" d="M351.721 503.798c-1.568-.051-3.05 1.385-3.15 3v36c.173 1.515 1.604 2.878 3.05 3h41.951c1.765-.268 2.816-1.569 3-3.15v-35.85c.01-1.577-1.45-2.826-3-3h-41.951zm-.15 3h42v36h-42z"/><path fill="#aa7f41" fill-opacity=".498" d="M351.571 506.73v36.068h42V506.73zm1.5 1.568h39v33h-39z"/><path fill="#007ad9" d="M377.071 539.798h6v1.5h-6z"/><path fill="#d6d6d6" d="M384.571 539.798h6v1.5h-6z"/><g fill="#f2f2f2" transform="rotate(-24.276 -1.656 -.356)"><use href="#c"/><path d="M116.485 632.232h2.436v.85h-2.443v2.68h-.856v-2.68h-2.48v-.85h2.486v-2.649h.856v2.649"/><use x="14.019" href="#c"/><path d="M127.349 634.362v-.887h6.028v.887zm-.006-2.636v-.9h6.035v.9zm13.862 2.674h-1.062v2.318h-1.049V634.4h-4.223v-.956l4.104-6.072h1.168v6.122h1.149l-.088.906m-2.111-5.61-3.123 4.704h3.123z"/></g></g></svg>