<svg xmlns="http://www.w3.org/2000/svg" width="32" height="32"><defs><linearGradient id="e" x1="0" x2="0" y1="541.029" y2="538.598" href="#a"><stop offset="0" stop-color="#bd8d48"/><stop offset="1" stop-color="#e8b971"/></linearGradient><linearGradient id="f" x1="0" x2="0" y1="540.775" y2="545.212" href="#a"><stop offset="0" stop-color="#232629" stop-opacity=".204"/><stop offset="1" stop-color="#232629" stop-opacity="0"/></linearGradient><linearGradient id="c" x1="17" x2="30" y1="12" y2="25" href="#a"><stop offset="0" stop-color="#383e51"/><stop offset="1" stop-color="#655c6f" stop-opacity="0"/></linearGradient><linearGradient id="b" x2="0" y1="545.798" y2="517.798" href="#a"><stop offset="0" stop-color="#343b40"/><stop offset="1" stop-color="#555e63"/></linearGradient><linearGradient id="d" x2="0" y1="538.798" y2="522.798" href="#a"><stop offset="0" stop-color="#c6cdd1"/><stop offset="1" stop-color="#e0e5e7"/></linearGradient><linearGradient id="g" x2="0" y1="22" y2="15" href="#a"><stop offset="0" stop-color="#42a603"/><stop offset="1" stop-color="#78da06"/></linearGradient><linearGradient id="a" gradientUnits="userSpaceOnUse"/></defs><g transform="translate(-384.571 -515.798)"><circle cx="400.571" cy="531.79" r="14" fill="url(#b)"/><g fill-rule="evenodd"><path fill="url(#c)" d="M17 7v9l6 6v1h5.104a14 14 0 0 0 1.756-5.141L19 7z" opacity=".2" transform="translate(384.571 515.798)"/><path fill="url(#d)" d="M393.571 537.798v1h14v-1l-5-8v-6h1v-1h-6v1h1v6z"/></g><path fill="url(#e)" d="M386.571 538.79h28v2h-28z"/><g fill-rule="evenodd"><path fill="url(#f)" d="m389.853 540.759 21.404.016s-3.622 4.983-10.685 5.016c-7.234-.312-10.719-5.031-10.719-5.031z"/><path fill="url(#g)" d="m14 16-3.7 6h11.4L18 16h-2z" transform="translate(384.571 515.798)"/></g></g></svg>