<svg xmlns="http://www.w3.org/2000/svg" width="32" height="32"><defs><filter id="c" width="1.117" height="1.114" x="-.053" y="-.05" color-interpolation-filters="sRGB"><feFlood flood-color="#000" flood-opacity=".498" result="A"/><feGaussianBlur in="SourceGraphic" stdDeviation=".5"/><feOffset dx=".229" dy=".338"/><feComposite in="A" operator="in"/><feComposite in="SourceGraphic"/></filter><filter id="b" width="1" height="1" x="0" y="0" color-interpolation-filters="sRGB"><feColorMatrix values="1.2 0 0 -0.0297 -0.1 0 1.2 0 -0.0297 -0.1 0 0 1.2 -0.0297 -0.1 0 0 0 1 0"/></filter><linearGradient id="a" x1="1.699" x2="29.792" y1="-15.98" y2="-15.98" gradientUnits="userSpaceOnUse"><stop offset="0" stop-color="#fff"/></linearGradient></defs><circle cx="15.746" cy="-15.98" r="14.047" fill="url(#a)" filter="url(#b)" transform="rotate(90)"/><g filter="url(#c)" transform="matrix(.89237 0 0 .89237 1.715 1.486)"><path fill="#268cf0" d="M25.773 16c0-5.305-4.375-9.602-9.773-9.602S6.23 10.695 6.23 16s4.375 9.602 9.77 9.602 9.773-4.297 9.773-9.602m0 0"/><path fill="#33dec2" d="M26.75 10.316c-1.32-2.687-4.836-3.664-7.852-2.184s-4.391 4.859-3.07 7.547 4.836 3.664 7.852 2.188c3.016-1.484 4.391-4.863 3.07-7.551m0 0"/><path fill="#ffbf05" d="M21.496 22c0-3.312-2.457-6-5.496-6s-5.492 2.688-5.492 6 2.457 6 5.492 6 5.496-2.687 5.496-6m0 0"/><path fill="#fa8200" d="M16.172 16.316c-1.32-2.684-4.836-3.664-7.852-2.184s-4.39 4.864-3.07 7.548 4.836 3.668 7.852 2.188 4.391-4.863 3.07-7.551zm0 0"/><path fill="#fa3d2e" d="M13.102 8.133c-3.016-1.477-6.531-.5-7.852 2.188s.055 6.063 3.07 7.547 6.531.504 7.852-2.184-.055-6.066-3.07-7.551m0 0"/><path fill="#a342c7" d="M16 4a5.764 5.764 0 0 0-5.496 6A5.764 5.764 0 0 0 16 16c-1.516-2.582-.383-6.02 2.539-7.676a6.7 6.7 0 0 1 2.453-.816A5.5 5.5 0 0 0 16 4m0 12a5.57 5.57 0 0 0 5.227-4.148 6.5 6.5 0 0 1-.742 1.602A5.37 5.37 0 0 0 16 16m5.227-4.148.133-.531zm-.172-4.187.187.547zm.195.57.109.477zm.141.625.055.383zm.078.617.027.523-.023-.52zm.016.789-.023.391zm-.043.531-.074.465zm0 0"/><path fill="#009487" d="M20.57 13.445A5.38 5.38 0 0 0 16 16a5.764 5.764 0 0 1 5.496 6c0 .859-.172 1.703-.504 2.492A5.53 5.53 0 0 0 26.578 22c1.516-2.582.383-6.02-2.539-7.68a6.7 6.7 0 0 0-3.469-.875m0 0"/><path fill="#02a8f3" d="M22.008 7.445a6.7 6.7 0 0 0-3.469.879C15.621 9.98 14.484 13.418 16 16a5.38 5.38 0 0 1 4.57-2.555 6.74 6.74 0 0 1 5.418 2.547 5.315 5.315 0 0 0 .59-5.992 5.38 5.38 0 0 0-4.57-2.555M16 16a5.36 5.36 0 0 0 4.492 2.547A5.35 5.35 0 0 0 16 16m0 0"/><path fill="#ffbf05" d="M16 16a4.24 4.24 0 0 0 4.492 2.547A5.35 5.35 0 0 0 16 16m0 0"/></g></svg>