<svg xmlns="http://www.w3.org/2000/svg" xmlns:xlink="http://www.w3.org/1999/xlink" xml:space="preserve" width="32" height="32"><defs><linearGradient id="d"><stop offset="0" style="stop-color:#000;stop-opacity:.25260049"/><stop offset="1" style="stop-color:#424242;stop-opacity:0"/></linearGradient><linearGradient id="c"><stop offset="0" style="stop-color:#4d5668;stop-opacity:1"/><stop offset="1" style="stop-color:#6a7385;stop-opacity:1"/></linearGradient><linearGradient id="b"><stop offset="0" style="stop-color:#838995;stop-opacity:1"/><stop offset="1" style="stop-color:#9ca3ae;stop-opacity:1"/></linearGradient><linearGradient xlink:href="#b" id="f" x1="2.201" x2="29.8" y1="4" y2="4" gradientUnits="userSpaceOnUse"/><linearGradient xlink:href="#c" id="e" x1="2" x2="30" y1="16" y2="16" gradientUnits="userSpaceOnUse"/><linearGradient xlink:href="#d" id="g" x1="17.324" x2="27.666" y1="17.059" y2="27.4" gradientUnits="userSpaceOnUse"/></defs><rect width="28" height="28" x="2" y="2" rx="5" ry="5" style="fill:url(#e)"/><path d="M7 2a5 5 0 0 0-3.54 1.46 5 5 0 0 0-1.067 1.59c-.123.292-.126.633-.192.95H29.8c-.066-.317-.069-.658-.192-.95a5 5 0 0 0-2.658-2.657A5 5 0 0 0 25 2z" style="opacity:1;vector-effect:none;fill:url(#f);fill-opacity:1;fill-rule:nonzero;stroke:none;stroke-width:1;stroke-linecap:round;stroke-linejoin:round;stroke-miterlimit:4;stroke-dasharray:none;stroke-dashoffset:0;stroke-opacity:1;paint-order:stroke fill markers"/><path d="M7 30a5 5 0 0 1-3.54-1.46 5 5 0 0 1-1.067-1.59c-.123-.292-.126-.633-.192-.95H29.8c-.066.317-.069.658-.192.95a5 5 0 0 1-2.658 2.657A5 5 0 0 1 25 30Z" style="opacity:.3;vector-effect:none;fill:#000;fill-opacity:1;fill-rule:nonzero;stroke:none;stroke-width:1;stroke-linecap:round;stroke-linejoin:round;stroke-miterlimit:4;stroke-dasharray:none;stroke-dashoffset:0;stroke-opacity:1;paint-order:stroke fill markers"/><path d="M19.334 11.677a.62.62 0 0 0-.469.25L15.95 16.9s-4.03-4.914-4.13-5.014a.623.623 0 0 0-.88 0l-3.95 3.95a.625.625 0 0 0 0 .88l3.934 3.932 9.831 9.362 17.427-.03s-12.27-14.046-12.387-14.162l-3.934-3.932a.623.623 0 1 0-.88.88l3.492 3.493-.502 1.14s-4.128-5.517-4.235-5.597a.62.62 0 0 0-.402-.125" style="fill:url(#g);fill-opacity:1;stroke-width:.0830549"/><g style="fill:#efefef;fill-opacity:1"><path d="M60.357 63.289a7.5 7.5 0 0 0-10.606-.001L2.197 110.836a7.5 7.5 0 0 0-.001 10.607l47.348 47.35a7.48 7.48 0 0 0 5.304 2.197 7.498 7.498 0 0 0 5.304-12.802L18.107 116.14l42.25-42.245a7.5 7.5 0 0 0 0-10.606M228.598 110.639l-47.355-47.352a7.5 7.5 0 0 0-10.606.001 7.5 7.5 0 0 0 .001 10.607l42.051 42.048-42.249 42.243a7.5 7.5 0 0 0-.001 10.606 7.48 7.48 0 0 0 5.304 2.197 7.48 7.48 0 0 0 5.303-2.196l47.554-47.547a7.497 7.497 0 0 0-.002-10.607M155.889 61.302a7.5 7.5 0 0 0-10.498 1.51l-71.994 96.184a7.5 7.5 0 0 0 1.51 10.498 7.46 7.46 0 0 0 4.488 1.496 7.49 7.49 0 0 0 6.01-3.006L157.398 71.8a7.5 7.5 0 0 0-1.509-10.498" style="fill:#efefef;fill-opacity:1" transform="matrix(.08305 0 0 .08305 6.708 6.583)"/></g></svg>