<svg xmlns="http://www.w3.org/2000/svg" width="32" height="32"><defs><linearGradient id="a" x1="386.571" x2="414.571" y1="545.798" y2="517.798" gradientUnits="userSpaceOnUse"><stop offset="0" stop-color="#00b7b7"/><stop offset="1" stop-color="#ab89de"/></linearGradient><linearGradient id="b" x1="-76.14" x2="-38.257" y1="-9.751" y2="37.106" gradientUnits="userSpaceOnUse"><stop offset="0" stop-color="#c6afe9"/><stop offset="1" stop-color="teal"/></linearGradient></defs><g transform="translate(-384.571 -515.798)"><rect width="28" height="28" x="386.571" y="517.798" fill="url(#a)" rx="14"/><rect width="40" height="40" x="-73.14" y="-5.751" fill="url(#b)" opacity=".094" rx="20" transform="matrix(.7 0 0 .7 437.77 521.824)"/><path fill="#d8dee9" d="m400.564 523.798-10.785 5.195v.485l10.785 5.195 10.794-5.2v-.475zm-7.048 8.427v3.108l6.502 3.132h1.093l6.484-3.123.018-.041v-3.075l-7.048 3.395zm15.295 6.448.841 1.125h.284l.841-1.125-.556-1.694v-6.046l-.854.431v5.615z"/></g></svg>