<svg xmlns="http://www.w3.org/2000/svg" width="32" height="32"><defs><linearGradient id="a" gradientUnits="userSpaceOnUse"><stop offset="0"/><stop offset="1" stop-opacity="0"/></linearGradient><linearGradient id="b" x1="401.912" x2="348.536" y1="548.84" y2="503.983" gradientUnits="userSpaceOnUse"><stop offset="0" stop-color="#343b40"/><stop offset="1" stop-color="#555e63"/></linearGradient><linearGradient id="c" x1="374.156" x2="374.156" y1="548.84" y2="503.982" gradientUnits="userSpaceOnUse"><stop offset="0" stop-color="#bd8d48"/><stop offset="1" stop-color="#e8b971"/></linearGradient><linearGradient id="d" x1="648.523" x2="656.405" y1="93.5" y2="93.5" gradientTransform="skewX(.029)" href="#a"/><linearGradient id="e" x1="399.405" x2="403.938" y1="539.86" y2="544.393" href="#a"/><linearGradient id="f" x1="408.436" x2="413.928" y1="529.674" y2="535.166" href="#a"/></defs><g transform="matrix(.66614 0 0 .6658 -232.173 -333.421)"><rect width="48" height="42" x="348.571" y="503.798" fill="url(#b)" rx="4.508" ry="4.491"/><path fill="url(#c)" d="M353.069 503.834c-2.96-.056-4.501 1.482-4.533 4.41l.086 33.028c-.051 3.026 1.387 4.514 4.415 4.565l38.956-.034c2.96.029 4.602-1.466 4.507-4.623l.074-32.875c.03-2.951-1.584-4.503-4.248-4.521zm-1.497 2.964h42v36h-42z"/><g fill="#aa7f41"><rect width="38.891" height="1.589" x="352.864" y="544.172" rx=".848" ry=".849"/><path fill-opacity=".498" d="M351.571 506.73v36.068h42V506.73zm1.5 1.568h39v33h-39z"/></g></g><g fill="none" stroke="#d6d6d6" transform="translate(-384.571 -515.798)"><ellipse cx="-531.312" cy="400.403" rx="7.959" ry="3.279" transform="rotate(270)"/><ellipse cx="-667.781" cy="132.183" stroke-width="1.004" rx="9.708" ry="4.281" transform="scale(-1.05724 .93928)rotate(-45)"/><ellipse cx="400.403" cy="531.313" rx="8.899" ry="3.277"/></g><path fill="url(#d)" d="M648.767 91.53h19.056v3.729h-19.056z" opacity=".2" transform="rotate(44.986 430.557 -722.282)"/><path fill="url(#e)" d="m400.686 537.398-2.638 2.637 4.429 4.427h5.275z" opacity=".2" transform="translate(-384.571 -515.798)"/><path fill="url(#f)" d="m409.094 528.012-2.636 2.635 8.976 8.973v-5.272z" opacity=".2" transform="translate(-384.571 -515.798)"/><path fill="#54a3d8" d="M8.338 7.088a1.873 1.873 0 1 0-.002 3.746 1.873 1.873 0 0 0 .002-3.746"/><path fill="#e05e4c" d="M23.326 11.769a1.873 1.873 0 1 0-.002 3.746 1.873 1.873 0 0 0 .002-3.746"/><path fill="#ffa92d" d="M14.895 21.132a1.872 1.872 0 1 0 0 3.746 1.874 1.874 0 1 0 0-3.746"/></svg>