<svg xmlns="http://www.w3.org/2000/svg" width="34.133" height="34.133" viewBox="0 0 32 32"><defs><linearGradient id="a" x1="398.571" x2="348.571" y1="545.798" y2="503.798" gradientUnits="userSpaceOnUse"><stop offset="0" stop-color="#343b40"/><stop offset="1" stop-color="#555e63"/></linearGradient><linearGradient id="b" x1="372.571" x2="372.571" y1="545.798" y2="503.798" gradientUnits="userSpaceOnUse"><stop offset="0" stop-color="#bd8d48"/><stop offset="1" stop-color="#e8b971"/></linearGradient></defs><g transform="matrix(.66667 0 0 .66667 -232.38 -333.865)"><rect width="48" height="42" x="348.571" y="503.798" fill="url(#a)" rx="4.222" ry="4.205"/><path fill="url(#b)" d="M353.069 503.834c-2.96-.056-4.501 1.482-4.533 4.41l.086 33.028c-.051 3.026 1.387 4.514 4.415 4.565l38.956-.034c2.96.029 4.602-1.466 4.507-4.623l.074-32.875c.03-2.951-1.584-4.503-4.248-4.521zm-1.497 2.964h42v36h-42z"/><g fill="#aa7f41"><rect width="38.891" height="1.589" x="352.864" y="544.172" ry=".794"/><path fill-opacity=".498" d="M351.571 506.73v36.068h42V506.73zm1.5 1.568h39v33h-39z"/></g></g><path fill="#f2f2f2" d="M7 17v5h3v1H5v1h5v2h1v-2h5v-1h-5v-1h3v-5H8zm1 1h5v1H8zm0 2h5v1H8zm3.971-8.928L10.5 7l-1.434 4.072zM13.369 15l-1.056-3.048H8.712L7.619 15H6.545l3.467-9h1.08l3.363 9zM20 11.002v2.997h2.171q.982 0 1.453-.404c.471-.404.476-.689.476-1.248s-.159-.676-.476-.942-.798-.404-1.453-.404H20M20 7v3.013h2.22c.595 0 1.071-.111 1.36-.332s.44-.867.44-1.325-.147-.794-.44-1.019-.765-.338-1.36-.338H20m-1-1.001h3.111q1.392 0 2.146.579c.754.579.754.934.754 1.646 0 .551-.129 1.289-.386 1.614s-.635.528-1.133.609c1.247.31 1.865 1.171 1.893 2.033q0 1.206-.82 1.863c-.82.657-1.324.657-2.333.657h-3.231v-9M22 17v8h-4v1h9v-1h-4v-5h4v-1h-4v-2z"/></svg>