<svg xmlns="http://www.w3.org/2000/svg" width="32" height="32"><defs><linearGradient id="d" x2="0" y1="525.798" y2="545.798" href="#a"><stop stop-color="#a82936"/><stop offset="1" stop-color="#da4453"/></linearGradient><linearGradient id="e" x1="384.571" x2="384.571" y1="528.798" y2="523.798" href="#a"><stop stop-color="#da4453"/></linearGradient><linearGradient id="f" x1="389.571" x2="405.571" y1="527.798" y2="543.798" href="#b"/><linearGradient id="c" href="#a"><stop stop-color="#c6cdd1"/><stop offset="1" stop-color="#e0e5e7"/></linearGradient><linearGradient id="b" href="#a"><stop stop-color="#383e51"/><stop offset="1" stop-color="#655c6f" stop-opacity="0"/></linearGradient><linearGradient id="i" x2="0" y1="17" y2="12" href="#c"/><linearGradient id="h" x2="0" y1="532.798" y2="527.798" href="#c"/><linearGradient id="g" x1="21" x2="37" y1="12" y2="28" href="#b"/><linearGradient id="a" gradientUnits="userSpaceOnUse"/></defs><path fill="#4d4d4d" d="M11 2C9.338 2 8 3.338 8 5v3c0 1.309.835 2.407 2 2.818V5a1 1 0 0 1 1-1h10a1 1 0 0 1 1 1v5.818A2.98 2.98 0 0 0 24 8V5c0-1.662-1.338-3-3-3z"/><path fill="url(#d)" d="M384.571 527.798h32v18h-32z" transform="translate(-384.571 -515.798)"/><g fill-rule="evenodd"><path fill="url(#e)" d="m387.571 523.798-3 2v3h32v-3l-3-2z" transform="translate(-384.571 -515.798)"/><path fill="url(#f)" d="M389.571 532.798v-5h5l18 18h-10z" opacity=".2" transform="translate(-384.571 -515.798)"/><path fill="url(#g)" d="M21 12v5l11 11V18l-6-6z" opacity=".2"/></g><path fill="url(#h)" d="M405.571 527.798v5h5v-5zm1 1h3v3h-3z" transform="translate(-384.571 -515.798)"/><path fill="#aa2a37" d="M0 29h32v1H0z"/><path fill="url(#i)" d="M5 12v5h5v-5zm1 1h3v3H6z"/></svg>