<svg xmlns="http://www.w3.org/2000/svg" viewBox="0 0 32 32"><defs><linearGradient id="a" x1="385.831" x2="413.834" y1="517.061" y2="545.061" gradientUnits="userSpaceOnUse"><stop offset="0" stop-color="#21c9fb"/><stop offset="1" stop-color="#1a86f2"/></linearGradient><linearGradient id="b" x1="386.794" x2="414.571" y1="518.02" y2="545.798" gradientUnits="userSpaceOnUse"><stop offset="0"/><stop offset="1" stop-opacity="0"/></linearGradient><path id="c" d="M389.571 520.798v10h10v-10zm1 1h8v8h-8z"/></defs><g transform="translate(-384.571 -515.798)"><path fill="url(#a)" d="M386.571 521.798v20c0 2 2 4 3.921 4h20.054c2.025 0 4.025-2 4.025-4v-20c0-2-2-4-3.99-4h-20.097c-1.912 0-3.912 2-3.912 4z"/><path fill="url(#b)" fill-rule="evenodd" d="m389.571 542.798 2.778 3h22.222v-22l-3-3v10h-10v-8l-2-2v10h-10l2 2h8v10z" opacity=".2"/><rect width="20" height="1" x="390.571" y="544.798" opacity=".15" ry=".453"/><g fill="#fff"><use href="#c"/><use x="12" href="#c"/><use y="12" href="#c"/><use x="12" y="12" href="#c"/></g></g></svg>