<svg xmlns="http://www.w3.org/2000/svg" width="22" height="22" fill="#5e81ac" xmlns:v="https://vecta.io/nano"><path d="M17.543 11.838v2.358l.046 1.048a2.65 2.65 0 0 0-.676-.529c-.225-.124-.502-.186-.828-.186-.42 0-.816.136-1.19.41-.365.274-.665.667-.898 1.179-.225.513-.338 1.122-.338 1.83 0 1.069.215 1.905.643 2.505a2 2 0 0 0 1.713.901 1.7 1.7 0 0 0 .888-.25c.28-.168.523-.37.733-.609h.046l.095.702h1.107v-9.359zm-14.127.695v8.67h1.352v-3.181h1.097c.552 0 1.046-.101 1.481-.304a2.3 2.3 0 0 0 1.037-.929c.257-.415.384-.94.384-1.577 0-.672-.128-1.203-.384-1.592a2.13 2.13 0 0 0-1.05-.836c-.443-.168-.947-.25-1.515-.25zm1.352 1.233h.944c.567 0 .995.105 1.282.317.295.203.444.58.444 1.128 0 .521-.141.914-.421 1.179-.272.265-.692.397-1.259.397h-.991zm6.479.64c-.637 0-1.142.182-1.515.544s-.56.829-.56 1.404c0 .345.074.64.222.888a2.21 2.21 0 0 0 .593.612c.241.159.502.295.782.41l.593.266a1.38 1.38 0 0 1 .431.317c.117.124.175.275.175.452a.76.76 0 0 1-.222.555c-.148.15-.375.227-.686.227a2.24 2.24 0 0 1-.841-.16 2.55 2.55 0 0 1-.779-.516l-.596.875a2.98 2.98 0 0 0 .991.702c.389.168.783.253 1.179.253.482 0 .886-.089 1.213-.266a1.92 1.92 0 0 0 .756-.73 2.07 2.07 0 0 0 .258-1.019c0-.38-.079-.694-.235-.942a1.75 1.75 0 0 0-.606-.622 4.44 4.44 0 0 0-.826-.426l-.619-.25c-.171-.088-.304-.186-.397-.292-.085-.115-.126-.254-.126-.413a.69.69 0 0 1 .209-.503c.14-.141.355-.212.643-.212a1.85 1.85 0 0 1 .663.119 2.19 2.19 0 0 1 .619.372l.593-.862a2.72 2.72 0 0 0-.839-.557c-.327-.15-.685-.224-1.073-.224zm5.711 1.501c.194.08.389.22.583.423v3.037c-.187.247-.376.434-.57.557a1.21 1.21 0 0 1-.63.17 1.06 1.06 0 0 1-.957-.555c-.225-.371-.338-.907-.338-1.605 0-.46.059-.848.175-1.166.124-.318.283-.562.477-.73.469-.39 1.031-.225 1.259-.132zM6.844.098a1.264 1.264 0 0 0 0 2.528 1.264 1.264 0 0 0 0-2.528m0 .843a.422.422 0 0 1 0 .843.422.422 0 0 1 0-.843m8.004.843L10.13 6.485 7.94 4.311 2.885 9.366H4.07l2.628-2.597 1.186-1.183 1.318 1.195.928.9 4.718-4.548 3.028 2.863h1.185z"/></svg>